<?xml version="1.0" encoding="UTF-8" standalone="no"?>
<svg
   xmlns:dc="http://purl.org/dc/elements/1.1/"
   xmlns:cc="http://creativecommons.org/ns#"
   xmlns:rdf="http://www.w3.org/1999/02/22-rdf-syntax-ns#"
   xmlns:svg="http://www.w3.org/2000/svg"
   xmlns="http://www.w3.org/2000/svg"
   width="161.80341mm"
   height="100mm"
   viewBox="0 0 161.80341 99.999999"
   version="1.1"
   id="svg8">
  <defs
     id="defs2">
    <marker
       orient="auto"
       refY="0.0"
       refX="0.0"
       id="marker7266"
       style="overflow:visible;">
      <path
         id="path7264"
         d="M 0.0,0.0 L 5.0,-5.0 L -12.5,0.0 L 5.0,5.0 L 0.0,0.0 z "
         style="fill-rule:evenodd;stroke:#000000;stroke-width:1pt;stroke-opacity:1;fill:#000000;fill-opacity:1"
         transform="scale(0.4) rotate(180) translate(10,0)" />
    </marker>
    <marker
       orient="auto"
       refY="0.0"
       refX="0.0"
       id="marker7190"
       style="overflow:visible">
      <path
         id="path7188"
         d="M -2.5,-1.0 C -2.5,1.7600000 -4.7400000,4.0 -7.5,4.0 C -10.260000,4.0 -12.5,1.7600000 -12.5,-1.0 C -12.5,-3.7600000 -10.260000,-6.0 -7.5,-6.0 C -4.7400000,-6.0 -2.5,-3.7600000 -2.5,-1.0 z "
         style="fill-rule:evenodd;stroke:#000000;stroke-width:1pt;stroke-opacity:1;fill:#000000;fill-opacity:1"
         transform="scale(0.2) translate(7.4, 1)" />
    </marker>
    <marker
       orient="auto"
       refY="0.0"
       refX="0.0"
       id="marker5734"
       style="overflow:visible;">
      <path
         id="path5732"
         d="M 0.0,0.0 L 5.0,-5.0 L -12.5,0.0 L 5.0,5.0 L 0.0,0.0 z "
         style="fill-rule:evenodd;stroke:#ff0000;stroke-width:1pt;stroke-opacity:1;fill:#ff0000;fill-opacity:1"
         transform="scale(0.4) rotate(180) translate(10,0)" />
    </marker>
    <marker
       orient="auto"
       refY="0.0"
       refX="0.0"
       id="marker5670"
       style="overflow:visible">
      <path
         id="path5668"
         d="M -2.5,-1.0 C -2.5,1.7600000 -4.7400000,4.0 -7.5,4.0 C -10.260000,4.0 -12.5,1.7600000 -12.5,-1.0 C -12.5,-3.7600000 -10.260000,-6.0 -7.5,-6.0 C -4.7400000,-6.0 -2.5,-3.7600000 -2.5,-1.0 z "
         style="fill-rule:evenodd;stroke:#ff0000;stroke-width:1pt;stroke-opacity:1;fill:#ff0000;fill-opacity:1"
         transform="scale(0.2) translate(7.4, 1)" />
    </marker>
    <marker
       style="overflow:visible;"
       id="Arrow1Mend"
       refX="0.0"
       refY="0.0"
       orient="auto">
      <path
         transform="scale(0.4) rotate(180) translate(10,0)"
         style="fill-rule:evenodd;stroke:#0000ff;stroke-width:1pt;stroke-opacity:1;fill:#0000ff;fill-opacity:1"
         d="M 0.0,0.0 L 5.0,-5.0 L -12.5,0.0 L 5.0,5.0 L 0.0,0.0 z "
         id="path4702" />
    </marker>
    <marker
       style="overflow:visible"
       id="DotS"
       refX="0.0"
       refY="0.0"
       orient="auto">
      <path
         transform="scale(0.2) translate(7.4, 1)"
         style="fill-rule:evenodd;stroke:#0000ff;stroke-width:1pt;stroke-opacity:1;fill:#0000ff;fill-opacity:1"
         d="M -2.5,-1.0 C -2.5,1.7600000 -4.7400000,4.0 -7.5,4.0 C -10.260000,4.0 -12.5,1.7600000 -12.5,-1.0 C -12.5,-3.7600000 -10.260000,-6.0 -7.5,-6.0 C -4.7400000,-6.0 -2.5,-3.7600000 -2.5,-1.0 z "
         id="path4760" />
    </marker>
    <marker
       style="overflow:visible"
       id="Arrow2Sstart"
       refX="0.0"
       refY="0.0"
       orient="auto">
      <path
         transform="scale(0.3) translate(-2.3,0)"
         d="M 8.7185878,4.0337352 L -2.2072895,0.016013256 L 8.7185884,-4.0017078 C 6.9730900,-1.6296469 6.9831476,1.6157441 8.7185878,4.0337352 z "
         style="fill-rule:evenodd;stroke-width:0.625;stroke-linejoin:round;stroke:#ff0000;stroke-opacity:1;fill:#ff0000;fill-opacity:1"
         id="path4723" />
    </marker>
    <marker
       style="overflow:visible"
       id="marker4956"
       refX="0.0"
       refY="0.0"
       orient="auto">
      <path
         transform="scale(0.4) translate(7.4, 1)"
         style="fill-rule:evenodd;stroke:#ff0000;stroke-width:1pt;stroke-opacity:1;fill:#ff0000;fill-opacity:1"
         d="M -2.5,-1.0 C -2.5,1.7600000 -4.7400000,4.0 -7.5,4.0 C -10.260000,4.0 -12.5,1.7600000 -12.5,-1.0 C -12.5,-3.7600000 -10.260000,-6.0 -7.5,-6.0 C -4.7400000,-6.0 -2.5,-3.7600000 -2.5,-1.0 z "
         id="path4757" />
    </marker>
    <marker
       orient="auto"
       refY="0"
       refX="0"
       id="Arrow2Mend"
       style="overflow:visible">
      <path
         id="path856"
         style="fill:#0000ff;fill-opacity:1;fill-rule:evenodd;stroke:#0000ff;stroke-width:0.625;stroke-linejoin:round;stroke-opacity:1"
         d="M 8.7185878,4.0337352 -2.2072895,0.01601326 8.7185884,-4.0017078 c -1.7454984,2.3720609 -1.7354408,5.6174519 -6e-7,8.035443 z"
         transform="scale(-0.6)" />
    </marker>
    <marker
       orient="auto"
       refY="0"
       refX="0"
       id="Arrow1Lend"
       style="overflow:visible">
      <path
         id="path832"
         d="M 0,0 5,-5 -12.5,0 5,5 Z"
         style="fill:#0000ff;fill-opacity:1;fill-rule:evenodd;stroke:#0000ff;stroke-width:1.00000003pt;stroke-opacity:1"
         transform="matrix(-0.8,0,0,-0.8,-10,0)" />
    </marker>
    <marker
       orient="auto"
       refY="0"
       refX="0"
       id="DotM"
       style="overflow:visible">
      <path
         id="path893"
         d="m -2.5,-1 c 0,2.76 -2.24,5 -5,5 -2.76,0 -5,-2.24 -5,-5 0,-2.76 2.24,-5 5,-5 2.76,0 5,2.24 5,5 z"
         style="fill:#0000ff;fill-opacity:1;fill-rule:evenodd;stroke:#0000ff;stroke-width:1.00000003pt;stroke-opacity:1"
         transform="matrix(0.4,0,0,0.4,2.96,0.4)" />
    </marker>
    <marker
       orient="auto"
       refY="0"
       refX="0"
       id="DotL"
       style="overflow:visible">
      <path
         id="path890"
         d="m -2.5,-1 c 0,2.76 -2.24,5 -5,5 -2.76,0 -5,-2.24 -5,-5 0,-2.76 2.24,-5 5,-5 2.76,0 5,2.24 5,5 z"
         style="fill:#0000ff;fill-opacity:1;fill-rule:evenodd;stroke:#0000ff;stroke-width:1.00000003pt;stroke-opacity:1"
         transform="matrix(0.8,0,0,0.8,5.92,0.8)" />
    </marker>
  </defs>
  <metadata
     id="metadata5">
    <rdf:RDF>
      <cc:Work
         rdf:about="">
        <dc:format>image/svg+xml</dc:format>
        <dc:type
           rdf:resource="http://purl.org/dc/dcmitype/StillImage" />
        <dc:title></dc:title>
      </cc:Work>
    </rdf:RDF>
  </metadata>
  <text
     x="8.5370741"
     y="79.258591"
     id="text116"
     style="font-size:5.13666582px;fill:#000000;stroke-width:0.42805547">
    <tspan
       id="tspan3856"
       style="font-size:16.93333435px">A</tspan>
  </text>
  <text
     x="102.18105"
     y="85.695084"
     id="text118"
     style="font-size:5.13666582px;fill:#000000;stroke-width:0.42805547">
    <tspan
       id="tspan3858"
       style="font-size:16.93333435px">B</tspan>
  </text>
  <text
     x="54.389885"
     y="86.157188"
     id="text120"
     style="font-size:5.13666582px;fill:#0000ff;stroke-width:0.42805547;">
    <tspan
       id="tspan3860"
       style="font-size:16.93333435px;fill:#0000ff;">a⃗</tspan>
  </text>
  <path
     style="fill:#ff0000;fill-rule:evenodd;stroke:#ff0000;stroke-width:1.85208333;stroke-linecap:butt;stroke-linejoin:miter;stroke-miterlimit:4;stroke-dasharray:none;stroke-opacity:1;marker-start:url(#marker5670);marker-end:url(#marker5734)"
     d="M 107.40577,64.886894 136.17176,15.016925"
     id="path5666" />
  <g
     style="fill:#ff0000"
     id="g7172">
    <path
       id="path7124"
       style="font-size:16.93333435px;fill:#ff0000;stroke-width:0.42805547"
       d="m 132.67563,40.091517 v -0.826823 h 6.12676 l -1.09141,-1.281575 h 1.0418 l 1.44694,1.694987 -1.44694,1.694987 h -1.0418 l 1.09141,-1.281576 z" />
    <text
       x="130.90234"
       y="54.624058"
       id="text7131"
       style="font-size:5.13666582px;fill:#ff0000;stroke-width:0.42805547">
      <tspan
         id="tspan7129"
         style="font-size:16.93333435px;fill:#ff0000">b</tspan>
    </text>
  </g>
  <path
     style="fill:#000000;fill-rule:evenodd;stroke:#000000;stroke-width:1.85208333;stroke-linecap:square;stroke-linejoin:miter;stroke-miterlimit:4;stroke-dasharray:none;stroke-opacity:1;marker-start:url(#marker7190);marker-end:url(#marker7266)"
     d="M 21.68207,71.803032 134.89314,13.481944"
     id="path7186" />
  <path
     id="path3862"
     d="m 21.68207,71.803032 82.65591,-6.609359"
     style="fill:#0000ff;fill-rule:evenodd;stroke:#0000ff;stroke-width:1.85208333;stroke-linecap:square;stroke-linejoin:round;stroke-miterlimit:4;stroke-dasharray:none;stroke-opacity:1;marker-start:url(#DotS);marker-end:url(#Arrow1Mend);paint-order:stroke fill markers" />
  <text
     style="font-size:5.13666582px;fill:#0000ff;stroke-width:0.42805547"
     id="text8812"
     y="33.649448"
     x="55.15683">
    <tspan
       style="font-size:16.93333435px;fill:#0000ff"
       id="tspan8810">a⃗<tspan
   id="tspan8845"
   style="fill:#000000">+</tspan>
</tspan>
  </text>
  <g
     transform="translate(-51.845572,-20.974608)"
     id="g8820"
     style="fill:#ff0000">
    <path
       d="m 132.67563,40.091517 v -0.826823 h 6.12676 l -1.09141,-1.281575 h 1.0418 l 1.44694,1.694987 -1.44694,1.694987 h -1.0418 l 1.09141,-1.281576 z"
       style="font-size:16.93333435px;fill:#ff0000;stroke-width:0.42805547"
       id="path8814" />
    <text
       style="font-size:5.13666582px;fill:#ff0000;stroke-width:0.42805547"
       id="text8818"
       y="54.624058"
       x="130.90234">
      <tspan
         style="font-size:16.93333435px;fill:#ff0000"
         id="tspan8816">b</tspan>
    </text>
  </g>
  <text
     style="font-size:5.13666582px;fill:#000000;stroke-width:0.42805547"
     id="text8843"
     y="17.436859"
     x="139.14787">
    <tspan
       style="font-size:16.93333435px"
       id="tspan8841">C</tspan>
  </text>
</svg>
