<?xml version="1.0" encoding="UTF-8" standalone="no"?>
<svg
   xmlns:dc="http://purl.org/dc/elements/1.1/"
   xmlns:cc="http://creativecommons.org/ns#"
   xmlns:rdf="http://www.w3.org/1999/02/22-rdf-syntax-ns#"
   xmlns:svg="http://www.w3.org/2000/svg"
   xmlns="http://www.w3.org/2000/svg"
   width="161.80341mm"
   height="100mm"
   viewBox="0 0 161.80341 99.999999"
   version="1.1"
   id="svg8">
  <defs
     id="defs2">
    <marker
       orient="auto"
       refY="0.0"
       refX="0.0"
       id="marker11458"
       style="overflow:visible;">
      <path
         id="path11456"
         d="M 0.0,0.0 L 5.0,-5.0 L -12.5,0.0 L 5.0,5.0 L 0.0,0.0 z "
         style="fill-rule:evenodd;stroke:#000000;stroke-width:1pt;stroke-opacity:1;fill:#000000;fill-opacity:1"
         transform="scale(0.4) rotate(180) translate(10,0)" />
    </marker>
    <marker
       orient="auto"
       refY="0.0"
       refX="0.0"
       id="marker11370"
       style="overflow:visible">
      <path
         id="path11368"
         d="M -2.5,-1.0 C -2.5,1.7600000 -4.7400000,4.0 -7.5,4.0 C -10.260000,4.0 -12.5,1.7600000 -12.5,-1.0 C -12.5,-3.7600000 -10.260000,-6.0 -7.5,-6.0 C -4.7400000,-6.0 -2.5,-3.7600000 -2.5,-1.0 z "
         style="fill-rule:evenodd;stroke:#000000;stroke-width:1pt;stroke-opacity:1;fill:#000000;fill-opacity:1"
         transform="scale(0.2) translate(7.4, 1)" />
    </marker>
    <marker
       orient="auto"
       refY="0.0"
       refX="0.0"
       id="marker10803"
       style="overflow:visible;">
      <path
         id="path10801"
         d="M 0.0,0.0 L 5.0,-5.0 L -12.5,0.0 L 5.0,5.0 L 0.0,0.0 z "
         style="fill-rule:evenodd;stroke:#000000;stroke-width:1pt;stroke-opacity:1;fill:#000000;fill-opacity:1"
         transform="scale(0.4) rotate(180) translate(10,0)" />
    </marker>
    <marker
       orient="auto"
       refY="0.0"
       refX="0.0"
       id="marker10727"
       style="overflow:visible">
      <path
         id="path10725"
         d="M -2.5,-1.0 C -2.5,1.7600000 -4.7400000,4.0 -7.5,4.0 C -10.260000,4.0 -12.5,1.7600000 -12.5,-1.0 C -12.5,-3.7600000 -10.260000,-6.0 -7.5,-6.0 C -4.7400000,-6.0 -2.5,-3.7600000 -2.5,-1.0 z "
         style="fill-rule:evenodd;stroke:#000000;stroke-width:1pt;stroke-opacity:1;fill:#000000;fill-opacity:1"
         transform="scale(0.2) translate(7.4, 1)" />
    </marker>
    <marker
       orient="auto"
       refY="0.0"
       refX="0.0"
       id="marker5734"
       style="overflow:visible;">
      <path
         id="path5732"
         d="M 0.0,0.0 L 5.0,-5.0 L -12.5,0.0 L 5.0,5.0 L 0.0,0.0 z "
         style="fill-rule:evenodd;stroke:#ff0000;stroke-width:1pt;stroke-opacity:1;fill:#ff0000;fill-opacity:1"
         transform="scale(0.4) rotate(180) translate(10,0)" />
    </marker>
    <marker
       orient="auto"
       refY="0.0"
       refX="0.0"
       id="marker5670"
       style="overflow:visible">
      <path
         id="path5668"
         d="M -2.5,-1.0 C -2.5,1.7600000 -4.7400000,4.0 -7.5,4.0 C -10.260000,4.0 -12.5,1.7600000 -12.5,-1.0 C -12.5,-3.7600000 -10.260000,-6.0 -7.5,-6.0 C -4.7400000,-6.0 -2.5,-3.7600000 -2.5,-1.0 z "
         style="fill-rule:evenodd;stroke:#ff0000;stroke-width:1pt;stroke-opacity:1;fill:#ff0000;fill-opacity:1"
         transform="scale(0.2) translate(7.4, 1)" />
    </marker>
    <marker
       style="overflow:visible"
       id="Arrow2Sstart"
       refX="0.0"
       refY="0.0"
       orient="auto">
      <path
         transform="scale(0.3) translate(-2.3,0)"
         d="M 8.7185878,4.0337352 L -2.2072895,0.016013256 L 8.7185884,-4.0017078 C 6.9730900,-1.6296469 6.9831476,1.6157441 8.7185878,4.0337352 z "
         style="fill-rule:evenodd;stroke-width:0.625;stroke-linejoin:round;stroke:#ff0000;stroke-opacity:1;fill:#ff0000;fill-opacity:1"
         id="path4723" />
    </marker>
    <marker
       style="overflow:visible"
       id="marker4956"
       refX="0.0"
       refY="0.0"
       orient="auto">
      <path
         transform="scale(0.4) translate(7.4, 1)"
         style="fill-rule:evenodd;stroke:#ff0000;stroke-width:1pt;stroke-opacity:1;fill:#ff0000;fill-opacity:1"
         d="M -2.5,-1.0 C -2.5,1.7600000 -4.7400000,4.0 -7.5,4.0 C -10.260000,4.0 -12.5,1.7600000 -12.5,-1.0 C -12.5,-3.7600000 -10.260000,-6.0 -7.5,-6.0 C -4.7400000,-6.0 -2.5,-3.7600000 -2.5,-1.0 z "
         id="path4757" />
    </marker>
    <marker
       orient="auto"
       refY="0"
       refX="0"
       id="Arrow2Mend"
       style="overflow:visible">
      <path
         id="path856"
         style="fill:#0000ff;fill-opacity:1;fill-rule:evenodd;stroke:#0000ff;stroke-width:0.625;stroke-linejoin:round;stroke-opacity:1"
         d="M 8.7185878,4.0337352 -2.2072895,0.01601326 8.7185884,-4.0017078 c -1.7454984,2.3720609 -1.7354408,5.6174519 -6e-7,8.035443 z"
         transform="scale(-0.6)" />
    </marker>
    <marker
       orient="auto"
       refY="0"
       refX="0"
       id="Arrow1Lend"
       style="overflow:visible">
      <path
         id="path832"
         d="M 0,0 5,-5 -12.5,0 5,5 Z"
         style="fill:#0000ff;fill-opacity:1;fill-rule:evenodd;stroke:#0000ff;stroke-width:1.00000003pt;stroke-opacity:1"
         transform="matrix(-0.8,0,0,-0.8,-10,0)" />
    </marker>
    <marker
       orient="auto"
       refY="0"
       refX="0"
       id="DotM"
       style="overflow:visible">
      <path
         id="path893"
         d="m -2.5,-1 c 0,2.76 -2.24,5 -5,5 -2.76,0 -5,-2.24 -5,-5 0,-2.76 2.24,-5 5,-5 2.76,0 5,2.24 5,5 z"
         style="fill:#0000ff;fill-opacity:1;fill-rule:evenodd;stroke:#0000ff;stroke-width:1.00000003pt;stroke-opacity:1"
         transform="matrix(0.4,0,0,0.4,2.96,0.4)" />
    </marker>
    <marker
       orient="auto"
       refY="0"
       refX="0"
       id="DotL"
       style="overflow:visible">
      <path
         id="path890"
         d="m -2.5,-1 c 0,2.76 -2.24,5 -5,5 -2.76,0 -5,-2.24 -5,-5 0,-2.76 2.24,-5 5,-5 2.76,0 5,2.24 5,5 z"
         style="fill:#0000ff;fill-opacity:1;fill-rule:evenodd;stroke:#0000ff;stroke-width:1.00000003pt;stroke-opacity:1"
         transform="matrix(0.8,0,0,0.8,5.92,0.8)" />
    </marker>
  </defs>
  <metadata
     id="metadata5">
    <rdf:RDF>
      <cc:Work
         rdf:about="">
        <dc:format>image/svg+xml</dc:format>
        <dc:type
           rdf:resource="http://purl.org/dc/dcmitype/StillImage" />
        <dc:title></dc:title>
      </cc:Work>
    </rdf:RDF>
  </metadata>
  <g
     style="overflow:visible"
     id="g12881"
     transform="matrix(0.28647343,0,0,0.24217545,33.788966,-0.86537436)">
    <g
       id="g12879">
      <path
         id="path12771"
         d="m 170.2,199.512 c -0.109,0.306 -0.246,0.597 -0.374,0.895 0.367,-0.527 0.66,-1.05 0.857,-1.558 0.521,-1.359 0.58,-2.885 0.317,-4.458 0.06,1.634 -0.159,3.326 -0.8,5.121 z"
         style="fill:#ffffff" />
      <path
         id="path12773"
         d="m 93.818,77.278 c -0.705,0.473 -1.39,0.959 -2.061,1.452 0.703,-0.314 1.392,-0.821 2.061,-1.452 z"
         style="fill:#ffffff" />
      <path
         id="path12775"
         d="m 45.029,71.564 c -0.708,-0.167 -1.4,-0.36 -2.052,-0.611 0.628,0.376 1.298,0.554 2.052,0.611 z"
         style="fill:#ffffff" />
      <path
         id="path12777"
         d="m 281.474,224.209 c 0.011,-0.662 0.143,-1.324 0.336,-1.987 -0.194,0.663 -0.326,1.325 -0.336,1.987 z"
         style="fill:#ffffff" />
      <path
         id="path12779"
         d="m 139.439,236.271 c -0.091,0.06 -0.184,0.104 -0.275,0.164 2.432,-0.981 4.654,-2.437 6.533,-4.579 2.057,-2.345 2.854,-4.981 2.863,-7.69 -0.288,1.598 -0.578,2.962 -0.776,3.356 -1.821,3.615 -5.031,6.54 -8.345,8.749 z"
         style="fill:#ffffff" />
      <path
         id="path12781"
         d="m 231.007,207.527 c -0.025,-0.058 -0.059,-0.117 -0.078,-0.173 -0.215,-0.04 -0.436,-0.093 -0.666,-0.179 0.268,0.099 0.493,0.237 0.744,0.352 z"
         style="fill:#ffffff" />
      <path
         id="path12783"
         d="m 278.8,171.448 c -2.141,-3.382 -1.096,-0.587 0.795,-2.698 0.84,-0.935 1.883,-1.108 2.043,-2.698 0.547,-5.465 -1.306,-9.449 -3.917,-14.249 -1.966,-3.616 -4.665,-6.255 -7.729,-8.919 -1.663,-1.448 -3.14,-1.098 -2.786,-3.511 0.172,-1.177 0.471,-2.383 0.452,-3.578 -0.08,-5.477 -3.154,-8.766 -8.729,-7.191 -6.654,1.88 -12.784,4.462 -19.017,7.933 -4.241,2.362 -16.937,9.771 -16.339,15.076 0.515,4.57 9.869,4.441 13.581,6.108 4.884,2.195 8.527,6.134 10.343,11.188 -3.074,-3.085 -6.234,-7.116 -10.687,-8.173 -5.122,-1.215 -11.1,-0.498 -16.3,-0.596 -11.97,-0.226 -23.936,-0.299 -35.906,-0.375 0.145,0.298 0.309,0.59 0.429,0.894 4.597,3.644 2.531,10.139 -0.558,14.571 -3.313,4.752 -8.773,6.754 -14.271,7.643 3.415,3.762 5.306,8.756 5.306,13.833 0,3.935 -2.421,6.467 -5.095,9.23 -5.098,5.275 -11.372,8.399 -18.354,10.42 3.082,7.039 -1.532,15.344 -6.472,20.417 -6.82,7.002 -15.744,7.99 -25.04,6.929 0.253,4.018 -0.239,8.635 -1.937,12.327 -0.79,1.718 -4.481,9.551 -6.865,9.292 -12.501,-1.353 -24.205,-5.229 -34.814,-12.017 -0.104,0.046 -0.212,0.092 -0.326,0.141 -0.324,6.165 -17.045,11.832 -20.454,6.043 -5.512,-0.6 -10.583,-3.404 -14.873,-7.387 0.306,0.443 0.613,0.888 0.914,1.335 -6.706,-5.153 -11.718,-12.172 -14.593,-20.168 -1.309,-3.642 -6.609,-0.295 -10.394,-1.783 -0.947,4.721 -1.802,9.473 -2.175,14.281 -2.51,32.261 8.503,61.532 38.833,76.116 14.244,6.85 31.229,9.323 46.813,10.584 16.581,1.34 33.521,2.118 50.173,2.637 50.541,1.575 127.419,-11.426 131.503,-74.844 0.773,-9.945 -0.521,-19.515 -3.3,-29.054 -2.46,-8.445 -4.813,-18.078 -8.638,-26.01 3.158,-0.176 5.544,7.601 6.947,10.368 0.861,-3.722 1.495,-7.497 2.212,-11.25 0.313,-1.629 -2.505,-6.789 -0.593,-6.789 2.94,0 5.848,-0.869 7.189,-3.597 3.917,-7.97 -3.632,-16.57 -7.371,-22.479 z m -40.537,35.944 c 3.278,3.324 -0.775,15.481 -1.902,19.333 -2.742,9.356 -7.352,17.397 -13.424,24.967 -2.765,3.448 -6.16,6.484 -9.548,9.309 -3.274,2.728 -3.814,2.458 -8.012,0.528 0.28,-0.37 0.605,-0.716 0.93,-1.061 -2.201,0.415 -4.358,0.355 -6.4,-0.338 13.23,-6.462 25.142,-22.375 27.852,-36.916 0.854,-4.583 0.98,-14.89 -5.624,-14.898 -5.35,-0.007 -6.725,8.126 -9.311,11.448 -4.263,5.475 -13.61,12.23 -20.558,9.537 14.358,-4.522 31.112,-22.229 15.602,-35.477 4.117,-3.062 3.728,-9.21 1.634,-13.667 -0.303,-0.646 -0.642,-1.258 -1.006,-1.819 0.364,0.561 0.703,1.172 1.006,1.819 2.661,5.359 2.743,11.668 6.18,16.619 5.093,7.338 11.432,2.188 12.868,-5.741 1.594,-8.774 -2.986,-17.898 -11.185,-21.667 2.948,1.356 7.025,-1.812 11.287,1.154 0.099,0.069 0.186,0.153 0.284,0.226 -2.223,-2.177 -4.908,-3.88 -8.012,-4.854 9.799,-1.979 16.786,11.591 18.723,19.254 0.631,3.618 0.525,7.358 -0.212,10.95 -0.875,4.27 -4.395,8.029 -1.172,11.294 z"
         style="fill:#ffffff" />
      <path
         id="path12785"
         d="m 289.114,197.15 c -0.613,1.049 -3.154,2.668 -3.417,3.285 -0.475,1.099 -0.576,2.802 -0.576,4.542 0,-1.741 0.102,-3.443 0.576,-4.542 0.263,-0.616 2.804,-2.235 3.417,-3.285 z"
         style="fill:#ffffff" />
      <path
         id="path12787"
         d="m 236.122,186.658 c 0.003,0.054 0.009,0.106 0.013,0.16 -0.004,-0.054 -0.01,-0.108 -0.013,-0.16 z"
         style="fill:#ffffff" />
      <path
         id="path12789"
         d="m 285.139,209.744 c -0.182,2.899 -1.024,5.705 -1.882,8.463 0.857,-2.757 1.7,-5.563 1.882,-8.463 z"
         style="fill:#ffffff" />
      <path
         id="path12791"
         d="m 10.024,231.374 c 0.736,-5.305 2.13,-10.418 3.432,-15.551 -1.302,5.133 -2.696,10.246 -3.432,15.551 z"
         style="fill:#ffffff" />
      <path
         id="path12793"
         d="m 222.772,366.08 c 0.271,0.118 0.54,0.239 0.802,0.361 -0.261,-0.122 -0.53,-0.243 -0.802,-0.361 z"
         style="fill:#ff7f00" />
      <path
         id="path12795"
         d="m 218.235,364.39 c 0.256,0.084 0.511,0.17 0.766,0.255 -0.255,-0.087 -0.51,-0.171 -0.766,-0.255 z"
         style="fill:#ff7f00" />
      <path
         id="path12797"
         d="m 219.84,364.937 c 0.254,0.09 0.507,0.181 0.759,0.275 -0.252,-0.095 -0.503,-0.184 -0.759,-0.275 z"
         style="fill:#ff7f00" />
      <path
         id="path12799"
         d="m 221.94,365.727 c -0.16,-0.066 -0.328,-0.126 -0.492,-0.19 0.252,0.099 0.504,0.197 0.748,0.3 -0.086,-0.038 -0.168,-0.076 -0.256,-0.11 z"
         style="fill:#ff7f00" />
      <path
         id="path12801"
         d="m 216.652,363.892 c 0.252,0.077 0.508,0.155 0.763,0.235 -0.257,-0.08 -0.511,-0.158 -0.763,-0.235 z"
         style="fill:#ff7f00" />
      <path
         id="path12803"
         d="m 210.648,362.236 c 0.301,0.08 0.698,0.183 1.132,0.295 -0.433,-0.112 -0.831,-0.215 -1.132,-0.295 z"
         style="fill:#ff7f00" />
      <path
         id="path12805"
         d="m 212.499,362.721 c 0.175,0.046 0.374,0.099 0.562,0.15 -0.192,-0.052 -0.383,-0.104 -0.562,-0.15 z"
         style="fill:#ff7f00" />
      <path
         id="path12807"
         d="m 215.155,363.448 c 0.233,0.068 0.477,0.139 0.717,0.21 -0.244,-0.071 -0.481,-0.141 -0.717,-0.21 z"
         style="fill:#ff7f00" />
      <path
         id="path12809"
         d="m 213.759,363.059 c 0.204,0.057 0.423,0.116 0.637,0.177 -0.215,-0.061 -0.431,-0.121 -0.637,-0.177 z"
         style="fill:#ff7f00" />
      <path
         id="path12811"
         d="m 225.378,367.365 c 0.228,0.13 0.445,0.263 0.658,0.397 -0.213,-0.134 -0.431,-0.267 -0.658,-0.397 z"
         style="fill:#ff7f00" />
      <path
         id="path12813"
         d="m 224.131,366.707 c 0.253,0.122 0.498,0.248 0.734,0.376 -0.236,-0.128 -0.481,-0.254 -0.734,-0.376 z"
         style="fill:#ff7f00" />
      <path
         id="path12815"
         d="m 227.422,368.778 c 0.172,0.149 0.315,0.303 0.46,0.454 -0.145,-0.151 -0.288,-0.304 -0.46,-0.454 z"
         style="fill:#ff7f00" />
      <path
         id="path12817"
         d="m 228.662,370.309 c 0.126,0.265 0.212,0.532 0.244,0.806 -0.032,-0.274 -0.118,-0.542 -0.244,-0.806 z"
         style="fill:#ff7f00" />
      <path
         id="path12819"
         d="m 228.159,369.53 c 0.138,0.169 0.24,0.345 0.343,0.518 -0.103,-0.173 -0.205,-0.349 -0.343,-0.518 z"
         style="fill:#ff7f00" />
      <path
         id="path12821"
         d="m 139.815,352.767 c -0.667,2.546 -1.113,4.504 -1.151,4.504 0.65,0 1.009,-3.173 1.151,-4.504 z"
         style="fill:#ff7f00" />
      <path
         id="path12823"
         d="m 226.484,368.057 c 0.201,0.137 0.384,0.279 0.563,0.421 -0.179,-0.142 -0.361,-0.283 -0.563,-0.421 z"
         style="fill:#ff7f00" />
      <path
         id="path12825"
         d="m 174.823,358.963 c -0.11,-4.468 -0.588,-9.104 0.156,-13.541 -3.636,2.941 -9.069,2.99 -12.997,0.582 0.124,10.016 -0.193,19.974 -1.53,29.913 -0.999,7.425 -3.164,18.143 -0.326,25.415 2.633,6.739 8.207,2.939 10.08,-3.097 1.144,-3.683 1.676,-7.429 1.951,-11.287 0.221,-3.085 -0.877,-9.117 0.755,-11.218 2.782,7.531 19.317,22.837 28.168,19.307 11.076,-4.412 -10.098,-19.74 -14.109,-22.48 9.212,1.598 17.307,4.976 26.207,7.459 5.222,1.455 15.2,-0.445 12.253,-7.67 -2.473,-6.07 -12.188,-7.991 -17.647,-9.479 -9.435,-2.571 -19.31,-4.016 -29.091,-4.169 -1.296,-0.091 -2.61,-10e-4 -3.87,0.265 z m 5.516,10.707 c 0.002,-0.027 0.002,-0.053 0.002,-0.074 0,-0.04 0,-0.075 0,-0.103 0,0.027 0,0.063 0,0.103 0,0.021 0,0.047 -0.002,0.074 0,0.029 0,0.046 -0.002,0.084 0,0.066 0,0.002 0.002,-0.084 z"
         style="fill:#ff7f00" />
      <path
         id="path12827"
         d="m 159.014,345.898 c -5.256,1.19 -9.752,1.805 -15.174,1.004 -0.374,4.253 0.862,13.372 -3.236,14.599 -3.314,0.994 -10.306,-0.789 -14.058,-1.032 -10.564,-0.682 -22.081,-2.532 -30.717,4.577 -4.008,3.301 -7.771,10.863 0.531,9.995 8.276,-0.864 16.262,-6.938 25.04,-4.123 -5.53,3.897 -12.095,8.763 -12.095,16.289 0,3.818 3.08,7.779 7.082,7.779 3.765,0 4.245,-4.264 6.526,-7.039 4.8,-5.838 12.186,-13.606 19.814,-15.443 -6.418,4.441 -12.454,14.602 -10.079,22.533 2.082,6.955 8.688,5.048 11.724,-0.105 3.67,-6.229 8.061,-12.443 11.326,-18.989 3.56,-7.137 3.226,-16.16 3.317,-24.067 -10e-4,-1.994 -10e-4,-3.985 -10e-4,-5.978 z"
         style="fill:#ff7f00" />
      <path
         id="path12829"
         d="m 172.485,147.804 c 0.77,0.525 1.571,1.005 2.396,1.459 -3.526,-2.791 -7.107,-5.399 -9.515,-8.082 2.117,2.534 4.453,4.799 7.119,6.623 z"
         style="fill:#d59758" />
      <path
         id="path12831"
         d="m 46.195,82.616 c -0.127,0.089 -0.242,0.174 -0.381,0.267 -8.06,5.431 -14.843,16.423 -18.897,25.643 4.693,-10.53 11.265,-18.291 19.278,-25.91 z"
         style="fill:#d59758" />
      <path
         id="path12833"
         d="m 17.694,190.014 c 0.148,-1.843 0.261,-3.688 0.336,-5.53 -0.159,3.918 -3.171,17.488 -3.889,28.578 0.523,-2.166 1.009,-4.342 1.396,-6.544 0.96,-5.444 1.714,-10.972 2.157,-16.504 z"
         style="fill:#d59758" />
      <path
         id="path12835"
         d="m 25.769,111.255 c 0.358,-0.904 0.73,-1.786 1.115,-2.651 -0.396,0.902 -0.775,1.792 -1.115,2.651 z"
         style="fill:#d59758" />
      <path
         id="path12837"
         d="m 76.625,253.119 c 0.004,0.109 -0.01,0.217 -0.017,0.326 0.113,-0.049 0.222,-0.095 0.326,-0.141 -0.102,-0.063 -0.206,-0.119 -0.309,-0.185 z"
         style="fill:#d59758" />
      <path
         id="path12839"
         d="m 183.681,159.758 c 0.511,0.273 0.948,0.58 1.354,0.9 -0.12,-0.304 -0.284,-0.596 -0.429,-0.894 -0.308,-0.001 -0.619,-0.004 -0.925,-0.006 z"
         style="fill:#d59758" />
      <path
         id="path12841"
         d="m 55.617,257.985 c 8.641,3.788 18.795,-3.247 22.706,-10.632 3.279,7.231 22.985,13.559 30.504,13.064 8.317,-0.547 7.689,-16.168 6.101,-22.374 7.599,-0.041 16.882,1.354 24.236,-1.609 0.091,-0.061 0.185,-0.104 0.275,-0.164 3.313,-2.209 6.523,-5.134 8.344,-8.749 0.198,-0.395 0.488,-1.759 0.776,-3.356 0.01,-3.148 -1.048,-6.395 -2.492,-9.396 4.295,-1.414 8.347,-2.965 12.254,-5.21 2.967,-1.706 8.995,-5.555 11.504,-9.153 0.128,-0.297 0.265,-0.588 0.374,-0.895 0.641,-1.795 0.859,-3.487 0.801,-5.121 -0.771,-4.651 -4.358,-9.724 -7.163,-12.206 -2.968,-2.63 1.634,-3.01 3.29,-3.306 2.771,-0.493 5.444,-1.269 7.957,-2.513 1.995,-0.987 12.398,-7.394 8.567,-10.548 -5.464,-4.495 -10.784,-9.26 -15.521,-14.527 -10.824,-12.038 -20.292,-25.565 -26.676,-40.515 -6.266,-14.671 -12.261,-27.143 -26.81,-35.204 -4.978,-2.758 -6.574,-2.28 -11.92,-0.418 -1.606,0.559 -3.02,3.787 -4.349,4.89 -1.625,1.35 -9.602,4.646 -9.761,5.687 -1.08,7.025 -8.407,12.425 -14.695,14.784 -5.428,2.036 -10.077,0.848 -14.642,-2.698 -2.516,-1.954 -5.324,-5.1 -6.207,-8.251 -0.611,-2.18 0.242,-4.972 -0.849,-6.718 -0.13,0.212 -0.219,0.442 -0.266,0.688 -4.428,-2.948 -12.213,9.673 -13.952,12.642 -12.25,20.916 -17.181,46.44 -15.373,71.164 0.562,7.685 2.548,13.624 0.427,21.327 -1.945,7.059 -3.703,14.254 -4.713,21.512 -0.528,3.806 -4.019,14.116 0.03,17.179 2.714,2.053 7.534,-1.11 9.603,-2.964 0.678,11.093 7.418,19.182 13.304,27.706 4.29,3.982 9.361,6.787 14.873,7.387 -0.256,-0.435 -0.444,-0.931 -0.537,-1.503 z M 88.349,112.734 c 2.832,-0.5 7.098,2.134 8.037,5.131 2.119,6.755 -8.154,9.403 -12.174,5.183 -0.898,-3.881 -0.843,-9.435 4.137,-10.314 z m -37.612,0.741 c 5.458,3.658 2.119,12.174 -4.138,11.584 -10.146,-1.203 -4.275,-17.222 4.138,-11.584 z m 0.159,43.586 c -1.148,-0.675 -2.243,-1.518 -3.131,-2.513 -5.166,-5.8 -3.018,-12.716 1.806,-17.49 1.656,-2.115 4.136,-3.821 7.41,-4.735 1.719,-0.63 3.488,-0.995 5.214,-1.023 6.578,-0.106 13.254,4.325 17.029,9.521 3.349,4.609 1.418,9.426 3.713,13.805 5.897,11.25 7.953,20.955 0.292,32.16 -3.089,4.521 -9.199,4.22 -13.979,1.958 -2.138,-1.012 -2.936,-3.12 -4.563,-4.125 -2.381,-1.472 -4.216,-0.483 -7.162,-0.476 -13.38,0.336 -14.146,-19.866 -6.629,-27.082 z"
         style="fill:#d59758" />
      <path
         id="path12843"
         d="m 80.866,89.597 c -0.189,0.229 -0.379,0.456 -0.572,0.68 0.11,-0.116 0.231,-0.221 0.336,-0.341 0.089,-0.1 0.154,-0.229 0.236,-0.339 z"
         style="fill:#d59758" />
      <path
         id="path12845"
         d="m 79.906,182.988 c -0.835,0.874 -1.563,1.514 -2.225,1.972 1.561,-0.874 2.875,-2.376 3.889,-4.155 -0.499,0.784 -1.04,1.53 -1.664,2.183 z"
         style="fill:#d59758" />
      <path
         id="path12847"
         d="m 74.02,185.782 c -1.092,-0.261 -2.255,-0.884 -3.779,-1.559 1.095,0.863 2.331,1.459 3.779,1.559 z"
         style="fill:#d59758" />
      <path
         id="path12849"
         d="m 208.495,178.338 c 0.364,0.561 0.703,1.172 1.006,1.819"
         style="fill:none;stroke:#d59758;stroke-width:0;stroke-linecap:round;stroke-linejoin:round" />
      <path
         id="path12851"
         d="m 217.313,252.114 c 3.271,-2.978 6.192,-6.318 8.596,-10.051 4.058,-6.3 13.858,-26.45 7.086,-32.207 -1.071,-0.911 -1.683,-1.656 -1.987,-2.329 -0.251,-0.115 -0.476,-0.253 -0.744,-0.352 0.23,0.085 0.451,0.139 0.666,0.179 -0.793,-2.104 1.535,-3.541 2.885,-7.236 1.351,-3.7 2.389,-7.548 2.387,-11.532 0,-0.59 -0.025,-1.18 -0.065,-1.769 -0.004,-0.054 -0.01,-0.106 -0.013,-0.16 -0.454,-5.951 -2.981,-11.79 -7.187,-15.91 -0.099,-0.073 -0.186,-0.157 -0.284,-0.226 -4.262,-2.966 -8.339,0.202 -11.287,-1.154 8.198,3.769 12.778,12.894 11.185,21.667 -1.437,7.929 -7.775,13.079 -12.868,5.741 -3.437,-4.951 -3.519,-11.26 -6.18,-16.619 2.094,4.457 2.483,10.605 -1.634,13.667 15.511,13.248 -1.243,30.955 -15.602,35.477 6.947,2.693 16.295,-4.063 20.558,-9.537 2.586,-3.322 3.961,-11.455 9.311,-11.448 6.604,0.009 6.478,10.315 5.624,14.898 -2.71,14.541 -14.621,30.454 -27.852,36.916 2.042,0.693 4.199,0.753 6.4,0.338 3.02,-3.196 7.796,-5.426 11.005,-8.353 z"
         style="fill:#d59758" />
      <path
         id="path12853"
         d="m 82.727,85.069 c 0.19,-0.761 0.28,-4.402 0.78,-4.506 2.479,-0.518 4.959,-1.036 7.438,-1.555 0.272,-0.057 0.543,-0.159 0.813,-0.279 0.671,-0.493 1.355,-0.979 2.061,-1.452 2.137,-2.014 4.064,-5.218 5.54,-6.92 2.207,-2.546 2.964,-0.194 5.65,-0.522 1.667,-0.203 3.196,-1.917 4.303,-3.021 2.48,-2.474 4.531,-2.488 7.951,-1.713 4.94,1.119 8.635,4.551 11.035,8.913 1.994,-4.842 5.5,-9.862 3.898,-15.181 -1.078,-3.578 -3.418,-6.13 -6.494,-8.148 -1.521,-0.997 -5.709,-0.2 -7.67,-0.792 -6.125,-1.85 -5.339,-4.96 -5.968,-9.944 -0.93,-7.378 -14.323,-27.51 -22.864,-17.721 -2.105,2.414 -0.726,6.585 -4.285,5.194 -1.964,-0.768 -3.312,-2.617 -5.45,-3.29 C 74.82,22.671 70.361,20.503 65.327,20.747 50.433,21.47 52.003,38.2 57.951,47.672 50.817,46.105 41.2,50.828 38.986,57.854 c -0.901,2.863 -0.824,6.156 0.61,8.833 1.226,2.29 2.246,3.587 3.38,4.265 0.652,0.251 1.344,0.444 2.052,0.611 1.496,0.113 3.341,-0.269 5.973,-0.67 2.288,-0.295 9.677,-2.795 7.873,1.224 -0.843,1.881 -1.874,3.744 -2.515,5.705 -1.504,4.605 -0.901,9.798 2.812,13.224 5.935,5.476 15.944,4.683 21.122,-0.77 0.192,-0.225 0.382,-0.451 0.572,-0.68 0.959,-1.274 1.492,-3.055 1.862,-4.527 z"
         style="fill:#bf0000" />
      <path
         id="path12855"
         d="m 81.57,180.805 c 1.482,-2.598 2.323,-5.785 2.323,-8.484 0,-6.062 -3.529,-11.608 -6.791,-16.477 -6.021,5.486 -11.37,6.468 -19.152,4.866 -3.727,-0.768 -2.334,-1.593 -5.251,1.64 -1.663,1.844 -3.332,3.05 -3.873,5.713 -0.867,4.264 1.483,8.894 5.093,11.107 2.008,1.44 4.414,1.805 6.843,1.112 2.462,-0.703 3.647,-2.742 5.465,-0.477 1.217,1.518 2.482,3.216 4.013,4.418 1.524,0.674 2.687,1.298 3.779,1.559 0.585,0.041 1.203,0.009 1.864,-0.132 0.63,-0.134 1.229,-0.373 1.798,-0.69 0.662,-0.458 1.389,-1.099 2.225,-1.972 0.624,-0.653 1.165,-1.399 1.664,-2.183 z"
         style="fill:#bf0000" />
      <path
         id="path12857"
         d="m 50.366,150.766 c 6.35,4.623 13.456,7.191 21.14,3.544 4.416,-2.096 7.606,-7.54 4.961,-11.874 -4.425,-7.248 -14.383,-12.559 -22.175,-7.01 -4.236,3.016 -8.815,10.827 -3.926,15.34 z"
         style="fill:#ff7f00" />
      <path
         id="path12859"
         d="m 56.981,132.323 c -3.273,0.914 -5.753,2.62 -7.41,4.735 2.093,-2.072 4.687,-3.738 7.41,-4.735 z"
         style="fill:#ff7f00" />
      <path
         id="path12861"
         d="m 180.341,369.493 c 0,0.027 0,0.063 0,0.103 0,0.021 0,0.047 -0.002,0.074"
         style="fill:none;stroke:#000000;stroke-width:0;stroke-linecap:round;stroke-linejoin:round" />
      <path
         id="path12863"
         d="m 285.697,200.435 c 0.263,-0.616 2.804,-2.235 3.417,-3.285 1.142,-1.968 1.823,-2.871 1.889,-4.78 0.008,-0.272 0.004,-0.566 -0.015,-0.886 -0.211,-4.051 -0.995,-8.161 -2.319,-11.996 -1.251,-3.61 -3.144,-6.331 -3.396,-10.05 -0.211,-3.092 0.146,-6.046 -0.415,-9.157 -1.276,-7.073 -4.749,-12.676 -9.509,-17.926 -4.46,-4.921 -2.742,-9.162 -5.277,-15.049 -1.935,-4.496 -3.289,-5.842 -8.016,-4.524 -4.001,1.115 -7.864,2.385 -11.691,3.995 -7.167,3.016 -13.691,7.148 -19.861,11.845 -5.708,4.343 -10.383,13.092 -17.221,14.365 -11.769,2.19 -27.394,2.345 -38.402,-3.725 -0.824,-0.454 -1.626,-0.935 -2.396,-1.459 -2.666,-1.824 -5.002,-4.088 -7.119,-6.622 -7.979,-9.545 -12.658,-23.132 -18.315,-33.405 -4.567,-8.292 -9.183,-16.553 -13.821,-24.805 -2.813,-5.004 2.761,-11.562 3.524,-17.516 0.756,-5.891 -0.928,-11.864 -5.487,-15.826 -1.701,-1.477 -8.618,-4.583 -10.057,-5.031 -2.948,-0.92 -2.204,-0.183 -3.736,-2.639 -4.268,-6.839 -5.724,-13.508 -12.149,-19.228 -2.772,-2.467 -8.195,-7.488 -12.413,-7.22 -1.732,0.11 -3.673,1.383 -5.146,2.328 -1.121,0.719 -2.314,1.494 -3.289,2.406 -2.357,2.206 -1.428,1.474 -4.244,0.821 -7.399,-1.716 -13.198,-4.911 -20.972,-1.248 -6.996,3.296 -10.046,6.5 -9.851,14.472 0.071,2.892 1.36,5.723 1.433,8.517 0.073,2.806 1.384,2.055 -1.591,3.438 -1.871,0.87 -3.747,1.729 -5.631,2.57 -7.248,3.236 -8.857,12.923 -6.809,19.884 2.279,7.75 8.31,9.121 15.676,8.172 -2.184,1.934 -4.282,3.835 -6.292,5.745 -8.014,7.619 -14.585,15.38 -19.278,25.91 -0.011,0.025 -0.022,0.052 -0.034,0.078 -0.385,0.865 -0.757,1.748 -1.115,2.651 -6.249,15.747 -9.265,31.866 -9.045,48.818 0.106,8.226 1.64,16.181 1.307,24.41 -0.075,1.842 -0.188,3.687 -0.336,5.53 -0.443,5.532 -1.197,11.06 -2.156,16.504 -0.387,2.202 -0.873,4.378 -1.396,6.544 -0.224,0.922 -0.451,1.843 -0.685,2.762 -1.302,5.133 -2.696,10.246 -3.432,15.551 -1.151,8.31 -1.466,16.537 -1.288,24.914 0.343,16.112 3.121,33.767 12.557,47.081 8.133,11.478 19.705,20.711 32.967,25.607 15.332,5.661 32.211,8.262 48.795,10.196 8.425,0.983 16.878,1.604 25.347,2.043 2.047,0.105 10.589,-0.519 10.954,1.349 0.636,3.265 0.882,6.478 0.503,9.787 -0.011,0.098 -0.027,0.248 -0.045,0.415 -0.143,1.331 -0.501,4.504 -1.151,4.504 -2.762,0 -5.539,-0.087 -8.299,0 -4.539,0.145 -9.063,0.479 -13.608,0.534 -7.929,0.097 -16.328,0.141 -22.466,5.973 -4.232,4.021 -10.662,15.994 -0.371,16.078 2.83,0.025 5.968,-2.327 8.572,-3.271 3.934,-1.426 8.418,-2.122 12.595,-2.071 -7.006,3.727 -12.707,14.931 -5.624,21.426 9.353,8.573 16.194,-4.285 21.645,-10.792 -4.05,7.298 -1.903,22.163 9.602,18.724 3.728,-1.112 5.129,-6.36 7.109,-9.307 2.461,-3.665 4.744,-6.747 7.64,-10.212 0.206,6.459 -3.538,32.378 11.035,26.447 8.234,-3.352 8.726,-18.956 8.009,-26.023 5.995,6.604 19.002,18.851 28.861,15.339 11.453,-4.078 0.688,-16.192 -3.928,-21.685 7.305,1.937 17.128,6.637 24.351,5.182 6.725,-1.353 5.81,-6.531 5.12,-12.497 -0.032,-0.273 -0.118,-0.541 -0.244,-0.806 -0.04,-0.088 -0.109,-0.173 -0.16,-0.261 -0.103,-0.173 -0.205,-0.349 -0.343,-0.518 -0.081,-0.101 -0.185,-0.197 -0.277,-0.298 -0.145,-0.151 -0.288,-0.305 -0.46,-0.454 -0.114,-0.102 -0.246,-0.2 -0.374,-0.301 -0.18,-0.142 -0.362,-0.284 -0.563,-0.421 -0.142,-0.101 -0.295,-0.197 -0.448,-0.294 -0.213,-0.135 -0.431,-0.268 -0.658,-0.397 -0.166,-0.095 -0.337,-0.189 -0.513,-0.282 -0.236,-0.128 -0.481,-0.254 -0.734,-0.376 -0.183,-0.091 -0.366,-0.179 -0.557,-0.266 -0.262,-0.122 -0.53,-0.243 -0.802,-0.361 -0.193,-0.082 -0.38,-0.164 -0.576,-0.244 -0.244,-0.103 -0.496,-0.201 -0.748,-0.3 -0.282,-0.109 -0.563,-0.219 -0.85,-0.324 -0.252,-0.095 -0.505,-0.186 -0.759,-0.275 -0.28,-0.099 -0.558,-0.197 -0.839,-0.292 -0.255,-0.085 -0.51,-0.171 -0.766,-0.255 -0.277,-0.09 -0.547,-0.177 -0.82,-0.263 -0.255,-0.08 -0.511,-0.158 -0.763,-0.235 -0.266,-0.082 -0.521,-0.156 -0.78,-0.233 -0.24,-0.071 -0.483,-0.142 -0.717,-0.21 -0.261,-0.074 -0.508,-0.144 -0.76,-0.213 -0.214,-0.061 -0.433,-0.12 -0.637,-0.177 -0.246,-0.067 -0.469,-0.128 -0.698,-0.188 -0.188,-0.052 -0.387,-0.104 -0.562,-0.15 -0.263,-0.068 -0.488,-0.129 -0.719,-0.189 -0.434,-0.112 -0.831,-0.215 -1.132,-0.295 -7.019,-1.865 -14.114,-3.275 -21.344,-3.961 -1.344,-0.128 -9.92,-0.213 -9.92,-1.19 0,-1.163 -0.968,-0.757 -1.088,-2.037 -0.13,-1.38 0.315,-2.812 0.169,-4.094 -0.364,-3.198 -0.454,-6.443 -0.25,-9.658 0.159,-2.493 2.262,-1.375 4.085,-1.375 14.316,0 28.568,-1.945 42.175,-6.506 34.591,-11.592 68.46,-42.155 63.928,-81.988 -0.686,-5.602 -1.66,-10.992 -3.312,-16.402 -0.908,-2.984 -1.977,-5.964 -3.225,-8.825 -0.291,-0.665 -0.4,-1.328 -0.394,-1.99 0.011,-0.662 0.143,-1.324 0.336,-1.987 0.387,-1.327 1.024,-2.66 1.447,-4.015 0.857,-2.758 1.7,-5.563 1.882,-8.463 0.04,-0.624 0.033,-1.381 0.019,-2.199 -0.015,-0.819 -0.036,-1.698 -0.036,-2.568 0,-1.743 0.102,-3.446 0.576,-4.544 z M 59.172,91.047 c -3.713,-3.425 -4.316,-8.619 -2.812,-13.224 0.641,-1.961 1.671,-3.824 2.515,-5.705 1.804,-4.02 -5.585,-1.52 -7.873,-1.224 -2.632,0.401 -4.477,0.783 -5.973,0.67 -0.754,-0.057 -1.424,-0.235 -2.052,-0.611 -1.134,-0.678 -2.154,-1.976 -3.38,-4.265 -1.435,-2.678 -1.512,-5.971 -0.61,-8.833 2.214,-7.026 11.831,-11.75 18.965,-10.182 -5.948,-9.472 -7.518,-26.202 7.374,-26.923 5.035,-0.244 9.493,1.924 14.138,3.385 2.138,0.673 3.486,2.522 5.45,3.29 3.559,1.391 2.18,-2.781 4.285,-5.194 8.541,-9.789 21.934,10.343 22.864,17.721 0.629,4.983 -0.157,8.094 5.968,9.944 1.961,0.592 6.15,-0.205 7.67,0.792 3.076,2.018 5.417,4.57 6.494,8.148 1.602,5.319 -1.904,10.339 -3.898,15.181 -2.399,-4.362 -6.095,-7.794 -11.035,-8.913 -3.42,-0.775 -5.471,-0.76 -7.951,1.713 -1.107,1.104 -2.636,2.817 -4.303,3.021 -2.686,0.328 -3.443,-2.024 -5.65,0.522 -1.475,1.702 -3.403,4.906 -5.54,6.92 -0.668,0.631 -1.358,1.138 -2.061,1.452 -0.269,0.12 -0.54,0.222 -0.813,0.279 -2.479,0.519 -4.959,1.037 -7.438,1.555 -0.5,0.104 -0.59,3.745 -0.78,4.506 -0.369,1.472 -0.902,3.252 -1.861,4.528 -0.082,0.109 -0.147,0.239 -0.235,0.339 -0.105,0.12 -0.226,0.225 -0.336,0.341 -5.178,5.449 -15.187,6.242 -21.122,0.767 z m 96.524,284.895 c -3.266,6.546 -7.656,12.76 -11.326,18.989 -3.036,5.153 -9.642,7.061 -11.724,0.105 -2.375,-7.932 3.661,-18.092 10.079,-22.533 -7.628,1.837 -15.014,9.605 -19.814,15.443 -2.281,2.775 -2.761,7.039 -6.526,7.039 -4.001,0 -7.082,-3.961 -7.082,-7.779 0,-7.526 6.565,-12.392 12.095,-16.289 -8.777,-2.815 -16.763,3.259 -25.04,4.123 -8.301,0.868 -4.539,-6.694 -0.531,-9.995 8.636,-7.109 20.153,-5.259 30.717,-4.577 3.752,0.243 10.744,2.026 14.058,1.032 4.098,-1.227 2.862,-10.346 3.236,-14.599 5.422,0.801 9.918,0.187 15.174,-1.004 0,1.992 0,3.983 0,5.977 -0.09,7.908 0.244,16.932 -3.316,24.068 z m 22.996,-17.244 c 9.781,0.153 19.656,1.598 29.091,4.169 5.46,1.487 15.175,3.408 17.647,9.479 2.947,7.225 -7.031,9.125 -12.253,7.67 -8.9,-2.483 -16.995,-5.861 -26.207,-7.459 4.012,2.74 25.186,18.068 14.109,22.48 -8.851,3.53 -25.386,-11.775 -28.168,-19.307 -1.632,2.101 -0.534,8.133 -0.755,11.218 -0.275,3.858 -0.808,7.604 -1.951,11.287 -1.873,6.036 -7.447,9.836 -10.08,3.097 -2.838,-7.272 -0.673,-17.99 0.326,-25.415 1.337,-9.939 1.654,-19.897 1.53,-29.913 3.928,2.408 9.361,2.359 12.997,-0.582 -0.744,4.437 -0.267,9.073 -0.156,13.541 1.261,-0.266 2.575,-0.356 3.87,-0.265 z M 278.985,197.525 c -1.912,0 0.905,5.16 0.593,6.789 -0.717,3.752 -1.351,7.528 -2.212,11.25 -1.403,-2.767 -3.789,-10.543 -6.947,-10.368 3.824,7.932 6.178,17.565 8.638,26.01 2.778,9.539 4.073,19.108 3.3,29.054 -4.084,63.418 -80.962,76.419 -131.503,74.844 -16.653,-0.519 -33.593,-1.297 -50.173,-2.637 -15.584,-1.261 -32.569,-3.734 -46.813,-10.584 -30.33,-14.584 -41.343,-43.855 -38.833,-76.116 0.374,-4.809 1.228,-9.561 2.175,-14.281 3.785,1.488 9.084,-1.858 10.394,1.783 2.875,7.996 7.888,15.015 14.593,20.168 -0.301,-0.447 -0.607,-0.892 -0.914,-1.335 -5.885,-8.524 -12.625,-16.613 -13.304,-27.706 -2.069,1.854 -6.888,5.017 -9.603,2.964 -4.049,-3.063 -0.559,-13.373 -0.03,-17.179 1.01,-7.258 2.768,-14.453 4.713,-21.512 2.122,-7.703 0.135,-13.642 -0.427,-21.327 -1.809,-24.724 3.122,-50.248 15.373,-71.164 1.739,-2.968 9.524,-15.589 13.952,-12.642 0.047,-0.246 0.135,-0.475 0.266,-0.688 1.09,1.746 0.238,4.538 0.849,6.718 0.883,3.151 3.691,6.297 6.207,8.251 4.565,3.545 9.214,4.733 14.642,2.698 6.288,-2.359 13.616,-7.759 14.695,-14.784 0.159,-1.04 8.135,-4.337 9.761,-5.687 1.329,-1.103 2.743,-4.331 4.349,-4.89 5.346,-1.862 6.942,-2.339 11.92,0.418 14.549,8.061 20.544,20.532 26.81,35.204 6.385,14.95 15.852,28.477 26.676,40.515 4.737,5.267 10.058,10.032 15.521,14.527 3.831,3.154 -6.572,9.561 -8.567,10.548 -2.513,1.244 -5.186,2.02 -7.957,2.513 -1.656,0.295 -6.258,0.675 -3.29,3.306 2.805,2.482 6.392,7.555 7.163,12.206 0.263,1.573 0.204,3.098 -0.317,4.458 -0.197,0.508 -0.49,1.031 -0.857,1.558 -2.509,3.598 -8.537,7.447 -11.504,9.153 -3.907,2.245 -7.959,3.796 -12.254,5.21 1.443,3.001 2.502,6.247 2.492,9.396 -0.009,2.709 -0.806,5.346 -2.863,7.69 -1.879,2.143 -4.101,3.598 -6.533,4.579 -7.354,2.963 -16.638,1.568 -24.236,1.609 1.588,6.206 2.216,21.827 -6.101,22.374 -7.519,0.494 -27.225,-5.833 -30.504,-13.064 -3.91,7.385 -14.065,14.42 -22.706,10.632 0.093,0.571 0.281,1.067 0.538,1.503 3.408,5.789 20.13,0.122 20.454,-6.043 0.006,-0.109 0.021,-0.217 0.017,-0.326 0.102,0.065 0.207,0.122 0.309,0.186 10.609,6.787 22.313,10.664 34.814,12.017 2.384,0.259 6.076,-7.574 6.865,-9.292 1.698,-3.692 2.189,-8.31 1.937,-12.327 9.296,1.062 18.22,0.073 25.04,-6.929 4.94,-5.073 9.554,-13.378 6.472,-20.417 6.982,-2.021 13.257,-5.146 18.354,-10.42 2.674,-2.763 5.095,-5.295 5.095,-9.23 0,-5.077 -1.891,-10.071 -5.306,-13.833 5.497,-0.889 10.957,-2.891 14.271,-7.643 3.089,-4.433 5.154,-10.928 0.558,-14.571 -0.405,-0.321 -0.843,-0.627 -1.354,-0.9 0.307,0.001 0.617,0.004 0.925,0.006 11.971,0.077 23.937,0.149 35.906,0.375 5.2,0.099 11.178,-0.619 16.3,0.596 4.452,1.057 7.612,5.087 10.687,8.173 -1.815,-5.054 -5.459,-8.993 -10.343,-11.188 -3.712,-1.667 -13.066,-1.538 -13.581,-6.108 -0.598,-5.305 12.098,-12.713 16.339,-15.076 6.232,-3.471 12.362,-6.053 19.017,-7.933 5.574,-1.575 8.648,1.715 8.729,7.191 0.019,1.195 -0.28,2.401 -0.452,3.578 -0.354,2.414 1.123,2.063 2.786,3.511 3.063,2.664 5.763,5.304 7.729,8.919 2.611,4.799 4.464,8.784 3.917,14.249 -0.16,1.59 -1.203,1.763 -2.043,2.698 -1.891,2.111 -2.936,-0.685 -0.795,2.698 3.739,5.909 11.288,14.508 7.375,22.48 -1.346,2.727 -4.253,3.595 -7.194,3.595 z" />
      <path
         id="path12865"
         d="m 239.646,185.148 c -1.937,-7.663 -8.924,-21.232 -18.723,-19.254 3.104,0.974 5.789,2.677 8.012,4.854 4.205,4.12 6.732,9.959 7.187,15.91 0.003,0.053 0.009,0.106 0.013,0.16 0.04,0.589 0.065,1.179 0.065,1.769 0.002,3.983 -1.036,7.832 -2.387,11.532 -1.35,3.696 -3.678,5.133 -2.885,7.236 0.02,0.056 0.053,0.116 0.078,0.173 0.305,0.673 0.916,1.418 1.987,2.329 6.772,5.757 -3.028,25.907 -7.086,32.207 -2.403,3.732 -5.324,7.073 -8.596,10.051 -3.209,2.927 -7.984,5.156 -11.006,8.354 -0.324,0.345 -0.649,0.69 -0.93,1.061 4.197,1.93 4.737,2.199 8.012,-0.528 3.388,-2.824 6.783,-5.86 9.548,-9.309 6.072,-7.569 10.682,-15.61 13.424,-24.967 1.127,-3.852 5.181,-16.009 1.902,-19.333 -3.223,-3.265 0.297,-7.024 1.172,-11.294 0.739,-3.593 0.844,-7.333 0.213,-10.951 z" />
      <path
         id="path12867"
         d="m 180.339,369.67 c -0.002,0.086 -0.002,0.15 -0.002,0.084 0.002,-0.038 0.002,-0.055 0.002,-0.084 z" />
      <path
         id="path12869"
         d="m 50.737,113.475 c -8.413,-5.638 -14.284,10.381 -4.138,11.584 6.256,0.589 9.596,-7.927 4.138,-11.584 z m -6.52,5.261 c -0.928,0 -1.681,-0.824 -1.681,-1.841 0,-1.017 0.752,-1.841 1.681,-1.841 0.928,0 1.68,0.824 1.68,1.841 0,1.017 -0.752,1.841 -1.68,1.841 z" />
      <path
         id="path12871"
         d="m 64.689,184.619 c 1.626,1.005 2.424,3.113 4.563,4.125 4.78,2.263 10.89,2.563 13.979,-1.958 7.661,-11.205 5.605,-20.91 -0.292,-32.16 -2.295,-4.379 -0.365,-9.196 -3.713,-13.805 -3.775,-5.196 -10.451,-9.628 -17.029,-9.521 -1.726,0.028 -3.495,0.393 -5.214,1.023 -2.724,0.997 -5.317,2.663 -7.41,4.735 -4.824,4.773 -6.972,11.69 -1.806,17.49 0.888,0.995 1.983,1.838 3.131,2.513 -7.517,7.216 -6.751,27.418 6.631,27.083 2.944,-0.008 4.779,-0.997 7.16,0.475 z m 12.992,0.341 c -0.569,0.317 -1.168,0.556 -1.798,0.69 -0.661,0.141 -1.278,0.173 -1.864,0.132 -1.448,-0.1 -2.683,-0.696 -3.779,-1.559 -1.53,-1.202 -2.795,-2.9 -4.013,-4.418 -1.818,-2.265 -3.002,-0.226 -5.465,0.477 -2.43,0.693 -4.835,0.328 -6.843,-1.112 -3.61,-2.213 -5.96,-6.843 -5.093,-11.107 0.542,-2.663 2.21,-3.869 3.873,-5.713 2.917,-3.233 1.524,-2.408 5.251,-1.64 7.782,1.602 13.131,0.62 19.152,-4.866 3.261,4.869 6.791,10.415 6.791,16.477 0,2.7 -0.841,5.886 -2.323,8.484 -1.014,1.779 -2.328,3.281 -3.889,4.155 z M 54.292,135.426 c 7.792,-5.549 17.75,-0.238 22.175,7.01 2.646,4.334 -0.545,9.778 -4.961,11.874 -7.684,3.647 -14.79,1.079 -21.14,-3.544 -4.889,-4.513 -0.31,-12.324 3.926,-15.34 z" />
      <path
         id="path12873"
         d="m 96.386,117.865 c -0.939,-2.997 -5.205,-5.631 -8.037,-5.131 -4.98,0.879 -5.035,6.433 -4.137,10.314 4.02,4.22 14.293,1.572 12.174,-5.183 z m -9.062,-3.42 c 1.15,0 2.082,0.96 2.082,2.146 0,1.184 -0.932,2.145 -2.082,2.145 -1.149,0 -2.082,-0.961 -2.082,-2.145 0,-1.186 0.933,-2.146 2.082,-2.146 z" />
      <ellipse
         id="ellipse12875"
         ry="1.841"
         rx="1.681"
         cy="116.895"
         cx="44.216999"
         style="fill:#ffffff" />
      <ellipse
         id="ellipse12877"
         ry="2.145"
         rx="2.082"
         cy="116.591"
         cx="87.323997"
         style="fill:#ffffff" />
    </g>
  </g>
  <g
     transform="matrix(0.15351097,0,0,0.12977325,34.944629,45.407722)"
     id="g12637"
     style="overflow:visible">
    <g
       id="g12573">
      <path
         style="fill:#ffffff"
         d="m 170.2,199.512 c -0.109,0.306 -0.246,0.597 -0.374,0.895 0.367,-0.527 0.66,-1.05 0.857,-1.558 0.521,-1.359 0.58,-2.885 0.317,-4.458 0.06,1.634 -0.159,3.326 -0.8,5.121 z"
         id="path12465" />
      <path
         style="fill:#ffffff"
         d="m 93.818,77.278 c -0.705,0.473 -1.39,0.959 -2.061,1.452 0.703,-0.314 1.392,-0.821 2.061,-1.452 z"
         id="path12467" />
      <path
         style="fill:#ffffff"
         d="m 45.029,71.564 c -0.708,-0.167 -1.4,-0.36 -2.052,-0.611 0.628,0.376 1.298,0.554 2.052,0.611 z"
         id="path12469" />
      <path
         style="fill:#ffffff"
         d="m 281.474,224.209 c 0.011,-0.662 0.143,-1.324 0.336,-1.987 -0.194,0.663 -0.326,1.325 -0.336,1.987 z"
         id="path12471" />
      <path
         style="fill:#ffffff"
         d="m 139.439,236.271 c -0.091,0.06 -0.184,0.104 -0.275,0.164 2.432,-0.981 4.654,-2.437 6.533,-4.579 2.057,-2.345 2.854,-4.981 2.863,-7.69 -0.288,1.598 -0.578,2.962 -0.776,3.356 -1.821,3.615 -5.031,6.54 -8.345,8.749 z"
         id="path12473" />
      <path
         style="fill:#ffffff"
         d="m 231.007,207.527 c -0.025,-0.058 -0.059,-0.117 -0.078,-0.173 -0.215,-0.04 -0.436,-0.093 -0.666,-0.179 0.268,0.099 0.493,0.237 0.744,0.352 z"
         id="path12475" />
      <path
         style="fill:#ffffff"
         d="m 278.8,171.448 c -2.141,-3.382 -1.096,-0.587 0.795,-2.698 0.84,-0.935 1.883,-1.108 2.043,-2.698 0.547,-5.465 -1.306,-9.449 -3.917,-14.249 -1.966,-3.616 -4.665,-6.255 -7.729,-8.919 -1.663,-1.448 -3.14,-1.098 -2.786,-3.511 0.172,-1.177 0.471,-2.383 0.452,-3.578 -0.08,-5.477 -3.154,-8.766 -8.729,-7.191 -6.654,1.88 -12.784,4.462 -19.017,7.933 -4.241,2.362 -16.937,9.771 -16.339,15.076 0.515,4.57 9.869,4.441 13.581,6.108 4.884,2.195 8.527,6.134 10.343,11.188 -3.074,-3.085 -6.234,-7.116 -10.687,-8.173 -5.122,-1.215 -11.1,-0.498 -16.3,-0.596 -11.97,-0.226 -23.936,-0.299 -35.906,-0.375 0.145,0.298 0.309,0.59 0.429,0.894 4.597,3.644 2.531,10.139 -0.558,14.571 -3.313,4.752 -8.773,6.754 -14.271,7.643 3.415,3.762 5.306,8.756 5.306,13.833 0,3.935 -2.421,6.467 -5.095,9.23 -5.098,5.275 -11.372,8.399 -18.354,10.42 3.082,7.039 -1.532,15.344 -6.472,20.417 -6.82,7.002 -15.744,7.99 -25.04,6.929 0.253,4.018 -0.239,8.635 -1.937,12.327 -0.79,1.718 -4.481,9.551 -6.865,9.292 -12.501,-1.353 -24.205,-5.229 -34.814,-12.017 -0.104,0.046 -0.212,0.092 -0.326,0.141 -0.324,6.165 -17.045,11.832 -20.454,6.043 -5.512,-0.6 -10.583,-3.404 -14.873,-7.387 0.306,0.443 0.613,0.888 0.914,1.335 -6.706,-5.153 -11.718,-12.172 -14.593,-20.168 -1.309,-3.642 -6.609,-0.295 -10.394,-1.783 -0.947,4.721 -1.802,9.473 -2.175,14.281 -2.51,32.261 8.503,61.532 38.833,76.116 14.244,6.85 31.229,9.323 46.813,10.584 16.581,1.34 33.521,2.118 50.173,2.637 50.541,1.575 127.419,-11.426 131.503,-74.844 0.773,-9.945 -0.521,-19.515 -3.3,-29.054 -2.46,-8.445 -4.813,-18.078 -8.638,-26.01 3.158,-0.176 5.544,7.601 6.947,10.368 0.861,-3.722 1.495,-7.497 2.212,-11.25 0.313,-1.629 -2.505,-6.789 -0.593,-6.789 2.94,0 5.848,-0.869 7.189,-3.597 3.917,-7.97 -3.632,-16.57 -7.371,-22.479 z m -40.537,35.944 c 3.278,3.324 -0.775,15.481 -1.902,19.333 -2.742,9.356 -7.352,17.397 -13.424,24.967 -2.765,3.448 -6.16,6.484 -9.548,9.309 -3.274,2.728 -3.814,2.458 -8.012,0.528 0.28,-0.37 0.605,-0.716 0.93,-1.061 -2.201,0.415 -4.358,0.355 -6.4,-0.338 13.23,-6.462 25.142,-22.375 27.852,-36.916 0.854,-4.583 0.98,-14.89 -5.624,-14.898 -5.35,-0.007 -6.725,8.126 -9.311,11.448 -4.263,5.475 -13.61,12.23 -20.558,9.537 14.358,-4.522 31.112,-22.229 15.602,-35.477 4.117,-3.062 3.728,-9.21 1.634,-13.667 -0.303,-0.646 -0.642,-1.258 -1.006,-1.819 0.364,0.561 0.703,1.172 1.006,1.819 2.661,5.359 2.743,11.668 6.18,16.619 5.093,7.338 11.432,2.188 12.868,-5.741 1.594,-8.774 -2.986,-17.898 -11.185,-21.667 2.948,1.356 7.025,-1.812 11.287,1.154 0.099,0.069 0.186,0.153 0.284,0.226 -2.223,-2.177 -4.908,-3.88 -8.012,-4.854 9.799,-1.979 16.786,11.591 18.723,19.254 0.631,3.618 0.525,7.358 -0.212,10.95 -0.875,4.27 -4.395,8.029 -1.172,11.294 z"
         id="path12477" />
      <path
         style="fill:#ffffff"
         d="m 289.114,197.15 c -0.613,1.049 -3.154,2.668 -3.417,3.285 -0.475,1.099 -0.576,2.802 -0.576,4.542 0,-1.741 0.102,-3.443 0.576,-4.542 0.263,-0.616 2.804,-2.235 3.417,-3.285 z"
         id="path12479" />
      <path
         style="fill:#ffffff"
         d="m 236.122,186.658 c 0.003,0.054 0.009,0.106 0.013,0.16 -0.004,-0.054 -0.01,-0.108 -0.013,-0.16 z"
         id="path12481" />
      <path
         style="fill:#ffffff"
         d="m 285.139,209.744 c -0.182,2.899 -1.024,5.705 -1.882,8.463 0.857,-2.757 1.7,-5.563 1.882,-8.463 z"
         id="path12483" />
      <path
         style="fill:#ffffff"
         d="m 10.024,231.374 c 0.736,-5.305 2.13,-10.418 3.432,-15.551 -1.302,5.133 -2.696,10.246 -3.432,15.551 z"
         id="path12485" />
      <path
         style="fill:#ff7f00"
         d="m 222.772,366.08 c 0.271,0.118 0.54,0.239 0.802,0.361 -0.261,-0.122 -0.53,-0.243 -0.802,-0.361 z"
         id="path12487" />
      <path
         style="fill:#ff7f00"
         d="m 218.235,364.39 c 0.256,0.084 0.511,0.17 0.766,0.255 -0.255,-0.087 -0.51,-0.171 -0.766,-0.255 z"
         id="path12489" />
      <path
         style="fill:#ff7f00"
         d="m 219.84,364.937 c 0.254,0.09 0.507,0.181 0.759,0.275 -0.252,-0.095 -0.503,-0.184 -0.759,-0.275 z"
         id="path12491" />
      <path
         style="fill:#ff7f00"
         d="m 221.94,365.727 c -0.16,-0.066 -0.328,-0.126 -0.492,-0.19 0.252,0.099 0.504,0.197 0.748,0.3 -0.086,-0.038 -0.168,-0.076 -0.256,-0.11 z"
         id="path12493" />
      <path
         style="fill:#ff7f00"
         d="m 216.652,363.892 c 0.252,0.077 0.508,0.155 0.763,0.235 -0.257,-0.08 -0.511,-0.158 -0.763,-0.235 z"
         id="path12495" />
      <path
         style="fill:#ff7f00"
         d="m 210.648,362.236 c 0.301,0.08 0.698,0.183 1.132,0.295 -0.433,-0.112 -0.831,-0.215 -1.132,-0.295 z"
         id="path12497" />
      <path
         style="fill:#ff7f00"
         d="m 212.499,362.721 c 0.175,0.046 0.374,0.099 0.562,0.15 -0.192,-0.052 -0.383,-0.104 -0.562,-0.15 z"
         id="path12499" />
      <path
         style="fill:#ff7f00"
         d="m 215.155,363.448 c 0.233,0.068 0.477,0.139 0.717,0.21 -0.244,-0.071 -0.481,-0.141 -0.717,-0.21 z"
         id="path12501" />
      <path
         style="fill:#ff7f00"
         d="m 213.759,363.059 c 0.204,0.057 0.423,0.116 0.637,0.177 -0.215,-0.061 -0.431,-0.121 -0.637,-0.177 z"
         id="path12503" />
      <path
         style="fill:#ff7f00"
         d="m 225.378,367.365 c 0.228,0.13 0.445,0.263 0.658,0.397 -0.213,-0.134 -0.431,-0.267 -0.658,-0.397 z"
         id="path12505" />
      <path
         style="fill:#ff7f00"
         d="m 224.131,366.707 c 0.253,0.122 0.498,0.248 0.734,0.376 -0.236,-0.128 -0.481,-0.254 -0.734,-0.376 z"
         id="path12507" />
      <path
         style="fill:#ff7f00"
         d="m 227.422,368.778 c 0.172,0.149 0.315,0.303 0.46,0.454 -0.145,-0.151 -0.288,-0.304 -0.46,-0.454 z"
         id="path12509" />
      <path
         style="fill:#ff7f00"
         d="m 228.662,370.309 c 0.126,0.265 0.212,0.532 0.244,0.806 -0.032,-0.274 -0.118,-0.542 -0.244,-0.806 z"
         id="path12511" />
      <path
         style="fill:#ff7f00"
         d="m 228.159,369.53 c 0.138,0.169 0.24,0.345 0.343,0.518 -0.103,-0.173 -0.205,-0.349 -0.343,-0.518 z"
         id="path12513" />
      <path
         style="fill:#ff7f00"
         d="m 139.815,352.767 c -0.667,2.546 -1.113,4.504 -1.151,4.504 0.65,0 1.009,-3.173 1.151,-4.504 z"
         id="path12515" />
      <path
         style="fill:#ff7f00"
         d="m 226.484,368.057 c 0.201,0.137 0.384,0.279 0.563,0.421 -0.179,-0.142 -0.361,-0.283 -0.563,-0.421 z"
         id="path12517" />
      <path
         style="fill:#ff7f00"
         d="m 174.823,358.963 c -0.11,-4.468 -0.588,-9.104 0.156,-13.541 -3.636,2.941 -9.069,2.99 -12.997,0.582 0.124,10.016 -0.193,19.974 -1.53,29.913 -0.999,7.425 -3.164,18.143 -0.326,25.415 2.633,6.739 8.207,2.939 10.08,-3.097 1.144,-3.683 1.676,-7.429 1.951,-11.287 0.221,-3.085 -0.877,-9.117 0.755,-11.218 2.782,7.531 19.317,22.837 28.168,19.307 11.076,-4.412 -10.098,-19.74 -14.109,-22.48 9.212,1.598 17.307,4.976 26.207,7.459 5.222,1.455 15.2,-0.445 12.253,-7.67 -2.473,-6.07 -12.188,-7.991 -17.647,-9.479 -9.435,-2.571 -19.31,-4.016 -29.091,-4.169 -1.296,-0.091 -2.61,-10e-4 -3.87,0.265 z m 5.516,10.707 c 0.002,-0.027 0.002,-0.053 0.002,-0.074 0,-0.04 0,-0.075 0,-0.103 0,0.027 0,0.063 0,0.103 0,0.021 0,0.047 -0.002,0.074 0,0.029 0,0.046 -0.002,0.084 0,0.066 0,0.002 0.002,-0.084 z"
         id="path12519" />
      <path
         style="fill:#ff7f00"
         d="m 159.014,345.898 c -5.256,1.19 -9.752,1.805 -15.174,1.004 -0.374,4.253 0.862,13.372 -3.236,14.599 -3.314,0.994 -10.306,-0.789 -14.058,-1.032 -10.564,-0.682 -22.081,-2.532 -30.717,4.577 -4.008,3.301 -7.771,10.863 0.531,9.995 8.276,-0.864 16.262,-6.938 25.04,-4.123 -5.53,3.897 -12.095,8.763 -12.095,16.289 0,3.818 3.08,7.779 7.082,7.779 3.765,0 4.245,-4.264 6.526,-7.039 4.8,-5.838 12.186,-13.606 19.814,-15.443 -6.418,4.441 -12.454,14.602 -10.079,22.533 2.082,6.955 8.688,5.048 11.724,-0.105 3.67,-6.229 8.061,-12.443 11.326,-18.989 3.56,-7.137 3.226,-16.16 3.317,-24.067 -10e-4,-1.994 -10e-4,-3.985 -10e-4,-5.978 z"
         id="path12521" />
      <path
         style="fill:#d59758"
         d="m 172.485,147.804 c 0.77,0.525 1.571,1.005 2.396,1.459 -3.526,-2.791 -7.107,-5.399 -9.515,-8.082 2.117,2.534 4.453,4.799 7.119,6.623 z"
         id="path12523" />
      <path
         style="fill:#d59758"
         d="m 46.195,82.616 c -0.127,0.089 -0.242,0.174 -0.381,0.267 -8.06,5.431 -14.843,16.423 -18.897,25.643 4.693,-10.53 11.265,-18.291 19.278,-25.91 z"
         id="path12525" />
      <path
         style="fill:#d59758"
         d="m 17.694,190.014 c 0.148,-1.843 0.261,-3.688 0.336,-5.53 -0.159,3.918 -3.171,17.488 -3.889,28.578 0.523,-2.166 1.009,-4.342 1.396,-6.544 0.96,-5.444 1.714,-10.972 2.157,-16.504 z"
         id="path12527" />
      <path
         style="fill:#d59758"
         d="m 25.769,111.255 c 0.358,-0.904 0.73,-1.786 1.115,-2.651 -0.396,0.902 -0.775,1.792 -1.115,2.651 z"
         id="path12529" />
      <path
         style="fill:#d59758"
         d="m 76.625,253.119 c 0.004,0.109 -0.01,0.217 -0.017,0.326 0.113,-0.049 0.222,-0.095 0.326,-0.141 -0.102,-0.063 -0.206,-0.119 -0.309,-0.185 z"
         id="path12531" />
      <path
         style="fill:#d59758"
         d="m 183.681,159.758 c 0.511,0.273 0.948,0.58 1.354,0.9 -0.12,-0.304 -0.284,-0.596 -0.429,-0.894 -0.308,-0.001 -0.619,-0.004 -0.925,-0.006 z"
         id="path12533" />
      <path
         style="fill:#d59758"
         d="m 55.617,257.985 c 8.641,3.788 18.795,-3.247 22.706,-10.632 3.279,7.231 22.985,13.559 30.504,13.064 8.317,-0.547 7.689,-16.168 6.101,-22.374 7.599,-0.041 16.882,1.354 24.236,-1.609 0.091,-0.061 0.185,-0.104 0.275,-0.164 3.313,-2.209 6.523,-5.134 8.344,-8.749 0.198,-0.395 0.488,-1.759 0.776,-3.356 0.01,-3.148 -1.048,-6.395 -2.492,-9.396 4.295,-1.414 8.347,-2.965 12.254,-5.21 2.967,-1.706 8.995,-5.555 11.504,-9.153 0.128,-0.297 0.265,-0.588 0.374,-0.895 0.641,-1.795 0.859,-3.487 0.801,-5.121 -0.771,-4.651 -4.358,-9.724 -7.163,-12.206 -2.968,-2.63 1.634,-3.01 3.29,-3.306 2.771,-0.493 5.444,-1.269 7.957,-2.513 1.995,-0.987 12.398,-7.394 8.567,-10.548 -5.464,-4.495 -10.784,-9.26 -15.521,-14.527 -10.824,-12.038 -20.292,-25.565 -26.676,-40.515 -6.266,-14.671 -12.261,-27.143 -26.81,-35.204 -4.978,-2.758 -6.574,-2.28 -11.92,-0.418 -1.606,0.559 -3.02,3.787 -4.349,4.89 -1.625,1.35 -9.602,4.646 -9.761,5.687 -1.08,7.025 -8.407,12.425 -14.695,14.784 -5.428,2.036 -10.077,0.848 -14.642,-2.698 -2.516,-1.954 -5.324,-5.1 -6.207,-8.251 -0.611,-2.18 0.242,-4.972 -0.849,-6.718 -0.13,0.212 -0.219,0.442 -0.266,0.688 -4.428,-2.948 -12.213,9.673 -13.952,12.642 -12.25,20.916 -17.181,46.44 -15.373,71.164 0.562,7.685 2.548,13.624 0.427,21.327 -1.945,7.059 -3.703,14.254 -4.713,21.512 -0.528,3.806 -4.019,14.116 0.03,17.179 2.714,2.053 7.534,-1.11 9.603,-2.964 0.678,11.093 7.418,19.182 13.304,27.706 4.29,3.982 9.361,6.787 14.873,7.387 -0.256,-0.435 -0.444,-0.931 -0.537,-1.503 z M 88.349,112.734 c 2.832,-0.5 7.098,2.134 8.037,5.131 2.119,6.755 -8.154,9.403 -12.174,5.183 -0.898,-3.881 -0.843,-9.435 4.137,-10.314 z m -37.612,0.741 c 5.458,3.658 2.119,12.174 -4.138,11.584 -10.146,-1.203 -4.275,-17.222 4.138,-11.584 z m 0.159,43.586 c -1.148,-0.675 -2.243,-1.518 -3.131,-2.513 -5.166,-5.8 -3.018,-12.716 1.806,-17.49 1.656,-2.115 4.136,-3.821 7.41,-4.735 1.719,-0.63 3.488,-0.995 5.214,-1.023 6.578,-0.106 13.254,4.325 17.029,9.521 3.349,4.609 1.418,9.426 3.713,13.805 5.897,11.25 7.953,20.955 0.292,32.16 -3.089,4.521 -9.199,4.22 -13.979,1.958 -2.138,-1.012 -2.936,-3.12 -4.563,-4.125 -2.381,-1.472 -4.216,-0.483 -7.162,-0.476 -13.38,0.336 -14.146,-19.866 -6.629,-27.082 z"
         id="path12535" />
      <path
         style="fill:#d59758"
         d="m 80.866,89.597 c -0.189,0.229 -0.379,0.456 -0.572,0.68 0.11,-0.116 0.231,-0.221 0.336,-0.341 0.089,-0.1 0.154,-0.229 0.236,-0.339 z"
         id="path12537" />
      <path
         style="fill:#d59758"
         d="m 79.906,182.988 c -0.835,0.874 -1.563,1.514 -2.225,1.972 1.561,-0.874 2.875,-2.376 3.889,-4.155 -0.499,0.784 -1.04,1.53 -1.664,2.183 z"
         id="path12539" />
      <path
         style="fill:#d59758"
         d="m 74.02,185.782 c -1.092,-0.261 -2.255,-0.884 -3.779,-1.559 1.095,0.863 2.331,1.459 3.779,1.559 z"
         id="path12541" />
      <path
         style="fill:none;stroke:#d59758;stroke-width:0;stroke-linecap:round;stroke-linejoin:round"
         d="m 208.495,178.338 c 0.364,0.561 0.703,1.172 1.006,1.819"
         id="path12543" />
      <path
         style="fill:#d59758"
         d="m 217.313,252.114 c 3.271,-2.978 6.192,-6.318 8.596,-10.051 4.058,-6.3 13.858,-26.45 7.086,-32.207 -1.071,-0.911 -1.683,-1.656 -1.987,-2.329 -0.251,-0.115 -0.476,-0.253 -0.744,-0.352 0.23,0.085 0.451,0.139 0.666,0.179 -0.793,-2.104 1.535,-3.541 2.885,-7.236 1.351,-3.7 2.389,-7.548 2.387,-11.532 0,-0.59 -0.025,-1.18 -0.065,-1.769 -0.004,-0.054 -0.01,-0.106 -0.013,-0.16 -0.454,-5.951 -2.981,-11.79 -7.187,-15.91 -0.099,-0.073 -0.186,-0.157 -0.284,-0.226 -4.262,-2.966 -8.339,0.202 -11.287,-1.154 8.198,3.769 12.778,12.894 11.185,21.667 -1.437,7.929 -7.775,13.079 -12.868,5.741 -3.437,-4.951 -3.519,-11.26 -6.18,-16.619 2.094,4.457 2.483,10.605 -1.634,13.667 15.511,13.248 -1.243,30.955 -15.602,35.477 6.947,2.693 16.295,-4.063 20.558,-9.537 2.586,-3.322 3.961,-11.455 9.311,-11.448 6.604,0.009 6.478,10.315 5.624,14.898 -2.71,14.541 -14.621,30.454 -27.852,36.916 2.042,0.693 4.199,0.753 6.4,0.338 3.02,-3.196 7.796,-5.426 11.005,-8.353 z"
         id="path12545" />
      <path
         style="fill:#bf0000"
         d="m 82.727,85.069 c 0.19,-0.761 0.28,-4.402 0.78,-4.506 2.479,-0.518 4.959,-1.036 7.438,-1.555 0.272,-0.057 0.543,-0.159 0.813,-0.279 0.671,-0.493 1.355,-0.979 2.061,-1.452 2.137,-2.014 4.064,-5.218 5.54,-6.92 2.207,-2.546 2.964,-0.194 5.65,-0.522 1.667,-0.203 3.196,-1.917 4.303,-3.021 2.48,-2.474 4.531,-2.488 7.951,-1.713 4.94,1.119 8.635,4.551 11.035,8.913 1.994,-4.842 5.5,-9.862 3.898,-15.181 -1.078,-3.578 -3.418,-6.13 -6.494,-8.148 -1.521,-0.997 -5.709,-0.2 -7.67,-0.792 -6.125,-1.85 -5.339,-4.96 -5.968,-9.944 -0.93,-7.378 -14.323,-27.51 -22.864,-17.721 -2.105,2.414 -0.726,6.585 -4.285,5.194 -1.964,-0.768 -3.312,-2.617 -5.45,-3.29 C 74.82,22.671 70.361,20.503 65.327,20.747 50.433,21.47 52.003,38.2 57.951,47.672 50.817,46.105 41.2,50.828 38.986,57.854 c -0.901,2.863 -0.824,6.156 0.61,8.833 1.226,2.29 2.246,3.587 3.38,4.265 0.652,0.251 1.344,0.444 2.052,0.611 1.496,0.113 3.341,-0.269 5.973,-0.67 2.288,-0.295 9.677,-2.795 7.873,1.224 -0.843,1.881 -1.874,3.744 -2.515,5.705 -1.504,4.605 -0.901,9.798 2.812,13.224 5.935,5.476 15.944,4.683 21.122,-0.77 0.192,-0.225 0.382,-0.451 0.572,-0.68 0.959,-1.274 1.492,-3.055 1.862,-4.527 z"
         id="path12547" />
      <path
         style="fill:#bf0000"
         d="m 81.57,180.805 c 1.482,-2.598 2.323,-5.785 2.323,-8.484 0,-6.062 -3.529,-11.608 -6.791,-16.477 -6.021,5.486 -11.37,6.468 -19.152,4.866 -3.727,-0.768 -2.334,-1.593 -5.251,1.64 -1.663,1.844 -3.332,3.05 -3.873,5.713 -0.867,4.264 1.483,8.894 5.093,11.107 2.008,1.44 4.414,1.805 6.843,1.112 2.462,-0.703 3.647,-2.742 5.465,-0.477 1.217,1.518 2.482,3.216 4.013,4.418 1.524,0.674 2.687,1.298 3.779,1.559 0.585,0.041 1.203,0.009 1.864,-0.132 0.63,-0.134 1.229,-0.373 1.798,-0.69 0.662,-0.458 1.389,-1.099 2.225,-1.972 0.624,-0.653 1.165,-1.399 1.664,-2.183 z"
         id="path12549" />
      <path
         style="fill:#ff7f00"
         d="m 50.366,150.766 c 6.35,4.623 13.456,7.191 21.14,3.544 4.416,-2.096 7.606,-7.54 4.961,-11.874 -4.425,-7.248 -14.383,-12.559 -22.175,-7.01 -4.236,3.016 -8.815,10.827 -3.926,15.34 z"
         id="path12551" />
      <path
         style="fill:#ff7f00"
         d="m 56.981,132.323 c -3.273,0.914 -5.753,2.62 -7.41,4.735 2.093,-2.072 4.687,-3.738 7.41,-4.735 z"
         id="path12553" />
      <path
         style="fill:none;stroke:#000000;stroke-width:0;stroke-linecap:round;stroke-linejoin:round"
         d="m 180.341,369.493 c 0,0.027 0,0.063 0,0.103 0,0.021 0,0.047 -0.002,0.074"
         id="path12555" />
      <path
         d="m 285.697,200.435 c 0.263,-0.616 2.804,-2.235 3.417,-3.285 1.142,-1.968 1.823,-2.871 1.889,-4.78 0.008,-0.272 0.004,-0.566 -0.015,-0.886 -0.211,-4.051 -0.995,-8.161 -2.319,-11.996 -1.251,-3.61 -3.144,-6.331 -3.396,-10.05 -0.211,-3.092 0.146,-6.046 -0.415,-9.157 -1.276,-7.073 -4.749,-12.676 -9.509,-17.926 -4.46,-4.921 -2.742,-9.162 -5.277,-15.049 -1.935,-4.496 -3.289,-5.842 -8.016,-4.524 -4.001,1.115 -7.864,2.385 -11.691,3.995 -7.167,3.016 -13.691,7.148 -19.861,11.845 -5.708,4.343 -10.383,13.092 -17.221,14.365 -11.769,2.19 -27.394,2.345 -38.402,-3.725 -0.824,-0.454 -1.626,-0.935 -2.396,-1.459 -2.666,-1.824 -5.002,-4.088 -7.119,-6.622 -7.979,-9.545 -12.658,-23.132 -18.315,-33.405 -4.567,-8.292 -9.183,-16.553 -13.821,-24.805 -2.813,-5.004 2.761,-11.562 3.524,-17.516 0.756,-5.891 -0.928,-11.864 -5.487,-15.826 -1.701,-1.477 -8.618,-4.583 -10.057,-5.031 -2.948,-0.92 -2.204,-0.183 -3.736,-2.639 -4.268,-6.839 -5.724,-13.508 -12.149,-19.228 -2.772,-2.467 -8.195,-7.488 -12.413,-7.22 -1.732,0.11 -3.673,1.383 -5.146,2.328 -1.121,0.719 -2.314,1.494 -3.289,2.406 -2.357,2.206 -1.428,1.474 -4.244,0.821 -7.399,-1.716 -13.198,-4.911 -20.972,-1.248 -6.996,3.296 -10.046,6.5 -9.851,14.472 0.071,2.892 1.36,5.723 1.433,8.517 0.073,2.806 1.384,2.055 -1.591,3.438 -1.871,0.87 -3.747,1.729 -5.631,2.57 -7.248,3.236 -8.857,12.923 -6.809,19.884 2.279,7.75 8.31,9.121 15.676,8.172 -2.184,1.934 -4.282,3.835 -6.292,5.745 -8.014,7.619 -14.585,15.38 -19.278,25.91 -0.011,0.025 -0.022,0.052 -0.034,0.078 -0.385,0.865 -0.757,1.748 -1.115,2.651 -6.249,15.747 -9.265,31.866 -9.045,48.818 0.106,8.226 1.64,16.181 1.307,24.41 -0.075,1.842 -0.188,3.687 -0.336,5.53 -0.443,5.532 -1.197,11.06 -2.156,16.504 -0.387,2.202 -0.873,4.378 -1.396,6.544 -0.224,0.922 -0.451,1.843 -0.685,2.762 -1.302,5.133 -2.696,10.246 -3.432,15.551 -1.151,8.31 -1.466,16.537 -1.288,24.914 0.343,16.112 3.121,33.767 12.557,47.081 8.133,11.478 19.705,20.711 32.967,25.607 15.332,5.661 32.211,8.262 48.795,10.196 8.425,0.983 16.878,1.604 25.347,2.043 2.047,0.105 10.589,-0.519 10.954,1.349 0.636,3.265 0.882,6.478 0.503,9.787 -0.011,0.098 -0.027,0.248 -0.045,0.415 -0.143,1.331 -0.501,4.504 -1.151,4.504 -2.762,0 -5.539,-0.087 -8.299,0 -4.539,0.145 -9.063,0.479 -13.608,0.534 -7.929,0.097 -16.328,0.141 -22.466,5.973 -4.232,4.021 -10.662,15.994 -0.371,16.078 2.83,0.025 5.968,-2.327 8.572,-3.271 3.934,-1.426 8.418,-2.122 12.595,-2.071 -7.006,3.727 -12.707,14.931 -5.624,21.426 9.353,8.573 16.194,-4.285 21.645,-10.792 -4.05,7.298 -1.903,22.163 9.602,18.724 3.728,-1.112 5.129,-6.36 7.109,-9.307 2.461,-3.665 4.744,-6.747 7.64,-10.212 0.206,6.459 -3.538,32.378 11.035,26.447 8.234,-3.352 8.726,-18.956 8.009,-26.023 5.995,6.604 19.002,18.851 28.861,15.339 11.453,-4.078 0.688,-16.192 -3.928,-21.685 7.305,1.937 17.128,6.637 24.351,5.182 6.725,-1.353 5.81,-6.531 5.12,-12.497 -0.032,-0.273 -0.118,-0.541 -0.244,-0.806 -0.04,-0.088 -0.109,-0.173 -0.16,-0.261 -0.103,-0.173 -0.205,-0.349 -0.343,-0.518 -0.081,-0.101 -0.185,-0.197 -0.277,-0.298 -0.145,-0.151 -0.288,-0.305 -0.46,-0.454 -0.114,-0.102 -0.246,-0.2 -0.374,-0.301 -0.18,-0.142 -0.362,-0.284 -0.563,-0.421 -0.142,-0.101 -0.295,-0.197 -0.448,-0.294 -0.213,-0.135 -0.431,-0.268 -0.658,-0.397 -0.166,-0.095 -0.337,-0.189 -0.513,-0.282 -0.236,-0.128 -0.481,-0.254 -0.734,-0.376 -0.183,-0.091 -0.366,-0.179 -0.557,-0.266 -0.262,-0.122 -0.53,-0.243 -0.802,-0.361 -0.193,-0.082 -0.38,-0.164 -0.576,-0.244 -0.244,-0.103 -0.496,-0.201 -0.748,-0.3 -0.282,-0.109 -0.563,-0.219 -0.85,-0.324 -0.252,-0.095 -0.505,-0.186 -0.759,-0.275 -0.28,-0.099 -0.558,-0.197 -0.839,-0.292 -0.255,-0.085 -0.51,-0.171 -0.766,-0.255 -0.277,-0.09 -0.547,-0.177 -0.82,-0.263 -0.255,-0.08 -0.511,-0.158 -0.763,-0.235 -0.266,-0.082 -0.521,-0.156 -0.78,-0.233 -0.24,-0.071 -0.483,-0.142 -0.717,-0.21 -0.261,-0.074 -0.508,-0.144 -0.76,-0.213 -0.214,-0.061 -0.433,-0.12 -0.637,-0.177 -0.246,-0.067 -0.469,-0.128 -0.698,-0.188 -0.188,-0.052 -0.387,-0.104 -0.562,-0.15 -0.263,-0.068 -0.488,-0.129 -0.719,-0.189 -0.434,-0.112 -0.831,-0.215 -1.132,-0.295 -7.019,-1.865 -14.114,-3.275 -21.344,-3.961 -1.344,-0.128 -9.92,-0.213 -9.92,-1.19 0,-1.163 -0.968,-0.757 -1.088,-2.037 -0.13,-1.38 0.315,-2.812 0.169,-4.094 -0.364,-3.198 -0.454,-6.443 -0.25,-9.658 0.159,-2.493 2.262,-1.375 4.085,-1.375 14.316,0 28.568,-1.945 42.175,-6.506 34.591,-11.592 68.46,-42.155 63.928,-81.988 -0.686,-5.602 -1.66,-10.992 -3.312,-16.402 -0.908,-2.984 -1.977,-5.964 -3.225,-8.825 -0.291,-0.665 -0.4,-1.328 -0.394,-1.99 0.011,-0.662 0.143,-1.324 0.336,-1.987 0.387,-1.327 1.024,-2.66 1.447,-4.015 0.857,-2.758 1.7,-5.563 1.882,-8.463 0.04,-0.624 0.033,-1.381 0.019,-2.199 -0.015,-0.819 -0.036,-1.698 -0.036,-2.568 0,-1.743 0.102,-3.446 0.576,-4.544 z M 59.172,91.047 c -3.713,-3.425 -4.316,-8.619 -2.812,-13.224 0.641,-1.961 1.671,-3.824 2.515,-5.705 1.804,-4.02 -5.585,-1.52 -7.873,-1.224 -2.632,0.401 -4.477,0.783 -5.973,0.67 -0.754,-0.057 -1.424,-0.235 -2.052,-0.611 -1.134,-0.678 -2.154,-1.976 -3.38,-4.265 -1.435,-2.678 -1.512,-5.971 -0.61,-8.833 2.214,-7.026 11.831,-11.75 18.965,-10.182 -5.948,-9.472 -7.518,-26.202 7.374,-26.923 5.035,-0.244 9.493,1.924 14.138,3.385 2.138,0.673 3.486,2.522 5.45,3.29 3.559,1.391 2.18,-2.781 4.285,-5.194 8.541,-9.789 21.934,10.343 22.864,17.721 0.629,4.983 -0.157,8.094 5.968,9.944 1.961,0.592 6.15,-0.205 7.67,0.792 3.076,2.018 5.417,4.57 6.494,8.148 1.602,5.319 -1.904,10.339 -3.898,15.181 -2.399,-4.362 -6.095,-7.794 -11.035,-8.913 -3.42,-0.775 -5.471,-0.76 -7.951,1.713 -1.107,1.104 -2.636,2.817 -4.303,3.021 -2.686,0.328 -3.443,-2.024 -5.65,0.522 -1.475,1.702 -3.403,4.906 -5.54,6.92 -0.668,0.631 -1.358,1.138 -2.061,1.452 -0.269,0.12 -0.54,0.222 -0.813,0.279 -2.479,0.519 -4.959,1.037 -7.438,1.555 -0.5,0.104 -0.59,3.745 -0.78,4.506 -0.369,1.472 -0.902,3.252 -1.861,4.528 -0.082,0.109 -0.147,0.239 -0.235,0.339 -0.105,0.12 -0.226,0.225 -0.336,0.341 -5.178,5.449 -15.187,6.242 -21.122,0.767 z m 96.524,284.895 c -3.266,6.546 -7.656,12.76 -11.326,18.989 -3.036,5.153 -9.642,7.061 -11.724,0.105 -2.375,-7.932 3.661,-18.092 10.079,-22.533 -7.628,1.837 -15.014,9.605 -19.814,15.443 -2.281,2.775 -2.761,7.039 -6.526,7.039 -4.001,0 -7.082,-3.961 -7.082,-7.779 0,-7.526 6.565,-12.392 12.095,-16.289 -8.777,-2.815 -16.763,3.259 -25.04,4.123 -8.301,0.868 -4.539,-6.694 -0.531,-9.995 8.636,-7.109 20.153,-5.259 30.717,-4.577 3.752,0.243 10.744,2.026 14.058,1.032 4.098,-1.227 2.862,-10.346 3.236,-14.599 5.422,0.801 9.918,0.187 15.174,-1.004 0,1.992 0,3.983 0,5.977 -0.09,7.908 0.244,16.932 -3.316,24.068 z m 22.996,-17.244 c 9.781,0.153 19.656,1.598 29.091,4.169 5.46,1.487 15.175,3.408 17.647,9.479 2.947,7.225 -7.031,9.125 -12.253,7.67 -8.9,-2.483 -16.995,-5.861 -26.207,-7.459 4.012,2.74 25.186,18.068 14.109,22.48 -8.851,3.53 -25.386,-11.775 -28.168,-19.307 -1.632,2.101 -0.534,8.133 -0.755,11.218 -0.275,3.858 -0.808,7.604 -1.951,11.287 -1.873,6.036 -7.447,9.836 -10.08,3.097 -2.838,-7.272 -0.673,-17.99 0.326,-25.415 1.337,-9.939 1.654,-19.897 1.53,-29.913 3.928,2.408 9.361,2.359 12.997,-0.582 -0.744,4.437 -0.267,9.073 -0.156,13.541 1.261,-0.266 2.575,-0.356 3.87,-0.265 z M 278.985,197.525 c -1.912,0 0.905,5.16 0.593,6.789 -0.717,3.752 -1.351,7.528 -2.212,11.25 -1.403,-2.767 -3.789,-10.543 -6.947,-10.368 3.824,7.932 6.178,17.565 8.638,26.01 2.778,9.539 4.073,19.108 3.3,29.054 -4.084,63.418 -80.962,76.419 -131.503,74.844 -16.653,-0.519 -33.593,-1.297 -50.173,-2.637 -15.584,-1.261 -32.569,-3.734 -46.813,-10.584 -30.33,-14.584 -41.343,-43.855 -38.833,-76.116 0.374,-4.809 1.228,-9.561 2.175,-14.281 3.785,1.488 9.084,-1.858 10.394,1.783 2.875,7.996 7.888,15.015 14.593,20.168 -0.301,-0.447 -0.607,-0.892 -0.914,-1.335 -5.885,-8.524 -12.625,-16.613 -13.304,-27.706 -2.069,1.854 -6.888,5.017 -9.603,2.964 -4.049,-3.063 -0.559,-13.373 -0.03,-17.179 1.01,-7.258 2.768,-14.453 4.713,-21.512 2.122,-7.703 0.135,-13.642 -0.427,-21.327 -1.809,-24.724 3.122,-50.248 15.373,-71.164 1.739,-2.968 9.524,-15.589 13.952,-12.642 0.047,-0.246 0.135,-0.475 0.266,-0.688 1.09,1.746 0.238,4.538 0.849,6.718 0.883,3.151 3.691,6.297 6.207,8.251 4.565,3.545 9.214,4.733 14.642,2.698 6.288,-2.359 13.616,-7.759 14.695,-14.784 0.159,-1.04 8.135,-4.337 9.761,-5.687 1.329,-1.103 2.743,-4.331 4.349,-4.89 5.346,-1.862 6.942,-2.339 11.92,0.418 14.549,8.061 20.544,20.532 26.81,35.204 6.385,14.95 15.852,28.477 26.676,40.515 4.737,5.267 10.058,10.032 15.521,14.527 3.831,3.154 -6.572,9.561 -8.567,10.548 -2.513,1.244 -5.186,2.02 -7.957,2.513 -1.656,0.295 -6.258,0.675 -3.29,3.306 2.805,2.482 6.392,7.555 7.163,12.206 0.263,1.573 0.204,3.098 -0.317,4.458 -0.197,0.508 -0.49,1.031 -0.857,1.558 -2.509,3.598 -8.537,7.447 -11.504,9.153 -3.907,2.245 -7.959,3.796 -12.254,5.21 1.443,3.001 2.502,6.247 2.492,9.396 -0.009,2.709 -0.806,5.346 -2.863,7.69 -1.879,2.143 -4.101,3.598 -6.533,4.579 -7.354,2.963 -16.638,1.568 -24.236,1.609 1.588,6.206 2.216,21.827 -6.101,22.374 -7.519,0.494 -27.225,-5.833 -30.504,-13.064 -3.91,7.385 -14.065,14.42 -22.706,10.632 0.093,0.571 0.281,1.067 0.538,1.503 3.408,5.789 20.13,0.122 20.454,-6.043 0.006,-0.109 0.021,-0.217 0.017,-0.326 0.102,0.065 0.207,0.122 0.309,0.186 10.609,6.787 22.313,10.664 34.814,12.017 2.384,0.259 6.076,-7.574 6.865,-9.292 1.698,-3.692 2.189,-8.31 1.937,-12.327 9.296,1.062 18.22,0.073 25.04,-6.929 4.94,-5.073 9.554,-13.378 6.472,-20.417 6.982,-2.021 13.257,-5.146 18.354,-10.42 2.674,-2.763 5.095,-5.295 5.095,-9.23 0,-5.077 -1.891,-10.071 -5.306,-13.833 5.497,-0.889 10.957,-2.891 14.271,-7.643 3.089,-4.433 5.154,-10.928 0.558,-14.571 -0.405,-0.321 -0.843,-0.627 -1.354,-0.9 0.307,0.001 0.617,0.004 0.925,0.006 11.971,0.077 23.937,0.149 35.906,0.375 5.2,0.099 11.178,-0.619 16.3,0.596 4.452,1.057 7.612,5.087 10.687,8.173 -1.815,-5.054 -5.459,-8.993 -10.343,-11.188 -3.712,-1.667 -13.066,-1.538 -13.581,-6.108 -0.598,-5.305 12.098,-12.713 16.339,-15.076 6.232,-3.471 12.362,-6.053 19.017,-7.933 5.574,-1.575 8.648,1.715 8.729,7.191 0.019,1.195 -0.28,2.401 -0.452,3.578 -0.354,2.414 1.123,2.063 2.786,3.511 3.063,2.664 5.763,5.304 7.729,8.919 2.611,4.799 4.464,8.784 3.917,14.249 -0.16,1.59 -1.203,1.763 -2.043,2.698 -1.891,2.111 -2.936,-0.685 -0.795,2.698 3.739,5.909 11.288,14.508 7.375,22.48 -1.346,2.727 -4.253,3.595 -7.194,3.595 z"
         id="path12557" />
      <path
         d="m 239.646,185.148 c -1.937,-7.663 -8.924,-21.232 -18.723,-19.254 3.104,0.974 5.789,2.677 8.012,4.854 4.205,4.12 6.732,9.959 7.187,15.91 0.003,0.053 0.009,0.106 0.013,0.16 0.04,0.589 0.065,1.179 0.065,1.769 0.002,3.983 -1.036,7.832 -2.387,11.532 -1.35,3.696 -3.678,5.133 -2.885,7.236 0.02,0.056 0.053,0.116 0.078,0.173 0.305,0.673 0.916,1.418 1.987,2.329 6.772,5.757 -3.028,25.907 -7.086,32.207 -2.403,3.732 -5.324,7.073 -8.596,10.051 -3.209,2.927 -7.984,5.156 -11.006,8.354 -0.324,0.345 -0.649,0.69 -0.93,1.061 4.197,1.93 4.737,2.199 8.012,-0.528 3.388,-2.824 6.783,-5.86 9.548,-9.309 6.072,-7.569 10.682,-15.61 13.424,-24.967 1.127,-3.852 5.181,-16.009 1.902,-19.333 -3.223,-3.265 0.297,-7.024 1.172,-11.294 0.739,-3.593 0.844,-7.333 0.213,-10.951 z"
         id="path12559" />
      <path
         d="m 180.339,369.67 c -0.002,0.086 -0.002,0.15 -0.002,0.084 0.002,-0.038 0.002,-0.055 0.002,-0.084 z"
         id="path12561" />
      <path
         d="m 50.737,113.475 c -8.413,-5.638 -14.284,10.381 -4.138,11.584 6.256,0.589 9.596,-7.927 4.138,-11.584 z m -6.52,5.261 c -0.928,0 -1.681,-0.824 -1.681,-1.841 0,-1.017 0.752,-1.841 1.681,-1.841 0.928,0 1.68,0.824 1.68,1.841 0,1.017 -0.752,1.841 -1.68,1.841 z"
         id="path12563" />
      <path
         d="m 64.689,184.619 c 1.626,1.005 2.424,3.113 4.563,4.125 4.78,2.263 10.89,2.563 13.979,-1.958 7.661,-11.205 5.605,-20.91 -0.292,-32.16 -2.295,-4.379 -0.365,-9.196 -3.713,-13.805 -3.775,-5.196 -10.451,-9.628 -17.029,-9.521 -1.726,0.028 -3.495,0.393 -5.214,1.023 -2.724,0.997 -5.317,2.663 -7.41,4.735 -4.824,4.773 -6.972,11.69 -1.806,17.49 0.888,0.995 1.983,1.838 3.131,2.513 -7.517,7.216 -6.751,27.418 6.631,27.083 2.944,-0.008 4.779,-0.997 7.16,0.475 z m 12.992,0.341 c -0.569,0.317 -1.168,0.556 -1.798,0.69 -0.661,0.141 -1.278,0.173 -1.864,0.132 -1.448,-0.1 -2.683,-0.696 -3.779,-1.559 -1.53,-1.202 -2.795,-2.9 -4.013,-4.418 -1.818,-2.265 -3.002,-0.226 -5.465,0.477 -2.43,0.693 -4.835,0.328 -6.843,-1.112 -3.61,-2.213 -5.96,-6.843 -5.093,-11.107 0.542,-2.663 2.21,-3.869 3.873,-5.713 2.917,-3.233 1.524,-2.408 5.251,-1.64 7.782,1.602 13.131,0.62 19.152,-4.866 3.261,4.869 6.791,10.415 6.791,16.477 0,2.7 -0.841,5.886 -2.323,8.484 -1.014,1.779 -2.328,3.281 -3.889,4.155 z M 54.292,135.426 c 7.792,-5.549 17.75,-0.238 22.175,7.01 2.646,4.334 -0.545,9.778 -4.961,11.874 -7.684,3.647 -14.79,1.079 -21.14,-3.544 -4.889,-4.513 -0.31,-12.324 3.926,-15.34 z"
         id="path12565" />
      <path
         d="m 96.386,117.865 c -0.939,-2.997 -5.205,-5.631 -8.037,-5.131 -4.98,0.879 -5.035,6.433 -4.137,10.314 4.02,4.22 14.293,1.572 12.174,-5.183 z m -9.062,-3.42 c 1.15,0 2.082,0.96 2.082,2.146 0,1.184 -0.932,2.145 -2.082,2.145 -1.149,0 -2.082,-0.961 -2.082,-2.145 0,-1.186 0.933,-2.146 2.082,-2.146 z"
         id="path12567" />
      <ellipse
         style="fill:#ffffff"
         cx="44.216999"
         cy="116.895"
         rx="1.681"
         ry="1.841"
         id="ellipse12569" />
      <ellipse
         style="fill:#ffffff"
         cx="87.323997"
         cy="116.591"
         rx="2.082"
         ry="2.145"
         id="ellipse12571" />
    </g>
  </g>
</svg>
