<?xml version="1.0" encoding="UTF-8"?>
<!-- Generator: Adobe Illustrator 12.0.0, SVG Export Plug-In . SVG Version: 6.00 Build 51448)  -->
<!DOCTYPE svg PUBLIC "-//W3C//DTD SVG 1.1//EN" "http://www.w3.org/Graphics/SVG/1.1/DTD/svg11.dtd">
<svg version="1.1" id="Layer_1" xmlns="http://www.w3.org/2000/svg" xmlns:xlink="http://www.w3.org/1999/xlink" width="300" height="425.197" viewBox="0 0 300 425.197" overflow="visible" enable-background="new 0 0 300 425.197" xml:space="preserve">
<g>
	<path fill="#FFFFFF" d="M170.2,199.512c-0.109,0.306-0.246,0.597-0.374,0.895c0.367-0.527,0.66-1.05,0.857-1.558   c0.521-1.359,0.58-2.885,0.317-4.458C171.06,196.025,170.841,197.717,170.2,199.512z"/>
	<path fill="#FFFFFF" d="M93.818,77.278c-0.705,0.473-1.39,0.959-2.061,1.452C92.46,78.416,93.149,77.909,93.818,77.278z"/>
	<path fill="#FFFFFF" d="M45.029,71.564c-0.708-0.167-1.4-0.36-2.052-0.611C43.605,71.329,44.275,71.507,45.029,71.564z"/>
	<path fill="#FFFFFF" d="M281.474,224.209c0.011-0.662,0.143-1.324,0.336-1.987C281.616,222.885,281.484,223.547,281.474,224.209z"/>
	<path fill="#FFFFFF" d="M139.439,236.271c-0.091,0.06-0.184,0.104-0.275,0.164c2.432-0.981,4.654-2.437,6.533-4.579   c2.057-2.345,2.854-4.981,2.863-7.69c-0.288,1.598-0.578,2.962-0.776,3.356C145.963,231.137,142.753,234.062,139.439,236.271z"/>
	<path fill="#FFFFFF" d="M231.007,207.527c-0.025-0.058-0.059-0.117-0.078-0.173c-0.215-0.04-0.436-0.093-0.666-0.179   C230.531,207.274,230.756,207.412,231.007,207.527z"/>
	<path fill="#FFFFFF" d="M278.8,171.448c-2.141-3.382-1.096-0.587,0.795-2.698c0.84-0.935,1.883-1.108,2.043-2.698   c0.547-5.465-1.306-9.449-3.917-14.249c-1.966-3.616-4.665-6.255-7.729-8.919c-1.663-1.448-3.14-1.098-2.786-3.511   c0.172-1.177,0.471-2.383,0.452-3.578c-0.08-5.477-3.154-8.766-8.729-7.191c-6.654,1.88-12.784,4.462-19.017,7.933   c-4.241,2.362-16.937,9.771-16.339,15.076c0.515,4.57,9.869,4.441,13.581,6.108c4.884,2.195,8.527,6.134,10.343,11.188   c-3.074-3.085-6.234-7.116-10.687-8.173c-5.122-1.215-11.1-0.498-16.3-0.596c-11.97-0.226-23.936-0.299-35.906-0.375   c0.145,0.298,0.309,0.59,0.429,0.894c4.597,3.644,2.531,10.139-0.558,14.571c-3.313,4.752-8.773,6.754-14.271,7.643   c3.415,3.762,5.306,8.756,5.306,13.833c0,3.935-2.421,6.467-5.095,9.23c-5.098,5.275-11.372,8.399-18.354,10.42   c3.082,7.039-1.532,15.344-6.472,20.417c-6.82,7.002-15.744,7.99-25.04,6.929c0.253,4.018-0.239,8.635-1.937,12.327   c-0.79,1.718-4.481,9.551-6.865,9.292c-12.501-1.353-24.205-5.229-34.814-12.017c-0.104,0.046-0.212,0.092-0.326,0.141   c-0.324,6.165-17.045,11.832-20.454,6.043c-5.512-0.6-10.583-3.404-14.873-7.387c0.306,0.443,0.613,0.888,0.914,1.335   c-6.706-5.153-11.718-12.172-14.593-20.168c-1.309-3.642-6.609-0.295-10.394-1.783c-0.947,4.721-1.802,9.473-2.175,14.281   c-2.51,32.261,8.503,61.532,38.833,76.116c14.244,6.85,31.229,9.323,46.813,10.584c16.581,1.34,33.521,2.118,50.173,2.637   c50.541,1.575,127.419-11.426,131.503-74.844c0.773-9.945-0.521-19.515-3.3-29.054c-2.46-8.445-4.813-18.078-8.638-26.01   c3.158-0.176,5.544,7.601,6.947,10.368c0.861-3.722,1.495-7.497,2.212-11.25c0.313-1.629-2.505-6.789-0.593-6.789   c2.94,0,5.848-0.869,7.189-3.597C290.088,185.957,282.539,177.357,278.8,171.448z M238.263,207.392   c3.278,3.324-0.775,15.481-1.902,19.333c-2.742,9.356-7.352,17.397-13.424,24.967c-2.765,3.448-6.16,6.484-9.548,9.309   c-3.274,2.728-3.814,2.458-8.012,0.528c0.28-0.37,0.605-0.716,0.93-1.061c-2.201,0.415-4.358,0.355-6.4-0.338   c13.23-6.462,25.142-22.375,27.852-36.916c0.854-4.583,0.98-14.89-5.624-14.898c-5.35-0.007-6.725,8.126-9.311,11.448   c-4.263,5.475-13.61,12.23-20.558,9.537c14.358-4.522,31.112-22.229,15.602-35.477c4.117-3.062,3.728-9.21,1.634-13.667   c-0.303-0.646-0.642-1.258-1.006-1.819c0.364,0.561,0.703,1.172,1.006,1.819c2.661,5.359,2.743,11.668,6.18,16.619   c5.093,7.338,11.432,2.188,12.868-5.741c1.594-8.774-2.986-17.898-11.185-21.667c2.948,1.356,7.025-1.812,11.287,1.154   c0.099,0.069,0.186,0.153,0.284,0.226c-2.223-2.177-4.908-3.88-8.012-4.854c9.799-1.979,16.786,11.591,18.723,19.254   c0.631,3.618,0.525,7.358-0.212,10.95C238.56,200.368,235.04,204.127,238.263,207.392z"/>
	<path fill="#FFFFFF" d="M289.114,197.15c-0.613,1.049-3.154,2.668-3.417,3.285c-0.475,1.099-0.576,2.802-0.576,4.542   c0-1.741,0.102-3.443,0.576-4.542C285.96,199.819,288.501,198.2,289.114,197.15z"/>
	<path fill="#FFFFFF" d="M236.122,186.658c0.003,0.054,0.009,0.106,0.013,0.16C236.131,186.764,236.125,186.71,236.122,186.658z"/>
	<path fill="#FFFFFF" d="M285.139,209.744c-0.182,2.899-1.024,5.705-1.882,8.463C284.114,215.45,284.957,212.644,285.139,209.744z"/>
	<path fill="#FFFFFF" d="M10.024,231.374c0.736-5.305,2.13-10.418,3.432-15.551C12.154,220.956,10.76,226.069,10.024,231.374z"/>
	<path fill="#FF7F00" d="M222.772,366.08c0.271,0.118,0.54,0.239,0.802,0.361C223.313,366.319,223.044,366.198,222.772,366.08z"/>
	<path fill="#FF7F00" d="M218.235,364.39c0.256,0.084,0.511,0.17,0.766,0.255C218.746,364.558,218.491,364.474,218.235,364.39z"/>
	<path fill="#FF7F00" d="M219.84,364.937c0.254,0.09,0.507,0.181,0.759,0.275C220.347,365.117,220.096,365.028,219.84,364.937z"/>
	<path fill="#FF7F00" d="M221.94,365.727c-0.16-0.066-0.328-0.126-0.492-0.19c0.252,0.099,0.504,0.197,0.748,0.3   C222.11,365.799,222.028,365.761,221.94,365.727z"/>
	<path fill="#FF7F00" d="M216.652,363.892c0.252,0.077,0.508,0.155,0.763,0.235C217.158,364.047,216.904,363.969,216.652,363.892z"/>
	<path fill="#FF7F00" d="M210.648,362.236c0.301,0.08,0.698,0.183,1.132,0.295C211.347,362.419,210.949,362.316,210.648,362.236z"/>
	<path fill="#FF7F00" d="M212.499,362.721c0.175,0.046,0.374,0.099,0.562,0.15C212.869,362.819,212.678,362.767,212.499,362.721z"/>
	<path fill="#FF7F00" d="M215.155,363.448c0.233,0.068,0.477,0.139,0.717,0.21C215.628,363.587,215.391,363.517,215.155,363.448z"/>
	<path fill="#FF7F00" d="M213.759,363.059c0.204,0.057,0.423,0.116,0.637,0.177C214.181,363.175,213.965,363.115,213.759,363.059z"/>
	<path fill="#FF7F00" d="M225.378,367.365c0.228,0.13,0.445,0.263,0.658,0.397C225.823,367.628,225.605,367.495,225.378,367.365z"/>
	<path fill="#FF7F00" d="M224.131,366.707c0.253,0.122,0.498,0.248,0.734,0.376C224.629,366.955,224.384,366.829,224.131,366.707z"/>
	<path fill="#FF7F00" d="M227.422,368.778c0.172,0.149,0.315,0.303,0.46,0.454C227.737,369.081,227.594,368.928,227.422,368.778z"/>
	<path fill="#FF7F00" d="M228.662,370.309c0.126,0.265,0.212,0.532,0.244,0.806C228.874,370.841,228.788,370.573,228.662,370.309z"/>
	<path fill="#FF7F00" d="M228.159,369.53c0.138,0.169,0.24,0.345,0.343,0.518C228.399,369.875,228.297,369.699,228.159,369.53z"/>
	<path fill="#FF7F00" d="M139.815,352.767c-0.667,2.546-1.113,4.504-1.151,4.504C139.314,357.271,139.673,354.098,139.815,352.767z"/>
	<path fill="#FF7F00" d="M226.484,368.057c0.201,0.137,0.384,0.279,0.563,0.421C226.868,368.336,226.686,368.195,226.484,368.057z"/>
	<path fill="#FF7F00" d="M174.823,358.963c-0.11-4.468-0.588-9.104,0.156-13.541c-3.636,2.941-9.069,2.99-12.997,0.582   c0.124,10.016-0.193,19.974-1.53,29.913c-0.999,7.425-3.164,18.143-0.326,25.415c2.633,6.739,8.207,2.939,10.08-3.097   c1.144-3.683,1.676-7.429,1.951-11.287c0.221-3.085-0.877-9.117,0.755-11.218c2.782,7.531,19.317,22.837,28.168,19.307   c11.076-4.412-10.098-19.74-14.109-22.48c9.212,1.598,17.307,4.976,26.207,7.459c5.222,1.455,15.2-0.445,12.253-7.67   c-2.473-6.07-12.188-7.991-17.647-9.479c-9.435-2.571-19.31-4.016-29.091-4.169C177.397,358.607,176.083,358.697,174.823,358.963z    M180.339,369.67c0.002-0.027,0.002-0.053,0.002-0.074c0-0.04,0-0.075,0-0.103c0,0.027,0,0.063,0,0.103   C180.341,369.617,180.341,369.643,180.339,369.67c0,0.029,0,0.046-0.002,0.084C180.337,369.82,180.337,369.756,180.339,369.67z"/>
	<path fill="#FF7F00" d="M159.014,345.898c-5.256,1.19-9.752,1.805-15.174,1.004c-0.374,4.253,0.862,13.372-3.236,14.599   c-3.314,0.994-10.306-0.789-14.058-1.032c-10.564-0.682-22.081-2.532-30.717,4.577c-4.008,3.301-7.771,10.863,0.531,9.995   c8.276-0.864,16.262-6.938,25.04-4.123c-5.53,3.897-12.095,8.763-12.095,16.289c0,3.818,3.08,7.779,7.082,7.779   c3.765,0,4.245-4.264,6.526-7.039c4.8-5.838,12.186-13.606,19.814-15.443c-6.418,4.441-12.454,14.602-10.079,22.533   c2.082,6.955,8.688,5.048,11.724-0.105c3.67-6.229,8.061-12.443,11.326-18.989c3.56-7.137,3.226-16.16,3.317-24.067   C159.014,349.882,159.014,347.891,159.014,345.898z"/>
	<path fill="#D59758" d="M172.485,147.804c0.77,0.525,1.571,1.005,2.396,1.459c-3.526-2.791-7.107-5.399-9.515-8.082   C167.483,143.715,169.819,145.98,172.485,147.804z"/>
	<path fill="#D59758" d="M46.195,82.616c-0.127,0.089-0.242,0.174-0.381,0.267c-8.06,5.431-14.843,16.423-18.897,25.643   C31.61,97.996,38.182,90.235,46.195,82.616z"/>
	<path fill="#D59758" d="M17.694,190.014c0.148-1.843,0.261-3.688,0.336-5.53c-0.159,3.918-3.171,17.488-3.889,28.578   c0.523-2.166,1.009-4.342,1.396-6.544C16.497,201.074,17.251,195.546,17.694,190.014z"/>
	<path fill="#D59758" d="M25.769,111.255c0.358-0.904,0.73-1.786,1.115-2.651C26.488,109.506,26.109,110.396,25.769,111.255z"/>
	<path fill="#D59758" d="M76.625,253.119c0.004,0.109-0.01,0.217-0.017,0.326c0.113-0.049,0.222-0.095,0.326-0.141   C76.832,253.241,76.728,253.185,76.625,253.119z"/>
	<path fill="#D59758" d="M183.681,159.758c0.511,0.273,0.948,0.58,1.354,0.9c-0.12-0.304-0.284-0.596-0.429-0.894   C184.298,159.763,183.987,159.76,183.681,159.758z"/>
	<path fill="#D59758" d="M55.617,257.985c8.641,3.788,18.795-3.247,22.706-10.632c3.279,7.231,22.985,13.559,30.504,13.064   c8.317-0.547,7.689-16.168,6.101-22.374c7.599-0.041,16.882,1.354,24.236-1.609c0.091-0.061,0.185-0.104,0.275-0.164   c3.313-2.209,6.523-5.134,8.344-8.749c0.198-0.395,0.488-1.759,0.776-3.356c0.01-3.148-1.048-6.395-2.492-9.396   c4.295-1.414,8.347-2.965,12.254-5.21c2.967-1.706,8.995-5.555,11.504-9.153c0.128-0.297,0.265-0.588,0.374-0.895   c0.641-1.795,0.859-3.487,0.801-5.121c-0.771-4.651-4.358-9.724-7.163-12.206c-2.968-2.63,1.634-3.01,3.29-3.306   c2.771-0.493,5.444-1.269,7.957-2.513c1.995-0.987,12.398-7.394,8.567-10.548c-5.464-4.495-10.784-9.26-15.521-14.527   c-10.824-12.038-20.292-25.565-26.676-40.515c-6.266-14.671-12.261-27.143-26.81-35.204c-4.978-2.758-6.574-2.28-11.92-0.418   c-1.606,0.559-3.02,3.787-4.349,4.89c-1.625,1.35-9.602,4.646-9.761,5.687c-1.08,7.025-8.407,12.425-14.695,14.784   c-5.428,2.036-10.077,0.848-14.642-2.698c-2.516-1.954-5.324-5.1-6.207-8.251c-0.611-2.18,0.242-4.972-0.849-6.718   c-0.13,0.212-0.219,0.442-0.266,0.688c-4.428-2.948-12.213,9.673-13.952,12.642c-12.25,20.916-17.181,46.44-15.373,71.164   c0.562,7.685,2.548,13.624,0.427,21.327c-1.945,7.059-3.703,14.254-4.713,21.512c-0.528,3.806-4.019,14.116,0.03,17.179   c2.714,2.053,7.534-1.11,9.603-2.964c0.678,11.093,7.418,19.182,13.304,27.706c4.29,3.982,9.361,6.787,14.873,7.387   C55.898,259.053,55.71,258.557,55.617,257.985z M88.349,112.734c2.832-0.5,7.098,2.134,8.037,5.131   c2.119,6.755-8.154,9.403-12.174,5.183C83.314,119.167,83.369,113.613,88.349,112.734z M50.737,113.475   c5.458,3.658,2.119,12.174-4.138,11.584C36.453,123.856,42.324,107.837,50.737,113.475z M50.896,157.061   c-1.148-0.675-2.243-1.518-3.131-2.513c-5.166-5.8-3.018-12.716,1.806-17.49c1.656-2.115,4.136-3.821,7.41-4.735   c1.719-0.63,3.488-0.995,5.214-1.023c6.578-0.106,13.254,4.325,17.029,9.521c3.349,4.609,1.418,9.426,3.713,13.805   c5.897,11.25,7.953,20.955,0.292,32.16c-3.089,4.521-9.199,4.22-13.979,1.958c-2.138-1.012-2.936-3.12-4.563-4.125   c-2.381-1.472-4.216-0.483-7.162-0.476C44.145,184.479,43.379,164.277,50.896,157.061z"/>
	<path fill="#D59758" d="M80.866,89.597c-0.189,0.229-0.379,0.456-0.572,0.68c0.11-0.116,0.231-0.221,0.336-0.341   C80.719,89.836,80.784,89.707,80.866,89.597z"/>
	<path fill="#D59758" d="M79.906,182.988c-0.835,0.874-1.563,1.514-2.225,1.972c1.561-0.874,2.875-2.376,3.889-4.155   C81.071,181.589,80.53,182.335,79.906,182.988z"/>
	<path fill="#D59758" d="M74.02,185.782c-1.092-0.261-2.255-0.884-3.779-1.559C71.336,185.086,72.572,185.682,74.02,185.782z"/>
	<path fill="none" stroke="#D59758" stroke-width="0" stroke-linecap="round" stroke-linejoin="round" d="M208.495,178.338   c0.364,0.561,0.703,1.172,1.006,1.819"/>
	<path fill="#D59758" d="M217.313,252.114c3.271-2.978,6.192-6.318,8.596-10.051c4.058-6.3,13.858-26.45,7.086-32.207   c-1.071-0.911-1.683-1.656-1.987-2.329c-0.251-0.115-0.476-0.253-0.744-0.352c0.23,0.085,0.451,0.139,0.666,0.179   c-0.793-2.104,1.535-3.541,2.885-7.236c1.351-3.7,2.389-7.548,2.387-11.532c0-0.59-0.025-1.18-0.065-1.769   c-0.004-0.054-0.01-0.106-0.013-0.16c-0.454-5.951-2.981-11.79-7.187-15.91c-0.099-0.073-0.186-0.157-0.284-0.226   c-4.262-2.966-8.339,0.202-11.287-1.154c8.198,3.769,12.778,12.894,11.185,21.667c-1.437,7.929-7.775,13.079-12.868,5.741   c-3.437-4.951-3.519-11.26-6.18-16.619c2.094,4.457,2.483,10.605-1.634,13.667c15.511,13.248-1.243,30.955-15.602,35.477   c6.947,2.693,16.295-4.063,20.558-9.537c2.586-3.322,3.961-11.455,9.311-11.448c6.604,0.009,6.478,10.315,5.624,14.898   c-2.71,14.541-14.621,30.454-27.852,36.916c2.042,0.693,4.199,0.753,6.4,0.338C209.328,257.271,214.104,255.041,217.313,252.114z"/>
	<path fill="#BF0000" d="M82.727,85.069c0.19-0.761,0.28-4.402,0.78-4.506c2.479-0.518,4.959-1.036,7.438-1.555   c0.272-0.057,0.543-0.159,0.813-0.279c0.671-0.493,1.355-0.979,2.061-1.452c2.137-2.014,4.064-5.218,5.54-6.92   c2.207-2.546,2.964-0.194,5.65-0.522c1.667-0.203,3.196-1.917,4.303-3.021c2.48-2.474,4.531-2.488,7.951-1.713   c4.94,1.119,8.635,4.551,11.035,8.913c1.994-4.842,5.5-9.862,3.898-15.181c-1.078-3.578-3.418-6.13-6.494-8.148   c-1.521-0.997-5.709-0.2-7.67-0.792c-6.125-1.85-5.339-4.96-5.968-9.944c-0.93-7.378-14.323-27.51-22.864-17.721   c-2.105,2.414-0.726,6.585-4.285,5.194c-1.964-0.768-3.312-2.617-5.45-3.29c-4.645-1.461-9.104-3.629-14.138-3.385   C50.433,21.47,52.003,38.2,57.951,47.672c-7.134-1.567-16.751,3.156-18.965,10.182c-0.901,2.863-0.824,6.156,0.61,8.833   c1.226,2.29,2.246,3.587,3.38,4.265c0.652,0.251,1.344,0.444,2.052,0.611c1.496,0.113,3.341-0.269,5.973-0.67   c2.288-0.295,9.677-2.795,7.873,1.224c-0.843,1.881-1.874,3.744-2.515,5.705c-1.504,4.605-0.901,9.798,2.812,13.224   c5.935,5.476,15.944,4.683,21.122-0.77c0.192-0.225,0.382-0.451,0.572-0.68C81.824,88.322,82.357,86.541,82.727,85.069z"/>
	<path fill="#BF0000" d="M81.57,180.805c1.482-2.598,2.323-5.785,2.323-8.484c0-6.062-3.529-11.608-6.791-16.477   c-6.021,5.486-11.37,6.468-19.152,4.866c-3.727-0.768-2.334-1.593-5.251,1.64c-1.663,1.844-3.332,3.05-3.873,5.713   c-0.867,4.264,1.483,8.894,5.093,11.107c2.008,1.44,4.414,1.805,6.843,1.112c2.462-0.703,3.647-2.742,5.465-0.477   c1.217,1.518,2.482,3.216,4.013,4.418c1.524,0.674,2.687,1.298,3.779,1.559c0.585,0.041,1.203,0.009,1.864-0.132   c0.63-0.134,1.229-0.373,1.798-0.69c0.662-0.458,1.389-1.099,2.225-1.972C80.53,182.335,81.071,181.589,81.57,180.805z"/>
	<path fill="#FF7F00" d="M50.366,150.766c6.35,4.623,13.456,7.191,21.14,3.544c4.416-2.096,7.606-7.54,4.961-11.874   c-4.425-7.248-14.383-12.559-22.175-7.01C50.056,138.442,45.477,146.253,50.366,150.766z"/>
	<path fill="#FF7F00" d="M56.981,132.323c-3.273,0.914-5.753,2.62-7.41,4.735C51.664,134.986,54.258,133.32,56.981,132.323z"/>
	<path fill="none" stroke="#000000" stroke-width="0" stroke-linecap="round" stroke-linejoin="round" d="M180.341,369.493   c0,0.027,0,0.063,0,0.103c0,0.021,0,0.047-0.002,0.074"/>
	<path d="M285.697,200.435c0.263-0.616,2.804-2.235,3.417-3.285c1.142-1.968,1.823-2.871,1.889-4.78   c0.008-0.272,0.004-0.566-0.015-0.886c-0.211-4.051-0.995-8.161-2.319-11.996c-1.251-3.61-3.144-6.331-3.396-10.05   c-0.211-3.092,0.146-6.046-0.415-9.157c-1.276-7.073-4.749-12.676-9.509-17.926c-4.46-4.921-2.742-9.162-5.277-15.049   c-1.935-4.496-3.289-5.842-8.016-4.524c-4.001,1.115-7.864,2.385-11.691,3.995c-7.167,3.016-13.691,7.148-19.861,11.845   c-5.708,4.343-10.383,13.092-17.221,14.365c-11.769,2.19-27.394,2.345-38.402-3.725c-0.824-0.454-1.626-0.935-2.396-1.459   c-2.666-1.824-5.002-4.088-7.119-6.622c-7.979-9.545-12.658-23.132-18.315-33.405c-4.567-8.292-9.183-16.553-13.821-24.805   c-2.813-5.004,2.761-11.562,3.524-17.516c0.756-5.891-0.928-11.864-5.487-15.826c-1.701-1.477-8.618-4.583-10.057-5.031   c-2.948-0.92-2.204-0.183-3.736-2.639c-4.268-6.839-5.724-13.508-12.149-19.228c-2.772-2.467-8.195-7.488-12.413-7.22   c-1.732,0.11-3.673,1.383-5.146,2.328c-1.121,0.719-2.314,1.494-3.289,2.406c-2.357,2.206-1.428,1.474-4.244,0.821   c-7.399-1.716-13.198-4.911-20.972-1.248c-6.996,3.296-10.046,6.5-9.851,14.472c0.071,2.892,1.36,5.723,1.433,8.517   c0.073,2.806,1.384,2.055-1.591,3.438c-1.871,0.87-3.747,1.729-5.631,2.57c-7.248,3.236-8.857,12.923-6.809,19.884   c2.279,7.75,8.31,9.121,15.676,8.172c-2.184,1.934-4.282,3.835-6.292,5.745c-8.014,7.619-14.585,15.38-19.278,25.91   c-0.011,0.025-0.022,0.052-0.034,0.078c-0.385,0.865-0.757,1.748-1.115,2.651c-6.249,15.747-9.265,31.866-9.045,48.818   c0.106,8.226,1.64,16.181,1.307,24.41c-0.075,1.842-0.188,3.687-0.336,5.53c-0.443,5.532-1.197,11.06-2.156,16.504   c-0.387,2.202-0.873,4.378-1.396,6.544c-0.224,0.922-0.451,1.843-0.685,2.762c-1.302,5.133-2.696,10.246-3.432,15.551   c-1.151,8.31-1.466,16.537-1.288,24.914c0.343,16.112,3.121,33.767,12.557,47.081c8.133,11.478,19.705,20.711,32.967,25.607   c15.332,5.661,32.211,8.262,48.795,10.196c8.425,0.983,16.878,1.604,25.347,2.043c2.047,0.105,10.589-0.519,10.954,1.349   c0.636,3.265,0.882,6.478,0.503,9.787c-0.011,0.098-0.027,0.248-0.045,0.415c-0.143,1.331-0.501,4.504-1.151,4.504   c-2.762,0-5.539-0.087-8.299,0c-4.539,0.145-9.063,0.479-13.608,0.534c-7.929,0.097-16.328,0.141-22.466,5.973   c-4.232,4.021-10.662,15.994-0.371,16.078c2.83,0.025,5.968-2.327,8.572-3.271c3.934-1.426,8.418-2.122,12.595-2.071   c-7.006,3.727-12.707,14.931-5.624,21.426c9.353,8.573,16.194-4.285,21.645-10.792c-4.05,7.298-1.903,22.163,9.602,18.724   c3.728-1.112,5.129-6.36,7.109-9.307c2.461-3.665,4.744-6.747,7.64-10.212c0.206,6.459-3.538,32.378,11.035,26.447   c8.234-3.352,8.726-18.956,8.009-26.023c5.995,6.604,19.002,18.851,28.861,15.339c11.453-4.078,0.688-16.192-3.928-21.685   c7.305,1.937,17.128,6.637,24.351,5.182c6.725-1.353,5.81-6.531,5.12-12.497c-0.032-0.273-0.118-0.541-0.244-0.806   c-0.04-0.088-0.109-0.173-0.16-0.261c-0.103-0.173-0.205-0.349-0.343-0.518c-0.081-0.101-0.185-0.197-0.277-0.298   c-0.145-0.151-0.288-0.305-0.46-0.454c-0.114-0.102-0.246-0.2-0.374-0.301c-0.18-0.142-0.362-0.284-0.563-0.421   c-0.142-0.101-0.295-0.197-0.448-0.294c-0.213-0.135-0.431-0.268-0.658-0.397c-0.166-0.095-0.337-0.189-0.513-0.282   c-0.236-0.128-0.481-0.254-0.734-0.376c-0.183-0.091-0.366-0.179-0.557-0.266c-0.262-0.122-0.53-0.243-0.802-0.361   c-0.193-0.082-0.38-0.164-0.576-0.244c-0.244-0.103-0.496-0.201-0.748-0.3c-0.282-0.109-0.563-0.219-0.85-0.324   c-0.252-0.095-0.505-0.186-0.759-0.275c-0.28-0.099-0.558-0.197-0.839-0.292c-0.255-0.085-0.51-0.171-0.766-0.255   c-0.277-0.09-0.547-0.177-0.82-0.263c-0.255-0.08-0.511-0.158-0.763-0.235c-0.266-0.082-0.521-0.156-0.78-0.233   c-0.24-0.071-0.483-0.142-0.717-0.21c-0.261-0.074-0.508-0.144-0.76-0.213c-0.214-0.061-0.433-0.12-0.637-0.177   c-0.246-0.067-0.469-0.128-0.698-0.188c-0.188-0.052-0.387-0.104-0.562-0.15c-0.263-0.068-0.488-0.129-0.719-0.189   c-0.434-0.112-0.831-0.215-1.132-0.295c-7.019-1.865-14.114-3.275-21.344-3.961c-1.344-0.128-9.92-0.213-9.92-1.19   c0-1.163-0.968-0.757-1.088-2.037c-0.13-1.38,0.315-2.812,0.169-4.094c-0.364-3.198-0.454-6.443-0.25-9.658   c0.159-2.493,2.262-1.375,4.085-1.375c14.316,0,28.568-1.945,42.175-6.506c34.591-11.592,68.46-42.155,63.928-81.988   c-0.686-5.602-1.66-10.992-3.312-16.402c-0.908-2.984-1.977-5.964-3.225-8.825c-0.291-0.665-0.4-1.328-0.394-1.99   c0.011-0.662,0.143-1.324,0.336-1.987c0.387-1.327,1.024-2.66,1.447-4.015c0.857-2.758,1.7-5.563,1.882-8.463   c0.04-0.624,0.033-1.381,0.019-2.199c-0.015-0.819-0.036-1.698-0.036-2.568C285.121,203.236,285.223,201.533,285.697,200.435z    M59.172,91.047c-3.713-3.425-4.316-8.619-2.812-13.224c0.641-1.961,1.671-3.824,2.515-5.705c1.804-4.02-5.585-1.52-7.873-1.224   c-2.632,0.401-4.477,0.783-5.973,0.67c-0.754-0.057-1.424-0.235-2.052-0.611c-1.134-0.678-2.154-1.976-3.38-4.265   c-1.435-2.678-1.512-5.971-0.61-8.833c2.214-7.026,11.831-11.75,18.965-10.182c-5.948-9.472-7.518-26.202,7.374-26.923   c5.035-0.244,9.493,1.924,14.138,3.385c2.138,0.673,3.486,2.522,5.45,3.29c3.559,1.391,2.18-2.781,4.285-5.194   c8.541-9.789,21.934,10.343,22.864,17.721c0.629,4.983-0.157,8.094,5.968,9.944c1.961,0.592,6.15-0.205,7.67,0.792   c3.076,2.018,5.417,4.57,6.494,8.148c1.602,5.319-1.904,10.339-3.898,15.181c-2.399-4.362-6.095-7.794-11.035-8.913   c-3.42-0.775-5.471-0.76-7.951,1.713c-1.107,1.104-2.636,2.817-4.303,3.021c-2.686,0.328-3.443-2.024-5.65,0.522   c-1.475,1.702-3.403,4.906-5.54,6.92c-0.668,0.631-1.358,1.138-2.061,1.452c-0.269,0.12-0.54,0.222-0.813,0.279   c-2.479,0.519-4.959,1.037-7.438,1.555c-0.5,0.104-0.59,3.745-0.78,4.506c-0.369,1.472-0.902,3.252-1.861,4.528   c-0.082,0.109-0.147,0.239-0.235,0.339c-0.105,0.12-0.226,0.225-0.336,0.341C75.116,95.729,65.107,96.522,59.172,91.047z    M155.696,375.942c-3.266,6.546-7.656,12.76-11.326,18.989c-3.036,5.153-9.642,7.061-11.724,0.105   c-2.375-7.932,3.661-18.092,10.079-22.533c-7.628,1.837-15.014,9.605-19.814,15.443c-2.281,2.775-2.761,7.039-6.526,7.039   c-4.001,0-7.082-3.961-7.082-7.779c0-7.526,6.565-12.392,12.095-16.289c-8.777-2.815-16.763,3.259-25.04,4.123   c-8.301,0.868-4.539-6.694-0.531-9.995c8.636-7.109,20.153-5.259,30.717-4.577c3.752,0.243,10.744,2.026,14.058,1.032   c4.098-1.227,2.862-10.346,3.236-14.599c5.422,0.801,9.918,0.187,15.174-1.004c0,1.992,0,3.983,0,5.977   C158.922,359.782,159.256,368.806,155.696,375.942z M178.692,358.698c9.781,0.153,19.656,1.598,29.091,4.169   c5.46,1.487,15.175,3.408,17.647,9.479c2.947,7.225-7.031,9.125-12.253,7.67c-8.9-2.483-16.995-5.861-26.207-7.459   c4.012,2.74,25.186,18.068,14.109,22.48c-8.851,3.53-25.386-11.775-28.168-19.307c-1.632,2.101-0.534,8.133-0.755,11.218   c-0.275,3.858-0.808,7.604-1.951,11.287c-1.873,6.036-7.447,9.836-10.08,3.097c-2.838-7.272-0.673-17.99,0.326-25.415   c1.337-9.939,1.654-19.897,1.53-29.913c3.928,2.408,9.361,2.359,12.997-0.582c-0.744,4.437-0.267,9.073-0.156,13.541   C176.083,358.697,177.397,358.607,178.692,358.698z M278.985,197.525c-1.912,0,0.905,5.16,0.593,6.789   c-0.717,3.752-1.351,7.528-2.212,11.25c-1.403-2.767-3.789-10.543-6.947-10.368c3.824,7.932,6.178,17.565,8.638,26.01   c2.778,9.539,4.073,19.108,3.3,29.054c-4.084,63.418-80.962,76.419-131.503,74.844c-16.653-0.519-33.593-1.297-50.173-2.637   c-15.584-1.261-32.569-3.734-46.813-10.584c-30.33-14.584-41.343-43.855-38.833-76.116c0.374-4.809,1.228-9.561,2.175-14.281   c3.785,1.488,9.084-1.858,10.394,1.783c2.875,7.996,7.888,15.015,14.593,20.168c-0.301-0.447-0.607-0.892-0.914-1.335   c-5.885-8.524-12.625-16.613-13.304-27.706c-2.069,1.854-6.888,5.017-9.603,2.964c-4.049-3.063-0.559-13.373-0.03-17.179   c1.01-7.258,2.768-14.453,4.713-21.512c2.122-7.703,0.135-13.642-0.427-21.327c-1.809-24.724,3.122-50.248,15.373-71.164   c1.739-2.968,9.524-15.589,13.952-12.642c0.047-0.246,0.135-0.475,0.266-0.688c1.09,1.746,0.238,4.538,0.849,6.718   c0.883,3.151,3.691,6.297,6.207,8.251c4.565,3.545,9.214,4.733,14.642,2.698c6.288-2.359,13.616-7.759,14.695-14.784   c0.159-1.04,8.135-4.337,9.761-5.687c1.329-1.103,2.743-4.331,4.349-4.89c5.346-1.862,6.942-2.339,11.92,0.418   c14.549,8.061,20.544,20.532,26.81,35.204c6.385,14.95,15.852,28.477,26.676,40.515c4.737,5.267,10.058,10.032,15.521,14.527   c3.831,3.154-6.572,9.561-8.567,10.548c-2.513,1.244-5.186,2.02-7.957,2.513c-1.656,0.295-6.258,0.675-3.29,3.306   c2.805,2.482,6.392,7.555,7.163,12.206c0.263,1.573,0.204,3.098-0.317,4.458c-0.197,0.508-0.49,1.031-0.857,1.558   c-2.509,3.598-8.537,7.447-11.504,9.153c-3.907,2.245-7.959,3.796-12.254,5.21c1.443,3.001,2.502,6.247,2.492,9.396   c-0.009,2.709-0.806,5.346-2.863,7.69c-1.879,2.143-4.101,3.598-6.533,4.579c-7.354,2.963-16.638,1.568-24.236,1.609   c1.588,6.206,2.216,21.827-6.101,22.374c-7.519,0.494-27.225-5.833-30.504-13.064c-3.91,7.385-14.065,14.42-22.706,10.632   c0.093,0.571,0.281,1.067,0.538,1.503c3.408,5.789,20.13,0.122,20.454-6.043c0.006-0.109,0.021-0.217,0.017-0.326   c0.102,0.065,0.207,0.122,0.309,0.186c10.609,6.787,22.313,10.664,34.814,12.017c2.384,0.259,6.076-7.574,6.865-9.292   c1.698-3.692,2.189-8.31,1.937-12.327c9.296,1.062,18.22,0.073,25.04-6.929c4.94-5.073,9.554-13.378,6.472-20.417   c6.982-2.021,13.257-5.146,18.354-10.42c2.674-2.763,5.095-5.295,5.095-9.23c0-5.077-1.891-10.071-5.306-13.833   c5.497-0.889,10.957-2.891,14.271-7.643c3.089-4.433,5.154-10.928,0.558-14.571c-0.405-0.321-0.843-0.627-1.354-0.9   c0.307,0.001,0.617,0.004,0.925,0.006c11.971,0.077,23.937,0.149,35.906,0.375c5.2,0.099,11.178-0.619,16.3,0.596   c4.452,1.057,7.612,5.087,10.687,8.173c-1.815-5.054-5.459-8.993-10.343-11.188c-3.712-1.667-13.066-1.538-13.581-6.108   c-0.598-5.305,12.098-12.713,16.339-15.076c6.232-3.471,12.362-6.053,19.017-7.933c5.574-1.575,8.648,1.715,8.729,7.191   c0.019,1.195-0.28,2.401-0.452,3.578c-0.354,2.414,1.123,2.063,2.786,3.511c3.063,2.664,5.763,5.304,7.729,8.919   c2.611,4.799,4.464,8.784,3.917,14.249c-0.16,1.59-1.203,1.763-2.043,2.698c-1.891,2.111-2.936-0.685-0.795,2.698   c3.739,5.909,11.288,14.508,7.375,22.48C284.833,196.657,281.926,197.525,278.985,197.525z"/>
	<path d="M239.646,185.148c-1.937-7.663-8.924-21.232-18.723-19.254c3.104,0.974,5.789,2.677,8.012,4.854   c4.205,4.12,6.732,9.959,7.187,15.91c0.003,0.053,0.009,0.106,0.013,0.16c0.04,0.589,0.065,1.179,0.065,1.769   c0.002,3.983-1.036,7.832-2.387,11.532c-1.35,3.696-3.678,5.133-2.885,7.236c0.02,0.056,0.053,0.116,0.078,0.173   c0.305,0.673,0.916,1.418,1.987,2.329c6.772,5.757-3.028,25.907-7.086,32.207c-2.403,3.732-5.324,7.073-8.596,10.051   c-3.209,2.927-7.984,5.156-11.006,8.354c-0.324,0.345-0.649,0.69-0.93,1.061c4.197,1.93,4.737,2.199,8.012-0.528   c3.388-2.824,6.783-5.86,9.548-9.309c6.072-7.569,10.682-15.61,13.424-24.967c1.127-3.852,5.181-16.009,1.902-19.333   c-3.223-3.265,0.297-7.024,1.172-11.294C240.172,192.506,240.277,188.766,239.646,185.148z"/>
	<path d="M180.339,369.67c-0.002,0.086-0.002,0.15-0.002,0.084C180.339,369.716,180.339,369.699,180.339,369.67z"/>
	<path d="M50.737,113.475c-8.413-5.638-14.284,10.381-4.138,11.584C52.855,125.648,56.195,117.132,50.737,113.475z M44.217,118.736   c-0.928,0-1.681-0.824-1.681-1.841s0.752-1.841,1.681-1.841c0.928,0,1.68,0.824,1.68,1.841S45.145,118.736,44.217,118.736z"/>
	<path d="M64.689,184.619c1.626,1.005,2.424,3.113,4.563,4.125c4.78,2.263,10.89,2.563,13.979-1.958   c7.661-11.205,5.605-20.91-0.292-32.16c-2.295-4.379-0.365-9.196-3.713-13.805c-3.775-5.196-10.451-9.628-17.029-9.521   c-1.726,0.028-3.495,0.393-5.214,1.023c-2.724,0.997-5.317,2.663-7.41,4.735c-4.824,4.773-6.972,11.69-1.806,17.49   c0.888,0.995,1.983,1.838,3.131,2.513c-7.517,7.216-6.751,27.418,6.631,27.083C60.473,184.136,62.308,183.147,64.689,184.619z    M77.681,184.96c-0.569,0.317-1.168,0.556-1.798,0.69c-0.661,0.141-1.278,0.173-1.864,0.132c-1.448-0.1-2.683-0.696-3.779-1.559   c-1.53-1.202-2.795-2.9-4.013-4.418c-1.818-2.265-3.002-0.226-5.465,0.477c-2.43,0.693-4.835,0.328-6.843-1.112   c-3.61-2.213-5.96-6.843-5.093-11.107c0.542-2.663,2.21-3.869,3.873-5.713c2.917-3.233,1.524-2.408,5.251-1.64   c7.782,1.602,13.131,0.62,19.152-4.866c3.261,4.869,6.791,10.415,6.791,16.477c0,2.7-0.841,5.886-2.323,8.484   C80.556,182.584,79.242,184.086,77.681,184.96z M54.292,135.426c7.792-5.549,17.75-0.238,22.175,7.01   c2.646,4.334-0.545,9.778-4.961,11.874c-7.684,3.647-14.79,1.079-21.14-3.544C45.477,146.253,50.056,138.442,54.292,135.426z"/>
	<path d="M96.386,117.865c-0.939-2.997-5.205-5.631-8.037-5.131c-4.98,0.879-5.035,6.433-4.137,10.314   C88.232,127.268,98.505,124.62,96.386,117.865z M87.324,114.445c1.15,0,2.082,0.96,2.082,2.146c0,1.184-0.932,2.145-2.082,2.145   c-1.149,0-2.082-0.961-2.082-2.145C85.242,115.405,86.175,114.445,87.324,114.445z"/>
	<ellipse fill="#FFFFFF" cx="44.217" cy="116.895" rx="1.681" ry="1.841"/>
	<ellipse fill="#FFFFFF" cx="87.324" cy="116.591" rx="2.082" ry="2.145"/>
</g>
</svg>
