<?xml version="1.0" encoding="utf-8" standalone="no"?>
<!DOCTYPE svg PUBLIC "-//W3C//DTD SVG 1.1//EN"
  "http://www.w3.org/Graphics/SVG/1.1/DTD/svg11.dtd">
<!-- Created with matplotlib (https://matplotlib.org/) -->
<svg height="345.6pt" version="1.1" viewBox="0 0 460.8 345.6" width="460.8pt" xmlns="http://www.w3.org/2000/svg" xmlns:xlink="http://www.w3.org/1999/xlink">
 <metadata>
  <rdf:RDF xmlns:cc="http://creativecommons.org/ns#" xmlns:dc="http://purl.org/dc/elements/1.1/" xmlns:rdf="http://www.w3.org/1999/02/22-rdf-syntax-ns#">
   <cc:Work>
    <dc:type rdf:resource="http://purl.org/dc/dcmitype/StillImage"/>
    <dc:date>2021-10-19T11:09:59.631775</dc:date>
    <dc:format>image/svg+xml</dc:format>
    <dc:creator>
     <cc:Agent>
      <dc:title>Matplotlib v3.3.3, https://matplotlib.org/</dc:title>
     </cc:Agent>
    </dc:creator>
   </cc:Work>
  </rdf:RDF>
 </metadata>
 <defs>
  <style type="text/css">*{stroke-linecap:butt;stroke-linejoin:round;}</style>
 </defs>
 <g id="figure_1">
  <g id="patch_1">
   <path d="M 0 345.6 
L 460.8 345.6 
L 460.8 0 
L 0 0 
z
" style="fill:#ffffff;"/>
  </g>
  <g id="axes_1">
   <g id="patch_2">
    <path d="M 61.418 295.0216 
L 443.52 295.0216 
L 443.52 17.28 
L 61.418 17.28 
z
" style="fill:#ffffff;"/>
   </g>
   <g id="matplotlib.axis_1">
    <g id="xtick_1">
     <g id="line2d_1">
      <defs>
       <path d="M 0 0 
L 0 3.5 
" id="m3655e8d3bf" style="stroke:#000000;stroke-width:0.8;"/>
      </defs>
      <g>
       <use style="stroke:#000000;stroke-width:0.8;" x="78.786273" xlink:href="#m3655e8d3bf" y="295.0216"/>
      </g>
     </g>
     <g id="text_1">
      <!-- 2000 -->
      <g transform="translate(58.426273 314.1791)scale(0.16 -0.16)">
       <defs>
        <path d="M 19.1875 8.296875 
L 53.609375 8.296875 
L 53.609375 0 
L 7.328125 0 
L 7.328125 8.296875 
Q 12.9375 14.109375 22.625 23.890625 
Q 32.328125 33.6875 34.8125 36.53125 
Q 39.546875 41.84375 41.421875 45.53125 
Q 43.3125 49.21875 43.3125 52.78125 
Q 43.3125 58.59375 39.234375 62.25 
Q 35.15625 65.921875 28.609375 65.921875 
Q 23.96875 65.921875 18.8125 64.3125 
Q 13.671875 62.703125 7.8125 59.421875 
L 7.8125 69.390625 
Q 13.765625 71.78125 18.9375 73 
Q 24.125 74.21875 28.421875 74.21875 
Q 39.75 74.21875 46.484375 68.546875 
Q 53.21875 62.890625 53.21875 53.421875 
Q 53.21875 48.921875 51.53125 44.890625 
Q 49.859375 40.875 45.40625 35.40625 
Q 44.1875 33.984375 37.640625 27.21875 
Q 31.109375 20.453125 19.1875 8.296875 
z
" id="DejaVuSans-50"/>
        <path d="M 31.78125 66.40625 
Q 24.171875 66.40625 20.328125 58.90625 
Q 16.5 51.421875 16.5 36.375 
Q 16.5 21.390625 20.328125 13.890625 
Q 24.171875 6.390625 31.78125 6.390625 
Q 39.453125 6.390625 43.28125 13.890625 
Q 47.125 21.390625 47.125 36.375 
Q 47.125 51.421875 43.28125 58.90625 
Q 39.453125 66.40625 31.78125 66.40625 
z
M 31.78125 74.21875 
Q 44.046875 74.21875 50.515625 64.515625 
Q 56.984375 54.828125 56.984375 36.375 
Q 56.984375 17.96875 50.515625 8.265625 
Q 44.046875 -1.421875 31.78125 -1.421875 
Q 19.53125 -1.421875 13.0625 8.265625 
Q 6.59375 17.96875 6.59375 36.375 
Q 6.59375 54.828125 13.0625 64.515625 
Q 19.53125 74.21875 31.78125 74.21875 
z
" id="DejaVuSans-48"/>
       </defs>
       <use xlink:href="#DejaVuSans-50"/>
       <use x="63.623047" xlink:href="#DejaVuSans-48"/>
       <use x="127.246094" xlink:href="#DejaVuSans-48"/>
       <use x="190.869141" xlink:href="#DejaVuSans-48"/>
      </g>
     </g>
    </g>
    <g id="xtick_2">
     <g id="line2d_2">
      <g>
       <use style="stroke:#000000;stroke-width:0.8;" x="143.261743" xlink:href="#m3655e8d3bf" y="295.0216"/>
      </g>
     </g>
     <g id="text_2">
      <!-- 2004 -->
      <g transform="translate(122.901743 314.1791)scale(0.16 -0.16)">
       <defs>
        <path d="M 37.796875 64.3125 
L 12.890625 25.390625 
L 37.796875 25.390625 
z
M 35.203125 72.90625 
L 47.609375 72.90625 
L 47.609375 25.390625 
L 58.015625 25.390625 
L 58.015625 17.1875 
L 47.609375 17.1875 
L 47.609375 0 
L 37.796875 0 
L 37.796875 17.1875 
L 4.890625 17.1875 
L 4.890625 26.703125 
z
" id="DejaVuSans-52"/>
       </defs>
       <use xlink:href="#DejaVuSans-50"/>
       <use x="63.623047" xlink:href="#DejaVuSans-48"/>
       <use x="127.246094" xlink:href="#DejaVuSans-48"/>
       <use x="190.869141" xlink:href="#DejaVuSans-52"/>
      </g>
     </g>
    </g>
    <g id="xtick_3">
     <g id="line2d_3">
      <g>
       <use style="stroke:#000000;stroke-width:0.8;" x="207.428719" xlink:href="#m3655e8d3bf" y="295.0216"/>
      </g>
     </g>
     <g id="text_3">
      <!-- 2008 -->
      <g transform="translate(187.068719 314.1791)scale(0.16 -0.16)">
       <defs>
        <path d="M 31.78125 34.625 
Q 24.75 34.625 20.71875 30.859375 
Q 16.703125 27.09375 16.703125 20.515625 
Q 16.703125 13.921875 20.71875 10.15625 
Q 24.75 6.390625 31.78125 6.390625 
Q 38.8125 6.390625 42.859375 10.171875 
Q 46.921875 13.96875 46.921875 20.515625 
Q 46.921875 27.09375 42.890625 30.859375 
Q 38.875 34.625 31.78125 34.625 
z
M 21.921875 38.8125 
Q 15.578125 40.375 12.03125 44.71875 
Q 8.5 49.078125 8.5 55.328125 
Q 8.5 64.0625 14.71875 69.140625 
Q 20.953125 74.21875 31.78125 74.21875 
Q 42.671875 74.21875 48.875 69.140625 
Q 55.078125 64.0625 55.078125 55.328125 
Q 55.078125 49.078125 51.53125 44.71875 
Q 48 40.375 41.703125 38.8125 
Q 48.828125 37.15625 52.796875 32.3125 
Q 56.78125 27.484375 56.78125 20.515625 
Q 56.78125 9.90625 50.3125 4.234375 
Q 43.84375 -1.421875 31.78125 -1.421875 
Q 19.734375 -1.421875 13.25 4.234375 
Q 6.78125 9.90625 6.78125 20.515625 
Q 6.78125 27.484375 10.78125 32.3125 
Q 14.796875 37.15625 21.921875 38.8125 
z
M 18.3125 54.390625 
Q 18.3125 48.734375 21.84375 45.5625 
Q 25.390625 42.390625 31.78125 42.390625 
Q 38.140625 42.390625 41.71875 45.5625 
Q 45.3125 48.734375 45.3125 54.390625 
Q 45.3125 60.0625 41.71875 63.234375 
Q 38.140625 66.40625 31.78125 66.40625 
Q 25.390625 66.40625 21.84375 63.234375 
Q 18.3125 60.0625 18.3125 54.390625 
z
" id="DejaVuSans-56"/>
       </defs>
       <use xlink:href="#DejaVuSans-50"/>
       <use x="63.623047" xlink:href="#DejaVuSans-48"/>
       <use x="127.246094" xlink:href="#DejaVuSans-48"/>
       <use x="190.869141" xlink:href="#DejaVuSans-56"/>
      </g>
     </g>
    </g>
    <g id="xtick_4">
     <g id="line2d_4">
      <g>
       <use style="stroke:#000000;stroke-width:0.8;" x="271.90419" xlink:href="#m3655e8d3bf" y="295.0216"/>
      </g>
     </g>
     <g id="text_4">
      <!-- 2012 -->
      <g transform="translate(251.54419 314.1791)scale(0.16 -0.16)">
       <defs>
        <path d="M 12.40625 8.296875 
L 28.515625 8.296875 
L 28.515625 63.921875 
L 10.984375 60.40625 
L 10.984375 69.390625 
L 28.421875 72.90625 
L 38.28125 72.90625 
L 38.28125 8.296875 
L 54.390625 8.296875 
L 54.390625 0 
L 12.40625 0 
z
" id="DejaVuSans-49"/>
       </defs>
       <use xlink:href="#DejaVuSans-50"/>
       <use x="63.623047" xlink:href="#DejaVuSans-48"/>
       <use x="127.246094" xlink:href="#DejaVuSans-49"/>
       <use x="190.869141" xlink:href="#DejaVuSans-50"/>
      </g>
     </g>
    </g>
    <g id="xtick_5">
     <g id="line2d_5">
      <g>
       <use style="stroke:#000000;stroke-width:0.8;" x="336.37966" xlink:href="#m3655e8d3bf" y="295.0216"/>
      </g>
     </g>
     <g id="text_5">
      <!-- 2016 -->
      <g transform="translate(316.01966 314.1791)scale(0.16 -0.16)">
       <defs>
        <path d="M 33.015625 40.375 
Q 26.375 40.375 22.484375 35.828125 
Q 18.609375 31.296875 18.609375 23.390625 
Q 18.609375 15.53125 22.484375 10.953125 
Q 26.375 6.390625 33.015625 6.390625 
Q 39.65625 6.390625 43.53125 10.953125 
Q 47.40625 15.53125 47.40625 23.390625 
Q 47.40625 31.296875 43.53125 35.828125 
Q 39.65625 40.375 33.015625 40.375 
z
M 52.59375 71.296875 
L 52.59375 62.3125 
Q 48.875 64.0625 45.09375 64.984375 
Q 41.3125 65.921875 37.59375 65.921875 
Q 27.828125 65.921875 22.671875 59.328125 
Q 17.53125 52.734375 16.796875 39.40625 
Q 19.671875 43.65625 24.015625 45.921875 
Q 28.375 48.1875 33.59375 48.1875 
Q 44.578125 48.1875 50.953125 41.515625 
Q 57.328125 34.859375 57.328125 23.390625 
Q 57.328125 12.15625 50.6875 5.359375 
Q 44.046875 -1.421875 33.015625 -1.421875 
Q 20.359375 -1.421875 13.671875 8.265625 
Q 6.984375 17.96875 6.984375 36.375 
Q 6.984375 53.65625 15.1875 63.9375 
Q 23.390625 74.21875 37.203125 74.21875 
Q 40.921875 74.21875 44.703125 73.484375 
Q 48.484375 72.75 52.59375 71.296875 
z
" id="DejaVuSans-54"/>
       </defs>
       <use xlink:href="#DejaVuSans-50"/>
       <use x="63.623047" xlink:href="#DejaVuSans-48"/>
       <use x="127.246094" xlink:href="#DejaVuSans-49"/>
       <use x="190.869141" xlink:href="#DejaVuSans-54"/>
      </g>
     </g>
    </g>
    <g id="xtick_6">
     <g id="line2d_6">
      <g>
       <use style="stroke:#000000;stroke-width:0.8;" x="400.855131" xlink:href="#m3655e8d3bf" y="295.0216"/>
      </g>
     </g>
     <g id="text_6">
      <!-- 2020 -->
      <g transform="translate(380.495131 314.1791)scale(0.16 -0.16)">
       <use xlink:href="#DejaVuSans-50"/>
       <use x="63.623047" xlink:href="#DejaVuSans-48"/>
       <use x="127.246094" xlink:href="#DejaVuSans-50"/>
       <use x="190.869141" xlink:href="#DejaVuSans-48"/>
      </g>
     </g>
    </g>
    <g id="text_7">
     <!-- date -->
     <g transform="translate(234.429 333.6641)scale(0.16 -0.16)">
      <defs>
       <path d="M 45.40625 46.390625 
L 45.40625 75.984375 
L 54.390625 75.984375 
L 54.390625 0 
L 45.40625 0 
L 45.40625 8.203125 
Q 42.578125 3.328125 38.25 0.953125 
Q 33.9375 -1.421875 27.875 -1.421875 
Q 17.96875 -1.421875 11.734375 6.484375 
Q 5.515625 14.40625 5.515625 27.296875 
Q 5.515625 40.1875 11.734375 48.09375 
Q 17.96875 56 27.875 56 
Q 33.9375 56 38.25 53.625 
Q 42.578125 51.265625 45.40625 46.390625 
z
M 14.796875 27.296875 
Q 14.796875 17.390625 18.875 11.75 
Q 22.953125 6.109375 30.078125 6.109375 
Q 37.203125 6.109375 41.296875 11.75 
Q 45.40625 17.390625 45.40625 27.296875 
Q 45.40625 37.203125 41.296875 42.84375 
Q 37.203125 48.484375 30.078125 48.484375 
Q 22.953125 48.484375 18.875 42.84375 
Q 14.796875 37.203125 14.796875 27.296875 
z
" id="DejaVuSans-100"/>
       <path d="M 34.28125 27.484375 
Q 23.390625 27.484375 19.1875 25 
Q 14.984375 22.515625 14.984375 16.5 
Q 14.984375 11.71875 18.140625 8.90625 
Q 21.296875 6.109375 26.703125 6.109375 
Q 34.1875 6.109375 38.703125 11.40625 
Q 43.21875 16.703125 43.21875 25.484375 
L 43.21875 27.484375 
z
M 52.203125 31.203125 
L 52.203125 0 
L 43.21875 0 
L 43.21875 8.296875 
Q 40.140625 3.328125 35.546875 0.953125 
Q 30.953125 -1.421875 24.3125 -1.421875 
Q 15.921875 -1.421875 10.953125 3.296875 
Q 6 8.015625 6 15.921875 
Q 6 25.140625 12.171875 29.828125 
Q 18.359375 34.515625 30.609375 34.515625 
L 43.21875 34.515625 
L 43.21875 35.40625 
Q 43.21875 41.609375 39.140625 45 
Q 35.0625 48.390625 27.6875 48.390625 
Q 23 48.390625 18.546875 47.265625 
Q 14.109375 46.140625 10.015625 43.890625 
L 10.015625 52.203125 
Q 14.9375 54.109375 19.578125 55.046875 
Q 24.21875 56 28.609375 56 
Q 40.484375 56 46.34375 49.84375 
Q 52.203125 43.703125 52.203125 31.203125 
z
" id="DejaVuSans-97"/>
       <path d="M 18.3125 70.21875 
L 18.3125 54.6875 
L 36.8125 54.6875 
L 36.8125 47.703125 
L 18.3125 47.703125 
L 18.3125 18.015625 
Q 18.3125 11.328125 20.140625 9.421875 
Q 21.96875 7.515625 27.59375 7.515625 
L 36.8125 7.515625 
L 36.8125 0 
L 27.59375 0 
Q 17.1875 0 13.234375 3.875 
Q 9.28125 7.765625 9.28125 18.015625 
L 9.28125 47.703125 
L 2.6875 47.703125 
L 2.6875 54.6875 
L 9.28125 54.6875 
L 9.28125 70.21875 
z
" id="DejaVuSans-116"/>
       <path d="M 56.203125 29.59375 
L 56.203125 25.203125 
L 14.890625 25.203125 
Q 15.484375 15.921875 20.484375 11.0625 
Q 25.484375 6.203125 34.421875 6.203125 
Q 39.59375 6.203125 44.453125 7.46875 
Q 49.3125 8.734375 54.109375 11.28125 
L 54.109375 2.78125 
Q 49.265625 0.734375 44.1875 -0.34375 
Q 39.109375 -1.421875 33.890625 -1.421875 
Q 20.796875 -1.421875 13.15625 6.1875 
Q 5.515625 13.8125 5.515625 26.8125 
Q 5.515625 40.234375 12.765625 48.109375 
Q 20.015625 56 32.328125 56 
Q 43.359375 56 49.78125 48.890625 
Q 56.203125 41.796875 56.203125 29.59375 
z
M 47.21875 32.234375 
Q 47.125 39.59375 43.09375 43.984375 
Q 39.0625 48.390625 32.421875 48.390625 
Q 24.90625 48.390625 20.390625 44.140625 
Q 15.875 39.890625 15.1875 32.171875 
z
" id="DejaVuSans-101"/>
      </defs>
      <use xlink:href="#DejaVuSans-100"/>
      <use x="63.476562" xlink:href="#DejaVuSans-97"/>
      <use x="124.755859" xlink:href="#DejaVuSans-116"/>
      <use x="163.964844" xlink:href="#DejaVuSans-101"/>
     </g>
    </g>
   </g>
   <g id="matplotlib.axis_2">
    <g id="ytick_1">
     <g id="line2d_7">
      <defs>
       <path d="M 0 0 
L -3.5 0 
" id="m99c8e44238" style="stroke:#000000;stroke-width:0.8;"/>
      </defs>
      <g>
       <use style="stroke:#000000;stroke-width:0.8;" x="61.418" xlink:href="#m99c8e44238" y="282.396982"/>
      </g>
     </g>
     <g id="text_8">
      <!-- 300 -->
      <g transform="translate(23.878 288.475732)scale(0.16 -0.16)">
       <defs>
        <path d="M 40.578125 39.3125 
Q 47.65625 37.796875 51.625 33 
Q 55.609375 28.21875 55.609375 21.1875 
Q 55.609375 10.40625 48.1875 4.484375 
Q 40.765625 -1.421875 27.09375 -1.421875 
Q 22.515625 -1.421875 17.65625 -0.515625 
Q 12.796875 0.390625 7.625 2.203125 
L 7.625 11.71875 
Q 11.71875 9.328125 16.59375 8.109375 
Q 21.484375 6.890625 26.8125 6.890625 
Q 36.078125 6.890625 40.9375 10.546875 
Q 45.796875 14.203125 45.796875 21.1875 
Q 45.796875 27.640625 41.28125 31.265625 
Q 36.765625 34.90625 28.71875 34.90625 
L 20.21875 34.90625 
L 20.21875 43.015625 
L 29.109375 43.015625 
Q 36.375 43.015625 40.234375 45.921875 
Q 44.09375 48.828125 44.09375 54.296875 
Q 44.09375 59.90625 40.109375 62.90625 
Q 36.140625 65.921875 28.71875 65.921875 
Q 24.65625 65.921875 20.015625 65.03125 
Q 15.375 64.15625 9.8125 62.3125 
L 9.8125 71.09375 
Q 15.4375 72.65625 20.34375 73.4375 
Q 25.25 74.21875 29.59375 74.21875 
Q 40.828125 74.21875 47.359375 69.109375 
Q 53.90625 64.015625 53.90625 55.328125 
Q 53.90625 49.265625 50.4375 45.09375 
Q 46.96875 40.921875 40.578125 39.3125 
z
" id="DejaVuSans-51"/>
       </defs>
       <use xlink:href="#DejaVuSans-51"/>
       <use x="63.623047" xlink:href="#DejaVuSans-48"/>
       <use x="127.246094" xlink:href="#DejaVuSans-48"/>
      </g>
     </g>
    </g>
    <g id="ytick_2">
     <g id="line2d_8">
      <g>
       <use style="stroke:#000000;stroke-width:0.8;" x="61.418" xlink:href="#m99c8e44238" y="237.469515"/>
      </g>
     </g>
     <g id="text_9">
      <!-- 350 -->
      <g transform="translate(23.878 243.548265)scale(0.16 -0.16)">
       <defs>
        <path d="M 10.796875 72.90625 
L 49.515625 72.90625 
L 49.515625 64.59375 
L 19.828125 64.59375 
L 19.828125 46.734375 
Q 21.96875 47.46875 24.109375 47.828125 
Q 26.265625 48.1875 28.421875 48.1875 
Q 40.625 48.1875 47.75 41.5 
Q 54.890625 34.8125 54.890625 23.390625 
Q 54.890625 11.625 47.5625 5.09375 
Q 40.234375 -1.421875 26.90625 -1.421875 
Q 22.3125 -1.421875 17.546875 -0.640625 
Q 12.796875 0.140625 7.71875 1.703125 
L 7.71875 11.625 
Q 12.109375 9.234375 16.796875 8.0625 
Q 21.484375 6.890625 26.703125 6.890625 
Q 35.15625 6.890625 40.078125 11.328125 
Q 45.015625 15.765625 45.015625 23.390625 
Q 45.015625 31 40.078125 35.4375 
Q 35.15625 39.890625 26.703125 39.890625 
Q 22.75 39.890625 18.8125 39.015625 
Q 14.890625 38.140625 10.796875 36.28125 
z
" id="DejaVuSans-53"/>
       </defs>
       <use xlink:href="#DejaVuSans-51"/>
       <use x="63.623047" xlink:href="#DejaVuSans-53"/>
       <use x="127.246094" xlink:href="#DejaVuSans-48"/>
      </g>
     </g>
    </g>
    <g id="ytick_3">
     <g id="line2d_9">
      <g>
       <use style="stroke:#000000;stroke-width:0.8;" x="61.418" xlink:href="#m99c8e44238" y="192.542048"/>
      </g>
     </g>
     <g id="text_10">
      <!-- 400 -->
      <g transform="translate(23.878 198.620798)scale(0.16 -0.16)">
       <use xlink:href="#DejaVuSans-52"/>
       <use x="63.623047" xlink:href="#DejaVuSans-48"/>
       <use x="127.246094" xlink:href="#DejaVuSans-48"/>
      </g>
     </g>
    </g>
    <g id="ytick_4">
     <g id="line2d_10">
      <g>
       <use style="stroke:#000000;stroke-width:0.8;" x="61.418" xlink:href="#m99c8e44238" y="147.614581"/>
      </g>
     </g>
     <g id="text_11">
      <!-- 450 -->
      <g transform="translate(23.878 153.693331)scale(0.16 -0.16)">
       <use xlink:href="#DejaVuSans-52"/>
       <use x="63.623047" xlink:href="#DejaVuSans-53"/>
       <use x="127.246094" xlink:href="#DejaVuSans-48"/>
      </g>
     </g>
    </g>
    <g id="ytick_5">
     <g id="line2d_11">
      <g>
       <use style="stroke:#000000;stroke-width:0.8;" x="61.418" xlink:href="#m99c8e44238" y="102.687114"/>
      </g>
     </g>
     <g id="text_12">
      <!-- 500 -->
      <g transform="translate(23.878 108.765864)scale(0.16 -0.16)">
       <use xlink:href="#DejaVuSans-53"/>
       <use x="63.623047" xlink:href="#DejaVuSans-48"/>
       <use x="127.246094" xlink:href="#DejaVuSans-48"/>
      </g>
     </g>
    </g>
    <g id="ytick_6">
     <g id="line2d_12">
      <g>
       <use style="stroke:#000000;stroke-width:0.8;" x="61.418" xlink:href="#m99c8e44238" y="57.759648"/>
      </g>
     </g>
     <g id="text_13">
      <!-- 550 -->
      <g transform="translate(23.878 63.838398)scale(0.16 -0.16)">
       <use xlink:href="#DejaVuSans-53"/>
       <use x="63.623047" xlink:href="#DejaVuSans-53"/>
       <use x="127.246094" xlink:href="#DejaVuSans-48"/>
      </g>
     </g>
    </g>
    <g id="text_14">
     <!-- mean weekly earning (£) -->
     <g transform="translate(16.5505 256.1908)rotate(-90)scale(0.16 -0.16)">
      <defs>
       <path d="M 52 44.1875 
Q 55.375 50.25 60.0625 53.125 
Q 64.75 56 71.09375 56 
Q 79.640625 56 84.28125 50.015625 
Q 88.921875 44.046875 88.921875 33.015625 
L 88.921875 0 
L 79.890625 0 
L 79.890625 32.71875 
Q 79.890625 40.578125 77.09375 44.375 
Q 74.3125 48.1875 68.609375 48.1875 
Q 61.625 48.1875 57.5625 43.546875 
Q 53.515625 38.921875 53.515625 30.90625 
L 53.515625 0 
L 44.484375 0 
L 44.484375 32.71875 
Q 44.484375 40.625 41.703125 44.40625 
Q 38.921875 48.1875 33.109375 48.1875 
Q 26.21875 48.1875 22.15625 43.53125 
Q 18.109375 38.875 18.109375 30.90625 
L 18.109375 0 
L 9.078125 0 
L 9.078125 54.6875 
L 18.109375 54.6875 
L 18.109375 46.1875 
Q 21.1875 51.21875 25.484375 53.609375 
Q 29.78125 56 35.6875 56 
Q 41.65625 56 45.828125 52.96875 
Q 50 49.953125 52 44.1875 
z
" id="DejaVuSans-109"/>
       <path d="M 54.890625 33.015625 
L 54.890625 0 
L 45.90625 0 
L 45.90625 32.71875 
Q 45.90625 40.484375 42.875 44.328125 
Q 39.84375 48.1875 33.796875 48.1875 
Q 26.515625 48.1875 22.3125 43.546875 
Q 18.109375 38.921875 18.109375 30.90625 
L 18.109375 0 
L 9.078125 0 
L 9.078125 54.6875 
L 18.109375 54.6875 
L 18.109375 46.1875 
Q 21.34375 51.125 25.703125 53.5625 
Q 30.078125 56 35.796875 56 
Q 45.21875 56 50.046875 50.171875 
Q 54.890625 44.34375 54.890625 33.015625 
z
" id="DejaVuSans-110"/>
       <path id="DejaVuSans-32"/>
       <path d="M 4.203125 54.6875 
L 13.1875 54.6875 
L 24.421875 12.015625 
L 35.59375 54.6875 
L 46.1875 54.6875 
L 57.421875 12.015625 
L 68.609375 54.6875 
L 77.59375 54.6875 
L 63.28125 0 
L 52.6875 0 
L 40.921875 44.828125 
L 29.109375 0 
L 18.5 0 
z
" id="DejaVuSans-119"/>
       <path d="M 9.078125 75.984375 
L 18.109375 75.984375 
L 18.109375 31.109375 
L 44.921875 54.6875 
L 56.390625 54.6875 
L 27.390625 29.109375 
L 57.625 0 
L 45.90625 0 
L 18.109375 26.703125 
L 18.109375 0 
L 9.078125 0 
z
" id="DejaVuSans-107"/>
       <path d="M 9.421875 75.984375 
L 18.40625 75.984375 
L 18.40625 0 
L 9.421875 0 
z
" id="DejaVuSans-108"/>
       <path d="M 32.171875 -5.078125 
Q 28.375 -14.84375 24.75 -17.8125 
Q 21.140625 -20.796875 15.09375 -20.796875 
L 7.90625 -20.796875 
L 7.90625 -13.28125 
L 13.1875 -13.28125 
Q 16.890625 -13.28125 18.9375 -11.515625 
Q 21 -9.765625 23.484375 -3.21875 
L 25.09375 0.875 
L 2.984375 54.6875 
L 12.5 54.6875 
L 29.59375 11.921875 
L 46.6875 54.6875 
L 56.203125 54.6875 
z
" id="DejaVuSans-121"/>
       <path d="M 41.109375 46.296875 
Q 39.59375 47.171875 37.8125 47.578125 
Q 36.03125 48 33.890625 48 
Q 26.265625 48 22.1875 43.046875 
Q 18.109375 38.09375 18.109375 28.8125 
L 18.109375 0 
L 9.078125 0 
L 9.078125 54.6875 
L 18.109375 54.6875 
L 18.109375 46.1875 
Q 20.953125 51.171875 25.484375 53.578125 
Q 30.03125 56 36.53125 56 
Q 37.453125 56 38.578125 55.875 
Q 39.703125 55.765625 41.0625 55.515625 
z
" id="DejaVuSans-114"/>
       <path d="M 9.421875 54.6875 
L 18.40625 54.6875 
L 18.40625 0 
L 9.421875 0 
z
M 9.421875 75.984375 
L 18.40625 75.984375 
L 18.40625 64.59375 
L 9.421875 64.59375 
z
" id="DejaVuSans-105"/>
       <path d="M 45.40625 27.984375 
Q 45.40625 37.75 41.375 43.109375 
Q 37.359375 48.484375 30.078125 48.484375 
Q 22.859375 48.484375 18.828125 43.109375 
Q 14.796875 37.75 14.796875 27.984375 
Q 14.796875 18.265625 18.828125 12.890625 
Q 22.859375 7.515625 30.078125 7.515625 
Q 37.359375 7.515625 41.375 12.890625 
Q 45.40625 18.265625 45.40625 27.984375 
z
M 54.390625 6.78125 
Q 54.390625 -7.171875 48.1875 -13.984375 
Q 42 -20.796875 29.203125 -20.796875 
Q 24.46875 -20.796875 20.265625 -20.09375 
Q 16.0625 -19.390625 12.109375 -17.921875 
L 12.109375 -9.1875 
Q 16.0625 -11.328125 19.921875 -12.34375 
Q 23.78125 -13.375 27.78125 -13.375 
Q 36.625 -13.375 41.015625 -8.765625 
Q 45.40625 -4.15625 45.40625 5.171875 
L 45.40625 9.625 
Q 42.625 4.78125 38.28125 2.390625 
Q 33.9375 0 27.875 0 
Q 17.828125 0 11.671875 7.65625 
Q 5.515625 15.328125 5.515625 27.984375 
Q 5.515625 40.671875 11.671875 48.328125 
Q 17.828125 56 27.875 56 
Q 33.9375 56 38.28125 53.609375 
Q 42.625 51.21875 45.40625 46.390625 
L 45.40625 54.6875 
L 54.390625 54.6875 
z
" id="DejaVuSans-103"/>
       <path d="M 31 75.875 
Q 24.46875 64.65625 21.28125 53.65625 
Q 18.109375 42.671875 18.109375 31.390625 
Q 18.109375 20.125 21.3125 9.0625 
Q 24.515625 -2 31 -13.1875 
L 23.1875 -13.1875 
Q 15.875 -1.703125 12.234375 9.375 
Q 8.59375 20.453125 8.59375 31.390625 
Q 8.59375 42.28125 12.203125 53.3125 
Q 15.828125 64.359375 23.1875 75.875 
z
" id="DejaVuSans-40"/>
       <path d="M 53.8125 71.296875 
L 53.8125 62.40625 
Q 50.09375 64.40625 46.765625 65.40625 
Q 43.453125 66.40625 40.484375 66.40625 
Q 33.25 66.40625 30.421875 62.625 
Q 27.59375 58.84375 27.59375 48.484375 
L 27.59375 37.984375 
L 46.6875 37.984375 
L 46.6875 31 
L 27.59375 31 
L 27.59375 8.296875 
L 54.78125 8.296875 
L 54.78125 0 
L 6.296875 0 
L 6.296875 8.296875 
L 17.828125 8.296875 
L 17.828125 31 
L 8.109375 31 
L 8.109375 37.984375 
L 17.828125 37.984375 
L 17.828125 49.609375 
Q 17.828125 62.359375 23.046875 68.28125 
Q 28.265625 74.21875 39.59375 74.21875 
Q 42.578125 74.21875 46.265625 73.453125 
Q 49.953125 72.703125 53.8125 71.296875 
z
" id="DejaVuSans-163"/>
       <path d="M 8.015625 75.875 
L 15.828125 75.875 
Q 23.140625 64.359375 26.78125 53.3125 
Q 30.421875 42.28125 30.421875 31.390625 
Q 30.421875 20.453125 26.78125 9.375 
Q 23.140625 -1.703125 15.828125 -13.1875 
L 8.015625 -13.1875 
Q 14.5 -2 17.703125 9.0625 
Q 20.90625 20.125 20.90625 31.390625 
Q 20.90625 42.671875 17.703125 53.65625 
Q 14.5 64.65625 8.015625 75.875 
z
" id="DejaVuSans-41"/>
      </defs>
      <use xlink:href="#DejaVuSans-109"/>
      <use x="97.412109" xlink:href="#DejaVuSans-101"/>
      <use x="158.935547" xlink:href="#DejaVuSans-97"/>
      <use x="220.214844" xlink:href="#DejaVuSans-110"/>
      <use x="283.59375" xlink:href="#DejaVuSans-32"/>
      <use x="315.380859" xlink:href="#DejaVuSans-119"/>
      <use x="397.167969" xlink:href="#DejaVuSans-101"/>
      <use x="458.691406" xlink:href="#DejaVuSans-101"/>
      <use x="520.214844" xlink:href="#DejaVuSans-107"/>
      <use x="578.125" xlink:href="#DejaVuSans-108"/>
      <use x="605.908203" xlink:href="#DejaVuSans-121"/>
      <use x="665.087891" xlink:href="#DejaVuSans-32"/>
      <use x="696.875" xlink:href="#DejaVuSans-101"/>
      <use x="758.398438" xlink:href="#DejaVuSans-97"/>
      <use x="819.677734" xlink:href="#DejaVuSans-114"/>
      <use x="859.041016" xlink:href="#DejaVuSans-110"/>
      <use x="922.419922" xlink:href="#DejaVuSans-105"/>
      <use x="950.203125" xlink:href="#DejaVuSans-110"/>
      <use x="1013.582031" xlink:href="#DejaVuSans-103"/>
      <use x="1077.058594" xlink:href="#DejaVuSans-32"/>
      <use x="1108.845703" xlink:href="#DejaVuSans-40"/>
      <use x="1147.859375" xlink:href="#DejaVuSans-163"/>
      <use x="1211.482422" xlink:href="#DejaVuSans-41"/>
     </g>
    </g>
   </g>
   <g id="line2d_13">
    <defs>
     <path d="M 0 1.5 
C 0.397805 1.5 0.77937 1.341951 1.06066 1.06066 
C 1.341951 0.77937 1.5 0.397805 1.5 0 
C 1.5 -0.397805 1.341951 -0.77937 1.06066 -1.06066 
C 0.77937 -1.341951 0.397805 -1.5 0 -1.5 
C -0.397805 -1.5 -0.77937 -1.341951 -1.06066 -1.06066 
C -1.341951 -0.77937 -1.5 -0.397805 -1.5 0 
C -1.5 0.397805 -1.341951 0.77937 -1.06066 1.06066 
C -0.77937 1.341951 -0.397805 1.5 0 1.5 
z
" id="mbfd37e207d" style="stroke:#1f77b4;"/>
    </defs>
    <g clip-path="url(#p23c36ae06a)">
     <use style="fill:#1f77b4;stroke:#1f77b4;" x="78.786273" xlink:href="#mbfd37e207d" y="276.107136"/>
     <use style="fill:#1f77b4;stroke:#1f77b4;" x="80.020253" xlink:href="#mbfd37e207d" y="282.396982"/>
     <use style="fill:#1f77b4;stroke:#1f77b4;" x="81.562728" xlink:href="#mbfd37e207d" y="273.411488"/>
     <use style="fill:#1f77b4;stroke:#1f77b4;" x="82.796709" xlink:href="#mbfd37e207d" y="273.411488"/>
     <use style="fill:#1f77b4;stroke:#1f77b4;" x="84.030689" xlink:href="#mbfd37e207d" y="271.61439"/>
     <use style="fill:#1f77b4;stroke:#1f77b4;" x="85.573164" xlink:href="#mbfd37e207d" y="272.512939"/>
     <use style="fill:#1f77b4;stroke:#1f77b4;" x="86.807145" xlink:href="#mbfd37e207d" y="269.817291"/>
     <use style="fill:#1f77b4;stroke:#1f77b4;" x="88.041125" xlink:href="#mbfd37e207d" y="268.918742"/>
     <use style="fill:#1f77b4;stroke:#1f77b4;" x="89.5836" xlink:href="#mbfd37e207d" y="267.121643"/>
     <use style="fill:#1f77b4;stroke:#1f77b4;" x="90.817581" xlink:href="#mbfd37e207d" y="266.223094"/>
     <use style="fill:#1f77b4;stroke:#1f77b4;" x="92.360056" xlink:href="#mbfd37e207d" y="264.425995"/>
     <use style="fill:#1f77b4;stroke:#1f77b4;" x="93.594036" xlink:href="#mbfd37e207d" y="259.933248"/>
     <use style="fill:#1f77b4;stroke:#1f77b4;" x="94.828017" xlink:href="#mbfd37e207d" y="260.831798"/>
     <use style="fill:#1f77b4;stroke:#1f77b4;" x="96.370492" xlink:href="#mbfd37e207d" y="259.034699"/>
     <use style="fill:#1f77b4;stroke:#1f77b4;" x="97.604472" xlink:href="#mbfd37e207d" y="259.933248"/>
     <use style="fill:#1f77b4;stroke:#1f77b4;" x="98.838453" xlink:href="#mbfd37e207d" y="257.2376"/>
     <use style="fill:#1f77b4;stroke:#1f77b4;" x="100.072433" xlink:href="#mbfd37e207d" y="257.2376"/>
     <use style="fill:#1f77b4;stroke:#1f77b4;" x="101.614908" xlink:href="#mbfd37e207d" y="256.339051"/>
     <use style="fill:#1f77b4;stroke:#1f77b4;" x="102.848889" xlink:href="#mbfd37e207d" y="256.339051"/>
     <use style="fill:#1f77b4;stroke:#1f77b4;" x="104.391364" xlink:href="#mbfd37e207d" y="254.541952"/>
     <use style="fill:#1f77b4;stroke:#1f77b4;" x="105.625344" xlink:href="#mbfd37e207d" y="253.643403"/>
     <use style="fill:#1f77b4;stroke:#1f77b4;" x="106.859325" xlink:href="#mbfd37e207d" y="252.744854"/>
     <use style="fill:#1f77b4;stroke:#1f77b4;" x="108.4018" xlink:href="#mbfd37e207d" y="251.846304"/>
     <use style="fill:#1f77b4;stroke:#1f77b4;" x="109.63578" xlink:href="#mbfd37e207d" y="250.049206"/>
     <use style="fill:#1f77b4;stroke:#1f77b4;" x="110.869761" xlink:href="#mbfd37e207d" y="250.049206"/>
     <use style="fill:#1f77b4;stroke:#1f77b4;" x="112.412236" xlink:href="#mbfd37e207d" y="250.947755"/>
     <use style="fill:#1f77b4;stroke:#1f77b4;" x="113.646216" xlink:href="#mbfd37e207d" y="250.947755"/>
     <use style="fill:#1f77b4;stroke:#1f77b4;" x="114.880197" xlink:href="#mbfd37e207d" y="248.252107"/>
     <use style="fill:#1f77b4;stroke:#1f77b4;" x="116.422672" xlink:href="#mbfd37e207d" y="246.455008"/>
     <use style="fill:#1f77b4;stroke:#1f77b4;" x="117.656652" xlink:href="#mbfd37e207d" y="245.556459"/>
     <use style="fill:#1f77b4;stroke:#1f77b4;" x="118.890632" xlink:href="#mbfd37e207d" y="244.65791"/>
     <use style="fill:#1f77b4;stroke:#1f77b4;" x="120.433108" xlink:href="#mbfd37e207d" y="244.65791"/>
     <use style="fill:#1f77b4;stroke:#1f77b4;" x="121.667088" xlink:href="#mbfd37e207d" y="244.65791"/>
     <use style="fill:#1f77b4;stroke:#1f77b4;" x="122.901068" xlink:href="#mbfd37e207d" y="244.65791"/>
     <use style="fill:#1f77b4;stroke:#1f77b4;" x="124.443544" xlink:href="#mbfd37e207d" y="243.75936"/>
     <use style="fill:#1f77b4;stroke:#1f77b4;" x="125.677524" xlink:href="#mbfd37e207d" y="242.860811"/>
     <use style="fill:#1f77b4;stroke:#1f77b4;" x="127.22" xlink:href="#mbfd37e207d" y="241.962262"/>
     <use style="fill:#1f77b4;stroke:#1f77b4;" x="128.45398" xlink:href="#mbfd37e207d" y="243.75936"/>
     <use style="fill:#1f77b4;stroke:#1f77b4;" x="129.68796" xlink:href="#mbfd37e207d" y="239.266614"/>
     <use style="fill:#1f77b4;stroke:#1f77b4;" x="130.92194" xlink:href="#mbfd37e207d" y="238.368064"/>
     <use style="fill:#1f77b4;stroke:#1f77b4;" x="132.464416" xlink:href="#mbfd37e207d" y="238.368064"/>
     <use style="fill:#1f77b4;stroke:#1f77b4;" x="133.698396" xlink:href="#mbfd37e207d" y="237.469515"/>
     <use style="fill:#1f77b4;stroke:#1f77b4;" x="134.932376" xlink:href="#mbfd37e207d" y="236.570966"/>
     <use style="fill:#1f77b4;stroke:#1f77b4;" x="136.474852" xlink:href="#mbfd37e207d" y="234.773867"/>
     <use style="fill:#1f77b4;stroke:#1f77b4;" x="137.708832" xlink:href="#mbfd37e207d" y="233.875318"/>
     <use style="fill:#1f77b4;stroke:#1f77b4;" x="139.251307" xlink:href="#mbfd37e207d" y="232.078219"/>
     <use style="fill:#1f77b4;stroke:#1f77b4;" x="140.485288" xlink:href="#mbfd37e207d" y="232.078219"/>
     <use style="fill:#1f77b4;stroke:#1f77b4;" x="141.719268" xlink:href="#mbfd37e207d" y="230.28112"/>
     <use style="fill:#1f77b4;stroke:#1f77b4;" x="143.261743" xlink:href="#mbfd37e207d" y="229.382571"/>
     <use style="fill:#1f77b4;stroke:#1f77b4;" x="144.495724" xlink:href="#mbfd37e207d" y="233.875318"/>
     <use style="fill:#1f77b4;stroke:#1f77b4;" x="145.729704" xlink:href="#mbfd37e207d" y="227.585472"/>
     <use style="fill:#1f77b4;stroke:#1f77b4;" x="147.272179" xlink:href="#mbfd37e207d" y="224.889824"/>
     <use style="fill:#1f77b4;stroke:#1f77b4;" x="148.50616" xlink:href="#mbfd37e207d" y="224.889824"/>
     <use style="fill:#1f77b4;stroke:#1f77b4;" x="149.74014" xlink:href="#mbfd37e207d" y="223.991275"/>
     <use style="fill:#1f77b4;stroke:#1f77b4;" x="151.282615" xlink:href="#mbfd37e207d" y="222.194176"/>
     <use style="fill:#1f77b4;stroke:#1f77b4;" x="152.516596" xlink:href="#mbfd37e207d" y="221.295627"/>
     <use style="fill:#1f77b4;stroke:#1f77b4;" x="154.059071" xlink:href="#mbfd37e207d" y="218.599979"/>
     <use style="fill:#1f77b4;stroke:#1f77b4;" x="155.293051" xlink:href="#mbfd37e207d" y="216.80288"/>
     <use style="fill:#1f77b4;stroke:#1f77b4;" x="156.527032" xlink:href="#mbfd37e207d" y="216.80288"/>
     <use style="fill:#1f77b4;stroke:#1f77b4;" x="158.069507" xlink:href="#mbfd37e207d" y="215.904331"/>
     <use style="fill:#1f77b4;stroke:#1f77b4;" x="159.303487" xlink:href="#mbfd37e207d" y="213.208683"/>
     <use style="fill:#1f77b4;stroke:#1f77b4;" x="160.537468" xlink:href="#mbfd37e207d" y="215.904331"/>
     <use style="fill:#1f77b4;stroke:#1f77b4;" x="161.771448" xlink:href="#mbfd37e207d" y="213.208683"/>
     <use style="fill:#1f77b4;stroke:#1f77b4;" x="163.313923" xlink:href="#mbfd37e207d" y="212.310134"/>
     <use style="fill:#1f77b4;stroke:#1f77b4;" x="164.547904" xlink:href="#mbfd37e207d" y="209.614486"/>
     <use style="fill:#1f77b4;stroke:#1f77b4;" x="166.090379" xlink:href="#mbfd37e207d" y="209.614486"/>
     <use style="fill:#1f77b4;stroke:#1f77b4;" x="167.324359" xlink:href="#mbfd37e207d" y="206.918838"/>
     <use style="fill:#1f77b4;stroke:#1f77b4;" x="168.55834" xlink:href="#mbfd37e207d" y="204.22319"/>
     <use style="fill:#1f77b4;stroke:#1f77b4;" x="170.100815" xlink:href="#mbfd37e207d" y="203.32464"/>
     <use style="fill:#1f77b4;stroke:#1f77b4;" x="171.334795" xlink:href="#mbfd37e207d" y="203.32464"/>
     <use style="fill:#1f77b4;stroke:#1f77b4;" x="172.568776" xlink:href="#mbfd37e207d" y="201.527542"/>
     <use style="fill:#1f77b4;stroke:#1f77b4;" x="174.111251" xlink:href="#mbfd37e207d" y="200.628992"/>
     <use style="fill:#1f77b4;stroke:#1f77b4;" x="175.345231" xlink:href="#mbfd37e207d" y="198.831893"/>
     <use style="fill:#1f77b4;stroke:#1f77b4;" x="176.887707" xlink:href="#mbfd37e207d" y="195.237696"/>
     <use style="fill:#1f77b4;stroke:#1f77b4;" x="178.121687" xlink:href="#mbfd37e207d" y="194.339147"/>
     <use style="fill:#1f77b4;stroke:#1f77b4;" x="179.355667" xlink:href="#mbfd37e207d" y="196.136245"/>
     <use style="fill:#1f77b4;stroke:#1f77b4;" x="180.589648" xlink:href="#mbfd37e207d" y="194.339147"/>
     <use style="fill:#1f77b4;stroke:#1f77b4;" x="182.132123" xlink:href="#mbfd37e207d" y="190.744949"/>
     <use style="fill:#1f77b4;stroke:#1f77b4;" x="183.366103" xlink:href="#mbfd37e207d" y="191.643499"/>
     <use style="fill:#1f77b4;stroke:#1f77b4;" x="184.600083" xlink:href="#mbfd37e207d" y="191.643499"/>
     <use style="fill:#1f77b4;stroke:#1f77b4;" x="186.142559" xlink:href="#mbfd37e207d" y="191.643499"/>
     <use style="fill:#1f77b4;stroke:#1f77b4;" x="187.376539" xlink:href="#mbfd37e207d" y="188.947851"/>
     <use style="fill:#1f77b4;stroke:#1f77b4;" x="188.919015" xlink:href="#mbfd37e207d" y="187.150752"/>
     <use style="fill:#1f77b4;stroke:#1f77b4;" x="190.152995" xlink:href="#mbfd37e207d" y="180.860907"/>
     <use style="fill:#1f77b4;stroke:#1f77b4;" x="191.386975" xlink:href="#mbfd37e207d" y="173.672512"/>
     <use style="fill:#1f77b4;stroke:#1f77b4;" x="192.929451" xlink:href="#mbfd37e207d" y="169.179765"/>
     <use style="fill:#1f77b4;stroke:#1f77b4;" x="194.163431" xlink:href="#mbfd37e207d" y="177.266709"/>
     <use style="fill:#1f77b4;stroke:#1f77b4;" x="195.397411" xlink:href="#mbfd37e207d" y="180.860907"/>
     <use style="fill:#1f77b4;stroke:#1f77b4;" x="196.631391" xlink:href="#mbfd37e207d" y="178.165259"/>
     <use style="fill:#1f77b4;stroke:#1f77b4;" x="198.173867" xlink:href="#mbfd37e207d" y="175.469611"/>
     <use style="fill:#1f77b4;stroke:#1f77b4;" x="199.407847" xlink:href="#mbfd37e207d" y="174.571061"/>
     <use style="fill:#1f77b4;stroke:#1f77b4;" x="200.950322" xlink:href="#mbfd37e207d" y="173.672512"/>
     <use style="fill:#1f77b4;stroke:#1f77b4;" x="202.184303" xlink:href="#mbfd37e207d" y="171.875413"/>
     <use style="fill:#1f77b4;stroke:#1f77b4;" x="203.418283" xlink:href="#mbfd37e207d" y="173.672512"/>
     <use style="fill:#1f77b4;stroke:#1f77b4;" x="204.960758" xlink:href="#mbfd37e207d" y="170.078315"/>
     <use style="fill:#1f77b4;stroke:#1f77b4;" x="206.194739" xlink:href="#mbfd37e207d" y="170.078315"/>
     <use style="fill:#1f77b4;stroke:#1f77b4;" x="207.428719" xlink:href="#mbfd37e207d" y="157.498624"/>
     <use style="fill:#1f77b4;stroke:#1f77b4;" x="208.971194" xlink:href="#mbfd37e207d" y="152.107328"/>
     <use style="fill:#1f77b4;stroke:#1f77b4;" x="210.205175" xlink:href="#mbfd37e207d" y="156.600075"/>
     <use style="fill:#1f77b4;stroke:#1f77b4;" x="211.439155" xlink:href="#mbfd37e207d" y="165.585568"/>
     <use style="fill:#1f77b4;stroke:#1f77b4;" x="212.98163" xlink:href="#mbfd37e207d" y="162.88992"/>
     <use style="fill:#1f77b4;stroke:#1f77b4;" x="214.215611" xlink:href="#mbfd37e207d" y="163.788469"/>
     <use style="fill:#1f77b4;stroke:#1f77b4;" x="215.449591" xlink:href="#mbfd37e207d" y="161.991371"/>
     <use style="fill:#1f77b4;stroke:#1f77b4;" x="216.992066" xlink:href="#mbfd37e207d" y="161.991371"/>
     <use style="fill:#1f77b4;stroke:#1f77b4;" x="218.226047" xlink:href="#mbfd37e207d" y="161.991371"/>
     <use style="fill:#1f77b4;stroke:#1f77b4;" x="219.768522" xlink:href="#mbfd37e207d" y="161.092821"/>
     <use style="fill:#1f77b4;stroke:#1f77b4;" x="221.002502" xlink:href="#mbfd37e207d" y="161.991371"/>
     <use style="fill:#1f77b4;stroke:#1f77b4;" x="222.236483" xlink:href="#mbfd37e207d" y="160.194272"/>
     <use style="fill:#1f77b4;stroke:#1f77b4;" x="223.778958" xlink:href="#mbfd37e207d" y="161.991371"/>
     <use style="fill:#1f77b4;stroke:#1f77b4;" x="225.012938" xlink:href="#mbfd37e207d" y="175.469611"/>
     <use style="fill:#1f77b4;stroke:#1f77b4;" x="226.246919" xlink:href="#mbfd37e207d" y="161.092821"/>
     <use style="fill:#1f77b4;stroke:#1f77b4;" x="227.789394" xlink:href="#mbfd37e207d" y="159.295723"/>
     <use style="fill:#1f77b4;stroke:#1f77b4;" x="229.023374" xlink:href="#mbfd37e207d" y="160.194272"/>
     <use style="fill:#1f77b4;stroke:#1f77b4;" x="230.257355" xlink:href="#mbfd37e207d" y="160.194272"/>
     <use style="fill:#1f77b4;stroke:#1f77b4;" x="231.79983" xlink:href="#mbfd37e207d" y="161.092821"/>
     <use style="fill:#1f77b4;stroke:#1f77b4;" x="233.03381" xlink:href="#mbfd37e207d" y="160.194272"/>
     <use style="fill:#1f77b4;stroke:#1f77b4;" x="234.267791" xlink:href="#mbfd37e207d" y="159.295723"/>
     <use style="fill:#1f77b4;stroke:#1f77b4;" x="235.810266" xlink:href="#mbfd37e207d" y="159.295723"/>
     <use style="fill:#1f77b4;stroke:#1f77b4;" x="237.044246" xlink:href="#mbfd37e207d" y="157.498624"/>
     <use style="fill:#1f77b4;stroke:#1f77b4;" x="238.278227" xlink:href="#mbfd37e207d" y="157.498624"/>
     <use style="fill:#1f77b4;stroke:#1f77b4;" x="239.820702" xlink:href="#mbfd37e207d" y="156.600075"/>
     <use style="fill:#1f77b4;stroke:#1f77b4;" x="241.054682" xlink:href="#mbfd37e207d" y="154.802976"/>
     <use style="fill:#1f77b4;stroke:#1f77b4;" x="242.288663" xlink:href="#mbfd37e207d" y="154.802976"/>
     <use style="fill:#1f77b4;stroke:#1f77b4;" x="243.831138" xlink:href="#mbfd37e207d" y="154.802976"/>
     <use style="fill:#1f77b4;stroke:#1f77b4;" x="245.065118" xlink:href="#mbfd37e207d" y="153.005877"/>
     <use style="fill:#1f77b4;stroke:#1f77b4;" x="246.299098" xlink:href="#mbfd37e207d" y="153.005877"/>
     <use style="fill:#1f77b4;stroke:#1f77b4;" x="247.841574" xlink:href="#mbfd37e207d" y="153.904427"/>
     <use style="fill:#1f77b4;stroke:#1f77b4;" x="249.075554" xlink:href="#mbfd37e207d" y="152.107328"/>
     <use style="fill:#1f77b4;stroke:#1f77b4;" x="250.61803" xlink:href="#mbfd37e207d" y="150.310229"/>
     <use style="fill:#1f77b4;stroke:#1f77b4;" x="251.85201" xlink:href="#mbfd37e207d" y="150.310229"/>
     <use style="fill:#1f77b4;stroke:#1f77b4;" x="253.08599" xlink:href="#mbfd37e207d" y="149.41168"/>
     <use style="fill:#1f77b4;stroke:#1f77b4;" x="254.628466" xlink:href="#mbfd37e207d" y="148.513131"/>
     <use style="fill:#1f77b4;stroke:#1f77b4;" x="255.862446" xlink:href="#mbfd37e207d" y="144.918933"/>
     <use style="fill:#1f77b4;stroke:#1f77b4;" x="257.096426" xlink:href="#mbfd37e207d" y="144.918933"/>
     <use style="fill:#1f77b4;stroke:#1f77b4;" x="258.330406" xlink:href="#mbfd37e207d" y="144.918933"/>
     <use style="fill:#1f77b4;stroke:#1f77b4;" x="259.872882" xlink:href="#mbfd37e207d" y="145.817483"/>
     <use style="fill:#1f77b4;stroke:#1f77b4;" x="261.106862" xlink:href="#mbfd37e207d" y="144.918933"/>
     <use style="fill:#1f77b4;stroke:#1f77b4;" x="262.649337" xlink:href="#mbfd37e207d" y="141.324736"/>
     <use style="fill:#1f77b4;stroke:#1f77b4;" x="263.883318" xlink:href="#mbfd37e207d" y="142.223285"/>
     <use style="fill:#1f77b4;stroke:#1f77b4;" x="265.117298" xlink:href="#mbfd37e207d" y="144.020384"/>
     <use style="fill:#1f77b4;stroke:#1f77b4;" x="266.659773" xlink:href="#mbfd37e207d" y="144.020384"/>
     <use style="fill:#1f77b4;stroke:#1f77b4;" x="267.893754" xlink:href="#mbfd37e207d" y="142.223285"/>
     <use style="fill:#1f77b4;stroke:#1f77b4;" x="269.127734" xlink:href="#mbfd37e207d" y="141.324736"/>
     <use style="fill:#1f77b4;stroke:#1f77b4;" x="270.670209" xlink:href="#mbfd37e207d" y="141.324736"/>
     <use style="fill:#1f77b4;stroke:#1f77b4;" x="271.90419" xlink:href="#mbfd37e207d" y="143.121835"/>
     <use style="fill:#1f77b4;stroke:#1f77b4;" x="273.446665" xlink:href="#mbfd37e207d" y="141.324736"/>
     <use style="fill:#1f77b4;stroke:#1f77b4;" x="274.680645" xlink:href="#mbfd37e207d" y="141.324736"/>
     <use style="fill:#1f77b4;stroke:#1f77b4;" x="275.914626" xlink:href="#mbfd37e207d" y="138.629088"/>
     <use style="fill:#1f77b4;stroke:#1f77b4;" x="277.148606" xlink:href="#mbfd37e207d" y="138.629088"/>
     <use style="fill:#1f77b4;stroke:#1f77b4;" x="278.691081" xlink:href="#mbfd37e207d" y="136.831989"/>
     <use style="fill:#1f77b4;stroke:#1f77b4;" x="279.925062" xlink:href="#mbfd37e207d" y="135.93344"/>
     <use style="fill:#1f77b4;stroke:#1f77b4;" x="281.467537" xlink:href="#mbfd37e207d" y="135.034891"/>
     <use style="fill:#1f77b4;stroke:#1f77b4;" x="282.701517" xlink:href="#mbfd37e207d" y="136.831989"/>
     <use style="fill:#1f77b4;stroke:#1f77b4;" x="283.935498" xlink:href="#mbfd37e207d" y="136.831989"/>
     <use style="fill:#1f77b4;stroke:#1f77b4;" x="285.477973" xlink:href="#mbfd37e207d" y="135.93344"/>
     <use style="fill:#1f77b4;stroke:#1f77b4;" x="286.711953" xlink:href="#mbfd37e207d" y="137.730539"/>
     <use style="fill:#1f77b4;stroke:#1f77b4;" x="287.945934" xlink:href="#mbfd37e207d" y="137.730539"/>
     <use style="fill:#1f77b4;stroke:#1f77b4;" x="289.488409" xlink:href="#mbfd37e207d" y="136.831989"/>
     <use style="fill:#1f77b4;stroke:#1f77b4;" x="290.722389" xlink:href="#mbfd37e207d" y="142.223285"/>
     <use style="fill:#1f77b4;stroke:#1f77b4;" x="291.95637" xlink:href="#mbfd37e207d" y="125.150848"/>
     <use style="fill:#1f77b4;stroke:#1f77b4;" x="293.498845" xlink:href="#mbfd37e207d" y="131.440693"/>
     <use style="fill:#1f77b4;stroke:#1f77b4;" x="294.732825" xlink:href="#mbfd37e207d" y="132.339243"/>
     <use style="fill:#1f77b4;stroke:#1f77b4;" x="295.966806" xlink:href="#mbfd37e207d" y="133.237792"/>
     <use style="fill:#1f77b4;stroke:#1f77b4;" x="297.509281" xlink:href="#mbfd37e207d" y="133.237792"/>
     <use style="fill:#1f77b4;stroke:#1f77b4;" x="298.743261" xlink:href="#mbfd37e207d" y="133.237792"/>
     <use style="fill:#1f77b4;stroke:#1f77b4;" x="299.977242" xlink:href="#mbfd37e207d" y="133.237792"/>
     <use style="fill:#1f77b4;stroke:#1f77b4;" x="301.519717" xlink:href="#mbfd37e207d" y="133.237792"/>
     <use style="fill:#1f77b4;stroke:#1f77b4;" x="302.753697" xlink:href="#mbfd37e207d" y="131.440693"/>
     <use style="fill:#1f77b4;stroke:#1f77b4;" x="304.296173" xlink:href="#mbfd37e207d" y="130.542144"/>
     <use style="fill:#1f77b4;stroke:#1f77b4;" x="305.530153" xlink:href="#mbfd37e207d" y="127.846496"/>
     <use style="fill:#1f77b4;stroke:#1f77b4;" x="306.764133" xlink:href="#mbfd37e207d" y="137.730539"/>
     <use style="fill:#1f77b4;stroke:#1f77b4;" x="307.998114" xlink:href="#mbfd37e207d" y="130.542144"/>
     <use style="fill:#1f77b4;stroke:#1f77b4;" x="309.540589" xlink:href="#mbfd37e207d" y="130.542144"/>
     <use style="fill:#1f77b4;stroke:#1f77b4;" x="310.774569" xlink:href="#mbfd37e207d" y="129.643595"/>
     <use style="fill:#1f77b4;stroke:#1f77b4;" x="312.008549" xlink:href="#mbfd37e207d" y="131.440693"/>
     <use style="fill:#1f77b4;stroke:#1f77b4;" x="313.551025" xlink:href="#mbfd37e207d" y="129.643595"/>
     <use style="fill:#1f77b4;stroke:#1f77b4;" x="314.785005" xlink:href="#mbfd37e207d" y="126.947947"/>
     <use style="fill:#1f77b4;stroke:#1f77b4;" x="316.327481" xlink:href="#mbfd37e207d" y="125.150848"/>
     <use style="fill:#1f77b4;stroke:#1f77b4;" x="317.561461" xlink:href="#mbfd37e207d" y="125.150848"/>
     <use style="fill:#1f77b4;stroke:#1f77b4;" x="318.795441" xlink:href="#mbfd37e207d" y="122.4552"/>
     <use style="fill:#1f77b4;stroke:#1f77b4;" x="320.337917" xlink:href="#mbfd37e207d" y="124.252299"/>
     <use style="fill:#1f77b4;stroke:#1f77b4;" x="321.571897" xlink:href="#mbfd37e207d" y="121.556651"/>
     <use style="fill:#1f77b4;stroke:#1f77b4;" x="322.805877" xlink:href="#mbfd37e207d" y="120.658101"/>
     <use style="fill:#1f77b4;stroke:#1f77b4;" x="324.348352" xlink:href="#mbfd37e207d" y="119.759552"/>
     <use style="fill:#1f77b4;stroke:#1f77b4;" x="325.582333" xlink:href="#mbfd37e207d" y="118.861003"/>
     <use style="fill:#1f77b4;stroke:#1f77b4;" x="326.816313" xlink:href="#mbfd37e207d" y="119.759552"/>
     <use style="fill:#1f77b4;stroke:#1f77b4;" x="328.358788" xlink:href="#mbfd37e207d" y="117.063904"/>
     <use style="fill:#1f77b4;stroke:#1f77b4;" x="329.592769" xlink:href="#mbfd37e207d" y="117.063904"/>
     <use style="fill:#1f77b4;stroke:#1f77b4;" x="330.826749" xlink:href="#mbfd37e207d" y="117.962453"/>
     <use style="fill:#1f77b4;stroke:#1f77b4;" x="332.369224" xlink:href="#mbfd37e207d" y="117.063904"/>
     <use style="fill:#1f77b4;stroke:#1f77b4;" x="333.603205" xlink:href="#mbfd37e207d" y="117.063904"/>
     <use style="fill:#1f77b4;stroke:#1f77b4;" x="334.837185" xlink:href="#mbfd37e207d" y="114.368256"/>
     <use style="fill:#1f77b4;stroke:#1f77b4;" x="336.37966" xlink:href="#mbfd37e207d" y="112.571157"/>
     <use style="fill:#1f77b4;stroke:#1f77b4;" x="337.613641" xlink:href="#mbfd37e207d" y="115.266805"/>
     <use style="fill:#1f77b4;stroke:#1f77b4;" x="338.847621" xlink:href="#mbfd37e207d" y="109.875509"/>
     <use style="fill:#1f77b4;stroke:#1f77b4;" x="340.390096" xlink:href="#mbfd37e207d" y="108.97696"/>
     <use style="fill:#1f77b4;stroke:#1f77b4;" x="341.624077" xlink:href="#mbfd37e207d" y="108.97696"/>
     <use style="fill:#1f77b4;stroke:#1f77b4;" x="343.166552" xlink:href="#mbfd37e207d" y="108.97696"/>
     <use style="fill:#1f77b4;stroke:#1f77b4;" x="344.400532" xlink:href="#mbfd37e207d" y="106.281312"/>
     <use style="fill:#1f77b4;stroke:#1f77b4;" x="345.634513" xlink:href="#mbfd37e207d" y="107.179861"/>
     <use style="fill:#1f77b4;stroke:#1f77b4;" x="347.176988" xlink:href="#mbfd37e207d" y="107.179861"/>
     <use style="fill:#1f77b4;stroke:#1f77b4;" x="348.410968" xlink:href="#mbfd37e207d" y="105.382762"/>
     <use style="fill:#1f77b4;stroke:#1f77b4;" x="349.644949" xlink:href="#mbfd37e207d" y="104.484213"/>
     <use style="fill:#1f77b4;stroke:#1f77b4;" x="351.187424" xlink:href="#mbfd37e207d" y="106.281312"/>
     <use style="fill:#1f77b4;stroke:#1f77b4;" x="352.421404" xlink:href="#mbfd37e207d" y="105.382762"/>
     <use style="fill:#1f77b4;stroke:#1f77b4;" x="353.96388" xlink:href="#mbfd37e207d" y="103.585664"/>
     <use style="fill:#1f77b4;stroke:#1f77b4;" x="355.19786" xlink:href="#mbfd37e207d" y="100.890016"/>
     <use style="fill:#1f77b4;stroke:#1f77b4;" x="356.43184" xlink:href="#mbfd37e207d" y="100.890016"/>
     <use style="fill:#1f77b4;stroke:#1f77b4;" x="357.665821" xlink:href="#mbfd37e207d" y="99.991466"/>
     <use style="fill:#1f77b4;stroke:#1f77b4;" x="359.208296" xlink:href="#mbfd37e207d" y="96.397269"/>
     <use style="fill:#1f77b4;stroke:#1f77b4;" x="360.442276" xlink:href="#mbfd37e207d" y="99.092917"/>
     <use style="fill:#1f77b4;stroke:#1f77b4;" x="361.676257" xlink:href="#mbfd37e207d" y="96.397269"/>
     <use style="fill:#1f77b4;stroke:#1f77b4;" x="363.218732" xlink:href="#mbfd37e207d" y="94.60017"/>
     <use style="fill:#1f77b4;stroke:#1f77b4;" x="364.452712" xlink:href="#mbfd37e207d" y="95.49872"/>
     <use style="fill:#1f77b4;stroke:#1f77b4;" x="365.995188" xlink:href="#mbfd37e207d" y="94.60017"/>
     <use style="fill:#1f77b4;stroke:#1f77b4;" x="367.229168" xlink:href="#mbfd37e207d" y="92.803072"/>
     <use style="fill:#1f77b4;stroke:#1f77b4;" x="368.463148" xlink:href="#mbfd37e207d" y="93.701621"/>
     <use style="fill:#1f77b4;stroke:#1f77b4;" x="370.005624" xlink:href="#mbfd37e207d" y="91.005973"/>
     <use style="fill:#1f77b4;stroke:#1f77b4;" x="371.239604" xlink:href="#mbfd37e207d" y="85.614677"/>
     <use style="fill:#1f77b4;stroke:#1f77b4;" x="372.473584" xlink:href="#mbfd37e207d" y="91.005973"/>
     <use style="fill:#1f77b4;stroke:#1f77b4;" x="373.707565" xlink:href="#mbfd37e207d" y="89.208874"/>
     <use style="fill:#1f77b4;stroke:#1f77b4;" x="375.25004" xlink:href="#mbfd37e207d" y="86.513226"/>
     <use style="fill:#1f77b4;stroke:#1f77b4;" x="376.48402" xlink:href="#mbfd37e207d" y="84.716128"/>
     <use style="fill:#1f77b4;stroke:#1f77b4;" x="378.026496" xlink:href="#mbfd37e207d" y="82.02048"/>
     <use style="fill:#1f77b4;stroke:#1f77b4;" x="379.260476" xlink:href="#mbfd37e207d" y="81.12193"/>
     <use style="fill:#1f77b4;stroke:#1f77b4;" x="380.494456" xlink:href="#mbfd37e207d" y="75.730634"/>
     <use style="fill:#1f77b4;stroke:#1f77b4;" x="382.036932" xlink:href="#mbfd37e207d" y="80.223381"/>
     <use style="fill:#1f77b4;stroke:#1f77b4;" x="383.270912" xlink:href="#mbfd37e207d" y="78.426282"/>
     <use style="fill:#1f77b4;stroke:#1f77b4;" x="384.504892" xlink:href="#mbfd37e207d" y="76.629184"/>
     <use style="fill:#1f77b4;stroke:#1f77b4;" x="386.047368" xlink:href="#mbfd37e207d" y="74.832085"/>
     <use style="fill:#1f77b4;stroke:#1f77b4;" x="387.281348" xlink:href="#mbfd37e207d" y="73.034986"/>
     <use style="fill:#1f77b4;stroke:#1f77b4;" x="388.515328" xlink:href="#mbfd37e207d" y="73.034986"/>
     <use style="fill:#1f77b4;stroke:#1f77b4;" x="390.057803" xlink:href="#mbfd37e207d" y="71.237888"/>
     <use style="fill:#1f77b4;stroke:#1f77b4;" x="391.291784" xlink:href="#mbfd37e207d" y="68.54224"/>
     <use style="fill:#1f77b4;stroke:#1f77b4;" x="392.525764" xlink:href="#mbfd37e207d" y="65.846592"/>
     <use style="fill:#1f77b4;stroke:#1f77b4;" x="394.068239" xlink:href="#mbfd37e207d" y="66.745141"/>
     <use style="fill:#1f77b4;stroke:#1f77b4;" x="395.30222" xlink:href="#mbfd37e207d" y="61.353845"/>
     <use style="fill:#1f77b4;stroke:#1f77b4;" x="396.5362" xlink:href="#mbfd37e207d" y="64.948042"/>
     <use style="fill:#1f77b4;stroke:#1f77b4;" x="398.078675" xlink:href="#mbfd37e207d" y="64.948042"/>
     <use style="fill:#1f77b4;stroke:#1f77b4;" x="399.312656" xlink:href="#mbfd37e207d" y="66.745141"/>
     <use style="fill:#1f77b4;stroke:#1f77b4;" x="400.855131" xlink:href="#mbfd37e207d" y="62.252394"/>
     <use style="fill:#1f77b4;stroke:#1f77b4;" x="402.089111" xlink:href="#mbfd37e207d" y="61.353845"/>
     <use style="fill:#1f77b4;stroke:#1f77b4;" x="403.323092" xlink:href="#mbfd37e207d" y="64.948042"/>
     <use style="fill:#1f77b4;stroke:#1f77b4;" x="404.865567" xlink:href="#mbfd37e207d" y="78.426282"/>
     <use style="fill:#1f77b4;stroke:#1f77b4;" x="406.099547" xlink:href="#mbfd37e207d" y="77.527733"/>
     <use style="fill:#1f77b4;stroke:#1f77b4;" x="407.333528" xlink:href="#mbfd37e207d" y="75.730634"/>
     <use style="fill:#1f77b4;stroke:#1f77b4;" x="408.876003" xlink:href="#mbfd37e207d" y="66.745141"/>
     <use style="fill:#1f77b4;stroke:#1f77b4;" x="410.109983" xlink:href="#mbfd37e207d" y="57.759648"/>
     <use style="fill:#1f77b4;stroke:#1f77b4;" x="411.343964" xlink:href="#mbfd37e207d" y="48.774154"/>
     <use style="fill:#1f77b4;stroke:#1f77b4;" x="412.886439" xlink:href="#mbfd37e207d" y="46.078506"/>
     <use style="fill:#1f77b4;stroke:#1f77b4;" x="414.120419" xlink:href="#mbfd37e207d" y="42.484309"/>
     <use style="fill:#1f77b4;stroke:#1f77b4;" x="415.3544" xlink:href="#mbfd37e207d" y="40.68721"/>
     <use style="fill:#1f77b4;stroke:#1f77b4;" x="416.896875" xlink:href="#mbfd37e207d" y="41.58576"/>
     <use style="fill:#1f77b4;stroke:#1f77b4;" x="418.130855" xlink:href="#mbfd37e207d" y="42.484309"/>
     <use style="fill:#1f77b4;stroke:#1f77b4;" x="419.364836" xlink:href="#mbfd37e207d" y="41.58576"/>
     <use style="fill:#1f77b4;stroke:#1f77b4;" x="420.907311" xlink:href="#mbfd37e207d" y="37.991562"/>
     <use style="fill:#1f77b4;stroke:#1f77b4;" x="422.141291" xlink:href="#mbfd37e207d" y="35.295914"/>
     <use style="fill:#1f77b4;stroke:#1f77b4;" x="423.375272" xlink:href="#mbfd37e207d" y="33.498816"/>
     <use style="fill:#1f77b4;stroke:#1f77b4;" x="424.917747" xlink:href="#mbfd37e207d" y="32.600266"/>
     <use style="fill:#1f77b4;stroke:#1f77b4;" x="426.151727" xlink:href="#mbfd37e207d" y="29.904618"/>
    </g>
   </g>
   <g id="line2d_14">
    <path clip-path="url(#p23c36ae06a)" d="M 78.786273 264.560453 
L 426.151727 48.284182 
L 426.151727 48.284182 
" style="fill:none;stroke:#ff7f0e;stroke-linecap:square;stroke-width:3;"/>
   </g>
   <g id="line2d_15">
    <path clip-path="url(#p23c36ae06a)" d="M 78.786273 271.394093 
L 98.838453 256.670353 
L 118.890632 242.220907 
L 139.251307 227.82982 
L 159.303487 213.933184 
L 179.355667 200.310844 
L 199.407847 186.962798 
L 219.768522 173.690055 
L 239.820702 160.89482 
L 259.872882 148.373879 
L 279.925062 136.127234 
L 299.977242 124.154883 
L 318.795441 113.168788 
L 338.847621 101.728148 
L 357.665821 91.241042 
L 376.48402 80.99551 
L 395.30222 70.991553 
L 414.120419 61.229171 
L 426.151727 55.114245 
L 426.151727 55.114245 
" style="fill:none;stroke:#2ca02c;stroke-linecap:square;stroke-width:3;"/>
   </g>
   <g id="patch_3">
    <path d="M 61.418 295.0216 
L 61.418 17.28 
" style="fill:none;stroke:#000000;stroke-linecap:square;stroke-linejoin:miter;stroke-width:0.8;"/>
   </g>
   <g id="patch_4">
    <path d="M 443.52 295.0216 
L 443.52 17.28 
" style="fill:none;stroke:#000000;stroke-linecap:square;stroke-linejoin:miter;stroke-width:0.8;"/>
   </g>
   <g id="patch_5">
    <path d="M 61.418 295.0216 
L 443.52 295.0216 
" style="fill:none;stroke:#000000;stroke-linecap:square;stroke-linejoin:miter;stroke-width:0.8;"/>
   </g>
   <g id="patch_6">
    <path d="M 61.418 17.28 
L 443.52 17.28 
" style="fill:none;stroke:#000000;stroke-linecap:square;stroke-linejoin:miter;stroke-width:0.8;"/>
   </g>
   <g id="legend_1">
    <g id="patch_7">
     <path d="M 72.618 100.535 
L 221.4105 100.535 
Q 224.6105 100.535 224.6105 97.335 
L 224.6105 28.48 
Q 224.6105 25.28 221.4105 25.28 
L 72.618 25.28 
Q 69.418 25.28 69.418 28.48 
L 69.418 97.335 
Q 69.418 100.535 72.618 100.535 
z
" style="fill:#ffffff;opacity:0.8;stroke:#cccccc;stroke-linejoin:miter;"/>
    </g>
    <g id="line2d_16"/>
    <g id="line2d_17">
     <g>
      <use style="fill:#1f77b4;stroke:#1f77b4;" x="91.818" xlink:href="#mbfd37e207d" y="38.2375"/>
     </g>
    </g>
    <g id="text_15">
     <!-- data -->
     <g transform="translate(120.618 43.8375)scale(0.16 -0.16)">
      <use xlink:href="#DejaVuSans-100"/>
      <use x="63.476562" xlink:href="#DejaVuSans-97"/>
      <use x="124.755859" xlink:href="#DejaVuSans-116"/>
      <use x="163.964844" xlink:href="#DejaVuSans-97"/>
     </g>
    </g>
    <g id="line2d_18">
     <path d="M 75.818 61.7225 
L 107.818 61.7225 
" style="fill:none;stroke:#ff7f0e;stroke-linecap:square;stroke-width:3;"/>
    </g>
    <g id="line2d_19"/>
    <g id="text_16">
     <!-- line fit -->
     <g transform="translate(120.618 67.3225)scale(0.16 -0.16)">
      <defs>
       <path d="M 37.109375 75.984375 
L 37.109375 68.5 
L 28.515625 68.5 
Q 23.6875 68.5 21.796875 66.546875 
Q 19.921875 64.59375 19.921875 59.515625 
L 19.921875 54.6875 
L 34.71875 54.6875 
L 34.71875 47.703125 
L 19.921875 47.703125 
L 19.921875 0 
L 10.890625 0 
L 10.890625 47.703125 
L 2.296875 47.703125 
L 2.296875 54.6875 
L 10.890625 54.6875 
L 10.890625 58.5 
Q 10.890625 67.625 15.140625 71.796875 
Q 19.390625 75.984375 28.609375 75.984375 
z
" id="DejaVuSans-102"/>
      </defs>
      <use xlink:href="#DejaVuSans-108"/>
      <use x="27.783203" xlink:href="#DejaVuSans-105"/>
      <use x="55.566406" xlink:href="#DejaVuSans-110"/>
      <use x="118.945312" xlink:href="#DejaVuSans-101"/>
      <use x="180.46875" xlink:href="#DejaVuSans-32"/>
      <use x="212.255859" xlink:href="#DejaVuSans-102"/>
      <use x="247.460938" xlink:href="#DejaVuSans-105"/>
      <use x="275.244141" xlink:href="#DejaVuSans-116"/>
     </g>
    </g>
    <g id="line2d_20">
     <path d="M 75.818 85.2075 
L 107.818 85.2075 
" style="fill:none;stroke:#2ca02c;stroke-linecap:square;stroke-width:3;"/>
    </g>
    <g id="line2d_21"/>
    <g id="text_17">
     <!-- quadratic fit -->
     <g transform="translate(120.618 90.8075)scale(0.16 -0.16)">
      <defs>
       <path d="M 14.796875 27.296875 
Q 14.796875 17.390625 18.875 11.75 
Q 22.953125 6.109375 30.078125 6.109375 
Q 37.203125 6.109375 41.296875 11.75 
Q 45.40625 17.390625 45.40625 27.296875 
Q 45.40625 37.203125 41.296875 42.84375 
Q 37.203125 48.484375 30.078125 48.484375 
Q 22.953125 48.484375 18.875 42.84375 
Q 14.796875 37.203125 14.796875 27.296875 
z
M 45.40625 8.203125 
Q 42.578125 3.328125 38.25 0.953125 
Q 33.9375 -1.421875 27.875 -1.421875 
Q 17.96875 -1.421875 11.734375 6.484375 
Q 5.515625 14.40625 5.515625 27.296875 
Q 5.515625 40.1875 11.734375 48.09375 
Q 17.96875 56 27.875 56 
Q 33.9375 56 38.25 53.625 
Q 42.578125 51.265625 45.40625 46.390625 
L 45.40625 54.6875 
L 54.390625 54.6875 
L 54.390625 -20.796875 
L 45.40625 -20.796875 
z
" id="DejaVuSans-113"/>
       <path d="M 8.5 21.578125 
L 8.5 54.6875 
L 17.484375 54.6875 
L 17.484375 21.921875 
Q 17.484375 14.15625 20.5 10.265625 
Q 23.53125 6.390625 29.59375 6.390625 
Q 36.859375 6.390625 41.078125 11.03125 
Q 45.3125 15.671875 45.3125 23.6875 
L 45.3125 54.6875 
L 54.296875 54.6875 
L 54.296875 0 
L 45.3125 0 
L 45.3125 8.40625 
Q 42.046875 3.421875 37.71875 1 
Q 33.40625 -1.421875 27.6875 -1.421875 
Q 18.265625 -1.421875 13.375 4.4375 
Q 8.5 10.296875 8.5 21.578125 
z
M 31.109375 56 
z
" id="DejaVuSans-117"/>
       <path d="M 48.78125 52.59375 
L 48.78125 44.1875 
Q 44.96875 46.296875 41.140625 47.34375 
Q 37.3125 48.390625 33.40625 48.390625 
Q 24.65625 48.390625 19.8125 42.84375 
Q 14.984375 37.3125 14.984375 27.296875 
Q 14.984375 17.28125 19.8125 11.734375 
Q 24.65625 6.203125 33.40625 6.203125 
Q 37.3125 6.203125 41.140625 7.25 
Q 44.96875 8.296875 48.78125 10.40625 
L 48.78125 2.09375 
Q 45.015625 0.34375 40.984375 -0.53125 
Q 36.96875 -1.421875 32.421875 -1.421875 
Q 20.0625 -1.421875 12.78125 6.34375 
Q 5.515625 14.109375 5.515625 27.296875 
Q 5.515625 40.671875 12.859375 48.328125 
Q 20.21875 56 33.015625 56 
Q 37.15625 56 41.109375 55.140625 
Q 45.0625 54.296875 48.78125 52.59375 
z
" id="DejaVuSans-99"/>
      </defs>
      <use xlink:href="#DejaVuSans-113"/>
      <use x="63.476562" xlink:href="#DejaVuSans-117"/>
      <use x="126.855469" xlink:href="#DejaVuSans-97"/>
      <use x="188.134766" xlink:href="#DejaVuSans-100"/>
      <use x="251.611328" xlink:href="#DejaVuSans-114"/>
      <use x="292.724609" xlink:href="#DejaVuSans-97"/>
      <use x="354.003906" xlink:href="#DejaVuSans-116"/>
      <use x="393.212891" xlink:href="#DejaVuSans-105"/>
      <use x="420.996094" xlink:href="#DejaVuSans-99"/>
      <use x="475.976562" xlink:href="#DejaVuSans-32"/>
      <use x="507.763672" xlink:href="#DejaVuSans-102"/>
      <use x="542.96875" xlink:href="#DejaVuSans-105"/>
      <use x="570.751953" xlink:href="#DejaVuSans-116"/>
     </g>
    </g>
   </g>
  </g>
 </g>
 <defs>
  <clipPath id="p23c36ae06a">
   <rect height="277.7416" width="382.102" x="61.418" y="17.28"/>
  </clipPath>
 </defs>
</svg>
