<?xml version="1.0" encoding="utf-8" standalone="no"?>
<!DOCTYPE svg PUBLIC "-//W3C//DTD SVG 1.1//EN"
  "http://www.w3.org/Graphics/SVG/1.1/DTD/svg11.dtd">
<svg height="345.6pt" version="1.1" viewBox="0 0 460.8 345.6" width="460.8pt" xmlns="http://www.w3.org/2000/svg" xmlns:xlink="http://www.w3.org/1999/xlink">
 <metadata>
  <rdf:RDF xmlns:cc="http://creativecommons.org/ns#" xmlns:dc="http://purl.org/dc/elements/1.1/" xmlns:rdf="http://www.w3.org/1999/02/22-rdf-syntax-ns#">
   <cc:Work>
    <dc:type rdf:resource="http://purl.org/dc/dcmitype/StillImage"/>
    <dc:date>2021-10-19T15:39:02.452845</dc:date>
    <dc:format>image/svg+xml</dc:format>
    <dc:creator>
     <cc:Agent>
      <dc:title>Matplotlib v3.4.3, https://matplotlib.org/</dc:title>
     </cc:Agent>
    </dc:creator>
   </cc:Work>
  </rdf:RDF>
 </metadata>
 <defs>
  <style type="text/css">*{stroke-linecap:butt;stroke-linejoin:round;}</style>
 </defs>
 <g id="figure_1">
  <g id="patch_1">
   <path d="M 0 345.6 
L 460.8 345.6 
L 460.8 0 
L 0 0 
z
" style="fill:#ffffff;"/>
  </g>
  <g id="axes_1">
   <g id="patch_2">
    <path d="M 57.6 307.584 
L 414.72 307.584 
L 414.72 41.472 
L 57.6 41.472 
z
" style="fill:#ffffff;"/>
   </g>
   <g id="matplotlib.axis_1">
    <g id="xtick_1">
     <g id="line2d_1">
      <defs>
       <path d="M 0 0 
L 0 3.5 
" id="m2a6d27bece" style="stroke:#000000;stroke-width:0.8;"/>
      </defs>
      <g>
       <use style="stroke:#000000;stroke-width:0.8;" x="57.6" xlink:href="#m2a6d27bece" y="307.584"/>
      </g>
     </g>
     <g id="text_1">
      <!-- 0 -->
      <g transform="translate(54.41875 322.182437)scale(0.1 -0.1)">
       <defs>
        <path d="M 2034 4250 
Q 1547 4250 1301 3770 
Q 1056 3291 1056 2328 
Q 1056 1369 1301 889 
Q 1547 409 2034 409 
Q 2525 409 2770 889 
Q 3016 1369 3016 2328 
Q 3016 3291 2770 3770 
Q 2525 4250 2034 4250 
z
M 2034 4750 
Q 2819 4750 3233 4129 
Q 3647 3509 3647 2328 
Q 3647 1150 3233 529 
Q 2819 -91 2034 -91 
Q 1250 -91 836 529 
Q 422 1150 422 2328 
Q 422 3509 836 4129 
Q 1250 4750 2034 4750 
z
" id="DejaVuSans-30" transform="scale(0.015625)"/>
       </defs>
       <use xlink:href="#DejaVuSans-30"/>
      </g>
     </g>
    </g>
    <g id="xtick_2">
     <g id="line2d_2">
      <g>
       <use style="stroke:#000000;stroke-width:0.8;" x="129.024" xlink:href="#m2a6d27bece" y="307.584"/>
      </g>
     </g>
     <g id="text_2">
      <!-- 20 -->
      <g transform="translate(122.6615 322.182437)scale(0.1 -0.1)">
       <defs>
        <path d="M 1228 531 
L 3431 531 
L 3431 0 
L 469 0 
L 469 531 
Q 828 903 1448 1529 
Q 2069 2156 2228 2338 
Q 2531 2678 2651 2914 
Q 2772 3150 2772 3378 
Q 2772 3750 2511 3984 
Q 2250 4219 1831 4219 
Q 1534 4219 1204 4116 
Q 875 4013 500 3803 
L 500 4441 
Q 881 4594 1212 4672 
Q 1544 4750 1819 4750 
Q 2544 4750 2975 4387 
Q 3406 4025 3406 3419 
Q 3406 3131 3298 2873 
Q 3191 2616 2906 2266 
Q 2828 2175 2409 1742 
Q 1991 1309 1228 531 
z
" id="DejaVuSans-32" transform="scale(0.015625)"/>
       </defs>
       <use xlink:href="#DejaVuSans-32"/>
       <use x="63.623047" xlink:href="#DejaVuSans-30"/>
      </g>
     </g>
    </g>
    <g id="xtick_3">
     <g id="line2d_3">
      <g>
       <use style="stroke:#000000;stroke-width:0.8;" x="200.448" xlink:href="#m2a6d27bece" y="307.584"/>
      </g>
     </g>
     <g id="text_3">
      <!-- 40 -->
      <g transform="translate(194.0855 322.182437)scale(0.1 -0.1)">
       <defs>
        <path d="M 2419 4116 
L 825 1625 
L 2419 1625 
L 2419 4116 
z
M 2253 4666 
L 3047 4666 
L 3047 1625 
L 3713 1625 
L 3713 1100 
L 3047 1100 
L 3047 0 
L 2419 0 
L 2419 1100 
L 313 1100 
L 313 1709 
L 2253 4666 
z
" id="DejaVuSans-34" transform="scale(0.015625)"/>
       </defs>
       <use xlink:href="#DejaVuSans-34"/>
       <use x="63.623047" xlink:href="#DejaVuSans-30"/>
      </g>
     </g>
    </g>
    <g id="xtick_4">
     <g id="line2d_4">
      <g>
       <use style="stroke:#000000;stroke-width:0.8;" x="271.872" xlink:href="#m2a6d27bece" y="307.584"/>
      </g>
     </g>
     <g id="text_4">
      <!-- 60 -->
      <g transform="translate(265.5095 322.182437)scale(0.1 -0.1)">
       <defs>
        <path d="M 2113 2584 
Q 1688 2584 1439 2293 
Q 1191 2003 1191 1497 
Q 1191 994 1439 701 
Q 1688 409 2113 409 
Q 2538 409 2786 701 
Q 3034 994 3034 1497 
Q 3034 2003 2786 2293 
Q 2538 2584 2113 2584 
z
M 3366 4563 
L 3366 3988 
Q 3128 4100 2886 4159 
Q 2644 4219 2406 4219 
Q 1781 4219 1451 3797 
Q 1122 3375 1075 2522 
Q 1259 2794 1537 2939 
Q 1816 3084 2150 3084 
Q 2853 3084 3261 2657 
Q 3669 2231 3669 1497 
Q 3669 778 3244 343 
Q 2819 -91 2113 -91 
Q 1303 -91 875 529 
Q 447 1150 447 2328 
Q 447 3434 972 4092 
Q 1497 4750 2381 4750 
Q 2619 4750 2861 4703 
Q 3103 4656 3366 4563 
z
" id="DejaVuSans-36" transform="scale(0.015625)"/>
       </defs>
       <use xlink:href="#DejaVuSans-36"/>
       <use x="63.623047" xlink:href="#DejaVuSans-30"/>
      </g>
     </g>
    </g>
    <g id="xtick_5">
     <g id="line2d_5">
      <g>
       <use style="stroke:#000000;stroke-width:0.8;" x="343.296" xlink:href="#m2a6d27bece" y="307.584"/>
      </g>
     </g>
     <g id="text_5">
      <!-- 80 -->
      <g transform="translate(336.9335 322.182437)scale(0.1 -0.1)">
       <defs>
        <path d="M 2034 2216 
Q 1584 2216 1326 1975 
Q 1069 1734 1069 1313 
Q 1069 891 1326 650 
Q 1584 409 2034 409 
Q 2484 409 2743 651 
Q 3003 894 3003 1313 
Q 3003 1734 2745 1975 
Q 2488 2216 2034 2216 
z
M 1403 2484 
Q 997 2584 770 2862 
Q 544 3141 544 3541 
Q 544 4100 942 4425 
Q 1341 4750 2034 4750 
Q 2731 4750 3128 4425 
Q 3525 4100 3525 3541 
Q 3525 3141 3298 2862 
Q 3072 2584 2669 2484 
Q 3125 2378 3379 2068 
Q 3634 1759 3634 1313 
Q 3634 634 3220 271 
Q 2806 -91 2034 -91 
Q 1263 -91 848 271 
Q 434 634 434 1313 
Q 434 1759 690 2068 
Q 947 2378 1403 2484 
z
M 1172 3481 
Q 1172 3119 1398 2916 
Q 1625 2713 2034 2713 
Q 2441 2713 2670 2916 
Q 2900 3119 2900 3481 
Q 2900 3844 2670 4047 
Q 2441 4250 2034 4250 
Q 1625 4250 1398 4047 
Q 1172 3844 1172 3481 
z
" id="DejaVuSans-38" transform="scale(0.015625)"/>
       </defs>
       <use xlink:href="#DejaVuSans-38"/>
       <use x="63.623047" xlink:href="#DejaVuSans-30"/>
      </g>
     </g>
    </g>
    <g id="xtick_6">
     <g id="line2d_6">
      <g>
       <use style="stroke:#000000;stroke-width:0.8;" x="414.72" xlink:href="#m2a6d27bece" y="307.584"/>
      </g>
     </g>
     <g id="text_6">
      <!-- 100 -->
      <g transform="translate(405.17625 322.182437)scale(0.1 -0.1)">
       <defs>
        <path d="M 794 531 
L 1825 531 
L 1825 4091 
L 703 3866 
L 703 4441 
L 1819 4666 
L 2450 4666 
L 2450 531 
L 3481 531 
L 3481 0 
L 794 0 
L 794 531 
z
" id="DejaVuSans-31" transform="scale(0.015625)"/>
       </defs>
       <use xlink:href="#DejaVuSans-31"/>
       <use x="63.623047" xlink:href="#DejaVuSans-30"/>
       <use x="127.246094" xlink:href="#DejaVuSans-30"/>
      </g>
     </g>
    </g>
    <g id="text_7">
     <!-- x : in metres -->
     <g transform="translate(204.66 335.860562)scale(0.1 -0.1)">
      <defs>
       <path d="M 3513 3500 
L 2247 1797 
L 3578 0 
L 2900 0 
L 1881 1375 
L 863 0 
L 184 0 
L 1544 1831 
L 300 3500 
L 978 3500 
L 1906 2253 
L 2834 3500 
L 3513 3500 
z
" id="DejaVuSans-78" transform="scale(0.015625)"/>
       <path id="DejaVuSans-20" transform="scale(0.015625)"/>
       <path d="M 750 794 
L 1409 794 
L 1409 0 
L 750 0 
L 750 794 
z
M 750 3309 
L 1409 3309 
L 1409 2516 
L 750 2516 
L 750 3309 
z
" id="DejaVuSans-3a" transform="scale(0.015625)"/>
       <path d="M 603 3500 
L 1178 3500 
L 1178 0 
L 603 0 
L 603 3500 
z
M 603 4863 
L 1178 4863 
L 1178 4134 
L 603 4134 
L 603 4863 
z
" id="DejaVuSans-69" transform="scale(0.015625)"/>
       <path d="M 3513 2113 
L 3513 0 
L 2938 0 
L 2938 2094 
Q 2938 2591 2744 2837 
Q 2550 3084 2163 3084 
Q 1697 3084 1428 2787 
Q 1159 2491 1159 1978 
L 1159 0 
L 581 0 
L 581 3500 
L 1159 3500 
L 1159 2956 
Q 1366 3272 1645 3428 
Q 1925 3584 2291 3584 
Q 2894 3584 3203 3211 
Q 3513 2838 3513 2113 
z
" id="DejaVuSans-6e" transform="scale(0.015625)"/>
       <path d="M 3328 2828 
Q 3544 3216 3844 3400 
Q 4144 3584 4550 3584 
Q 5097 3584 5394 3201 
Q 5691 2819 5691 2113 
L 5691 0 
L 5113 0 
L 5113 2094 
Q 5113 2597 4934 2840 
Q 4756 3084 4391 3084 
Q 3944 3084 3684 2787 
Q 3425 2491 3425 1978 
L 3425 0 
L 2847 0 
L 2847 2094 
Q 2847 2600 2669 2842 
Q 2491 3084 2119 3084 
Q 1678 3084 1418 2786 
Q 1159 2488 1159 1978 
L 1159 0 
L 581 0 
L 581 3500 
L 1159 3500 
L 1159 2956 
Q 1356 3278 1631 3431 
Q 1906 3584 2284 3584 
Q 2666 3584 2933 3390 
Q 3200 3197 3328 2828 
z
" id="DejaVuSans-6d" transform="scale(0.015625)"/>
       <path d="M 3597 1894 
L 3597 1613 
L 953 1613 
Q 991 1019 1311 708 
Q 1631 397 2203 397 
Q 2534 397 2845 478 
Q 3156 559 3463 722 
L 3463 178 
Q 3153 47 2828 -22 
Q 2503 -91 2169 -91 
Q 1331 -91 842 396 
Q 353 884 353 1716 
Q 353 2575 817 3079 
Q 1281 3584 2069 3584 
Q 2775 3584 3186 3129 
Q 3597 2675 3597 1894 
z
M 3022 2063 
Q 3016 2534 2758 2815 
Q 2500 3097 2075 3097 
Q 1594 3097 1305 2825 
Q 1016 2553 972 2059 
L 3022 2063 
z
" id="DejaVuSans-65" transform="scale(0.015625)"/>
       <path d="M 1172 4494 
L 1172 3500 
L 2356 3500 
L 2356 3053 
L 1172 3053 
L 1172 1153 
Q 1172 725 1289 603 
Q 1406 481 1766 481 
L 2356 481 
L 2356 0 
L 1766 0 
Q 1100 0 847 248 
Q 594 497 594 1153 
L 594 3053 
L 172 3053 
L 172 3500 
L 594 3500 
L 594 4494 
L 1172 4494 
z
" id="DejaVuSans-74" transform="scale(0.015625)"/>
       <path d="M 2631 2963 
Q 2534 3019 2420 3045 
Q 2306 3072 2169 3072 
Q 1681 3072 1420 2755 
Q 1159 2438 1159 1844 
L 1159 0 
L 581 0 
L 581 3500 
L 1159 3500 
L 1159 2956 
Q 1341 3275 1631 3429 
Q 1922 3584 2338 3584 
Q 2397 3584 2469 3576 
Q 2541 3569 2628 3553 
L 2631 2963 
z
" id="DejaVuSans-72" transform="scale(0.015625)"/>
       <path d="M 2834 3397 
L 2834 2853 
Q 2591 2978 2328 3040 
Q 2066 3103 1784 3103 
Q 1356 3103 1142 2972 
Q 928 2841 928 2578 
Q 928 2378 1081 2264 
Q 1234 2150 1697 2047 
L 1894 2003 
Q 2506 1872 2764 1633 
Q 3022 1394 3022 966 
Q 3022 478 2636 193 
Q 2250 -91 1575 -91 
Q 1294 -91 989 -36 
Q 684 19 347 128 
L 347 722 
Q 666 556 975 473 
Q 1284 391 1588 391 
Q 1994 391 2212 530 
Q 2431 669 2431 922 
Q 2431 1156 2273 1281 
Q 2116 1406 1581 1522 
L 1381 1569 
Q 847 1681 609 1914 
Q 372 2147 372 2553 
Q 372 3047 722 3315 
Q 1072 3584 1716 3584 
Q 2034 3584 2315 3537 
Q 2597 3491 2834 3397 
z
" id="DejaVuSans-73" transform="scale(0.015625)"/>
      </defs>
      <use xlink:href="#DejaVuSans-78"/>
      <use x="59.179688" xlink:href="#DejaVuSans-20"/>
      <use x="90.966797" xlink:href="#DejaVuSans-3a"/>
      <use x="124.658203" xlink:href="#DejaVuSans-20"/>
      <use x="156.445312" xlink:href="#DejaVuSans-69"/>
      <use x="184.228516" xlink:href="#DejaVuSans-6e"/>
      <use x="247.607422" xlink:href="#DejaVuSans-20"/>
      <use x="279.394531" xlink:href="#DejaVuSans-6d"/>
      <use x="376.806641" xlink:href="#DejaVuSans-65"/>
      <use x="438.330078" xlink:href="#DejaVuSans-74"/>
      <use x="477.539062" xlink:href="#DejaVuSans-72"/>
      <use x="516.402344" xlink:href="#DejaVuSans-65"/>
      <use x="577.925781" xlink:href="#DejaVuSans-73"/>
     </g>
    </g>
   </g>
   <g id="matplotlib.axis_2">
    <g id="ytick_1">
     <g id="line2d_7">
      <defs>
       <path d="M 0 0 
L -3.5 0 
" id="mfa94aa8155" style="stroke:#000000;stroke-width:0.8;"/>
      </defs>
      <g>
       <use style="stroke:#000000;stroke-width:0.8;" x="57.6" xlink:href="#mfa94aa8155" y="307.584"/>
      </g>
     </g>
     <g id="text_8">
      <!-- 0 -->
      <g transform="translate(44.2375 311.383219)scale(0.1 -0.1)">
       <use xlink:href="#DejaVuSans-30"/>
      </g>
     </g>
    </g>
    <g id="ytick_2">
     <g id="line2d_8">
      <g>
       <use style="stroke:#000000;stroke-width:0.8;" x="57.6" xlink:href="#mfa94aa8155" y="254.3616"/>
      </g>
     </g>
     <g id="text_9">
      <!-- 20 -->
      <g transform="translate(37.875 258.160819)scale(0.1 -0.1)">
       <use xlink:href="#DejaVuSans-32"/>
       <use x="63.623047" xlink:href="#DejaVuSans-30"/>
      </g>
     </g>
    </g>
    <g id="ytick_3">
     <g id="line2d_9">
      <g>
       <use style="stroke:#000000;stroke-width:0.8;" x="57.6" xlink:href="#mfa94aa8155" y="201.1392"/>
      </g>
     </g>
     <g id="text_10">
      <!-- 40 -->
      <g transform="translate(37.875 204.938419)scale(0.1 -0.1)">
       <use xlink:href="#DejaVuSans-34"/>
       <use x="63.623047" xlink:href="#DejaVuSans-30"/>
      </g>
     </g>
    </g>
    <g id="ytick_4">
     <g id="line2d_10">
      <g>
       <use style="stroke:#000000;stroke-width:0.8;" x="57.6" xlink:href="#mfa94aa8155" y="147.9168"/>
      </g>
     </g>
     <g id="text_11">
      <!-- 60 -->
      <g transform="translate(37.875 151.716019)scale(0.1 -0.1)">
       <use xlink:href="#DejaVuSans-36"/>
       <use x="63.623047" xlink:href="#DejaVuSans-30"/>
      </g>
     </g>
    </g>
    <g id="ytick_5">
     <g id="line2d_11">
      <g>
       <use style="stroke:#000000;stroke-width:0.8;" x="57.6" xlink:href="#mfa94aa8155" y="94.6944"/>
      </g>
     </g>
     <g id="text_12">
      <!-- 80 -->
      <g transform="translate(37.875 98.493619)scale(0.1 -0.1)">
       <use xlink:href="#DejaVuSans-38"/>
       <use x="63.623047" xlink:href="#DejaVuSans-30"/>
      </g>
     </g>
    </g>
    <g id="ytick_6">
     <g id="line2d_12">
      <g>
       <use style="stroke:#000000;stroke-width:0.8;" x="57.6" xlink:href="#mfa94aa8155" y="41.472"/>
      </g>
     </g>
     <g id="text_13">
      <!-- 100 -->
      <g transform="translate(31.5125 45.271219)scale(0.1 -0.1)">
       <use xlink:href="#DejaVuSans-31"/>
       <use x="63.623047" xlink:href="#DejaVuSans-30"/>
       <use x="127.246094" xlink:href="#DejaVuSans-30"/>
      </g>
     </g>
    </g>
    <g id="text_14">
     <!-- y : in metres -->
     <g transform="translate(25.432812 206.028)rotate(-90)scale(0.1 -0.1)">
      <defs>
       <path d="M 2059 -325 
Q 1816 -950 1584 -1140 
Q 1353 -1331 966 -1331 
L 506 -1331 
L 506 -850 
L 844 -850 
Q 1081 -850 1212 -737 
Q 1344 -625 1503 -206 
L 1606 56 
L 191 3500 
L 800 3500 
L 1894 763 
L 2988 3500 
L 3597 3500 
L 2059 -325 
z
" id="DejaVuSans-79" transform="scale(0.015625)"/>
      </defs>
      <use xlink:href="#DejaVuSans-79"/>
      <use x="59.179688" xlink:href="#DejaVuSans-20"/>
      <use x="90.966797" xlink:href="#DejaVuSans-3a"/>
      <use x="124.658203" xlink:href="#DejaVuSans-20"/>
      <use x="156.445312" xlink:href="#DejaVuSans-69"/>
      <use x="184.228516" xlink:href="#DejaVuSans-6e"/>
      <use x="247.607422" xlink:href="#DejaVuSans-20"/>
      <use x="279.394531" xlink:href="#DejaVuSans-6d"/>
      <use x="376.806641" xlink:href="#DejaVuSans-65"/>
      <use x="438.330078" xlink:href="#DejaVuSans-74"/>
      <use x="477.539062" xlink:href="#DejaVuSans-72"/>
      <use x="516.402344" xlink:href="#DejaVuSans-65"/>
      <use x="577.925781" xlink:href="#DejaVuSans-73"/>
     </g>
    </g>
   </g>
   <g id="line2d_13">
    <path clip-path="url(#pd0f5de957d)" d="M 57.6 41.472 
L 59.281139 41.582971 
L 60.930623 41.925348 
L 62.549047 42.494772 
L 64.136995 43.286968 
L 65.776228 44.356917 
L 67.462483 45.735773 
L 69.191445 47.45508 
L 70.958763 49.546638 
L 72.760072 52.042369 
L 74.591003 54.97419 
L 76.44721 58.37389 
L 78.324378 62.273001 
L 80.284907 66.868027 
L 82.254059 72.052649 
L 84.290353 78.051745 
L 86.38366 84.939353 
L 88.465429 92.563941 
L 90.588314 101.19325 
L 92.742488 110.899121 
L 94.918305 121.752056 
L 97.106371 133.820726 
L 99.297607 147.171503 
L 101.483306 161.868038 
L 103.69841 178.307547 
L 105.887536 196.242223 
L 108.08231 216.093542 
L 110.269624 237.957305 
L 112.437159 261.923578 
L 114.573477 288.07596 
L 116.668108 316.491002 
L 118.671315 346.6 
L 118.671315 346.6 
" style="fill:none;stroke:#1f77b4;stroke-linecap:square;stroke-width:1.5;"/>
   </g>
   <g id="line2d_14">
    <path clip-path="url(#pd0f5de957d)" d="M 57.6 41.472 
L 60.962279 41.582971 
L 64.261246 41.925348 
L 67.498093 42.494772 
L 70.673991 43.286968 
L 73.790087 44.297742 
L 76.847507 45.522977 
L 79.847355 46.958635 
L 82.944086 48.692827 
L 85.979467 50.651254 
L 88.954714 52.829472 
L 92.015307 55.348389 
L 95.012266 58.099889 
L 98.085127 61.226604 
L 101.091091 64.597832 
L 104.163741 68.377958 
L 107.295486 72.594731 
L 110.352928 77.083087 
L 113.46065 82.040303 
L 116.611273 87.493357 
L 119.797475 93.46901 
L 122.898758 99.755041 
L 126.027629 106.592879 
L 129.177154 114.007866 
L 132.340533 122.024854 
L 135.511124 130.668123 
L 138.682461 139.961302 
L 141.84828 149.927294 
L 145.00253 160.58821 
L 148.139394 171.965307 
L 151.338213 184.421241 
L 154.502521 197.655954 
L 157.627394 211.68744 
L 160.783663 226.909451 
L 163.885427 242.98332 
L 166.928853 259.923056 
L 169.976688 278.151956 
L 173.016821 297.714286 
L 175.977548 318.219485 
L 178.914113 340.118277 
L 179.74263 346.6 
L 179.74263 346.6 
" style="fill:none;stroke:#ff7f0e;stroke-linecap:square;stroke-width:1.5;"/>
   </g>
   <g id="line2d_15">
    <path clip-path="url(#pd0f5de957d)" d="M 57.6 41.472 
L 62.643418 41.582971 
L 67.591868 41.925348 
L 72.44714 42.494772 
L 77.210986 43.286968 
L 81.88513 44.297742 
L 86.47126 45.522977 
L 90.971033 46.958635 
L 95.386075 48.600755 
L 99.717983 50.445448 
L 103.96832 52.4889 
L 108.355926 54.850515 
L 112.656608 57.423934 
L 116.872088 60.204961 
L 121.004055 63.189484 
L 125.254549 66.537834 
L 129.41667 70.101522 
L 133.492254 73.876071 
L 137.671059 78.051745 
L 141.758889 82.449095 
L 145.937407 87.278107 
L 150.020869 92.338741 
L 154.182865 97.86065 
L 158.246114 103.623175 
L 162.376186 109.875515 
L 166.404235 116.376451 
L 170.487889 123.394534 
L 174.466685 130.668123 
L 178.490412 138.48487 
L 182.549932 146.867041 
L 186.497307 155.522473 
L 190.470739 164.767052 
L 194.461649 174.621681 
L 198.461658 185.106781 
L 202.339508 195.88954 
L 206.218272 207.322713 
L 210.090286 219.424974 
L 213.94815 232.214353 
L 217.784751 245.708183 
L 221.593279 259.923056 
L 225.367246 274.874784 
L 229.100497 290.578365 
L 232.787222 307.047952 
L 236.421971 324.296828 
L 240.085096 342.781842 
L 240.813945 346.6 
L 240.813945 346.6 
" style="fill:none;stroke:#2ca02c;stroke-linecap:square;stroke-width:1.5;"/>
   </g>
   <g id="line2d_16">
    <path clip-path="url(#pd0f5de957d)" d="M 57.6 41.472 
L 64.324557 41.582971 
L 70.922491 41.925348 
L 77.396186 42.494772 
L 83.747982 43.286968 
L 89.980173 44.297742 
L 96.095013 45.522977 
L 102.09471 46.958635 
L 107.981434 48.600755 
L 113.75731 50.445448 
L 119.424427 52.4889 
L 124.984833 54.727368 
L 130.440536 57.157181 
L 135.793508 59.774734 
L 141.319358 62.728992 
L 146.735736 65.883313 
L 152.044808 69.233733 
L 157.248702 72.776369 
L 162.3495 76.507412 
L 167.596617 80.623697 
L 172.73464 84.939353 
L 177.765836 89.450235 
L 182.924454 94.380891 
L 187.970767 99.516787 
L 192.907218 104.853455 
L 197.953184 110.642624 
L 202.884361 116.641571 
L 207.70336 122.845525 
L 212.615039 129.532744 
L 217.410184 136.43293 
L 222.284188 143.84164 
L 227.037793 151.470381 
L 231.857019 159.631839 
L 236.552498 168.019444 
L 241.301002 176.962786 
L 245.922949 186.137412 
L 250.586011 195.88954 
L 255.279854 206.238054 
L 259.839464 216.831881 
L 264.419132 228.041691 
L 269.00924 239.885062 
L 273.459168 251.984612 
L 277.910145 264.734886 
L 282.353376 278.151956 
L 286.652302 291.832744 
L 290.935518 306.194881 
L 295.195127 321.2528 
L 299.423568 337.020318 
L 301.88526 346.6 
L 301.88526 346.6 
" style="fill:none;stroke:#d62728;stroke-linecap:square;stroke-width:1.5;"/>
   </g>
   <g id="line2d_17">
    <path clip-path="url(#pd0f5de957d)" d="M 57.6 41.472 
L 66.005696 41.582971 
L 74.253114 41.925348 
L 82.345233 42.494772 
L 90.284977 43.286968 
L 98.075217 44.297742 
L 105.718766 45.522977 
L 113.218388 46.958635 
L 120.576792 48.600755 
L 127.796638 50.445448 
L 134.880534 52.4889 
L 141.831041 54.727368 
L 148.65067 57.157181 
L 155.341885 59.774734 
L 161.907105 62.576494 
L 168.348703 65.558991 
L 174.998336 68.889978 
L 181.516232 72.413565 
L 187.905002 76.125936 
L 194.167202 80.023352 
L 200.305342 84.102146 
L 206.321878 88.358726 
L 212.511 93.015622 
L 218.571442 97.86065 
L 224.50588 102.889897 
L 230.316933 108.099533 
L 236.275159 113.746641 
L 242.103671 119.583392 
L 247.805294 125.605656 
L 253.633406 132.09563 
L 259.328936 138.779441 
L 264.8949 145.652679 
L 270.567911 153.022053 
L 276.106324 160.58821 
L 281.513332 168.346481 
L 287.009262 176.627388 
L 292.36943 185.106781 
L 297.803592 194.130632 
L 303.098217 203.358487 
L 308.452633 213.151568 
L 313.664343 223.153285 
L 318.922415 233.739862 
L 324.03523 244.538804 
L 329.181796 255.941042 
L 334.181183 267.558458 
L 339.202561 279.796361 
L 344.075462 292.251339 
L 348.959471 305.342715 
L 353.844632 319.085049 
L 358.575866 333.052424 
L 362.956575 346.6 
L 362.956575 346.6 
" style="fill:none;stroke:#9467bd;stroke-linecap:square;stroke-width:1.5;"/>
   </g>
   <g id="line2d_18">
    <path clip-path="url(#pd0f5de957d)" d="M 57.6 41.472 
L 67.686836 41.582971 
L 77.583737 41.925348 
L 87.294279 42.494772 
L 96.821973 43.286968 
L 106.17026 44.297742 
L 115.34252 45.522977 
L 124.342066 46.958635 
L 133.172151 48.600755 
L 141.835965 50.445448 
L 150.336641 52.4889 
L 158.677249 54.727368 
L 166.860803 57.157181 
L 174.890262 59.774734 
L 182.768526 62.576494 
L 190.498443 65.558991 
L 198.082806 68.718823 
L 205.524355 72.052649 
L 212.82578 75.557194 
L 220.36301 79.427088 
L 227.750919 83.478906 
L 234.992465 87.709044 
L 242.090548 92.113969 
L 249.04801 96.690217 
L 255.867636 101.434396 
L 262.882886 106.592879 
L 269.752279 111.929064 
L 276.478849 117.439257 
L 283.065565 123.11984 
L 289.515333 128.967271 
L 296.128452 135.268325 
L 302.597599 141.744785 
L 308.92591 148.392832 
L 315.11645 155.208731 
L 321.444327 162.509947 
L 327.628252 169.986544 
L 333.6715 177.634533 
L 339.830975 185.793559 
L 345.84431 194.130632 
L 351.714972 202.641529 
L 357.682181 211.68744 
L 363.501986 220.912938 
L 369.402131 230.693195 
L 375.150774 240.658033 
L 380.751805 250.802711 
L 386.416087 261.522968 
L 391.929405 272.427151 
L 397.491767 283.924221 
L 402.900467 295.608504 
L 408.34487 307.901927 
L 413.633577 320.385042 
L 414.887335 323.426017 
L 414.887335 323.426017 
" style="fill:none;stroke:#8c564b;stroke-linecap:square;stroke-width:1.5;"/>
   </g>
   <g id="patch_3">
    <path d="M 57.6 307.584 
L 57.6 41.472 
" style="fill:none;stroke:#000000;stroke-linecap:square;stroke-linejoin:miter;stroke-width:0.8;"/>
   </g>
   <g id="patch_4">
    <path d="M 414.72 307.584 
L 414.72 41.472 
" style="fill:none;stroke:#000000;stroke-linecap:square;stroke-linejoin:miter;stroke-width:0.8;"/>
   </g>
   <g id="patch_5">
    <path d="M 57.6 307.584 
L 414.72 307.584 
" style="fill:none;stroke:#000000;stroke-linecap:square;stroke-linejoin:miter;stroke-width:0.8;"/>
   </g>
   <g id="patch_6">
    <path d="M 57.6 41.472 
L 414.72 41.472 
" style="fill:none;stroke:#000000;stroke-linecap:square;stroke-linejoin:miter;stroke-width:0.8;"/>
   </g>
   <g id="legend_1">
    <g id="patch_7">
     <path d="M 265.70125 137.54075 
L 407.72 137.54075 
Q 409.72 137.54075 409.72 135.54075 
L 409.72 48.472 
Q 409.72 46.472 407.72 46.472 
L 265.70125 46.472 
Q 263.70125 46.472 263.70125 48.472 
L 263.70125 135.54075 
Q 263.70125 137.54075 265.70125 137.54075 
z
" style="fill:#ffffff;opacity:0.8;stroke:#cccccc;stroke-linejoin:miter;"/>
    </g>
    <g id="line2d_19">
     <path d="M 267.70125 54.570438 
L 287.70125 54.570438 
" style="fill:none;stroke:#1f77b4;stroke-linecap:square;stroke-width:1.5;"/>
    </g>
    <g id="line2d_20"/>
    <g id="text_15">
     <!-- Initial speed = 5 m/s -->
     <g transform="translate(295.70125 58.070438)scale(0.1 -0.1)">
      <defs>
       <path d="M 628 4666 
L 1259 4666 
L 1259 0 
L 628 0 
L 628 4666 
z
" id="DejaVuSans-49" transform="scale(0.015625)"/>
       <path d="M 2194 1759 
Q 1497 1759 1228 1600 
Q 959 1441 959 1056 
Q 959 750 1161 570 
Q 1363 391 1709 391 
Q 2188 391 2477 730 
Q 2766 1069 2766 1631 
L 2766 1759 
L 2194 1759 
z
M 3341 1997 
L 3341 0 
L 2766 0 
L 2766 531 
Q 2569 213 2275 61 
Q 1981 -91 1556 -91 
Q 1019 -91 701 211 
Q 384 513 384 1019 
Q 384 1609 779 1909 
Q 1175 2209 1959 2209 
L 2766 2209 
L 2766 2266 
Q 2766 2663 2505 2880 
Q 2244 3097 1772 3097 
Q 1472 3097 1187 3025 
Q 903 2953 641 2809 
L 641 3341 
Q 956 3463 1253 3523 
Q 1550 3584 1831 3584 
Q 2591 3584 2966 3190 
Q 3341 2797 3341 1997 
z
" id="DejaVuSans-61" transform="scale(0.015625)"/>
       <path d="M 603 4863 
L 1178 4863 
L 1178 0 
L 603 0 
L 603 4863 
z
" id="DejaVuSans-6c" transform="scale(0.015625)"/>
       <path d="M 1159 525 
L 1159 -1331 
L 581 -1331 
L 581 3500 
L 1159 3500 
L 1159 2969 
Q 1341 3281 1617 3432 
Q 1894 3584 2278 3584 
Q 2916 3584 3314 3078 
Q 3713 2572 3713 1747 
Q 3713 922 3314 415 
Q 2916 -91 2278 -91 
Q 1894 -91 1617 61 
Q 1341 213 1159 525 
z
M 3116 1747 
Q 3116 2381 2855 2742 
Q 2594 3103 2138 3103 
Q 1681 3103 1420 2742 
Q 1159 2381 1159 1747 
Q 1159 1113 1420 752 
Q 1681 391 2138 391 
Q 2594 391 2855 752 
Q 3116 1113 3116 1747 
z
" id="DejaVuSans-70" transform="scale(0.015625)"/>
       <path d="M 2906 2969 
L 2906 4863 
L 3481 4863 
L 3481 0 
L 2906 0 
L 2906 525 
Q 2725 213 2448 61 
Q 2172 -91 1784 -91 
Q 1150 -91 751 415 
Q 353 922 353 1747 
Q 353 2572 751 3078 
Q 1150 3584 1784 3584 
Q 2172 3584 2448 3432 
Q 2725 3281 2906 2969 
z
M 947 1747 
Q 947 1113 1208 752 
Q 1469 391 1925 391 
Q 2381 391 2643 752 
Q 2906 1113 2906 1747 
Q 2906 2381 2643 2742 
Q 2381 3103 1925 3103 
Q 1469 3103 1208 2742 
Q 947 2381 947 1747 
z
" id="DejaVuSans-64" transform="scale(0.015625)"/>
       <path d="M 678 2906 
L 4684 2906 
L 4684 2381 
L 678 2381 
L 678 2906 
z
M 678 1631 
L 4684 1631 
L 4684 1100 
L 678 1100 
L 678 1631 
z
" id="DejaVuSans-3d" transform="scale(0.015625)"/>
       <path d="M 691 4666 
L 3169 4666 
L 3169 4134 
L 1269 4134 
L 1269 2991 
Q 1406 3038 1543 3061 
Q 1681 3084 1819 3084 
Q 2600 3084 3056 2656 
Q 3513 2228 3513 1497 
Q 3513 744 3044 326 
Q 2575 -91 1722 -91 
Q 1428 -91 1123 -41 
Q 819 9 494 109 
L 494 744 
Q 775 591 1075 516 
Q 1375 441 1709 441 
Q 2250 441 2565 725 
Q 2881 1009 2881 1497 
Q 2881 1984 2565 2268 
Q 2250 2553 1709 2553 
Q 1456 2553 1204 2497 
Q 953 2441 691 2322 
L 691 4666 
z
" id="DejaVuSans-35" transform="scale(0.015625)"/>
       <path d="M 1625 4666 
L 2156 4666 
L 531 -594 
L 0 -594 
L 1625 4666 
z
" id="DejaVuSans-2f" transform="scale(0.015625)"/>
      </defs>
      <use xlink:href="#DejaVuSans-49"/>
      <use x="29.492188" xlink:href="#DejaVuSans-6e"/>
      <use x="92.871094" xlink:href="#DejaVuSans-69"/>
      <use x="120.654297" xlink:href="#DejaVuSans-74"/>
      <use x="159.863281" xlink:href="#DejaVuSans-69"/>
      <use x="187.646484" xlink:href="#DejaVuSans-61"/>
      <use x="248.925781" xlink:href="#DejaVuSans-6c"/>
      <use x="276.708984" xlink:href="#DejaVuSans-20"/>
      <use x="308.496094" xlink:href="#DejaVuSans-73"/>
      <use x="360.595703" xlink:href="#DejaVuSans-70"/>
      <use x="424.072266" xlink:href="#DejaVuSans-65"/>
      <use x="485.595703" xlink:href="#DejaVuSans-65"/>
      <use x="547.119141" xlink:href="#DejaVuSans-64"/>
      <use x="610.595703" xlink:href="#DejaVuSans-20"/>
      <use x="642.382812" xlink:href="#DejaVuSans-3d"/>
      <use x="726.171875" xlink:href="#DejaVuSans-20"/>
      <use x="757.958984" xlink:href="#DejaVuSans-35"/>
      <use x="821.582031" xlink:href="#DejaVuSans-20"/>
      <use x="853.369141" xlink:href="#DejaVuSans-6d"/>
      <use x="950.78125" xlink:href="#DejaVuSans-2f"/>
      <use x="984.472656" xlink:href="#DejaVuSans-73"/>
     </g>
    </g>
    <g id="line2d_21">
     <path d="M 267.70125 69.248563 
L 287.70125 69.248563 
" style="fill:none;stroke:#ff7f0e;stroke-linecap:square;stroke-width:1.5;"/>
    </g>
    <g id="line2d_22"/>
    <g id="text_16">
     <!-- Initial speed = 10 m/s -->
     <g transform="translate(295.70125 72.748563)scale(0.1 -0.1)">
      <use xlink:href="#DejaVuSans-49"/>
      <use x="29.492188" xlink:href="#DejaVuSans-6e"/>
      <use x="92.871094" xlink:href="#DejaVuSans-69"/>
      <use x="120.654297" xlink:href="#DejaVuSans-74"/>
      <use x="159.863281" xlink:href="#DejaVuSans-69"/>
      <use x="187.646484" xlink:href="#DejaVuSans-61"/>
      <use x="248.925781" xlink:href="#DejaVuSans-6c"/>
      <use x="276.708984" xlink:href="#DejaVuSans-20"/>
      <use x="308.496094" xlink:href="#DejaVuSans-73"/>
      <use x="360.595703" xlink:href="#DejaVuSans-70"/>
      <use x="424.072266" xlink:href="#DejaVuSans-65"/>
      <use x="485.595703" xlink:href="#DejaVuSans-65"/>
      <use x="547.119141" xlink:href="#DejaVuSans-64"/>
      <use x="610.595703" xlink:href="#DejaVuSans-20"/>
      <use x="642.382812" xlink:href="#DejaVuSans-3d"/>
      <use x="726.171875" xlink:href="#DejaVuSans-20"/>
      <use x="757.958984" xlink:href="#DejaVuSans-31"/>
      <use x="821.582031" xlink:href="#DejaVuSans-30"/>
      <use x="885.205078" xlink:href="#DejaVuSans-20"/>
      <use x="916.992188" xlink:href="#DejaVuSans-6d"/>
      <use x="1014.404297" xlink:href="#DejaVuSans-2f"/>
      <use x="1048.095703" xlink:href="#DejaVuSans-73"/>
     </g>
    </g>
    <g id="line2d_23">
     <path d="M 267.70125 83.926688 
L 287.70125 83.926688 
" style="fill:none;stroke:#2ca02c;stroke-linecap:square;stroke-width:1.5;"/>
    </g>
    <g id="line2d_24"/>
    <g id="text_17">
     <!-- Initial speed = 15 m/s -->
     <g transform="translate(295.70125 87.426688)scale(0.1 -0.1)">
      <use xlink:href="#DejaVuSans-49"/>
      <use x="29.492188" xlink:href="#DejaVuSans-6e"/>
      <use x="92.871094" xlink:href="#DejaVuSans-69"/>
      <use x="120.654297" xlink:href="#DejaVuSans-74"/>
      <use x="159.863281" xlink:href="#DejaVuSans-69"/>
      <use x="187.646484" xlink:href="#DejaVuSans-61"/>
      <use x="248.925781" xlink:href="#DejaVuSans-6c"/>
      <use x="276.708984" xlink:href="#DejaVuSans-20"/>
      <use x="308.496094" xlink:href="#DejaVuSans-73"/>
      <use x="360.595703" xlink:href="#DejaVuSans-70"/>
      <use x="424.072266" xlink:href="#DejaVuSans-65"/>
      <use x="485.595703" xlink:href="#DejaVuSans-65"/>
      <use x="547.119141" xlink:href="#DejaVuSans-64"/>
      <use x="610.595703" xlink:href="#DejaVuSans-20"/>
      <use x="642.382812" xlink:href="#DejaVuSans-3d"/>
      <use x="726.171875" xlink:href="#DejaVuSans-20"/>
      <use x="757.958984" xlink:href="#DejaVuSans-31"/>
      <use x="821.582031" xlink:href="#DejaVuSans-35"/>
      <use x="885.205078" xlink:href="#DejaVuSans-20"/>
      <use x="916.992188" xlink:href="#DejaVuSans-6d"/>
      <use x="1014.404297" xlink:href="#DejaVuSans-2f"/>
      <use x="1048.095703" xlink:href="#DejaVuSans-73"/>
     </g>
    </g>
    <g id="line2d_25">
     <path d="M 267.70125 98.604813 
L 287.70125 98.604813 
" style="fill:none;stroke:#d62728;stroke-linecap:square;stroke-width:1.5;"/>
    </g>
    <g id="line2d_26"/>
    <g id="text_18">
     <!-- Initial speed = 20 m/s -->
     <g transform="translate(295.70125 102.104813)scale(0.1 -0.1)">
      <use xlink:href="#DejaVuSans-49"/>
      <use x="29.492188" xlink:href="#DejaVuSans-6e"/>
      <use x="92.871094" xlink:href="#DejaVuSans-69"/>
      <use x="120.654297" xlink:href="#DejaVuSans-74"/>
      <use x="159.863281" xlink:href="#DejaVuSans-69"/>
      <use x="187.646484" xlink:href="#DejaVuSans-61"/>
      <use x="248.925781" xlink:href="#DejaVuSans-6c"/>
      <use x="276.708984" xlink:href="#DejaVuSans-20"/>
      <use x="308.496094" xlink:href="#DejaVuSans-73"/>
      <use x="360.595703" xlink:href="#DejaVuSans-70"/>
      <use x="424.072266" xlink:href="#DejaVuSans-65"/>
      <use x="485.595703" xlink:href="#DejaVuSans-65"/>
      <use x="547.119141" xlink:href="#DejaVuSans-64"/>
      <use x="610.595703" xlink:href="#DejaVuSans-20"/>
      <use x="642.382812" xlink:href="#DejaVuSans-3d"/>
      <use x="726.171875" xlink:href="#DejaVuSans-20"/>
      <use x="757.958984" xlink:href="#DejaVuSans-32"/>
      <use x="821.582031" xlink:href="#DejaVuSans-30"/>
      <use x="885.205078" xlink:href="#DejaVuSans-20"/>
      <use x="916.992188" xlink:href="#DejaVuSans-6d"/>
      <use x="1014.404297" xlink:href="#DejaVuSans-2f"/>
      <use x="1048.095703" xlink:href="#DejaVuSans-73"/>
     </g>
    </g>
    <g id="line2d_27">
     <path d="M 267.70125 113.282938 
L 287.70125 113.282938 
" style="fill:none;stroke:#9467bd;stroke-linecap:square;stroke-width:1.5;"/>
    </g>
    <g id="line2d_28"/>
    <g id="text_19">
     <!-- Initial speed = 25 m/s -->
     <g transform="translate(295.70125 116.782938)scale(0.1 -0.1)">
      <use xlink:href="#DejaVuSans-49"/>
      <use x="29.492188" xlink:href="#DejaVuSans-6e"/>
      <use x="92.871094" xlink:href="#DejaVuSans-69"/>
      <use x="120.654297" xlink:href="#DejaVuSans-74"/>
      <use x="159.863281" xlink:href="#DejaVuSans-69"/>
      <use x="187.646484" xlink:href="#DejaVuSans-61"/>
      <use x="248.925781" xlink:href="#DejaVuSans-6c"/>
      <use x="276.708984" xlink:href="#DejaVuSans-20"/>
      <use x="308.496094" xlink:href="#DejaVuSans-73"/>
      <use x="360.595703" xlink:href="#DejaVuSans-70"/>
      <use x="424.072266" xlink:href="#DejaVuSans-65"/>
      <use x="485.595703" xlink:href="#DejaVuSans-65"/>
      <use x="547.119141" xlink:href="#DejaVuSans-64"/>
      <use x="610.595703" xlink:href="#DejaVuSans-20"/>
      <use x="642.382812" xlink:href="#DejaVuSans-3d"/>
      <use x="726.171875" xlink:href="#DejaVuSans-20"/>
      <use x="757.958984" xlink:href="#DejaVuSans-32"/>
      <use x="821.582031" xlink:href="#DejaVuSans-35"/>
      <use x="885.205078" xlink:href="#DejaVuSans-20"/>
      <use x="916.992188" xlink:href="#DejaVuSans-6d"/>
      <use x="1014.404297" xlink:href="#DejaVuSans-2f"/>
      <use x="1048.095703" xlink:href="#DejaVuSans-73"/>
     </g>
    </g>
    <g id="line2d_29">
     <path d="M 267.70125 127.961063 
L 287.70125 127.961063 
" style="fill:none;stroke:#8c564b;stroke-linecap:square;stroke-width:1.5;"/>
    </g>
    <g id="line2d_30"/>
    <g id="text_20">
     <!-- Initial speed = 30 m/s -->
     <g transform="translate(295.70125 131.461063)scale(0.1 -0.1)">
      <defs>
       <path d="M 2597 2516 
Q 3050 2419 3304 2112 
Q 3559 1806 3559 1356 
Q 3559 666 3084 287 
Q 2609 -91 1734 -91 
Q 1441 -91 1130 -33 
Q 819 25 488 141 
L 488 750 
Q 750 597 1062 519 
Q 1375 441 1716 441 
Q 2309 441 2620 675 
Q 2931 909 2931 1356 
Q 2931 1769 2642 2001 
Q 2353 2234 1838 2234 
L 1294 2234 
L 1294 2753 
L 1863 2753 
Q 2328 2753 2575 2939 
Q 2822 3125 2822 3475 
Q 2822 3834 2567 4026 
Q 2313 4219 1838 4219 
Q 1578 4219 1281 4162 
Q 984 4106 628 3988 
L 628 4550 
Q 988 4650 1302 4700 
Q 1616 4750 1894 4750 
Q 2613 4750 3031 4423 
Q 3450 4097 3450 3541 
Q 3450 3153 3228 2886 
Q 3006 2619 2597 2516 
z
" id="DejaVuSans-33" transform="scale(0.015625)"/>
      </defs>
      <use xlink:href="#DejaVuSans-49"/>
      <use x="29.492188" xlink:href="#DejaVuSans-6e"/>
      <use x="92.871094" xlink:href="#DejaVuSans-69"/>
      <use x="120.654297" xlink:href="#DejaVuSans-74"/>
      <use x="159.863281" xlink:href="#DejaVuSans-69"/>
      <use x="187.646484" xlink:href="#DejaVuSans-61"/>
      <use x="248.925781" xlink:href="#DejaVuSans-6c"/>
      <use x="276.708984" xlink:href="#DejaVuSans-20"/>
      <use x="308.496094" xlink:href="#DejaVuSans-73"/>
      <use x="360.595703" xlink:href="#DejaVuSans-70"/>
      <use x="424.072266" xlink:href="#DejaVuSans-65"/>
      <use x="485.595703" xlink:href="#DejaVuSans-65"/>
      <use x="547.119141" xlink:href="#DejaVuSans-64"/>
      <use x="610.595703" xlink:href="#DejaVuSans-20"/>
      <use x="642.382812" xlink:href="#DejaVuSans-3d"/>
      <use x="726.171875" xlink:href="#DejaVuSans-20"/>
      <use x="757.958984" xlink:href="#DejaVuSans-33"/>
      <use x="821.582031" xlink:href="#DejaVuSans-30"/>
      <use x="885.205078" xlink:href="#DejaVuSans-20"/>
      <use x="916.992188" xlink:href="#DejaVuSans-6d"/>
      <use x="1014.404297" xlink:href="#DejaVuSans-2f"/>
      <use x="1048.095703" xlink:href="#DejaVuSans-73"/>
     </g>
    </g>
   </g>
  </g>
 </g>
 <defs>
  <clipPath id="pd0f5de957d">
   <rect height="266.112" width="357.12" x="57.6" y="41.472"/>
  </clipPath>
 </defs>
</svg>
