<?xml version="1.0" encoding="utf-8" standalone="no"?>
<!DOCTYPE svg PUBLIC "-//W3C//DTD SVG 1.1//EN"
  "http://www.w3.org/Graphics/SVG/1.1/DTD/svg11.dtd">
<svg height="345.6pt" version="1.1" viewBox="0 0 460.8 345.6" width="460.8pt" xmlns="http://www.w3.org/2000/svg" xmlns:xlink="http://www.w3.org/1999/xlink">
 <metadata>
  <rdf:RDF xmlns:cc="http://creativecommons.org/ns#" xmlns:dc="http://purl.org/dc/elements/1.1/" xmlns:rdf="http://www.w3.org/1999/02/22-rdf-syntax-ns#">
   <cc:Work>
    <dc:type rdf:resource="http://purl.org/dc/dcmitype/StillImage"/>
    <dc:date>2021-10-13T13:50:16.857825</dc:date>
    <dc:format>image/svg+xml</dc:format>
    <dc:creator>
     <cc:Agent>
      <dc:title>Matplotlib v3.4.3, https://matplotlib.org/</dc:title>
     </cc:Agent>
    </dc:creator>
   </cc:Work>
  </rdf:RDF>
 </metadata>
 <defs>
  <style type="text/css">*{stroke-linecap:butt;stroke-linejoin:round;}</style>
 </defs>
 <g id="figure_1">
  <g id="patch_1">
   <path d="M 0 345.6 
L 460.8 345.6 
L 460.8 0 
L 0 0 
z
" style="fill:#ffffff;"/>
  </g>
  <g id="axes_1">
   <g id="patch_2">
    <path d="M 57.6 307.584 
L 414.72 307.584 
L 414.72 41.472 
L 57.6 41.472 
z
" style="fill:#ffffff;"/>
   </g>
   <g id="matplotlib.axis_1">
    <g id="xtick_1">
     <g id="line2d_1">
      <defs>
       <path d="M 0 0 
L 0 3.5 
" id="mfc77f6a4f3" style="stroke:#000000;stroke-width:0.8;"/>
      </defs>
      <g>
       <use style="stroke:#000000;stroke-width:0.8;" x="333.556364" xlink:href="#mfc77f6a4f3" y="307.584"/>
      </g>
     </g>
     <g id="text_1">
      <!-- $x^{(0)}$ -->
      <g transform="translate(320.276364 326.7415)scale(0.16 -0.16)">
       <defs>
        <path d="M 3841 3500 
L 2234 1784 
L 3219 0 
L 2559 0 
L 1819 1388 
L 531 0 
L -166 0 
L 1556 1844 
L 641 3500 
L 1300 3500 
L 1972 2234 
L 3144 3500 
L 3841 3500 
z
" id="DejaVuSans-Oblique-78" transform="scale(0.015625)"/>
        <path d="M 1984 4856 
Q 1566 4138 1362 3434 
Q 1159 2731 1159 2009 
Q 1159 1288 1364 580 
Q 1569 -128 1984 -844 
L 1484 -844 
Q 1016 -109 783 600 
Q 550 1309 550 2009 
Q 550 2706 781 3412 
Q 1013 4119 1484 4856 
L 1984 4856 
z
" id="DejaVuSans-28" transform="scale(0.015625)"/>
        <path d="M 2034 4250 
Q 1547 4250 1301 3770 
Q 1056 3291 1056 2328 
Q 1056 1369 1301 889 
Q 1547 409 2034 409 
Q 2525 409 2770 889 
Q 3016 1369 3016 2328 
Q 3016 3291 2770 3770 
Q 2525 4250 2034 4250 
z
M 2034 4750 
Q 2819 4750 3233 4129 
Q 3647 3509 3647 2328 
Q 3647 1150 3233 529 
Q 2819 -91 2034 -91 
Q 1250 -91 836 529 
Q 422 1150 422 2328 
Q 422 3509 836 4129 
Q 1250 4750 2034 4750 
z
" id="DejaVuSans-30" transform="scale(0.015625)"/>
        <path d="M 513 4856 
L 1013 4856 
Q 1481 4119 1714 3412 
Q 1947 2706 1947 2009 
Q 1947 1309 1714 600 
Q 1481 -109 1013 -844 
L 513 -844 
Q 928 -128 1133 580 
Q 1338 1288 1338 2009 
Q 1338 2731 1133 3434 
Q 928 4138 513 4856 
z
" id="DejaVuSans-29" transform="scale(0.015625)"/>
       </defs>
       <use transform="translate(0 0.60625)" xlink:href="#DejaVuSans-Oblique-78"/>
       <use transform="translate(63.645833 38.8875)scale(0.7)" xlink:href="#DejaVuSans-28"/>
       <use transform="translate(90.955404 38.8875)scale(0.7)" xlink:href="#DejaVuSans-30"/>
       <use transform="translate(135.491536 38.8875)scale(0.7)" xlink:href="#DejaVuSans-29"/>
      </g>
     </g>
    </g>
    <g id="xtick_2">
     <g id="line2d_2">
      <g>
       <use style="stroke:#000000;stroke-width:0.8;" x="244.276364" xlink:href="#mfc77f6a4f3" y="307.584"/>
      </g>
     </g>
     <g id="text_2">
      <!-- $x^{(1)}$ -->
      <g transform="translate(230.996364 326.7415)scale(0.16 -0.16)">
       <defs>
        <path d="M 794 531 
L 1825 531 
L 1825 4091 
L 703 3866 
L 703 4441 
L 1819 4666 
L 2450 4666 
L 2450 531 
L 3481 531 
L 3481 0 
L 794 0 
L 794 531 
z
" id="DejaVuSans-31" transform="scale(0.015625)"/>
       </defs>
       <use transform="translate(0 0.60625)" xlink:href="#DejaVuSans-Oblique-78"/>
       <use transform="translate(63.645833 38.8875)scale(0.7)" xlink:href="#DejaVuSans-28"/>
       <use transform="translate(90.955404 38.8875)scale(0.7)" xlink:href="#DejaVuSans-31"/>
       <use transform="translate(135.491536 38.8875)scale(0.7)" xlink:href="#DejaVuSans-29"/>
      </g>
     </g>
    </g>
   </g>
   <g id="matplotlib.axis_2">
    <g id="ytick_1">
     <g id="line2d_3">
      <defs>
       <path d="M 0 0 
L -3.5 0 
" id="m1f94a166fc" style="stroke:#000000;stroke-width:0.8;"/>
      </defs>
      <g>
       <use style="stroke:#000000;stroke-width:0.8;" x="57.6" xlink:href="#m1f94a166fc" y="247.104"/>
      </g>
     </g>
     <g id="text_3">
      <!-- $0$ -->
      <g transform="translate(40.36 253.18275)scale(0.16 -0.16)">
       <use transform="translate(0 0.78125)" xlink:href="#DejaVuSans-30"/>
      </g>
     </g>
    </g>
    <g id="ytick_2">
     <g id="line2d_4">
      <g>
       <use style="stroke:#000000;stroke-width:0.8;" x="57.6" xlink:href="#m1f94a166fc" y="140.6592"/>
      </g>
     </g>
     <g id="text_4">
      <!-- $f(x^{(0)})$ -->
      <g transform="translate(5.96 147.47545)scale(0.16 -0.16)">
       <defs>
        <path d="M 3059 4863 
L 2969 4384 
L 2419 4384 
Q 2106 4384 1964 4261 
Q 1822 4138 1753 3809 
L 1691 3500 
L 2638 3500 
L 2553 3053 
L 1606 3053 
L 1013 0 
L 434 0 
L 1031 3053 
L 481 3053 
L 563 3500 
L 1113 3500 
L 1159 3744 
Q 1278 4363 1576 4613 
Q 1875 4863 2516 4863 
L 3059 4863 
z
" id="DejaVuSans-Oblique-66" transform="scale(0.015625)"/>
       </defs>
       <use transform="translate(0 0.60625)" xlink:href="#DejaVuSans-Oblique-66"/>
       <use transform="translate(35.205078 0.60625)" xlink:href="#DejaVuSans-28"/>
       <use transform="translate(74.21875 0.60625)" xlink:href="#DejaVuSans-Oblique-78"/>
       <use transform="translate(137.864583 38.8875)scale(0.7)" xlink:href="#DejaVuSans-28"/>
       <use transform="translate(165.174154 38.8875)scale(0.7)" xlink:href="#DejaVuSans-30"/>
       <use transform="translate(209.710286 38.8875)scale(0.7)" xlink:href="#DejaVuSans-29"/>
       <use transform="translate(239.754232 0.60625)" xlink:href="#DejaVuSans-29"/>
      </g>
     </g>
    </g>
    <g id="ytick_3">
     <g id="line2d_5">
      <g>
       <use style="stroke:#000000;stroke-width:0.8;" x="57.6" xlink:href="#m1f94a166fc" y="228.8088"/>
      </g>
     </g>
     <g id="text_5">
      <!-- $f(x^{(1)})$ -->
      <g transform="translate(5.96 235.62505)scale(0.16 -0.16)">
       <use transform="translate(0 0.60625)" xlink:href="#DejaVuSans-Oblique-66"/>
       <use transform="translate(35.205078 0.60625)" xlink:href="#DejaVuSans-28"/>
       <use transform="translate(74.21875 0.60625)" xlink:href="#DejaVuSans-Oblique-78"/>
       <use transform="translate(137.864583 38.8875)scale(0.7)" xlink:href="#DejaVuSans-28"/>
       <use transform="translate(165.174154 38.8875)scale(0.7)" xlink:href="#DejaVuSans-31"/>
       <use transform="translate(209.710286 38.8875)scale(0.7)" xlink:href="#DejaVuSans-29"/>
       <use transform="translate(239.754232 0.60625)" xlink:href="#DejaVuSans-29"/>
      </g>
     </g>
    </g>
   </g>
   <g id="line2d_6">
    <path clip-path="url(#pefad250517)" d="M 57.6 247.104 
L 414.72 247.104 
" style="fill:none;stroke:#808080;stroke-linecap:square;"/>
   </g>
   <g id="line2d_7">
    <path clip-path="url(#pefad250517)" d="M 73.832727 295.488 
L 80.45833 295.387242 
L 87.083933 295.084968 
L 93.709536 294.581178 
L 100.335139 293.875872 
L 106.960742 292.96905 
L 113.586345 291.860711 
L 120.211948 290.550857 
L 126.837551 289.039487 
L 133.463154 287.326601 
L 140.088757 285.412198 
L 146.71436 283.29628 
L 153.339963 280.978845 
L 159.965566 278.459895 
L 166.591169 275.739429 
L 173.216772 272.817446 
L 179.842375 269.693948 
L 186.467978 266.368933 
L 193.093581 262.842402 
L 199.719184 259.114356 
L 206.344787 255.184793 
L 212.97039 251.053714 
L 219.595993 246.72112 
L 226.221596 242.187009 
L 232.847199 237.451382 
L 239.472801 232.514239 
L 246.098404 227.37558 
L 252.724007 222.035405 
L 259.34961 216.493714 
L 265.975213 210.750507 
L 272.600816 204.805784 
L 279.226419 198.659545 
L 285.852022 192.31179 
L 292.477625 185.762519 
L 299.103228 179.011732 
L 305.728831 172.059429 
L 312.354434 164.905609 
L 318.980037 157.550274 
L 325.60564 149.993423 
L 332.231243 142.235055 
L 338.856846 134.275172 
L 345.482449 126.113773 
L 352.108052 117.750857 
L 358.733655 109.186426 
L 365.359258 100.420478 
L 371.984861 91.453015 
L 378.610464 82.284035 
L 385.236067 72.913539 
L 391.86167 63.341528 
L 398.487273 53.568 
" style="fill:none;stroke:#1f77b4;stroke-linecap:square;stroke-width:1.5;"/>
   </g>
   <g id="line2d_8">
    <path clip-path="url(#pefad250517)" d="M 333.556364 307.584 
L 333.556364 140.6592 
L 57.6 140.6592 
" style="fill:none;stroke:#ff7f0e;stroke-dasharray:5.55,2.4;stroke-dashoffset:0;stroke-width:1.5;"/>
    <defs>
     <path d="M 0 3 
C 0.795609 3 1.55874 2.683901 2.12132 2.12132 
C 2.683901 1.55874 3 0.795609 3 0 
C 3 -0.795609 2.683901 -1.55874 2.12132 -2.12132 
C 1.55874 -2.683901 0.795609 -3 0 -3 
C -0.795609 -3 -1.55874 -2.683901 -2.12132 -2.12132 
C -2.683901 -1.55874 -3 -0.795609 -3 0 
C -3 0.795609 -2.683901 1.55874 -2.12132 2.12132 
C -1.55874 2.683901 -0.795609 3 0 3 
z
" id="m6624a6b7a3" style="stroke:#ff7f0e;"/>
    </defs>
    <g clip-path="url(#pefad250517)">
     <use style="fill:#ff7f0e;stroke:#ff7f0e;" x="333.556364" xlink:href="#m6624a6b7a3" y="307.584"/>
     <use style="fill:#ff7f0e;stroke:#ff7f0e;" x="333.556364" xlink:href="#m6624a6b7a3" y="140.6592"/>
     <use style="fill:#ff7f0e;stroke:#ff7f0e;" x="57.6" xlink:href="#m6624a6b7a3" y="140.6592"/>
    </g>
   </g>
   <g id="line2d_9">
    <path clip-path="url(#pefad250517)" d="M 160.824632 346.6 
L 166.591169 339.7248 
L 173.216772 331.825371 
L 179.842375 323.925943 
L 186.467978 316.026514 
L 193.093581 308.127086 
L 199.719184 300.227657 
L 206.344787 292.328229 
L 212.97039 284.4288 
L 219.595993 276.529371 
L 226.221596 268.629943 
L 232.847199 260.730514 
L 239.472801 252.831086 
L 246.098404 244.931657 
L 252.724007 237.032229 
L 259.34961 229.1328 
L 265.975213 221.233371 
L 272.600816 213.333943 
L 279.226419 205.434514 
L 285.852022 197.535086 
L 292.477625 189.635657 
L 299.103228 181.736229 
L 305.728831 173.8368 
L 312.354434 165.937371 
L 318.980037 158.037943 
L 325.60564 150.138514 
L 332.231243 142.239086 
L 338.856846 134.339657 
L 345.482449 126.440229 
L 352.108052 118.5408 
L 358.733655 110.641371 
L 365.359258 102.741943 
L 371.984861 94.842514 
L 378.610464 86.943086 
L 385.236067 79.043657 
L 391.86167 71.144229 
L 398.487273 63.2448 
" style="fill:none;stroke:#2ca02c;stroke-linecap:square;stroke-width:1.5;"/>
   </g>
   <g id="line2d_10">
    <path clip-path="url(#pefad250517)" d="M 244.276364 307.584 
L 244.276364 228.8088 
L 57.6 228.8088 
" style="fill:none;stroke:#d62728;stroke-dasharray:5.55,2.4;stroke-dashoffset:0;stroke-width:1.5;"/>
    <defs>
     <path d="M 0 3 
C 0.795609 3 1.55874 2.683901 2.12132 2.12132 
C 2.683901 1.55874 3 0.795609 3 0 
C 3 -0.795609 2.683901 -1.55874 2.12132 -2.12132 
C 1.55874 -2.683901 0.795609 -3 0 -3 
C -0.795609 -3 -1.55874 -2.683901 -2.12132 -2.12132 
C -2.683901 -1.55874 -3 -0.795609 -3 0 
C -3 0.795609 -2.683901 1.55874 -2.12132 2.12132 
C -1.55874 2.683901 -0.795609 3 0 3 
z
" id="m93ba732480" style="stroke:#d62728;"/>
    </defs>
    <g clip-path="url(#pefad250517)">
     <use style="fill:#d62728;stroke:#d62728;" x="244.276364" xlink:href="#m93ba732480" y="307.584"/>
     <use style="fill:#d62728;stroke:#d62728;" x="244.276364" xlink:href="#m93ba732480" y="228.8088"/>
     <use style="fill:#d62728;stroke:#d62728;" x="57.6" xlink:href="#m93ba732480" y="228.8088"/>
    </g>
   </g>
   <g id="patch_3">
    <path d="M 57.6 307.584 
L 57.6 41.472 
" style="fill:none;stroke:#000000;stroke-linecap:square;stroke-linejoin:miter;stroke-width:0.8;"/>
   </g>
   <g id="patch_4">
    <path d="M 414.72 307.584 
L 414.72 41.472 
" style="fill:none;stroke:#000000;stroke-linecap:square;stroke-linejoin:miter;stroke-width:0.8;"/>
   </g>
   <g id="patch_5">
    <path d="M 57.6 307.584 
L 414.72 307.584 
" style="fill:none;stroke:#000000;stroke-linecap:square;stroke-linejoin:miter;stroke-width:0.8;"/>
   </g>
   <g id="patch_6">
    <path d="M 57.6 41.472 
L 414.72 41.472 
" style="fill:none;stroke:#000000;stroke-linecap:square;stroke-linejoin:miter;stroke-width:0.8;"/>
   </g>
   <g id="text_6">
    <!-- slope $f'(x^{(0)})$ -->
    <g style="fill:#2ca02c;" transform="translate(351.325629 146.697834)rotate(-50)scale(0.16 -0.16)">
     <defs>
      <path d="M 2834 3397 
L 2834 2853 
Q 2591 2978 2328 3040 
Q 2066 3103 1784 3103 
Q 1356 3103 1142 2972 
Q 928 2841 928 2578 
Q 928 2378 1081 2264 
Q 1234 2150 1697 2047 
L 1894 2003 
Q 2506 1872 2764 1633 
Q 3022 1394 3022 966 
Q 3022 478 2636 193 
Q 2250 -91 1575 -91 
Q 1294 -91 989 -36 
Q 684 19 347 128 
L 347 722 
Q 666 556 975 473 
Q 1284 391 1588 391 
Q 1994 391 2212 530 
Q 2431 669 2431 922 
Q 2431 1156 2273 1281 
Q 2116 1406 1581 1522 
L 1381 1569 
Q 847 1681 609 1914 
Q 372 2147 372 2553 
Q 372 3047 722 3315 
Q 1072 3584 1716 3584 
Q 2034 3584 2315 3537 
Q 2597 3491 2834 3397 
z
" id="DejaVuSans-73" transform="scale(0.015625)"/>
      <path d="M 603 4863 
L 1178 4863 
L 1178 0 
L 603 0 
L 603 4863 
z
" id="DejaVuSans-6c" transform="scale(0.015625)"/>
      <path d="M 1959 3097 
Q 1497 3097 1228 2736 
Q 959 2375 959 1747 
Q 959 1119 1226 758 
Q 1494 397 1959 397 
Q 2419 397 2687 759 
Q 2956 1122 2956 1747 
Q 2956 2369 2687 2733 
Q 2419 3097 1959 3097 
z
M 1959 3584 
Q 2709 3584 3137 3096 
Q 3566 2609 3566 1747 
Q 3566 888 3137 398 
Q 2709 -91 1959 -91 
Q 1206 -91 779 398 
Q 353 888 353 1747 
Q 353 2609 779 3096 
Q 1206 3584 1959 3584 
z
" id="DejaVuSans-6f" transform="scale(0.015625)"/>
      <path d="M 1159 525 
L 1159 -1331 
L 581 -1331 
L 581 3500 
L 1159 3500 
L 1159 2969 
Q 1341 3281 1617 3432 
Q 1894 3584 2278 3584 
Q 2916 3584 3314 3078 
Q 3713 2572 3713 1747 
Q 3713 922 3314 415 
Q 2916 -91 2278 -91 
Q 1894 -91 1617 61 
Q 1341 213 1159 525 
z
M 3116 1747 
Q 3116 2381 2855 2742 
Q 2594 3103 2138 3103 
Q 1681 3103 1420 2742 
Q 1159 2381 1159 1747 
Q 1159 1113 1420 752 
Q 1681 391 2138 391 
Q 2594 391 2855 752 
Q 3116 1113 3116 1747 
z
" id="DejaVuSans-70" transform="scale(0.015625)"/>
      <path d="M 3597 1894 
L 3597 1613 
L 953 1613 
Q 991 1019 1311 708 
Q 1631 397 2203 397 
Q 2534 397 2845 478 
Q 3156 559 3463 722 
L 3463 178 
Q 3153 47 2828 -22 
Q 2503 -91 2169 -91 
Q 1331 -91 842 396 
Q 353 884 353 1716 
Q 353 2575 817 3079 
Q 1281 3584 2069 3584 
Q 2775 3584 3186 3129 
Q 3597 2675 3597 1894 
z
M 3022 2063 
Q 3016 2534 2758 2815 
Q 2500 3097 2075 3097 
Q 1594 3097 1305 2825 
Q 1016 2553 972 2059 
L 3022 2063 
z
" id="DejaVuSans-65" transform="scale(0.015625)"/>
      <path id="DejaVuSans-20" transform="scale(0.015625)"/>
      <path d="M 225 347 
Q 184 359 184 409 
L 966 3316 
Q 1003 3434 1093 3506 
Q 1184 3578 1300 3578 
Q 1450 3578 1564 3479 
Q 1678 3381 1678 3231 
Q 1678 3166 1644 3084 
L 488 319 
Q 466 275 428 275 
Q 394 275 320 306 
Q 247 338 225 347 
z
" id="Cmsy10-30" transform="scale(0.015625)"/>
     </defs>
     <use transform="translate(0 0.60625)" xlink:href="#DejaVuSans-73"/>
     <use transform="translate(52.099609 0.60625)" xlink:href="#DejaVuSans-6c"/>
     <use transform="translate(79.882812 0.60625)" xlink:href="#DejaVuSans-6f"/>
     <use transform="translate(141.064453 0.60625)" xlink:href="#DejaVuSans-70"/>
     <use transform="translate(204.541016 0.60625)" xlink:href="#DejaVuSans-65"/>
     <use transform="translate(266.064453 0.60625)" xlink:href="#DejaVuSans-20"/>
     <use transform="translate(297.851562 0.60625)" xlink:href="#DejaVuSans-Oblique-66"/>
     <use transform="translate(340.504349 38.8875)scale(0.7)" xlink:href="#Cmsy10-30"/>
     <use transform="translate(362.481888 0.60625)" xlink:href="#DejaVuSans-28"/>
     <use transform="translate(401.49556 0.60625)" xlink:href="#DejaVuSans-Oblique-78"/>
     <use transform="translate(465.141393 38.8875)scale(0.7)" xlink:href="#DejaVuSans-28"/>
     <use transform="translate(492.450964 38.8875)scale(0.7)" xlink:href="#DejaVuSans-30"/>
     <use transform="translate(536.987096 38.8875)scale(0.7)" xlink:href="#DejaVuSans-29"/>
     <use transform="translate(567.031042 0.60625)" xlink:href="#DejaVuSans-29"/>
    </g>
   </g>
  </g>
 </g>
 <defs>
  <clipPath id="pefad250517">
   <rect height="266.112" width="357.12" x="57.6" y="41.472"/>
  </clipPath>
 </defs>
</svg>
