<?xml version="1.0" encoding="UTF-8" standalone="no"?>
<svg
   xmlns:dc="http://purl.org/dc/elements/1.1/"
   xmlns:cc="http://creativecommons.org/ns#"
   xmlns:rdf="http://www.w3.org/1999/02/22-rdf-syntax-ns#"
   xmlns:svg="http://www.w3.org/2000/svg"
   xmlns="http://www.w3.org/2000/svg"
   viewBox="0 0 609.78687 308.5856"
   height="308.5856"
   width="609.78687"
   xml:space="preserve"
   id="svg2"
   version="1.1"><metadata
     id="metadata8"><rdf:RDF><cc:Work
         rdf:about=""><dc:format>image/svg+xml</dc:format><dc:type
           rdf:resource="http://purl.org/dc/dcmitype/StillImage" /><dc:title></dc:title></cc:Work></rdf:RDF></metadata><defs
     id="defs6"><clipPath
       id="clipPath20"
       clipPathUnits="userSpaceOnUse"><path
         id="path18"
         d="M 603,0 H 735 V 8420 H 603 Z" /></clipPath><clipPath
       id="clipPath632"
       clipPathUnits="userSpaceOnUse"><path
         id="path630"
         d="m 5747,0 h 73 v 8420 h -73 z" /></clipPath><clipPath
       id="clipPath1258"
       clipPathUnits="userSpaceOnUse"><path
         id="path1256"
         d="M 1772.44,1900.28 H 4122.29 V 6486.09 H 1772.44 Z" /></clipPath><clipPath
       id="clipPath1298"
       clipPathUnits="userSpaceOnUse"><path
         style="clip-rule:evenodd"
         id="path1296"
         d="M 1772.44,1900.28 H 4122.29 V 6486.09 H 1772.44 Z m 2214.03,2317.75 h 94.41 v 37.27 h -94.41 v 0 l 74.53,-18.64 z" /></clipPath><clipPath
       id="clipPath1308"
       clipPathUnits="userSpaceOnUse"><path
         id="path1306"
         d="M 1772.44,1900.28 H 4122.29 V 6486.09 H 1772.44 Z" /></clipPath><clipPath
       id="clipPath1320"
       clipPathUnits="userSpaceOnUse"><path
         id="path1318"
         d="M 1772.44,1900.28 H 4122.29 V 6486.09 H 1772.44 Z" /></clipPath><clipPath
       id="clipPath1326"
       clipPathUnits="userSpaceOnUse"><path
         style="clip-rule:evenodd"
         id="path1324"
         d="M 1772.44,1900.28 H 4122.29 V 6486.09 H 1772.44 Z m 1162.5,92.34 v -94.41 h 37.27 v 94.41 0 l -18.64,-74.54 z" /></clipPath><clipPath
       id="clipPath1336"
       clipPathUnits="userSpaceOnUse"><path
         id="path1334"
         d="M 1772.44,1900.28 H 4122.29 V 6486.09 H 1772.44 Z" /></clipPath><clipPath
       id="clipPath1348"
       clipPathUnits="userSpaceOnUse"><path
         style="clip-rule:evenodd"
         id="path1346"
         d="M 1772.44,1900.28 H 4122.29 V 6486.09 H 1772.44 Z m 1871.8,912.81 41.62,-83.84 33.53,16.77 -41.61,83.84 v 0 l 16.77,-74.53 z" /></clipPath><clipPath
       id="clipPath1358"
       clipPathUnits="userSpaceOnUse"><path
         id="path1356"
         d="M 1772.44,1900.28 H 4122.29 V 6486.09 H 1772.44 Z" /></clipPath><clipPath
       id="clipPath1368"
       clipPathUnits="userSpaceOnUse"><path
         style="clip-rule:evenodd"
         id="path1366"
         d="M 1772.44,1900.28 H 4122.29 V 6486.09 H 1772.44 Z m 1907.83,4284.78 v -94.4 h 37.26 v 94.4 0 l -18.63,-74.53 z" /></clipPath><clipPath
       id="clipPath1378"
       clipPathUnits="userSpaceOnUse"><path
         id="path1376"
         d="M 1772.44,1900.28 H 4122.29 V 6486.09 H 1772.44 Z" /></clipPath><clipPath
       id="clipPath1388"
       clipPathUnits="userSpaceOnUse"><path
         style="clip-rule:evenodd"
         id="path1386"
         d="M 1772.44,1900.28 H 4122.29 V 6486.09 H 1772.44 Z m 1162.5,4284.78 v -94.4 h 37.27 v 94.4 0 l -18.64,-74.53 z" /></clipPath><clipPath
       id="clipPath1398"
       clipPathUnits="userSpaceOnUse"><path
         id="path1396"
         d="M 1772.44,1900.28 H 4122.29 V 6486.09 H 1772.44 Z" /></clipPath><clipPath
       id="clipPath1408"
       clipPathUnits="userSpaceOnUse"><path
         style="clip-rule:evenodd"
         id="path1406"
         d="M 1772.44,1900.28 H 4122.29 V 6486.09 H 1772.44 Z m 164.39,2317.75 h 94.41 v 37.27 h -94.41 v 0 l 74.53,-18.64 z" /></clipPath><clipPath
       id="clipPath1418"
       clipPathUnits="userSpaceOnUse"><path
         id="path1416"
         d="M 1772.44,1900.28 H 4122.29 V 6486.09 H 1772.44 Z" /></clipPath><clipPath
       id="clipPath1428"
       clipPathUnits="userSpaceOnUse"><path
         style="clip-rule:evenodd"
         id="path1426"
         d="M 1772.44,1900.28 H 4122.29 V 6486.09 H 1772.44 Z m 164.39,827.1 h 94.41 v 37.27 h -94.41 v 0 l 74.53,-18.63 z" /></clipPath><clipPath
       id="clipPath1438"
       clipPathUnits="userSpaceOnUse"><path
         id="path1436"
         d="M 1772.44,1900.28 H 4122.29 V 6486.09 H 1772.44 Z" /></clipPath><clipPath
       id="clipPath1448"
       clipPathUnits="userSpaceOnUse"><path
         style="clip-rule:evenodd"
         id="path1446"
         d="M 1772.44,1900.28 H 4122.29 V 6486.09 H 1772.44 Z m 723.38,827.1 h 94.41 v 37.27 h -94.41 v 0 l 74.54,-18.63 z" /></clipPath><clipPath
       id="clipPath1458"
       clipPathUnits="userSpaceOnUse"><path
         id="path1456"
         d="M 1772.44,1900.28 H 4122.29 V 6486.09 H 1772.44 Z" /></clipPath><clipPath
       id="clipPath1470"
       clipPathUnits="userSpaceOnUse"><path
         style="clip-rule:evenodd"
         id="path1468"
         d="M 1772.44,1900.28 H 4122.29 V 6486.09 H 1772.44 Z m 723.38,2317.75 h 94.41 v 37.27 h -94.41 v 0 l 74.54,-18.64 z" /></clipPath><clipPath
       id="clipPath1480"
       clipPathUnits="userSpaceOnUse"><path
         id="path1478"
         d="M 1772.44,1900.28 H 4122.29 V 6486.09 H 1772.44 Z" /></clipPath><clipPath
       id="clipPath1490"
       clipPathUnits="userSpaceOnUse"><path
         style="clip-rule:evenodd"
         id="path1488"
         d="M 1772.44,1900.28 H 4122.29 V 6486.09 H 1772.44 Z m 723.38,3808.4 h 94.41 v 37.27 h -94.41 v 0 l 74.54,-18.64 z" /></clipPath><clipPath
       id="clipPath1500"
       clipPathUnits="userSpaceOnUse"><path
         id="path1498"
         d="M 1772.44,1900.28 H 4122.29 V 6486.09 H 1772.44 Z" /></clipPath><clipPath
       id="clipPath1510"
       clipPathUnits="userSpaceOnUse"><path
         style="clip-rule:evenodd"
         id="path1508"
         d="M 1772.44,1900.28 H 4122.29 V 6486.09 H 1772.44 Z m 417.18,1676.15 v -94.41 h 37.26 v 94.41 0 l -18.63,-74.53 z" /></clipPath><clipPath
       id="clipPath1520"
       clipPathUnits="userSpaceOnUse"><path
         id="path1518"
         d="M 1772.44,1900.28 H 4122.29 V 6486.09 H 1772.44 Z" /></clipPath><clipPath
       id="clipPath1530"
       clipPathUnits="userSpaceOnUse"><path
         style="clip-rule:evenodd"
         id="path1528"
         d="M 1772.44,1900.28 H 4122.29 V 6486.09 H 1772.44 Z m 1162.5,1676.15 v -94.41 h 37.27 v 94.41 0 l -18.64,-74.53 z" /></clipPath><clipPath
       id="clipPath1540"
       clipPathUnits="userSpaceOnUse"><path
         id="path1538"
         d="M 1772.44,1900.28 H 4122.29 V 6486.09 H 1772.44 Z" /></clipPath><clipPath
       id="clipPath1550"
       clipPathUnits="userSpaceOnUse"><path
         style="clip-rule:evenodd"
         id="path1548"
         d="M 1772.44,1900.28 H 4122.29 V 6486.09 H 1772.44 Z m 1162.5,3166.8 v -94.41 h 37.27 v 94.41 0 l -18.64,-74.53 z" /></clipPath><clipPath
       id="clipPath1560"
       clipPathUnits="userSpaceOnUse"><path
         id="path1558"
         d="M 1772.44,1900.28 H 4122.29 V 6486.09 H 1772.44 Z" /></clipPath><clipPath
       id="clipPath1570"
       clipPathUnits="userSpaceOnUse"><path
         style="clip-rule:evenodd"
         id="path1568"
         d="M 1772.44,1900.28 H 4122.29 V 6486.09 H 1772.44 Z m 417.18,3166.8 v -94.41 h 37.26 v 94.41 0 l -18.63,-74.53 z" /></clipPath><clipPath
       id="clipPath1580"
       clipPathUnits="userSpaceOnUse"><path
         id="path1578"
         d="M 1772.44,1900.28 H 4122.29 V 6486.09 H 1772.44 Z" /></clipPath><clipPath
       id="clipPath1590"
       clipPathUnits="userSpaceOnUse"><path
         style="clip-rule:evenodd"
         id="path1588"
         d="M 1772.44,1900.28 H 4122.29 V 6486.09 H 1772.44 Z m 1907.83,3166.8 v -94.41 h 37.26 v 94.41 0 l -18.63,-74.53 z" /></clipPath><clipPath
       id="clipPath1600"
       clipPathUnits="userSpaceOnUse"><path
         id="path1598"
         d="M 1772.44,1900.28 H 4122.29 V 6486.09 H 1772.44 Z" /></clipPath><clipPath
       id="clipPath1610"
       clipPathUnits="userSpaceOnUse"><path
         style="clip-rule:evenodd"
         id="path1608"
         d="M 1772.44,1900.28 H 4122.29 V 6486.09 H 1772.44 Z m 1468.7,2317.75 h 94.41 v 37.27 h -94.41 v 0 l 74.54,-18.64 z" /></clipPath><clipPath
       id="clipPath1620"
       clipPathUnits="userSpaceOnUse"><path
         id="path1618"
         d="M 1772.44,1900.28 H 4122.29 V 6486.09 H 1772.44 Z" /></clipPath><clipPath
       id="clipPath1630"
       clipPathUnits="userSpaceOnUse"><path
         style="clip-rule:evenodd"
         id="path1628"
         d="M 1772.44,1900.28 H 4122.29 V 6486.09 H 1772.44 Z m 1468.7,3808.4 h 94.41 v 37.27 h -94.41 v 0 l 74.54,-18.64 z" /></clipPath><clipPath
       id="clipPath1640"
       clipPathUnits="userSpaceOnUse"><path
         id="path1638"
         d="M 1772.44,1900.28 H 4122.29 V 6486.09 H 1772.44 Z" /></clipPath><clipPath
       id="clipPath1650"
       clipPathUnits="userSpaceOnUse"><path
         id="path1648"
         d="M 1772.44,1900.28 H 4122.29 V 6486.09 H 1772.44 Z" /></clipPath><clipPath
       id="clipPath1656"
       clipPathUnits="userSpaceOnUse"><path
         style="clip-rule:evenodd"
         id="path1654"
         d="M 1772.44,1900.28 H 4122.29 V 6486.09 H 1772.44 Z m 417.18,92.34 v -94.41 h 37.26 v 94.41 0 l -18.63,-74.54 z" /></clipPath><clipPath
       id="clipPath1666"
       clipPathUnits="userSpaceOnUse"><path
         id="path1664"
         d="M 1772.44,1900.28 H 4122.29 V 6486.09 H 1772.44 Z" /></clipPath><clipPath
       id="clipPath1676"
       clipPathUnits="userSpaceOnUse"><path
         style="clip-rule:evenodd"
         id="path1674"
         d="M 1772.44,1900.28 H 4122.29 V 6486.09 H 1772.44 Z m 2214.03,3808.4 h 94.41 v 37.27 h -94.41 v 0 l 74.53,-18.64 z" /></clipPath><clipPath
       id="clipPath1686"
       clipPathUnits="userSpaceOnUse"><path
         id="path1684"
         d="M 1772.44,1900.28 H 4122.29 V 6486.09 H 1772.44 Z" /></clipPath><clipPath
       id="clipPath1698"
       clipPathUnits="userSpaceOnUse"><path
         style="clip-rule:evenodd"
         id="path1696"
         d="M 1772.44,1900.28 H 4122.29 V 6486.09 H 1772.44 Z m 194.82,4266.77 41.62,-83.85 33.54,16.77 -41.62,83.85 v 0 l 16.77,-74.53 z" /></clipPath><clipPath
       id="clipPath1708"
       clipPathUnits="userSpaceOnUse"><path
         id="path1706"
         d="M 1772.44,1900.28 H 4122.29 V 6486.09 H 1772.44 Z" /></clipPath></defs><g
     transform="matrix(0,1.3333333,1.3333333,0,-253.37066,-238.45933)"
     id="g10"><g
       transform="scale(0.1)"
       id="g1252"><g
         id="g1254"
         clip-path="url(#clipPath1258)"><path
           d="m 2208.25,2779.55 c 18.52,0 33.54,-15.01 33.54,-33.53 0,-18.52 -15.02,-33.55 -33.54,-33.55 -18.52,0 -33.54,15.03 -33.54,33.55 0,18.52 15.02,33.53 33.54,33.53"
           style="fill:#000000;fill-opacity:1;fill-rule:evenodd;stroke:none"
           id="path1260" /><path
           d="m 2208.25,2779.55 c 18.52,0 33.54,-15.01 33.54,-33.53 0,-18.52 -15.02,-33.55 -33.54,-33.55 -18.52,0 -33.54,15.03 -33.54,33.55 0,18.52 15.02,33.53 33.54,33.53 z"
           style="fill:none;stroke:#000000;stroke-width:4.6582799;stroke-linecap:butt;stroke-linejoin:miter;stroke-miterlimit:10;stroke-dasharray:none;stroke-opacity:1"
           id="path1262" /><path
           d="m 2208.25,4270.2 c 18.52,0 33.54,-15.02 33.54,-33.54 0,-18.52 -15.02,-33.54 -33.54,-33.54 -18.52,0 -33.54,15.02 -33.54,33.54 0,18.52 15.02,33.54 33.54,33.54"
           style="fill:#000000;fill-opacity:1;fill-rule:evenodd;stroke:none"
           id="path1264" /><path
           d="m 2208.25,4270.2 c 18.52,0 33.54,-15.02 33.54,-33.54 0,-18.52 -15.02,-33.54 -33.54,-33.54 -18.52,0 -33.54,15.02 -33.54,33.54 0,18.52 15.02,33.54 33.54,33.54 z"
           style="fill:none;stroke:#000000;stroke-width:4.6582799;stroke-linecap:butt;stroke-linejoin:miter;stroke-miterlimit:10;stroke-dasharray:none;stroke-opacity:1"
           id="path1266" /><path
           d="m 2208.25,5760.85 c 18.52,0 33.54,-15.02 33.54,-33.54 0,-18.52 -15.02,-33.54 -33.54,-33.54 -18.52,0 -33.54,15.02 -33.54,33.54 0,18.52 15.02,33.54 33.54,33.54"
           style="fill:#000000;fill-opacity:1;fill-rule:evenodd;stroke:none"
           id="path1268" /><path
           d="m 2208.25,5760.85 c 18.52,0 33.54,-15.02 33.54,-33.54 0,-18.52 -15.02,-33.54 -33.54,-33.54 -18.52,0 -33.54,15.02 -33.54,33.54 0,18.52 15.02,33.54 33.54,33.54 z"
           style="fill:none;stroke:#000000;stroke-width:4.6582799;stroke-linecap:butt;stroke-linejoin:miter;stroke-miterlimit:10;stroke-dasharray:none;stroke-opacity:1"
           id="path1270" /><path
           d="m 2953.57,5760.85 c 18.52,0 33.54,-15.02 33.54,-33.54 0,-18.52 -15.02,-33.54 -33.54,-33.54 -18.52,0 -33.53,15.02 -33.53,33.54 0,18.52 15.01,33.54 33.53,33.54"
           style="fill:#000000;fill-opacity:1;fill-rule:evenodd;stroke:none"
           id="path1272" /><path
           d="m 2953.57,5760.85 c 18.52,0 33.54,-15.02 33.54,-33.54 0,-18.52 -15.02,-33.54 -33.54,-33.54 -18.52,0 -33.53,15.02 -33.53,33.54 0,18.52 15.01,33.54 33.53,33.54 z"
           style="fill:none;stroke:#000000;stroke-width:4.6582799;stroke-linecap:butt;stroke-linejoin:miter;stroke-miterlimit:10;stroke-dasharray:none;stroke-opacity:1"
           id="path1274" /><path
           d="m 2953.57,4270.2 c 18.52,0 33.54,-15.02 33.54,-33.54 0,-18.52 -15.02,-33.54 -33.54,-33.54 -18.52,0 -33.53,15.02 -33.53,33.54 0,18.52 15.01,33.54 33.53,33.54"
           style="fill:#000000;fill-opacity:1;fill-rule:evenodd;stroke:none"
           id="path1276" /><path
           d="m 2953.57,4270.2 c 18.52,0 33.54,-15.02 33.54,-33.54 0,-18.52 -15.02,-33.54 -33.54,-33.54 -18.52,0 -33.53,15.02 -33.53,33.54 0,18.52 15.01,33.54 33.53,33.54 z"
           style="fill:none;stroke:#000000;stroke-width:4.6582799;stroke-linecap:butt;stroke-linejoin:miter;stroke-miterlimit:10;stroke-dasharray:none;stroke-opacity:1"
           id="path1278" /><path
           d="m 2953.57,2779.55 c 18.52,0 33.54,-15.01 33.54,-33.53 0,-18.52 -15.02,-33.55 -33.54,-33.55 -18.52,0 -33.53,15.03 -33.53,33.55 0,18.52 15.01,33.53 33.53,33.53"
           style="fill:#000000;fill-opacity:1;fill-rule:evenodd;stroke:none"
           id="path1280" /><path
           d="m 2953.57,2779.55 c 18.52,0 33.54,-15.01 33.54,-33.53 0,-18.52 -15.02,-33.55 -33.54,-33.55 -18.52,0 -33.53,15.03 -33.53,33.55 0,18.52 15.01,33.53 33.53,33.53 z"
           style="fill:none;stroke:#000000;stroke-width:4.6582799;stroke-linecap:butt;stroke-linejoin:miter;stroke-miterlimit:10;stroke-dasharray:none;stroke-opacity:1"
           id="path1282" /><path
           d="m 3698.9,4270.2 c 18.52,0 33.54,-15.02 33.54,-33.54 0,-18.52 -15.02,-33.54 -33.54,-33.54 -18.52,0 -33.54,15.02 -33.54,33.54 0,18.52 15.02,33.54 33.54,33.54"
           style="fill:#000000;fill-opacity:1;fill-rule:evenodd;stroke:none"
           id="path1284" /><path
           d="m 3698.9,4270.2 c 18.52,0 33.54,-15.02 33.54,-33.54 0,-18.52 -15.02,-33.54 -33.54,-33.54 -18.52,0 -33.54,15.02 -33.54,33.54 0,18.52 15.02,33.54 33.54,33.54 z"
           style="fill:none;stroke:#000000;stroke-width:4.6582799;stroke-linecap:butt;stroke-linejoin:miter;stroke-miterlimit:10;stroke-dasharray:none;stroke-opacity:1"
           id="path1286" /><path
           d="m 3698.9,5760.85 c 18.52,0 33.54,-15.02 33.54,-33.54 0,-18.52 -15.02,-33.54 -33.54,-33.54 -18.52,0 -33.54,15.02 -33.54,33.54 0,18.52 15.02,33.54 33.54,33.54"
           style="fill:#000000;fill-opacity:1;fill-rule:evenodd;stroke:none"
           id="path1288" /><path
           d="m 3698.9,5760.85 c 18.52,0 33.54,-15.02 33.54,-33.54 0,-18.52 -15.02,-33.54 -33.54,-33.54 -18.52,0 -33.54,15.02 -33.54,33.54 0,18.52 15.02,33.54 33.54,33.54 z"
           style="fill:none;stroke:#000000;stroke-width:4.6582799;stroke-linecap:butt;stroke-linejoin:miter;stroke-miterlimit:10;stroke-dasharray:none;stroke-opacity:1"
           id="path1290" /></g></g><g
       transform="scale(0.1)"
       id="g1292"><g
         id="g1294"
         clip-path="url(#clipPath1298)"><path
           d="M 1835.59,4236.66 H 4071.56"
           style="fill:none;stroke:#000000;stroke-width:4.6582799;stroke-linecap:butt;stroke-linejoin:miter;stroke-miterlimit:10;stroke-dasharray:none;stroke-opacity:1"
           id="path1300" /></g></g><g
       transform="scale(0.1)"
       id="g1302"><g
         id="g1304"
         clip-path="url(#clipPath1308)"><path
           d="m 3986.47,4218.03 74.53,18.63 -74.53,18.64"
           style="fill:none;stroke:#000000;stroke-width:4.6582799;stroke-linecap:butt;stroke-linejoin:miter;stroke-miterlimit:10;stroke-dasharray:none;stroke-opacity:1"
           id="path1310" /><path
           d="M 3698.9,6472.64 V 4236.66"
           style="fill:none;stroke:#000000;stroke-width:4.6582799;stroke-linecap:butt;stroke-linejoin:miter;stroke-miterlimit:10;stroke-dasharray:none;stroke-opacity:1"
           id="path1312" /></g></g><g
       transform="scale(0.1)"
       id="g1314"><g
         id="g1316"
         clip-path="url(#clipPath1320)"><g
           id="g1322"
           clip-path="url(#clipPath1326)"><path
             d="M 2953.57,6472.64 V 1907.52"
             style="fill:none;stroke:#000000;stroke-width:4.6582799;stroke-linecap:butt;stroke-linejoin:miter;stroke-miterlimit:10;stroke-dasharray:none;stroke-opacity:1"
             id="path1328" /></g></g></g><g
       transform="scale(0.1)"
       id="g1330"><g
         id="g1332"
         clip-path="url(#clipPath1336)"><path
           d="m 2934.94,1992.62 18.63,-74.54 18.64,74.54"
           style="fill:none;stroke:#000000;stroke-width:4.6582799;stroke-linecap:butt;stroke-linejoin:miter;stroke-miterlimit:10;stroke-dasharray:none;stroke-opacity:1"
           id="path1338" /><path
           d="M 1835.59,2746.02 H 2953.57"
           style="fill:none;stroke:#000000;stroke-width:4.6582799;stroke-linecap:butt;stroke-linejoin:miter;stroke-miterlimit:10;stroke-dasharray:none;stroke-opacity:1"
           id="path1340" /></g></g><g
       transform="scale(0.1)"
       id="g1342"><g
         id="g1344"
         clip-path="url(#clipPath1348)"><path
           d="M 2953.57,4236.66 3698.9,2746.02"
           style="fill:none;stroke:#000000;stroke-width:4.6582799;stroke-linecap:butt;stroke-linejoin:miter;stroke-miterlimit:10;stroke-dasharray:none;stroke-opacity:1"
           id="path1350" /></g></g><g
       transform="scale(0.1)"
       id="g1352"><g
         id="g1354"
         clip-path="url(#clipPath1358)"><path
           d="m 3644.24,2813.09 50.31,-57.76 -16.77,74.53"
           style="fill:none;stroke:#000000;stroke-width:4.6582799;stroke-linecap:butt;stroke-linejoin:miter;stroke-miterlimit:10;stroke-dasharray:none;stroke-opacity:1"
           id="path1360" /></g></g><g
       transform="scale(0.1)"
       id="g1362"><g
         id="g1364"
         clip-path="url(#clipPath1368)"><path
           d="M 3698.9,6472.64 V 6099.97"
           style="fill:none;stroke:#000000;stroke-width:4.6582799;stroke-linecap:butt;stroke-linejoin:miter;stroke-miterlimit:10;stroke-dasharray:none;stroke-opacity:1"
           id="path1370" /></g></g><g
       transform="scale(0.1)"
       id="g1372"><g
         id="g1374"
         clip-path="url(#clipPath1378)"><path
           d="m 3680.27,6185.06 18.63,-74.53 18.63,74.53"
           style="fill:none;stroke:#000000;stroke-width:4.6582799;stroke-linecap:butt;stroke-linejoin:miter;stroke-miterlimit:10;stroke-dasharray:none;stroke-opacity:1"
           id="path1380" /></g></g><g
       transform="scale(0.1)"
       id="g1382"><g
         id="g1384"
         clip-path="url(#clipPath1388)"><path
           d="M 2953.57,6472.64 V 6099.97"
           style="fill:none;stroke:#000000;stroke-width:4.6582799;stroke-linecap:butt;stroke-linejoin:miter;stroke-miterlimit:10;stroke-dasharray:none;stroke-opacity:1"
           id="path1390" /></g></g><g
       transform="scale(0.1)"
       id="g1392"><g
         id="g1394"
         clip-path="url(#clipPath1398)"><path
           d="m 2934.94,6185.06 18.63,-74.53 18.64,74.53"
           style="fill:none;stroke:#000000;stroke-width:4.6582799;stroke-linecap:butt;stroke-linejoin:miter;stroke-miterlimit:10;stroke-dasharray:none;stroke-opacity:1"
           id="path1400" /></g></g><g
       transform="scale(0.1)"
       id="g1402"><g
         id="g1404"
         clip-path="url(#clipPath1408)"><path
           d="m 1835.59,4236.66 h 186.33"
           style="fill:none;stroke:#000000;stroke-width:4.6582799;stroke-linecap:butt;stroke-linejoin:miter;stroke-miterlimit:10;stroke-dasharray:none;stroke-opacity:1"
           id="path1410" /></g></g><g
       transform="scale(0.1)"
       id="g1412"><g
         id="g1414"
         clip-path="url(#clipPath1418)"><path
           d="m 1936.83,4218.03 74.53,18.63 -74.53,18.64"
           style="fill:none;stroke:#000000;stroke-width:4.6582799;stroke-linecap:butt;stroke-linejoin:miter;stroke-miterlimit:10;stroke-dasharray:none;stroke-opacity:1"
           id="path1420" /></g></g><g
       transform="scale(0.1)"
       id="g1422"><g
         id="g1424"
         clip-path="url(#clipPath1428)"><path
           d="m 1835.59,2746.02 h 186.33"
           style="fill:none;stroke:#000000;stroke-width:4.6582799;stroke-linecap:butt;stroke-linejoin:miter;stroke-miterlimit:10;stroke-dasharray:none;stroke-opacity:1"
           id="path1430" /></g></g><g
       transform="scale(0.1)"
       id="g1432"><g
         id="g1434"
         clip-path="url(#clipPath1438)"><path
           d="m 1936.83,2727.38 74.53,18.64 -74.53,18.63"
           style="fill:none;stroke:#000000;stroke-width:4.6582799;stroke-linecap:butt;stroke-linejoin:miter;stroke-miterlimit:10;stroke-dasharray:none;stroke-opacity:1"
           id="path1440" /></g></g><g
       transform="scale(0.1)"
       id="g1442"><g
         id="g1444"
         clip-path="url(#clipPath1448)"><path
           d="m 2208.25,2746.02 h 372.66"
           style="fill:none;stroke:#000000;stroke-width:4.6582799;stroke-linecap:butt;stroke-linejoin:miter;stroke-miterlimit:10;stroke-dasharray:none;stroke-opacity:1"
           id="path1450" /></g></g><g
       transform="scale(0.1)"
       id="g1452"><g
         id="g1454"
         clip-path="url(#clipPath1458)"><path
           d="m 2495.82,2727.38 74.54,18.64 -74.54,18.63"
           style="fill:none;stroke:#000000;stroke-width:4.6582799;stroke-linecap:butt;stroke-linejoin:miter;stroke-miterlimit:10;stroke-dasharray:none;stroke-opacity:1"
           id="path1460" /><path
           d="m 2580.91,2743.53 v 4.97"
           style="fill:none;stroke:#000000;stroke-width:4.6582799;stroke-linecap:butt;stroke-linejoin:miter;stroke-miterlimit:10;stroke-dasharray:none;stroke-opacity:1"
           id="path1462" /></g></g><g
       transform="scale(0.1)"
       id="g1464"><g
         id="g1466"
         clip-path="url(#clipPath1470)"><path
           d="m 2208.25,4236.66 h 372.66"
           style="fill:none;stroke:#000000;stroke-width:4.6582799;stroke-linecap:butt;stroke-linejoin:miter;stroke-miterlimit:10;stroke-dasharray:none;stroke-opacity:1"
           id="path1472" /></g></g><g
       transform="scale(0.1)"
       id="g1474"><g
         id="g1476"
         clip-path="url(#clipPath1480)"><path
           d="m 2495.82,4218.03 74.54,18.63 -74.54,18.64"
           style="fill:none;stroke:#000000;stroke-width:4.6582799;stroke-linecap:butt;stroke-linejoin:miter;stroke-miterlimit:10;stroke-dasharray:none;stroke-opacity:1"
           id="path1482" /></g></g><g
       transform="scale(0.1)"
       id="g1484"><g
         id="g1486"
         clip-path="url(#clipPath1490)"><path
           d="m 2208.25,5727.31 h 372.66"
           style="fill:none;stroke:#000000;stroke-width:4.6582799;stroke-linecap:butt;stroke-linejoin:miter;stroke-miterlimit:10;stroke-dasharray:none;stroke-opacity:1"
           id="path1492" /></g></g><g
       transform="scale(0.1)"
       id="g1494"><g
         id="g1496"
         clip-path="url(#clipPath1500)"><path
           d="m 2495.82,5708.68 74.54,18.63 -74.54,18.64"
           style="fill:none;stroke:#000000;stroke-width:4.6582799;stroke-linecap:butt;stroke-linejoin:miter;stroke-miterlimit:10;stroke-dasharray:none;stroke-opacity:1"
           id="path1502" /></g></g><g
       transform="scale(0.1)"
       id="g1504"><g
         id="g1506"
         clip-path="url(#clipPath1510)"><path
           d="M 2208.25,4236.66 V 3491.34"
           style="fill:none;stroke:#000000;stroke-width:4.6582799;stroke-linecap:butt;stroke-linejoin:miter;stroke-miterlimit:10;stroke-dasharray:none;stroke-opacity:1"
           id="path1512" /></g></g><g
       transform="scale(0.1)"
       id="g1514"><g
         id="g1516"
         clip-path="url(#clipPath1520)"><path
           d="m 2189.62,3576.43 18.63,-74.53 18.63,74.53"
           style="fill:none;stroke:#000000;stroke-width:4.6582799;stroke-linecap:butt;stroke-linejoin:miter;stroke-miterlimit:10;stroke-dasharray:none;stroke-opacity:1"
           id="path1522" /></g></g><g
       transform="scale(0.1)"
       id="g1524"><g
         id="g1526"
         clip-path="url(#clipPath1530)"><path
           d="M 2953.57,4236.66 V 3491.34"
           style="fill:none;stroke:#000000;stroke-width:4.6582799;stroke-linecap:butt;stroke-linejoin:miter;stroke-miterlimit:10;stroke-dasharray:none;stroke-opacity:1"
           id="path1532" /></g></g><g
       transform="scale(0.1)"
       id="g1534"><g
         id="g1536"
         clip-path="url(#clipPath1540)"><path
           d="m 2934.94,3576.43 18.63,-74.53 18.64,74.53"
           style="fill:none;stroke:#000000;stroke-width:4.6582799;stroke-linecap:butt;stroke-linejoin:miter;stroke-miterlimit:10;stroke-dasharray:none;stroke-opacity:1"
           id="path1542" /></g></g><g
       transform="scale(0.1)"
       id="g1544"><g
         id="g1546"
         clip-path="url(#clipPath1550)"><path
           d="M 2953.57,5727.31 V 4981.99"
           style="fill:none;stroke:#000000;stroke-width:4.6582799;stroke-linecap:butt;stroke-linejoin:miter;stroke-miterlimit:10;stroke-dasharray:none;stroke-opacity:1"
           id="path1552" /></g></g><g
       transform="scale(0.1)"
       id="g1554"><g
         id="g1556"
         clip-path="url(#clipPath1560)"><path
           d="m 2934.94,5067.08 18.63,-74.53 18.64,74.53"
           style="fill:none;stroke:#000000;stroke-width:4.6582799;stroke-linecap:butt;stroke-linejoin:miter;stroke-miterlimit:10;stroke-dasharray:none;stroke-opacity:1"
           id="path1562" /></g></g><g
       transform="scale(0.1)"
       id="g1564"><g
         id="g1566"
         clip-path="url(#clipPath1570)"><path
           d="M 2208.25,5680.73 V 4981.99"
           style="fill:none;stroke:#000000;stroke-width:4.6582799;stroke-linecap:butt;stroke-linejoin:miter;stroke-miterlimit:10;stroke-dasharray:none;stroke-opacity:1"
           id="path1572" /></g></g><g
       transform="scale(0.1)"
       id="g1574"><g
         id="g1576"
         clip-path="url(#clipPath1580)"><path
           d="m 2189.62,5067.08 18.63,-74.53 18.63,74.53"
           style="fill:none;stroke:#000000;stroke-width:4.6582799;stroke-linecap:butt;stroke-linejoin:miter;stroke-miterlimit:10;stroke-dasharray:none;stroke-opacity:1"
           id="path1582" /></g></g><g
       transform="scale(0.1)"
       id="g1584"><g
         id="g1586"
         clip-path="url(#clipPath1590)"><path
           d="M 3698.9,5727.31 V 4981.99"
           style="fill:none;stroke:#000000;stroke-width:4.6582799;stroke-linecap:butt;stroke-linejoin:miter;stroke-miterlimit:10;stroke-dasharray:none;stroke-opacity:1"
           id="path1592" /></g></g><g
       transform="scale(0.1)"
       id="g1594"><g
         id="g1596"
         clip-path="url(#clipPath1600)"><path
           d="m 3680.27,5067.08 18.63,-74.53 18.63,74.53"
           style="fill:none;stroke:#000000;stroke-width:4.6582799;stroke-linecap:butt;stroke-linejoin:miter;stroke-miterlimit:10;stroke-dasharray:none;stroke-opacity:1"
           id="path1602" /></g></g><g
       transform="scale(0.1)"
       id="g1604"><g
         id="g1606"
         clip-path="url(#clipPath1610)"><path
           d="m 2953.57,4236.66 h 372.67"
           style="fill:none;stroke:#000000;stroke-width:4.6582799;stroke-linecap:butt;stroke-linejoin:miter;stroke-miterlimit:10;stroke-dasharray:none;stroke-opacity:1"
           id="path1612" /></g></g><g
       transform="scale(0.1)"
       id="g1614"><g
         id="g1616"
         clip-path="url(#clipPath1620)"><path
           d="m 3241.14,4218.03 74.54,18.63 -74.54,18.64"
           style="fill:none;stroke:#000000;stroke-width:4.6582799;stroke-linecap:butt;stroke-linejoin:miter;stroke-miterlimit:10;stroke-dasharray:none;stroke-opacity:1"
           id="path1622" /></g></g><g
       transform="scale(0.1)"
       id="g1624"><g
         id="g1626"
         clip-path="url(#clipPath1630)"><path
           d="m 2953.57,5727.31 h 372.67"
           style="fill:none;stroke:#000000;stroke-width:4.6582799;stroke-linecap:butt;stroke-linejoin:miter;stroke-miterlimit:10;stroke-dasharray:none;stroke-opacity:1"
           id="path1632" /></g></g><g
       transform="scale(0.1)"
       id="g1634"><g
         id="g1636"
         clip-path="url(#clipPath1640)"><path
           d="m 3241.14,5708.68 74.54,18.63 -74.54,18.64"
           style="fill:none;stroke:#000000;stroke-width:4.6582799;stroke-linecap:butt;stroke-linejoin:miter;stroke-miterlimit:10;stroke-dasharray:none;stroke-opacity:1"
           id="path1642" /></g></g><g
       transform="scale(0.1)"
       id="g1644"><g
         id="g1646"
         clip-path="url(#clipPath1650)"><g
           id="g1652"
           clip-path="url(#clipPath1656)"><path
             d="M 2208.25,5727.31 V 1907.52"
             style="fill:none;stroke:#000000;stroke-width:4.6582799;stroke-linecap:butt;stroke-linejoin:miter;stroke-miterlimit:10;stroke-dasharray:none;stroke-opacity:1"
             id="path1658" /></g></g></g><g
       transform="scale(0.1)"
       id="g1660"><g
         id="g1662"
         clip-path="url(#clipPath1666)"><path
           d="m 2189.62,1992.62 18.63,-74.54 18.63,74.54"
           style="fill:none;stroke:#000000;stroke-width:4.6582799;stroke-linecap:butt;stroke-linejoin:miter;stroke-miterlimit:10;stroke-dasharray:none;stroke-opacity:1"
           id="path1668" /></g></g><g
       transform="scale(0.1)"
       id="g1670"><g
         id="g1672"
         clip-path="url(#clipPath1676)"><path
           d="M 2208.25,5727.31 H 4071.56"
           style="fill:none;stroke:#000000;stroke-width:4.6582799;stroke-linecap:butt;stroke-linejoin:miter;stroke-miterlimit:10;stroke-dasharray:none;stroke-opacity:1"
           id="path1678" /></g></g><g
       transform="scale(0.1)"
       id="g1680"><g
         id="g1682"
         clip-path="url(#clipPath1686)"><path
           d="m 3986.47,5708.68 74.53,18.63 -74.53,18.64"
           style="fill:none;stroke:#000000;stroke-width:4.6582799;stroke-linecap:butt;stroke-linejoin:miter;stroke-miterlimit:10;stroke-dasharray:none;stroke-opacity:1"
           id="path1688" /><path
           d="m 1835.59,6472.64 372.66,-745.33"
           style="fill:none;stroke:#000000;stroke-width:4.6582799;stroke-linecap:butt;stroke-linejoin:miter;stroke-miterlimit:10;stroke-dasharray:none;stroke-opacity:1"
           id="path1690" /></g></g><g
       transform="scale(0.1)"
       id="g1692"><g
         id="g1694"
         clip-path="url(#clipPath1698)"><path
           d="m 1835.59,6472.64 186.33,-372.67"
           style="fill:none;stroke:#000000;stroke-width:4.6582799;stroke-linecap:butt;stroke-linejoin:miter;stroke-miterlimit:10;stroke-dasharray:none;stroke-opacity:1"
           id="path1700" /></g></g><g
       transform="scale(0.1)"
       id="g1702"><g
         id="g1704"
         clip-path="url(#clipPath1708)"><path
           d="m 1967.26,6167.05 50.31,-57.76 -16.77,74.53"
           style="fill:none;stroke:#000000;stroke-width:4.6582799;stroke-linecap:butt;stroke-linejoin:miter;stroke-miterlimit:10;stroke-dasharray:none;stroke-opacity:1"
           id="path1710" /><path
           d="m 2161.67,2140.44 46.58,-186.33 46.58,186.33"
           style="fill:none;stroke:#000000;stroke-width:4.6582799;stroke-linecap:butt;stroke-linejoin:miter;stroke-miterlimit:10;stroke-dasharray:none;stroke-opacity:1"
           id="path1712" /><path
           d="m 2906.99,2093.86 46.58,-186.34 46.59,186.34"
           style="fill:none;stroke:#000000;stroke-width:4.6582799;stroke-linecap:butt;stroke-linejoin:miter;stroke-miterlimit:10;stroke-dasharray:none;stroke-opacity:1"
           id="path1714" /><path
           d="m 2161.67,3724.25 46.58,-186.33 46.58,186.33"
           style="fill:none;stroke:#000000;stroke-width:4.6582799;stroke-linecap:butt;stroke-linejoin:miter;stroke-miterlimit:10;stroke-dasharray:none;stroke-opacity:1"
           id="path1716" /><path
           d="m 2906.99,3724.25 46.58,-186.33 46.59,186.33"
           style="fill:none;stroke:#000000;stroke-width:4.6582799;stroke-linecap:butt;stroke-linejoin:miter;stroke-miterlimit:10;stroke-dasharray:none;stroke-opacity:1"
           id="path1718" /><path
           d="m 2161.67,5214.9 46.58,-186.33 46.58,186.33"
           style="fill:none;stroke:#000000;stroke-width:4.6582799;stroke-linecap:butt;stroke-linejoin:miter;stroke-miterlimit:10;stroke-dasharray:none;stroke-opacity:1"
           id="path1720" /><path
           d="m 2906.99,5214.9 46.58,-186.33 46.59,186.33"
           style="fill:none;stroke:#000000;stroke-width:4.6582799;stroke-linecap:butt;stroke-linejoin:miter;stroke-miterlimit:10;stroke-dasharray:none;stroke-opacity:1"
           id="path1722" /><path
           d="m 3652.32,6332.89 46.58,-186.34 46.58,186.34"
           style="fill:none;stroke:#000000;stroke-width:4.6582799;stroke-linecap:butt;stroke-linejoin:miter;stroke-miterlimit:10;stroke-dasharray:none;stroke-opacity:1"
           id="path1724" /><path
           d="m 3652.32,5214.9 46.58,-186.33 46.58,186.33"
           style="fill:none;stroke:#000000;stroke-width:4.6582799;stroke-linecap:butt;stroke-linejoin:miter;stroke-miterlimit:10;stroke-dasharray:none;stroke-opacity:1"
           id="path1726" /><path
           d="m 2906.99,6332.89 46.58,-186.34 46.59,186.34"
           style="fill:none;stroke:#000000;stroke-width:4.6582799;stroke-linecap:butt;stroke-linejoin:miter;stroke-miterlimit:10;stroke-dasharray:none;stroke-opacity:1"
           id="path1728" /><path
           d="m 2348,2699.43 186.33,46.59 -186.33,46.58"
           style="fill:none;stroke:#000000;stroke-width:4.6582799;stroke-linecap:butt;stroke-linejoin:miter;stroke-miterlimit:10;stroke-dasharray:none;stroke-opacity:1"
           id="path1730" /><path
           d="m 1789.01,2699.43 186.33,46.59 -186.33,46.58"
           style="fill:none;stroke:#000000;stroke-width:4.6582799;stroke-linecap:butt;stroke-linejoin:miter;stroke-miterlimit:10;stroke-dasharray:none;stroke-opacity:1"
           id="path1732" /><path
           d="m 3885.23,4190.08 186.33,46.58 -186.33,46.59"
           style="fill:none;stroke:#000000;stroke-width:4.6582799;stroke-linecap:butt;stroke-linejoin:miter;stroke-miterlimit:10;stroke-dasharray:none;stroke-opacity:1"
           id="path1734" /><path
           d="m 3093.32,4190.08 186.34,46.58 -186.34,46.59"
           style="fill:none;stroke:#000000;stroke-width:4.6582799;stroke-linecap:butt;stroke-linejoin:miter;stroke-miterlimit:10;stroke-dasharray:none;stroke-opacity:1"
           id="path1736" /><path
           d="m 2348,4190.08 186.33,46.58 -186.33,46.59"
           style="fill:none;stroke:#000000;stroke-width:4.6582799;stroke-linecap:butt;stroke-linejoin:miter;stroke-miterlimit:10;stroke-dasharray:none;stroke-opacity:1"
           id="path1738" /><path
           d="m 1789.01,4190.08 186.33,46.58 -186.33,46.59"
           style="fill:none;stroke:#000000;stroke-width:4.6582799;stroke-linecap:butt;stroke-linejoin:miter;stroke-miterlimit:10;stroke-dasharray:none;stroke-opacity:1"
           id="path1740" /><path
           d="m 3885.23,5680.73 186.33,46.58 -186.33,46.58"
           style="fill:none;stroke:#000000;stroke-width:4.6582799;stroke-linecap:butt;stroke-linejoin:miter;stroke-miterlimit:10;stroke-dasharray:none;stroke-opacity:1"
           id="path1742" /><path
           d="m 3093.32,5680.73 186.34,46.58 -186.34,46.58"
           style="fill:none;stroke:#000000;stroke-width:4.6582799;stroke-linecap:butt;stroke-linejoin:miter;stroke-miterlimit:10;stroke-dasharray:none;stroke-opacity:1"
           id="path1744" /><path
           d="m 2348,5680.73 186.33,46.58 -186.33,46.58"
           style="fill:none;stroke:#000000;stroke-width:4.6582799;stroke-linecap:butt;stroke-linejoin:miter;stroke-miterlimit:10;stroke-dasharray:none;stroke-opacity:1"
           id="path1746" /><path
           d="m 3652.32,2932.34 46.58,-186.32 -139.75,139.74"
           style="fill:none;stroke:#000000;stroke-width:4.6582799;stroke-linecap:butt;stroke-linejoin:miter;stroke-miterlimit:10;stroke-dasharray:none;stroke-opacity:1"
           id="path1748" /><path
           d="m 1975.34,6286.3 46.58,-186.33 -139.75,139.75"
           style="fill:none;stroke:#000000;stroke-width:4.6582799;stroke-linecap:butt;stroke-linejoin:miter;stroke-miterlimit:10;stroke-dasharray:none;stroke-opacity:1"
           id="path1750" /><g
           id="g1752"
           transform="scale(10)"><text
             transform="matrix(0,1,1,0,407.156,428.325)"
             style="font-variant:normal;font-weight:normal;font-size:14.4921999px;font-family:'Times New Roman';-inkscape-font-specification:Times-Roman;writing-mode:lr-tb;fill:#000000;fill-opacity:1;fill-rule:nonzero;stroke:none"
             id="text1782"><tspan
               x="0 7.2460999 149.06474 156.31084"
               y="0"
               id="tspan1754">y1y2</tspan><tspan
               x="0 7.2460999 -149.065 -141.81889"
               y="-204.964"
               id="tspan1756">y6y7</tspan><tspan
               x="-232.9142 -225.66811"
               y="-167.6976"
               id="tspan1758">y8</tspan><tspan
               x="-232.9142 -225.66811"
               y="-93.165199"
               id="tspan1760">y9</tspan><tspan
               x="-144.4068 -137.16071 -129.9146"
               y="-27.9492"
               id="tspan1762">y10</tspan><tspan
               x="69.874199 77.1203 84.366402"
               y="-93.165199"
               id="tspan1764">y11</tspan><tspan
               x="0 7.2460999 14.4922"
               y="-149.06441"
               id="tspan1766">y12</tspan><tspan
               x="69.874199 77.1203 -79.190804 -71.944702"
               y="-167.6976"
               id="tspan1768">x1x2</tspan><tspan
               x="149.06419 156.3103 -149.0658 -141.8197"
               y="-149.06441"
               id="tspan1770">x3x4</tspan><tspan
               x="-79.191597 -71.945503"
               y="-93.165199"
               id="tspan1772">x5</tspan><tspan
               x="149.0634 156.30949 -0.0016 7.2445002"
               y="-74.531998"
               id="tspan1774">x6x7</tspan><tspan
               x="69.872597 77.118698 186.32916 193.57527"
               y="-18.632799"
               id="tspan1776">x8y3</tspan><tspan
               x="186.32961 193.5757"
               y="-93.165199"
               id="tspan1778">y4</tspan><tspan
               x="186.32961 193.5757"
               y="-190.989"
               id="tspan1780">y5</tspan></text>
</g></g></g></g></svg>
