<?xml version="1.0" encoding="UTF-8" standalone="no"?>
<svg
   xmlns:dc="http://purl.org/dc/elements/1.1/"
   xmlns:cc="http://creativecommons.org/ns#"
   xmlns:rdf="http://www.w3.org/1999/02/22-rdf-syntax-ns#"
   xmlns:svg="http://www.w3.org/2000/svg"
   xmlns="http://www.w3.org/2000/svg"
   viewBox="0 0 722.80786 309.76941"
   height="309.76941"
   width="722.80786"
   xml:space="preserve"
   id="svg2"
   version="1.1"><metadata
     id="metadata8"><rdf:RDF><cc:Work
         rdf:about=""><dc:format>image/svg+xml</dc:format><dc:type
           rdf:resource="http://purl.org/dc/dcmitype/StillImage" /><dc:title></dc:title></cc:Work></rdf:RDF></metadata><defs
     id="defs6"><clipPath
       id="clipPath20"
       clipPathUnits="userSpaceOnUse"><path
         id="path18"
         d="M 603,0 H 735 V 8420 H 603 Z" /></clipPath><clipPath
       id="clipPath632"
       clipPathUnits="userSpaceOnUse"><path
         id="path630"
         d="m 5747,0 h 73 v 8420 h -73 z" /></clipPath><clipPath
       id="clipPath1258"
       clipPathUnits="userSpaceOnUse"><path
         id="path1256"
         d="M 1825.24,1455.08 H 4175.09 V 3883.25 H 1825.24 Z" /></clipPath><clipPath
       id="clipPath1338"
       clipPathUnits="userSpaceOnUse"><path
         id="path1336"
         d="M 1825.24,4505.48 H 4175.09 V 6933.65 H 1825.24 Z" /></clipPath></defs><g
     transform="matrix(0,1.3333333,1.3333333,0,-197.80065,-245.81162)"
     id="g10"><g
       transform="scale(0.1)"
       clip-path="url(#clipPath1258)"
       id="g1254"><path
         id="path1260"
         style="fill:none;stroke:#000000;stroke-width:5.03537989;stroke-linecap:butt;stroke-linejoin:miter;stroke-miterlimit:10;stroke-dasharray:none;stroke-opacity:1"
         d="m 2352.26,1767.25 c -213.68,213.68 -333.72,503.5 -333.72,805.68 0,629.28 510.12,1139.41 1139.4,1139.41 302.19,0 592,-120.05 805.68,-333.73" /><path
         id="path1262"
         style="fill:#ffff00;fill-opacity:1;fill-rule:evenodd;stroke:none"
         d="m 2352.26,1767.25 c -213.68,213.68 -333.72,503.5 -333.72,805.68 0,629.28 510.12,1139.41 1139.4,1139.41 302.19,0 592,-120.05 805.68,-333.73" /><path
         id="path1264"
         style="fill:none;stroke:#000000;stroke-width:5.03537989;stroke-linecap:butt;stroke-linejoin:miter;stroke-miterlimit:10;stroke-dasharray:none;stroke-opacity:1"
         d="m 2352.26,1767.25 c -213.68,213.68 -333.72,503.5 -333.72,805.68 0,629.28 510.12,1139.41 1139.4,1139.41 302.19,0 592,-120.05 805.68,-333.73" /><path
         id="path1266"
         style="fill:#000000;fill-opacity:1;fill-rule:evenodd;stroke:none"
         d="m 3963.6,1792.79 c 14.09,0 25.51,-11.43 25.51,-25.52 0,-14.09 -11.42,-25.51 -25.51,-25.51 -14.09,0 -25.51,11.42 -25.51,25.51 0,14.09 11.42,25.52 25.51,25.52" /><path
         id="path1268"
         style="fill:none;stroke:#000000;stroke-width:5.03537989;stroke-linecap:butt;stroke-linejoin:miter;stroke-miterlimit:10;stroke-dasharray:none;stroke-opacity:1"
         d="m 3963.6,1792.79 c 14.09,0 25.51,-11.43 25.51,-25.52 0,-14.09 -11.42,-25.51 -25.51,-25.51 -14.09,0 -25.51,11.42 -25.51,25.51 0,14.09 11.42,25.52 25.51,25.52 z" /><path
         id="path1270"
         style="fill:#000000;fill-opacity:1;fill-rule:evenodd;stroke:none"
         d="m 3963.6,3404.11 c 14.09,0 25.51,-11.43 25.51,-25.52 0,-14.09 -11.42,-25.51 -25.51,-25.51 -14.09,0 -25.51,11.42 -25.51,25.51 0,14.09 11.42,25.52 25.51,25.52" /><path
         id="path1272"
         style="fill:none;stroke:#000000;stroke-width:5.03537989;stroke-linecap:butt;stroke-linejoin:miter;stroke-miterlimit:10;stroke-dasharray:none;stroke-opacity:1"
         d="m 3963.6,3404.11 c 14.09,0 25.51,-11.43 25.51,-25.52 0,-14.09 -11.42,-25.51 -25.51,-25.51 -14.09,0 -25.51,11.42 -25.51,25.51 0,14.09 11.42,25.52 25.51,25.52 z" /><path
         id="path1274"
         style="fill:#000000;fill-opacity:1;fill-rule:evenodd;stroke:none"
         d="m 2352.28,1792.79 c 14.09,0 25.51,-11.43 25.51,-25.52 0,-14.09 -11.42,-25.51 -25.51,-25.51 -14.09,0 -25.51,11.42 -25.51,25.51 0,14.09 11.42,25.52 25.51,25.52" /><path
         id="path1276"
         style="fill:none;stroke:#000000;stroke-width:5.03537989;stroke-linecap:butt;stroke-linejoin:miter;stroke-miterlimit:10;stroke-dasharray:none;stroke-opacity:1"
         d="m 2352.28,1792.79 c 14.09,0 25.51,-11.43 25.51,-25.52 0,-14.09 -11.42,-25.51 -25.51,-25.51 -14.09,0 -25.51,11.42 -25.51,25.51 0,14.09 11.42,25.52 25.51,25.52 z" /><path
         id="path1278"
         style="fill:#000000;fill-opacity:1;fill-rule:evenodd;stroke:none"
         d="m 2352.28,3404.11 c 14.09,0 25.51,-11.43 25.51,-25.52 0,-14.09 -11.42,-25.51 -25.51,-25.51 -14.09,0 -25.51,11.42 -25.51,25.51 0,14.09 11.42,25.52 25.51,25.52" /><path
         id="path1280"
         style="fill:none;stroke:#000000;stroke-width:5.03537989;stroke-linecap:butt;stroke-linejoin:miter;stroke-miterlimit:10;stroke-dasharray:none;stroke-opacity:1"
         d="m 2352.28,3404.11 c 14.09,0 25.51,-11.43 25.51,-25.52 0,-14.09 -11.42,-25.51 -25.51,-25.51 -14.09,0 -25.51,11.42 -25.51,25.51 0,14.09 11.42,25.52 25.51,25.52 z" /><path
         id="path1282"
         style="fill:#000000;fill-opacity:1;fill-rule:evenodd;stroke:none"
         d="m 2855.82,3706.23 c 14.09,0 25.51,-11.43 25.51,-25.52 0,-14.08 -11.42,-25.51 -25.51,-25.51 -14.09,0 -25.52,11.43 -25.52,25.51 0,14.09 11.43,25.52 25.52,25.52" /><path
         id="path1284"
         style="fill:none;stroke:#000000;stroke-width:5.03537989;stroke-linecap:butt;stroke-linejoin:miter;stroke-miterlimit:10;stroke-dasharray:none;stroke-opacity:1"
         d="m 2855.82,3706.23 c 14.09,0 25.51,-11.43 25.51,-25.52 0,-14.08 -11.42,-25.51 -25.51,-25.51 -14.09,0 -25.52,11.43 -25.52,25.51 0,14.09 11.43,25.52 25.52,25.52 z" /><path
         id="path1286"
         style="fill:#000000;fill-opacity:1;fill-rule:evenodd;stroke:none"
         d="m 3460.06,3706.23 c 14.09,0 25.51,-11.43 25.51,-25.52 0,-14.08 -11.42,-25.51 -25.51,-25.51 -14.09,0 -25.51,11.43 -25.51,25.51 0,14.09 11.42,25.52 25.51,25.52" /><path
         id="path1288"
         style="fill:none;stroke:#000000;stroke-width:5.03537989;stroke-linecap:butt;stroke-linejoin:miter;stroke-miterlimit:10;stroke-dasharray:none;stroke-opacity:1"
         d="m 3460.06,3706.23 c 14.09,0 25.51,-11.43 25.51,-25.52 0,-14.08 -11.42,-25.51 -25.51,-25.51 -14.09,0 -25.51,11.43 -25.51,25.51 0,14.09 11.42,25.52 25.51,25.52 z" /><path
         id="path1290"
         style="fill:#000000;fill-opacity:1;fill-rule:evenodd;stroke:none"
         d="m 2050.16,2900.57 c 14.09,0 25.51,-11.43 25.51,-25.52 0,-14.09 -11.42,-25.51 -25.51,-25.51 -14.09,0 -25.52,11.42 -25.52,25.51 0,14.09 11.43,25.52 25.52,25.52" /><path
         id="path1292"
         style="fill:none;stroke:#000000;stroke-width:5.03537989;stroke-linecap:butt;stroke-linejoin:miter;stroke-miterlimit:10;stroke-dasharray:none;stroke-opacity:1"
         d="m 2050.16,2900.57 c 14.09,0 25.51,-11.43 25.51,-25.52 0,-14.09 -11.42,-25.51 -25.51,-25.51 -14.09,0 -25.52,11.42 -25.52,25.51 0,14.09 11.43,25.52 25.52,25.52 z" /><path
         id="path1294"
         style="fill:#000000;fill-opacity:1;fill-rule:evenodd;stroke:none"
         d="m 2050.16,2296.32 c 14.09,0 25.51,-11.42 25.51,-25.51 0,-14.09 -11.42,-25.51 -25.51,-25.51 -14.09,0 -25.52,11.42 -25.52,25.51 0,14.09 11.43,25.51 25.52,25.51" /><path
         id="path1296"
         style="fill:none;stroke:#000000;stroke-width:5.03537989;stroke-linecap:butt;stroke-linejoin:miter;stroke-miterlimit:10;stroke-dasharray:none;stroke-opacity:1"
         d="m 2050.16,2296.32 c 14.09,0 25.51,-11.42 25.51,-25.51 0,-14.09 -11.42,-25.51 -25.51,-25.51 -14.09,0 -25.52,11.42 -25.52,25.51 0,14.09 11.43,25.51 25.52,25.51 z" /><path
         id="path1298"
         style="fill:#000000;fill-opacity:1;fill-rule:evenodd;stroke:none"
         d="m 3157.94,1792.79 c 14.09,0 25.51,-11.43 25.51,-25.52 0,-14.09 -11.42,-25.51 -25.51,-25.51 -14.09,0 -25.51,11.42 -25.51,25.51 0,14.09 11.42,25.52 25.51,25.52" /><path
         id="path1300"
         style="fill:none;stroke:#000000;stroke-width:5.03537989;stroke-linecap:butt;stroke-linejoin:miter;stroke-miterlimit:10;stroke-dasharray:none;stroke-opacity:1"
         d="m 3157.94,1792.79 c 14.09,0 25.51,-11.43 25.51,-25.52 0,-14.09 -11.42,-25.51 -25.51,-25.51 -14.09,0 -25.51,11.42 -25.51,25.51 0,14.09 11.42,25.52 25.51,25.52 z" /><path
         id="path1302"
         style="fill:#000000;fill-opacity:1;fill-rule:evenodd;stroke:none"
         d="m 3963.6,2598.45 c 14.09,0 25.51,-11.43 25.51,-25.52 0,-14.09 -11.42,-25.51 -25.51,-25.51 -14.09,0 -25.51,11.42 -25.51,25.51 0,14.09 11.42,25.52 25.51,25.52" /><path
         id="path1304"
         style="fill:none;stroke:#000000;stroke-width:5.03537989;stroke-linecap:butt;stroke-linejoin:miter;stroke-miterlimit:10;stroke-dasharray:none;stroke-opacity:1"
         d="m 3963.6,2598.45 c 14.09,0 25.51,-11.43 25.51,-25.52 0,-14.09 -11.42,-25.51 -25.51,-25.51 -14.09,0 -25.51,11.42 -25.51,25.51 0,14.09 11.42,25.52 25.51,25.52 z" /><path
         id="path1306"
         style="fill:none;stroke:#000000;stroke-width:5.03537989;stroke-linecap:butt;stroke-linejoin:miter;stroke-miterlimit:10;stroke-dasharray:none;stroke-opacity:1"
         d="M 2352.28,1767.27 H 3963.6 v 1611.32" /><path
         id="path1308"
         style="fill:#ffff00;fill-opacity:1;fill-rule:evenodd;stroke:none"
         d="M 2352.28,1767.27 H 3963.6 v 1611.32" /><path
         id="path1310"
         style="fill:none;stroke:#000000;stroke-width:5.03537989;stroke-linecap:butt;stroke-linejoin:miter;stroke-miterlimit:10;stroke-dasharray:none;stroke-opacity:1"
         d="M 2352.28,1767.27 H 3963.6 v 1611.32" /><g
         transform="scale(10)"
         id="g1312"><text
           id="text1330"
           style="font-variant:normal;font-weight:normal;font-size:15.66539955px;font-family:'Times New Roman';-inkscape-font-specification:Times-Roman;writing-mode:lr-tb;fill:#000000;fill-opacity:1;fill-rule:nonzero;stroke:none"
           transform="matrix(0,1,1,0,225.157,347.93)"><tspan
             id="tspan1314"
             y="0"
             x="0">0</tspan><tspan
             id="tspan1316"
             y="55.3895"
             x="30.212099">0</tspan><tspan
             id="tspan1318"
             y="120.8493"
             x="30.212099">0</tspan><tspan
             id="tspan1320"
             y="186.3091"
             x="0">0</tspan><tspan
             id="tspan1322"
             y="-30.211901"
             x="-65.460197 -130.92">00</tspan><tspan
             id="tspan1324"
             y="0.00019999999"
             x="-181.2739">0</tspan><tspan
             id="tspan1326"
             y="191.3452"
             x="-191.3446 -183.5119 -175.6792 -100.70789 -92.875183 -85.042488">200100</tspan><tspan
             id="tspan1328"
             y="90.637199"
             x="-201.4153 -193.5826 -185.74989">100</tspan></text>
</g></g><g
       transform="scale(0.1)"
       clip-path="url(#clipPath1338)"
       id="g1334"><path
         id="path1340"
         style="fill:none;stroke:#000000;stroke-width:5.03537989;stroke-linecap:butt;stroke-linejoin:miter;stroke-miterlimit:10;stroke-dasharray:none;stroke-opacity:1"
         d="m 2352.26,4817.65 c -213.68,213.68 -333.72,503.49 -333.72,805.68 0,629.28 510.12,1139.41 1139.4,1139.41 302.19,0 592,-120.05 805.68,-333.73" /><path
         id="path1342"
         style="fill:#000000;fill-opacity:1;fill-rule:evenodd;stroke:none"
         d="m 3963.6,4843.18 c 14.09,0 25.51,-11.42 25.51,-25.51 0,-14.09 -11.42,-25.51 -25.51,-25.51 -14.09,0 -25.51,11.42 -25.51,25.51 0,14.09 11.42,25.51 25.51,25.51" /><path
         id="path1344"
         style="fill:none;stroke:#000000;stroke-width:5.03537989;stroke-linecap:butt;stroke-linejoin:miter;stroke-miterlimit:10;stroke-dasharray:none;stroke-opacity:1"
         d="m 3963.6,4843.18 c 14.09,0 25.51,-11.42 25.51,-25.51 0,-14.09 -11.42,-25.51 -25.51,-25.51 -14.09,0 -25.51,11.42 -25.51,25.51 0,14.09 11.42,25.51 25.51,25.51 z" /><path
         id="path1346"
         style="fill:#000000;fill-opacity:1;fill-rule:evenodd;stroke:none"
         d="m 3963.6,6454.5 c 14.09,0 25.51,-11.42 25.51,-25.51 0,-14.09 -11.42,-25.51 -25.51,-25.51 -14.09,0 -25.51,11.42 -25.51,25.51 0,14.09 11.42,25.51 25.51,25.51" /><path
         id="path1348"
         style="fill:none;stroke:#000000;stroke-width:5.03537989;stroke-linecap:butt;stroke-linejoin:miter;stroke-miterlimit:10;stroke-dasharray:none;stroke-opacity:1"
         d="m 3963.6,6454.5 c 14.09,0 25.51,-11.42 25.51,-25.51 0,-14.09 -11.42,-25.51 -25.51,-25.51 -14.09,0 -25.51,11.42 -25.51,25.51 0,14.09 11.42,25.51 25.51,25.51 z" /><path
         id="path1350"
         style="fill:#000000;fill-opacity:1;fill-rule:evenodd;stroke:none"
         d="m 2352.28,4843.18 c 14.09,0 25.51,-11.42 25.51,-25.51 0,-14.09 -11.42,-25.51 -25.51,-25.51 -14.09,0 -25.51,11.42 -25.51,25.51 0,14.09 11.42,25.51 25.51,25.51" /><path
         id="path1352"
         style="fill:none;stroke:#000000;stroke-width:5.03537989;stroke-linecap:butt;stroke-linejoin:miter;stroke-miterlimit:10;stroke-dasharray:none;stroke-opacity:1"
         d="m 2352.28,4843.18 c 14.09,0 25.51,-11.42 25.51,-25.51 0,-14.09 -11.42,-25.51 -25.51,-25.51 -14.09,0 -25.51,11.42 -25.51,25.51 0,14.09 11.42,25.51 25.51,25.51 z" /><path
         id="path1354"
         style="fill:#000000;fill-opacity:1;fill-rule:evenodd;stroke:none"
         d="m 2352.28,6454.5 c 14.09,0 25.51,-11.42 25.51,-25.51 0,-14.09 -11.42,-25.51 -25.51,-25.51 -14.09,0 -25.51,11.42 -25.51,25.51 0,14.09 11.42,25.51 25.51,25.51" /><path
         id="path1356"
         style="fill:none;stroke:#000000;stroke-width:5.03537989;stroke-linecap:butt;stroke-linejoin:miter;stroke-miterlimit:10;stroke-dasharray:none;stroke-opacity:1"
         d="m 2352.28,6454.5 c 14.09,0 25.51,-11.42 25.51,-25.51 0,-14.09 -11.42,-25.51 -25.51,-25.51 -14.09,0 -25.51,11.42 -25.51,25.51 0,14.09 11.42,25.51 25.51,25.51 z" /><path
         id="path1358"
         style="fill:#000000;fill-opacity:1;fill-rule:evenodd;stroke:none"
         d="m 2855.82,6756.63 c 14.09,0 25.51,-11.43 25.51,-25.52 0,-14.09 -11.42,-25.51 -25.51,-25.51 -14.09,0 -25.52,11.42 -25.52,25.51 0,14.09 11.43,25.52 25.52,25.52" /><path
         id="path1360"
         style="fill:none;stroke:#000000;stroke-width:5.03537989;stroke-linecap:butt;stroke-linejoin:miter;stroke-miterlimit:10;stroke-dasharray:none;stroke-opacity:1"
         d="m 2855.82,6756.63 c 14.09,0 25.51,-11.43 25.51,-25.52 0,-14.09 -11.42,-25.51 -25.51,-25.51 -14.09,0 -25.52,11.42 -25.52,25.51 0,14.09 11.43,25.52 25.52,25.52 z" /><path
         id="path1362"
         style="fill:#000000;fill-opacity:1;fill-rule:evenodd;stroke:none"
         d="m 3460.06,6756.63 c 14.09,0 25.51,-11.43 25.51,-25.52 0,-14.09 -11.42,-25.51 -25.51,-25.51 -14.09,0 -25.51,11.42 -25.51,25.51 0,14.09 11.42,25.52 25.51,25.52" /><path
         id="path1364"
         style="fill:none;stroke:#000000;stroke-width:5.03537989;stroke-linecap:butt;stroke-linejoin:miter;stroke-miterlimit:10;stroke-dasharray:none;stroke-opacity:1"
         d="m 3460.06,6756.63 c 14.09,0 25.51,-11.43 25.51,-25.52 0,-14.09 -11.42,-25.51 -25.51,-25.51 -14.09,0 -25.51,11.42 -25.51,25.51 0,14.09 11.42,25.52 25.51,25.52 z" /><path
         id="path1366"
         style="fill:#000000;fill-opacity:1;fill-rule:evenodd;stroke:none"
         d="m 2050.16,5950.96 c 14.09,0 25.51,-11.42 25.51,-25.51 0,-14.09 -11.42,-25.51 -25.51,-25.51 -14.09,0 -25.52,11.42 -25.52,25.51 0,14.09 11.43,25.51 25.52,25.51" /><path
         id="path1368"
         style="fill:none;stroke:#000000;stroke-width:5.03537989;stroke-linecap:butt;stroke-linejoin:miter;stroke-miterlimit:10;stroke-dasharray:none;stroke-opacity:1"
         d="m 2050.16,5950.96 c 14.09,0 25.51,-11.42 25.51,-25.51 0,-14.09 -11.42,-25.51 -25.51,-25.51 -14.09,0 -25.52,11.42 -25.52,25.51 0,14.09 11.43,25.51 25.52,25.51 z" /><path
         id="path1370"
         style="fill:#000000;fill-opacity:1;fill-rule:evenodd;stroke:none"
         d="m 2050.16,5346.72 c 14.09,0 25.51,-11.42 25.51,-25.51 0,-14.09 -11.42,-25.51 -25.51,-25.51 -14.09,0 -25.52,11.42 -25.52,25.51 0,14.09 11.43,25.51 25.52,25.51" /><path
         id="path1372"
         style="fill:none;stroke:#000000;stroke-width:5.03537989;stroke-linecap:butt;stroke-linejoin:miter;stroke-miterlimit:10;stroke-dasharray:none;stroke-opacity:1"
         d="m 2050.16,5346.72 c 14.09,0 25.51,-11.42 25.51,-25.51 0,-14.09 -11.42,-25.51 -25.51,-25.51 -14.09,0 -25.52,11.42 -25.52,25.51 0,14.09 11.43,25.51 25.52,25.51 z" /><path
         id="path1374"
         style="fill:#000000;fill-opacity:1;fill-rule:evenodd;stroke:none"
         d="m 3560.77,5246.02 c 14.09,0 25.51,-11.43 25.51,-25.52 0,-14.09 -11.42,-25.51 -25.51,-25.51 -14.09,0 -25.51,11.42 -25.51,25.51 0,14.09 11.42,25.52 25.51,25.52" /><path
         id="path1376"
         style="fill:none;stroke:#000000;stroke-width:5.03537989;stroke-linecap:butt;stroke-linejoin:miter;stroke-miterlimit:10;stroke-dasharray:none;stroke-opacity:1"
         d="m 3560.77,5246.02 c 14.09,0 25.51,-11.43 25.51,-25.52 0,-14.09 -11.42,-25.51 -25.51,-25.51 -14.09,0 -25.51,11.42 -25.51,25.51 0,14.09 11.42,25.52 25.51,25.52 z" /><path
         id="path1378"
         style="fill:#000000;fill-opacity:1;fill-rule:evenodd;stroke:none"
         d="m 3157.94,4843.18 c 14.09,0 25.51,-11.42 25.51,-25.51 0,-14.09 -11.42,-25.51 -25.51,-25.51 -14.09,0 -25.51,11.42 -25.51,25.51 0,14.09 11.42,25.51 25.51,25.51" /><path
         id="path1380"
         style="fill:none;stroke:#000000;stroke-width:5.03537989;stroke-linecap:butt;stroke-linejoin:miter;stroke-miterlimit:10;stroke-dasharray:none;stroke-opacity:1"
         d="m 3157.94,4843.18 c 14.09,0 25.51,-11.42 25.51,-25.51 0,-14.09 -11.42,-25.51 -25.51,-25.51 -14.09,0 -25.51,11.42 -25.51,25.51 0,14.09 11.42,25.51 25.51,25.51 z" /><path
         id="path1382"
         style="fill:#000000;fill-opacity:1;fill-rule:evenodd;stroke:none"
         d="m 2755.11,5246.02 c 14.09,0 25.51,-11.43 25.51,-25.52 0,-14.09 -11.42,-25.51 -25.51,-25.51 -14.09,0 -25.51,11.42 -25.51,25.51 0,14.09 11.42,25.52 25.51,25.52" /><path
         id="path1384"
         style="fill:none;stroke:#000000;stroke-width:5.03537989;stroke-linecap:butt;stroke-linejoin:miter;stroke-miterlimit:10;stroke-dasharray:none;stroke-opacity:1"
         d="m 2755.11,5246.02 c 14.09,0 25.51,-11.43 25.51,-25.52 0,-14.09 -11.42,-25.51 -25.51,-25.51 -14.09,0 -25.51,11.42 -25.51,25.51 0,14.09 11.42,25.52 25.51,25.52 z" /><path
         id="path1386"
         style="fill:#000000;fill-opacity:1;fill-rule:evenodd;stroke:none"
         d="m 3963.6,5648.84 c 14.09,0 25.51,-11.42 25.51,-25.51 0,-14.09 -11.42,-25.51 -25.51,-25.51 -14.09,0 -25.51,11.42 -25.51,25.51 0,14.09 11.42,25.51 25.51,25.51" /><path
         id="path1388"
         style="fill:none;stroke:#000000;stroke-width:5.03537989;stroke-linecap:butt;stroke-linejoin:miter;stroke-miterlimit:10;stroke-dasharray:none;stroke-opacity:1"
         d="m 3963.6,5648.84 c 14.09,0 25.51,-11.42 25.51,-25.51 0,-14.09 -11.42,-25.51 -25.51,-25.51 -14.09,0 -25.51,11.42 -25.51,25.51 0,14.09 11.42,25.51 25.51,25.51 z" /><path
         id="path1390"
         style="fill:#000000;fill-opacity:1;fill-rule:evenodd;stroke:none"
         d="m 3560.77,6051.68 c 14.09,0 25.51,-11.43 25.51,-25.52 0,-14.09 -11.42,-25.51 -25.51,-25.51 -14.09,0 -25.51,11.42 -25.51,25.51 0,14.09 11.42,25.52 25.51,25.52" /><path
         id="path1392"
         style="fill:none;stroke:#000000;stroke-width:5.03537989;stroke-linecap:butt;stroke-linejoin:miter;stroke-miterlimit:10;stroke-dasharray:none;stroke-opacity:1"
         d="m 3560.77,6051.68 c 14.09,0 25.51,-11.43 25.51,-25.52 0,-14.09 -11.42,-25.51 -25.51,-25.51 -14.09,0 -25.51,11.42 -25.51,25.51 0,14.09 11.42,25.52 25.51,25.52 z" /><path
         id="path1394"
         style="fill:#000000;fill-opacity:1;fill-rule:evenodd;stroke:none"
         d="m 3157.94,5648.84 c 14.09,0 25.51,-11.42 25.51,-25.51 0,-14.09 -11.42,-25.51 -25.51,-25.51 -14.09,0 -25.51,11.42 -25.51,25.51 0,14.09 11.42,25.51 25.51,25.51" /><path
         id="path1396"
         style="fill:none;stroke:#000000;stroke-width:5.03537989;stroke-linecap:butt;stroke-linejoin:miter;stroke-miterlimit:10;stroke-dasharray:none;stroke-opacity:1"
         d="m 3157.94,5648.84 c 14.09,0 25.51,-11.42 25.51,-25.51 0,-14.09 -11.42,-25.51 -25.51,-25.51 -14.09,0 -25.51,11.42 -25.51,25.51 0,14.09 11.42,25.51 25.51,25.51 z" /><path
         id="path1398"
         style="fill:#000000;fill-opacity:1;fill-rule:evenodd;stroke:none"
         d="m 2755.11,6051.68 c 14.09,0 25.51,-11.43 25.51,-25.52 0,-14.09 -11.42,-25.51 -25.51,-25.51 -14.09,0 -25.51,11.42 -25.51,25.51 0,14.09 11.42,25.52 25.51,25.52" /><path
         id="path1400"
         style="fill:none;stroke:#000000;stroke-width:5.03537989;stroke-linecap:butt;stroke-linejoin:miter;stroke-miterlimit:10;stroke-dasharray:none;stroke-opacity:1"
         d="m 2755.11,6051.68 c 14.09,0 25.51,-11.43 25.51,-25.52 0,-14.09 -11.42,-25.51 -25.51,-25.51 -14.09,0 -25.51,11.42 -25.51,25.51 0,14.09 11.42,25.52 25.51,25.52 z" /><path
         id="path1402"
         style="fill:#000000;fill-opacity:1;fill-rule:evenodd;stroke:none"
         d="m 2452.99,5648.84 c 14.09,0 25.51,-11.42 25.51,-25.51 0,-14.09 -11.42,-25.51 -25.51,-25.51 -14.09,0 -25.52,11.42 -25.52,25.51 0,14.09 11.43,25.51 25.52,25.51" /><path
         id="path1404"
         style="fill:none;stroke:#000000;stroke-width:5.03537989;stroke-linecap:butt;stroke-linejoin:miter;stroke-miterlimit:10;stroke-dasharray:none;stroke-opacity:1"
         d="m 2452.99,5648.84 c 14.09,0 25.51,-11.42 25.51,-25.51 0,-14.09 -11.42,-25.51 -25.51,-25.51 -14.09,0 -25.52,11.42 -25.52,25.51 0,14.09 11.43,25.51 25.52,25.51 z" /><path
         id="path1406"
         style="fill:#000000;fill-opacity:1;fill-rule:evenodd;stroke:none"
         d="m 3157.94,6454.5 c 14.09,0 25.51,-11.42 25.51,-25.51 0,-14.09 -11.42,-25.51 -25.51,-25.51 -14.09,0 -25.51,11.42 -25.51,25.51 0,14.09 11.42,25.51 25.51,25.51" /><path
         id="path1408"
         style="fill:none;stroke:#000000;stroke-width:5.03537989;stroke-linecap:butt;stroke-linejoin:miter;stroke-miterlimit:10;stroke-dasharray:none;stroke-opacity:1"
         d="m 3157.94,6454.5 c 14.09,0 25.51,-11.42 25.51,-25.51 0,-14.09 -11.42,-25.51 -25.51,-25.51 -14.09,0 -25.51,11.42 -25.51,25.51 0,14.09 11.42,25.51 25.51,25.51 z" /><path
         id="path1410"
         style="fill:none;stroke:#000000;stroke-width:5.03537989;stroke-linecap:butt;stroke-linejoin:miter;stroke-miterlimit:10;stroke-dasharray:none;stroke-opacity:1"
         d="M 2352.28,4817.67 H 3963.6 v 1611.32" /><path
         id="path1412"
         style="fill:none;stroke:#000000;stroke-width:5.03537989;stroke-linecap:butt;stroke-linejoin:miter;stroke-miterlimit:10;stroke-dasharray:none;stroke-opacity:1"
         d="m 3963.6,4817.67 -402.83,402.83 402.83,402.83 -402.83,402.83 402.83,402.83 h -805.66 l 402.83,-402.83 V 5220.5 l -402.83,-402.83 -402.83,402.83 h 805.66 l -402.83,402.83 402.83,402.83 h -805.66 l 402.83,-402.83 -402.83,-402.83 v 805.66 l -302.12,-402.83 302.12,-402.83 -402.83,-402.83 100.71,805.66 -402.83,-302.12" /><path
         id="path1414"
         style="fill:none;stroke:#000000;stroke-width:5.03537989;stroke-linecap:butt;stroke-linejoin:miter;stroke-miterlimit:10;stroke-dasharray:none;stroke-opacity:1"
         d="m 3460.06,6731.11 -302.12,-302.12 -402.83,-402.83 100.71,704.95 302.12,-302.12" /><path
         id="path1416"
         style="fill:none;stroke:#000000;stroke-width:5.03537989;stroke-linecap:butt;stroke-linejoin:miter;stroke-miterlimit:10;stroke-dasharray:none;stroke-opacity:1"
         d="m 2452.99,5623.33 -402.83,302.12 704.95,100.71 -402.83,402.83" /><g
         transform="scale(10)"
         id="g1418"><text
           id="text1450"
           style="font-variant:normal;font-weight:normal;font-size:15.66539955px;font-family:'Times New Roman';-inkscape-font-specification:Times-Roman;writing-mode:lr-tb;fill:#000000;fill-opacity:1;fill-rule:nonzero;stroke:none"
           transform="matrix(0,1,1,0,225.157,652.97)"><tspan
             id="tspan1420"
             y="0"
             x="0">0</tspan><tspan
             id="tspan1422"
             y="55.3895"
             x="30.212099">0</tspan><tspan
             id="tspan1424"
             y="120.8493"
             x="30.212099">0</tspan><tspan
             id="tspan1426"
             y="186.3091"
             x="0">0</tspan><tspan
             id="tspan1428"
             y="-30.211901"
             x="-65.459801 -130.92">00</tspan><tspan
             id="tspan1430"
             y="0.00019999999"
             x="-181.2735">0</tspan><tspan
             id="tspan1432"
             y="191.3452"
             x="-191.34419 -183.51151 -175.6788 -100.70749 -92.874786 -85.042084">200100</tspan><tspan
             id="tspan1434"
             y="90.637199"
             x="-201.4149 -193.5822 -185.7495">100</tspan><tspan
             id="tspan1436"
             y="135.95599"
             x="-151.0614 -143.2287">x1</tspan><tspan
             id="tspan1438"
             y="151.0619"
             x="-60.424702 -52.591999">x2</tspan><tspan
             id="tspan1440"
             y="110.7791"
             x="-100.7075 -92.874802">x3</tspan><tspan
             id="tspan1442"
             y="95.672897"
             x="-30.2122 -22.379499">x4</tspan><tspan
             id="tspan1444"
             y="55.390099"
             x="-156.09621 -148.2635">x5</tspan><tspan
             id="tspan1446"
             y="65.4608"
             x="-75.530197 -67.697502">x6</tspan><tspan
             id="tspan1448"
             y="40.283798"
             x="-100.7072 -92.874496">x7</tspan></text>
</g></g></g></svg>
