<?xml version="1.0" encoding="utf-8" standalone="no"?>
<!DOCTYPE svg PUBLIC "-//W3C//DTD SVG 1.1//EN"
  "http://www.w3.org/Graphics/SVG/1.1/DTD/svg11.dtd">
<svg height="345.6pt" version="1.1" viewBox="0 0 460.8 345.6" width="460.8pt" xmlns="http://www.w3.org/2000/svg" xmlns:xlink="http://www.w3.org/1999/xlink">
 <metadata>
  <rdf:RDF xmlns:cc="http://creativecommons.org/ns#" xmlns:dc="http://purl.org/dc/elements/1.1/" xmlns:rdf="http://www.w3.org/1999/02/22-rdf-syntax-ns#">
   <cc:Work>
    <dc:type rdf:resource="http://purl.org/dc/dcmitype/StillImage"/>
    <dc:date>2021-09-06T14:27:17.325284</dc:date>
    <dc:format>image/svg+xml</dc:format>
    <dc:creator>
     <cc:Agent>
      <dc:title>Matplotlib v3.4.3, https://matplotlib.org/</dc:title>
     </cc:Agent>
    </dc:creator>
   </cc:Work>
  </rdf:RDF>
 </metadata>
 <defs>
  <style type="text/css">*{stroke-linecap:butt;stroke-linejoin:round;}</style>
 </defs>
 <g id="figure_1">
  <g id="patch_1">
   <path d="M 0 345.6
L 460.8 345.6
L 460.8 0
L 0 0
z
" style="fill:#ffffff;"/>
  </g>
  <g id="axes_1">
   <g id="patch_2">
    <path d="M 57.6 307.584
L 414.72 307.584
L 414.72 41.472
L 57.6 41.472
z
" style="fill:#ffffff;"/>
   </g>
   <g id="matplotlib.axis_1">
    <g id="xtick_1">
     <g id="line2d_1">
      <defs>
       <path d="M 0 0
L 0 3.5
" id="m7efcf36d91" style="stroke:#000000;stroke-width:0.8;"/>
      </defs>
      <g>
       <use style="stroke:#000000;stroke-width:0.8;" x="93.312" xlink:href="#m7efcf36d91" y="307.584"/>
      </g>
     </g>
     <g id="text_1">
      <!-- −4 -->
      <g transform="translate(85.940906 322.182437)scale(0.1 -0.1)">
       <defs>
        <path d="M 678 2272
L 4684 2272
L 4684 1741
L 678 1741
L 678 2272
z
" id="DejaVuSans-2212" transform="scale(0.015625)"/>
        <path d="M 2419 4116
L 825 1625
L 2419 1625
L 2419 4116
z
M 2253 4666
L 3047 4666
L 3047 1625
L 3713 1625
L 3713 1100
L 3047 1100
L 3047 0
L 2419 0
L 2419 1100
L 313 1100
L 313 1709
L 2253 4666
z
" id="DejaVuSans-34" transform="scale(0.015625)"/>
       </defs>
       <use xlink:href="#DejaVuSans-2212"/>
       <use x="83.789062" xlink:href="#DejaVuSans-34"/>
      </g>
     </g>
    </g>
    <g id="xtick_2">
     <g id="line2d_2">
      <g>
       <use style="stroke:#000000;stroke-width:0.8;" x="164.736" xlink:href="#m7efcf36d91" y="307.584"/>
      </g>
     </g>
     <g id="text_2">
      <!-- −2 -->
      <g transform="translate(157.364906 322.182437)scale(0.1 -0.1)">
       <defs>
        <path d="M 1228 531
L 3431 531
L 3431 0
L 469 0
L 469 531
Q 828 903 1448 1529
Q 2069 2156 2228 2338
Q 2531 2678 2651 2914
Q 2772 3150 2772 3378
Q 2772 3750 2511 3984
Q 2250 4219 1831 4219
Q 1534 4219 1204 4116
Q 875 4013 500 3803
L 500 4441
Q 881 4594 1212 4672
Q 1544 4750 1819 4750
Q 2544 4750 2975 4387
Q 3406 4025 3406 3419
Q 3406 3131 3298 2873
Q 3191 2616 2906 2266
Q 2828 2175 2409 1742
Q 1991 1309 1228 531
z
" id="DejaVuSans-32" transform="scale(0.015625)"/>
       </defs>
       <use xlink:href="#DejaVuSans-2212"/>
       <use x="83.789062" xlink:href="#DejaVuSans-32"/>
      </g>
     </g>
    </g>
    <g id="xtick_3">
     <g id="line2d_3">
      <g>
       <use style="stroke:#000000;stroke-width:0.8;" x="236.16" xlink:href="#m7efcf36d91" y="307.584"/>
      </g>
     </g>
     <g id="text_3">
      <!-- 0 -->
      <g transform="translate(232.97875 322.182437)scale(0.1 -0.1)">
       <defs>
        <path d="M 2034 4250
Q 1547 4250 1301 3770
Q 1056 3291 1056 2328
Q 1056 1369 1301 889
Q 1547 409 2034 409
Q 2525 409 2770 889
Q 3016 1369 3016 2328
Q 3016 3291 2770 3770
Q 2525 4250 2034 4250
z
M 2034 4750
Q 2819 4750 3233 4129
Q 3647 3509 3647 2328
Q 3647 1150 3233 529
Q 2819 -91 2034 -91
Q 1250 -91 836 529
Q 422 1150 422 2328
Q 422 3509 836 4129
Q 1250 4750 2034 4750
z
" id="DejaVuSans-30" transform="scale(0.015625)"/>
       </defs>
       <use xlink:href="#DejaVuSans-30"/>
      </g>
     </g>
    </g>
    <g id="xtick_4">
     <g id="line2d_4">
      <g>
       <use style="stroke:#000000;stroke-width:0.8;" x="307.584" xlink:href="#m7efcf36d91" y="307.584"/>
      </g>
     </g>
     <g id="text_4">
      <!-- 2 -->
      <g transform="translate(304.40275 322.182437)scale(0.1 -0.1)">
       <use xlink:href="#DejaVuSans-32"/>
      </g>
     </g>
    </g>
    <g id="xtick_5">
     <g id="line2d_5">
      <g>
       <use style="stroke:#000000;stroke-width:0.8;" x="379.008" xlink:href="#m7efcf36d91" y="307.584"/>
      </g>
     </g>
     <g id="text_5">
      <!-- 4 -->
      <g transform="translate(375.82675 322.182437)scale(0.1 -0.1)">
       <use xlink:href="#DejaVuSans-34"/>
      </g>
     </g>
    </g>
    <g id="text_6">
     <!-- $x$ -->
     <g transform="translate(233.16 335.860562)scale(0.1 -0.1)">
      <defs>
       <path d="M 3841 3500
L 2234 1784
L 3219 0
L 2559 0
L 1819 1388
L 531 0
L -166 0
L 1556 1844
L 641 3500
L 1300 3500
L 1972 2234
L 3144 3500
L 3841 3500
z
" id="DejaVuSans-Oblique-78" transform="scale(0.015625)"/>
      </defs>
      <use transform="translate(0 0.3125)" xlink:href="#DejaVuSans-Oblique-78"/>
     </g>
    </g>
   </g>
   <g id="matplotlib.axis_2">
    <g id="ytick_1">
     <g id="line2d_6">
      <defs>
       <path d="M 0 0
L -3.5 0
" id="mea30a2d9ec" style="stroke:#000000;stroke-width:0.8;"/>
      </defs>
      <g>
       <use style="stroke:#000000;stroke-width:0.8;" x="57.6" xlink:href="#mea30a2d9ec" y="280.9728"/>
      </g>
     </g>
     <g id="text_7">
      <!-- −4 -->
      <g transform="translate(35.857813 284.772019)scale(0.1 -0.1)">
       <use xlink:href="#DejaVuSans-2212"/>
       <use x="83.789062" xlink:href="#DejaVuSans-34"/>
      </g>
     </g>
    </g>
    <g id="ytick_2">
     <g id="line2d_7">
      <g>
       <use style="stroke:#000000;stroke-width:0.8;" x="57.6" xlink:href="#mea30a2d9ec" y="227.7504"/>
      </g>
     </g>
     <g id="text_8">
      <!-- −2 -->
      <g transform="translate(35.857813 231.549619)scale(0.1 -0.1)">
       <use xlink:href="#DejaVuSans-2212"/>
       <use x="83.789062" xlink:href="#DejaVuSans-32"/>
      </g>
     </g>
    </g>
    <g id="ytick_3">
     <g id="line2d_8">
      <g>
       <use style="stroke:#000000;stroke-width:0.8;" x="57.6" xlink:href="#mea30a2d9ec" y="174.528"/>
      </g>
     </g>
     <g id="text_9">
      <!-- 0 -->
      <g transform="translate(44.2375 178.327219)scale(0.1 -0.1)">
       <use xlink:href="#DejaVuSans-30"/>
      </g>
     </g>
    </g>
    <g id="ytick_4">
     <g id="line2d_9">
      <g>
       <use style="stroke:#000000;stroke-width:0.8;" x="57.6" xlink:href="#mea30a2d9ec" y="121.3056"/>
      </g>
     </g>
     <g id="text_10">
      <!-- 2 -->
      <g transform="translate(44.2375 125.104819)scale(0.1 -0.1)">
       <use xlink:href="#DejaVuSans-32"/>
      </g>
     </g>
    </g>
    <g id="ytick_5">
     <g id="line2d_10">
      <g>
       <use style="stroke:#000000;stroke-width:0.8;" x="57.6" xlink:href="#mea30a2d9ec" y="68.0832"/>
      </g>
     </g>
     <g id="text_11">
      <!-- 4 -->
      <g transform="translate(44.2375 71.882419)scale(0.1 -0.1)">
       <use xlink:href="#DejaVuSans-34"/>
      </g>
     </g>
    </g>
    <g id="text_12">
     <!-- $y$ -->
     <g transform="translate(29.757812 177.528)rotate(-90)scale(0.1 -0.1)">
      <defs>
       <path d="M 1588 -325
Q 1188 -997 936 -1164
Q 684 -1331 294 -1331
L -159 -1331
L -63 -850
L 269 -850
Q 509 -850 678 -719
Q 847 -588 1056 -206
L 1234 128
L 459 3500
L 1069 3500
L 1650 819
L 3256 3500
L 3859 3500
L 1588 -325
z
" id="DejaVuSans-Oblique-79" transform="scale(0.015625)"/>
      </defs>
      <use transform="translate(0 0.3125)" xlink:href="#DejaVuSans-Oblique-79"/>
     </g>
    </g>
   </g>
   <g id="line2d_11">
    <path clip-path="url(#p9f5071c29b)" d="M 120.626579 346.6
L 125.763168 322.38494
L 130.763348 299.870556
L 135.692097 278.698922
L 140.477984 259.111077
L 145.192439 240.750148
L 149.764032 223.831408
L 154.192763 208.273092
L 158.550063 193.764532
L 162.7645 180.485442
L 166.907507 168.153901
L 170.907651 156.927264
L 174.836364 146.551079
L 178.693645 136.990211
L 182.408065 128.37029
L 186.051053 120.475403
L 189.551179 113.411804
L 192.979874 106.988066
L 196.265707 101.292343
L 199.480108 96.156419
L 202.623078 91.551547
L 205.623186 87.540544
L 208.551863 83.987344
L 211.409109 80.865759
L 214.194923 78.150234
L 216.909307 75.815859
L 219.552259 73.838358
L 222.12378 72.194095
L 224.62387 70.860075
L 227.052529 69.813939
L 229.409757 69.033969
L 231.766985 68.485881
L 234.124212 68.169677
L 236.410009 68.084504
L 238.695806 68.217374
L 240.981602 68.568286
L 243.33883 69.158534
L 245.696058 69.980665
L 248.124716 71.070239
L 250.553375 72.405963
L 253.053465 74.038088
L 255.624986 75.988973
L 258.267939 78.281614
L 260.982322 80.939646
L 263.768137 83.987344
L 266.625383 87.449622
L 269.554059 91.35203
L 272.554167 95.720759
L 275.697138 100.700392
L 278.911539 106.219594
L 282.197372 112.307112
L 285.626067 119.13968
L 289.126193 126.620626
L 292.69775 134.781252
L 296.412169 143.832999
L 300.19802 153.651302
L 304.126733 164.472516
L 308.126877 176.152272
L 312.198452 188.726344
L 316.412889 202.470264
L 320.698758 217.207301
L 325.127489 233.240881
L 329.627651 250.371489
L 334.270675 268.931722
L 338.985131 288.698004
L 343.842448 310.033383
L 348.771197 332.688942
L 351.693421 346.6
L 351.693421 346.6
" style="fill:none;stroke:#1f77b4;stroke-linecap:square;stroke-width:1.5;"/>
   </g>
   <g id="line2d_12">
    <path clip-path="url(#p9f5071c29b)" d="M -1 222.590782
L 55.275862 220.70305
L 104.443205 218.840079
L 147.785204 216.977109
L 184.765595 215.167366
L 216.232603 213.410851
L 242.93451 211.707564
L 266.208157 210.004277
L 285.774905 208.354218
L 302.172049 206.757386
L 316.304874 205.160554
L 328.019933 203.61695
L 337.69346 202.126574
L 345.920502 200.636198
L 352.626053 199.19905
L 358.065906 197.815129
L 362.617687 196.431208
L 366.252254 195.100515
L 369.245949 193.769822
L 371.591432 192.492356
L 373.486487 191.214891
L 374.992846 189.937426
L 376.167688 188.65996
L 377.095646 187.329267
L 377.82032 185.892119
L 378.345641 184.348515
L 378.706867 182.592
L 378.92582 180.356436
L 379.00555 176.949861
L 378.928781 168.752792
L 378.682297 166.304317
L 378.286306 164.494574
L 377.728781 162.95097
L 376.998427 161.56705
L 376.03712 160.236356
L 374.880737 159.012119
L 373.4157 157.787881
L 371.591432 156.563644
L 369.353518 155.339406
L 366.643705 154.115168
L 363.245746 152.837703
L 359.191312 151.560238
L 354.184043 150.229545
L 348.282918 148.898851
L 341.08942 147.514931
L 332.701114 146.13101
L 322.590953 144.693861
L 310.444378 143.203485
L 296.434593 141.713109
L 279.766603 140.169505
L 259.990919 138.572673
L 237.397338 136.975842
L 210.818497 135.325782
L 179.627184 133.622495
L 144.286308 131.919208
L 103.121596 130.162693
L 55.275862 128.35295
L 1.461189 126.543208
L -1 126.465218
L -1 126.465218
" style="fill:none;stroke:#ff7f0e;stroke-linecap:square;stroke-width:1.5;"/>
   </g>
   <g id="line2d_13">
    <path clip-path="url(#p9f5071c29b)" d="M 169.628183 346.6
L 172.336274 326.431721
L 175.050657 307.863189
L 177.693609 291.300558
L 180.265131 276.560324
L 182.765221 263.472343
L 185.265311 251.554355
L 187.693969 241.045252
L 190.051197 231.804106
L 192.408425 223.461133
L 194.694221 216.185328
L 196.908587 209.861595
L 199.051521 204.384672
L 201.194455 199.505147
L 203.265959 195.323705
L 205.337462 191.637099
L 207.337534 188.517924
L 209.337606 185.802948
L 211.337678 183.464124
L 213.33775 181.473401
L 215.337822 179.802732
L 217.337894 178.424069
L 219.337966 177.309362
L 221.409469 176.403188
L 223.623834 175.679108
L 225.981062 175.144211
L 228.624014 174.778059
L 231.766985 174.577535
L 236.552871 174.527965
L 241.910207 174.416911
L 244.981746 174.12687
L 247.553267 173.663894
L 249.839064 173.032484
L 251.981998 172.213773
L 254.053501 171.180598
L 256.053573 169.927973
L 257.982214 168.456187
L 259.910855 166.69984
L 261.839496 164.633783
L 263.768137 162.232867
L 265.696778 159.471942
L 267.625419 156.325859
L 269.625491 152.629542
L 271.625563 148.463914
L 273.697066 143.624839
L 275.768569 138.221081
L 277.911503 132.003591
L 280.125869 124.872322
L 282.340234 116.985288
L 284.626031 108.010748
L 286.983258 97.825512
L 289.340486 86.650267
L 291.769145 74.052404
L 294.269235 59.882394
L 296.840756 43.978597
L 299.412277 26.66809
L 302.05523 7.348175
L 303.134288 -1
L 303.134288 -1
" style="fill:none;stroke:#2ca02c;stroke-linecap:square;stroke-width:1.5;"/>
   </g>
   <g id="patch_3">
    <path d="M 57.6 307.584
L 57.6 41.472
" style="fill:none;stroke:#000000;stroke-linecap:square;stroke-linejoin:miter;stroke-width:0.8;"/>
   </g>
   <g id="patch_4">
    <path d="M 414.72 307.584
L 414.72 41.472
" style="fill:none;stroke:#000000;stroke-linecap:square;stroke-linejoin:miter;stroke-width:0.8;"/>
   </g>
   <g id="patch_5">
    <path d="M 57.6 307.584
L 414.72 307.584
" style="fill:none;stroke:#000000;stroke-linecap:square;stroke-linejoin:miter;stroke-width:0.8;"/>
   </g>
   <g id="patch_6">
    <path d="M 57.6 41.472
L 414.72 41.472
" style="fill:none;stroke:#000000;stroke-linecap:square;stroke-linejoin:miter;stroke-width:0.8;"/>
   </g>
   <g id="legend_1">
    <g id="patch_7">
     <path d="M 315.52 97.972
L 407.72 97.972
Q 409.72 97.972 409.72 95.972
L 409.72 48.472
Q 409.72 46.472 407.72 46.472
L 315.52 46.472
Q 313.52 46.472 313.52 48.472
L 313.52 95.972
Q 313.52 97.972 315.52 97.972
z
" style="fill:#ffffff;opacity:0.8;stroke:#cccccc;stroke-linejoin:miter;"/>
    </g>
    <g id="line2d_14">
     <path d="M 317.52 56.072
L 337.52 56.072
" style="fill:none;stroke:#1f77b4;stroke-linecap:square;stroke-width:1.5;"/>
    </g>
    <g id="line2d_15"/>
    <g id="text_13">
     <!-- $y = -x^2 + 4$ -->
     <g transform="translate(345.52 59.572)scale(0.1 -0.1)">
      <defs>
       <path d="M 678 2906
L 4684 2906
L 4684 2381
L 678 2381
L 678 2906
z
M 678 1631
L 4684 1631
L 4684 1100
L 678 1100
L 678 1631
z
" id="DejaVuSans-3d" transform="scale(0.015625)"/>
       <path d="M 2944 4013
L 2944 2272
L 4684 2272
L 4684 1741
L 2944 1741
L 2944 0
L 2419 0
L 2419 1741
L 678 1741
L 678 2272
L 2419 2272
L 2419 4013
L 2944 4013
z
" id="DejaVuSans-2b" transform="scale(0.015625)"/>
      </defs>
      <use transform="translate(0 0.765625)" xlink:href="#DejaVuSans-Oblique-79"/>
      <use transform="translate(78.662109 0.765625)" xlink:href="#DejaVuSans-3d"/>
      <use transform="translate(201.416016 0.765625)" xlink:href="#DejaVuSans-2212"/>
      <use transform="translate(304.6875 0.765625)" xlink:href="#DejaVuSans-Oblique-78"/>
      <use transform="translate(368.333333 39.046875)scale(0.7)" xlink:href="#DejaVuSans-32"/>
      <use transform="translate(435.086263 0.765625)" xlink:href="#DejaVuSans-2b"/>
      <use transform="translate(538.357747 0.765625)" xlink:href="#DejaVuSans-34"/>
     </g>
    </g>
    <g id="line2d_16">
     <path d="M 317.52 72.172
L 337.52 72.172
" style="fill:none;stroke:#ff7f0e;stroke-linecap:square;stroke-width:1.5;"/>
    </g>
    <g id="line2d_17"/>
    <g id="text_14">
     <!-- $x = -y^4 + 4$ -->
     <g transform="translate(345.52 75.672)scale(0.1 -0.1)">
      <use transform="translate(0 0.684375)" xlink:href="#DejaVuSans-Oblique-78"/>
      <use transform="translate(78.662109 0.684375)" xlink:href="#DejaVuSans-3d"/>
      <use transform="translate(201.416016 0.684375)" xlink:href="#DejaVuSans-2212"/>
      <use transform="translate(304.6875 0.684375)" xlink:href="#DejaVuSans-Oblique-79"/>
      <use transform="translate(368.333333 38.965625)scale(0.7)" xlink:href="#DejaVuSans-34"/>
      <use transform="translate(435.086263 0.684375)" xlink:href="#DejaVuSans-2b"/>
      <use transform="translate(538.357747 0.684375)" xlink:href="#DejaVuSans-34"/>
     </g>
    </g>
    <g id="line2d_18">
     <path d="M 317.52 88.372
L 337.52 88.372
" style="fill:none;stroke:#2ca02c;stroke-linecap:square;stroke-width:1.5;"/>
    </g>
    <g id="line2d_19"/>
    <g id="text_15">
     <!-- $y = x^3$ -->
     <g transform="translate(345.52 91.872)scale(0.1 -0.1)">
      <defs>
       <path d="M 2597 2516
Q 3050 2419 3304 2112
Q 3559 1806 3559 1356
Q 3559 666 3084 287
Q 2609 -91 1734 -91
Q 1441 -91 1130 -33
Q 819 25 488 141
L 488 750
Q 750 597 1062 519
Q 1375 441 1716 441
Q 2309 441 2620 675
Q 2931 909 2931 1356
Q 2931 1769 2642 2001
Q 2353 2234 1838 2234
L 1294 2234
L 1294 2753
L 1863 2753
Q 2328 2753 2575 2939
Q 2822 3125 2822 3475
Q 2822 3834 2567 4026
Q 2313 4219 1838 4219
Q 1578 4219 1281 4162
Q 984 4106 628 3988
L 628 4550
Q 988 4650 1302 4700
Q 1616 4750 1894 4750
Q 2613 4750 3031 4423
Q 3450 4097 3450 3541
Q 3450 3153 3228 2886
Q 3006 2619 2597 2516
z
" id="DejaVuSans-33" transform="scale(0.015625)"/>
      </defs>
      <use transform="translate(0 0.765625)" xlink:href="#DejaVuSans-Oblique-79"/>
      <use transform="translate(78.662109 0.765625)" xlink:href="#DejaVuSans-3d"/>
      <use transform="translate(181.933594 0.765625)" xlink:href="#DejaVuSans-Oblique-78"/>
      <use transform="translate(245.579427 39.046875)scale(0.7)" xlink:href="#DejaVuSans-33"/>
     </g>
    </g>
   </g>
  </g>
 </g>
 <defs>
  <clipPath id="p9f5071c29b">
   <rect height="266.112" width="357.12" x="57.6" y="41.472"/>
  </clipPath>
 </defs>
</svg>
