<?xml version="1.0" encoding="utf-8" standalone="no"?>
<!DOCTYPE svg PUBLIC "-//W3C//DTD SVG 1.1//EN"
  "http://www.w3.org/Graphics/SVG/1.1/DTD/svg11.dtd">
<svg height="345.6pt" version="1.1" viewBox="0 0 460.8 345.6" width="460.8pt" xmlns="http://www.w3.org/2000/svg" xmlns:xlink="http://www.w3.org/1999/xlink">
 <metadata>
  <rdf:RDF xmlns:cc="http://creativecommons.org/ns#" xmlns:dc="http://purl.org/dc/elements/1.1/" xmlns:rdf="http://www.w3.org/1999/02/22-rdf-syntax-ns#">
   <cc:Work>
    <dc:type rdf:resource="http://purl.org/dc/dcmitype/StillImage"/>
    <dc:date>2021-10-07T21:52:38.942692</dc:date>
    <dc:format>image/svg+xml</dc:format>
    <dc:creator>
     <cc:Agent>
      <dc:title>Matplotlib v3.4.3, https://matplotlib.org/</dc:title>
     </cc:Agent>
    </dc:creator>
   </cc:Work>
  </rdf:RDF>
 </metadata>
 <defs>
  <style type="text/css">*{stroke-linecap:butt;stroke-linejoin:round;}</style>
 </defs>
 <g id="figure_1">
  <g id="patch_1">
   <path d="M 0 345.6 
L 460.8 345.6 
L 460.8 0 
L 0 0 
z
" style="fill:#ffffff;"/>
  </g>
  <g id="axes_1">
   <g id="patch_2">
    <path d="M 89.018285 304.76 
L 443.52 304.76 
L 443.52 17.28 
L 89.018285 17.28 
z
" style="fill:#ffffff;"/>
   </g>
   <g id="matplotlib.axis_1">
    <g id="xtick_1">
     <g id="line2d_1">
      <defs>
       <path d="M 0 0 
L 0 3.5 
" id="m988dd3da59" style="stroke:#000000;stroke-width:0.8;"/>
      </defs>
      <g>
       <use style="stroke:#000000;stroke-width:0.8;" x="266.269143" xlink:href="#m988dd3da59" y="304.76"/>
      </g>
     </g>
     <g id="text_1">
      <!-- $t$ -->
      <g transform="translate(263.069143 323.9175)scale(0.16 -0.16)">
       <defs>
        <path d="M 2706 3500 
L 2619 3053 
L 1472 3053 
L 1100 1153 
Q 1081 1047 1072 975 
Q 1063 903 1063 863 
Q 1063 663 1183 572 
Q 1303 481 1569 481 
L 2150 481 
L 2053 0 
L 1503 0 
Q 991 0 739 200 
Q 488 400 488 806 
Q 488 878 497 964 
Q 506 1050 525 1153 
L 897 3053 
L 409 3053 
L 500 3500 
L 978 3500 
L 1172 4494 
L 1747 4494 
L 1556 3500 
L 2706 3500 
z
" id="DejaVuSans-Oblique-74" transform="scale(0.015625)"/>
       </defs>
       <use transform="translate(0 0.78125)" xlink:href="#DejaVuSans-Oblique-74"/>
      </g>
     </g>
    </g>
    <g id="xtick_2">
     <g id="line2d_2">
      <g>
       <use style="stroke:#000000;stroke-width:0.8;" x="286.411286" xlink:href="#m988dd3da59" y="304.76"/>
      </g>
     </g>
     <g id="text_2">
      <!-- $t + \mathrm{d}t$ -->
      <g transform="translate(265.211286 323.9175)scale(0.16 -0.16)">
       <defs>
        <path d="M 2944 4013 
L 2944 2272 
L 4684 2272 
L 4684 1741 
L 2944 1741 
L 2944 0 
L 2419 0 
L 2419 1741 
L 678 1741 
L 678 2272 
L 2419 2272 
L 2419 4013 
L 2944 4013 
z
" id="DejaVuSans-2b" transform="scale(0.015625)"/>
        <path d="M 2906 2969 
L 2906 4863 
L 3481 4863 
L 3481 0 
L 2906 0 
L 2906 525 
Q 2725 213 2448 61 
Q 2172 -91 1784 -91 
Q 1150 -91 751 415 
Q 353 922 353 1747 
Q 353 2572 751 3078 
Q 1150 3584 1784 3584 
Q 2172 3584 2448 3432 
Q 2725 3281 2906 2969 
z
M 947 1747 
Q 947 1113 1208 752 
Q 1469 391 1925 391 
Q 2381 391 2643 752 
Q 2906 1113 2906 1747 
Q 2906 2381 2643 2742 
Q 2381 3103 1925 3103 
Q 1469 3103 1208 2742 
Q 947 2381 947 1747 
z
" id="DejaVuSans-64" transform="scale(0.015625)"/>
       </defs>
       <use transform="translate(0 0.015625)" xlink:href="#DejaVuSans-Oblique-74"/>
       <use transform="translate(58.691406 0.015625)" xlink:href="#DejaVuSans-2b"/>
       <use transform="translate(161.962891 0.015625)" xlink:href="#DejaVuSans-64"/>
       <use transform="translate(225.439453 0.015625)" xlink:href="#DejaVuSans-Oblique-74"/>
      </g>
     </g>
    </g>
   </g>
   <g id="matplotlib.axis_2">
    <g id="ytick_1">
     <g id="line2d_3">
      <defs>
       <path d="M 0 0 
L -3.5 0 
" id="m4558884acb" style="stroke:#000000;stroke-width:0.8;"/>
      </defs>
      <g>
       <use style="stroke:#000000;stroke-width:0.8;" x="89.018285" xlink:href="#m4558884acb" y="30.347273"/>
      </g>
     </g>
     <g id="text_3">
      <!-- $y(t)$ -->
      <g transform="translate(53.698285 36.427273)scale(0.16 -0.16)">
       <defs>
        <path d="M 1588 -325 
Q 1188 -997 936 -1164 
Q 684 -1331 294 -1331 
L -159 -1331 
L -63 -850 
L 269 -850 
Q 509 -850 678 -719 
Q 847 -588 1056 -206 
L 1234 128 
L 459 3500 
L 1069 3500 
L 1650 819 
L 3256 3500 
L 3859 3500 
L 1588 -325 
z
" id="DejaVuSans-Oblique-79" transform="scale(0.015625)"/>
        <path d="M 1984 4856 
Q 1566 4138 1362 3434 
Q 1159 2731 1159 2009 
Q 1159 1288 1364 580 
Q 1569 -128 1984 -844 
L 1484 -844 
Q 1016 -109 783 600 
Q 550 1309 550 2009 
Q 550 2706 781 3412 
Q 1013 4119 1484 4856 
L 1984 4856 
z
" id="DejaVuSans-28" transform="scale(0.015625)"/>
        <path d="M 513 4856 
L 1013 4856 
Q 1481 4119 1714 3412 
Q 1947 2706 1947 2009 
Q 1947 1309 1714 600 
Q 1481 -109 1013 -844 
L 513 -844 
Q 928 -128 1133 580 
Q 1338 1288 1338 2009 
Q 1338 2731 1133 3434 
Q 928 4138 513 4856 
z
" id="DejaVuSans-29" transform="scale(0.015625)"/>
       </defs>
       <use transform="translate(0 0.125)" xlink:href="#DejaVuSans-Oblique-79"/>
       <use transform="translate(59.179688 0.125)" xlink:href="#DejaVuSans-28"/>
       <use transform="translate(98.193359 0.125)" xlink:href="#DejaVuSans-Oblique-74"/>
       <use transform="translate(137.402344 0.125)" xlink:href="#DejaVuSans-29"/>
      </g>
     </g>
    </g>
    <g id="ytick_2">
     <g id="line2d_4">
      <g>
       <use style="stroke:#000000;stroke-width:0.8;" x="89.018285" xlink:href="#m4558884acb" y="40.294142"/>
      </g>
     </g>
     <g id="text_4">
      <!-- $y(t + \mathrm{d}t)$ -->
      <g transform="translate(17.698285 46.374142)scale(0.16 -0.16)">
       <use transform="translate(0 0.015625)" xlink:href="#DejaVuSans-Oblique-79"/>
       <use transform="translate(59.179688 0.015625)" xlink:href="#DejaVuSans-28"/>
       <use transform="translate(98.193359 0.015625)" xlink:href="#DejaVuSans-Oblique-74"/>
       <use transform="translate(156.884766 0.015625)" xlink:href="#DejaVuSans-2b"/>
       <use transform="translate(260.15625 0.015625)" xlink:href="#DejaVuSans-64"/>
       <use transform="translate(323.632812 0.015625)" xlink:href="#DejaVuSans-Oblique-74"/>
       <use transform="translate(362.841797 0.015625)" xlink:href="#DejaVuSans-29"/>
      </g>
     </g>
    </g>
   </g>
   <g id="line2d_5">
    <path clip-path="url(#pc2ff7c3154)" d="M 105.132 291.692727 
L 107.390178 291.566105 
L 109.648356 291.186484 
L 111.906534 290.5546 
L 114.164712 289.671677 
L 116.422891 288.539427 
L 118.681069 287.160043 
L 120.939247 285.5362 
L 123.520022 283.385099 
L 126.100797 280.924274 
L 128.681572 278.159954 
L 131.584944 274.696063 
L 134.488316 270.868034 
L 137.391688 266.688128 
L 140.617657 261.647416 
L 143.843626 256.208779 
L 147.392191 249.792387 
L 151.263354 242.309393 
L 155.457113 233.681929 
L 159.97347 223.849596 
L 164.812423 212.776823 
L 170.29657 199.676679 
L 177.071105 182.901261 
L 188.684592 153.422057 
L 198.685096 128.292216 
L 205.137033 112.679366 
L 210.62118 99.999664 
L 215.460134 89.385916 
L 219.653893 80.699427 
L 223.525056 73.156193 
L 227.396218 66.113219 
L 230.944784 60.130925 
L 234.170753 55.110646 
L 237.396722 50.50918 
L 240.300094 46.74102 
L 243.203466 43.33893 
L 245.784241 40.631005 
L 248.365016 38.227802 
L 250.945791 36.135405 
L 253.203969 34.563697 
L 255.462147 33.237061 
L 257.720325 32.15807 
L 259.978503 31.328814 
L 262.236682 30.7509 
L 264.49486 30.425447 
L 266.753038 30.353088 
L 269.011216 30.533961 
L 271.269394 30.967718 
L 273.527573 31.653515 
L 275.785751 32.590026 
L 278.043929 33.775435 
L 280.302107 35.207444 
L 282.560285 36.883278 
L 285.14106 39.092891 
L 287.721835 41.611119 
L 290.30261 44.431588 
L 293.205982 47.956971 
L 296.109354 51.844529 
L 299.335323 56.573626 
L 302.561292 61.715751 
L 306.109858 67.82482 
L 309.658423 74.379785 
L 313.529586 82.002293 
L 317.723346 90.766278 
L 322.239702 100.727617 
L 327.401252 112.679366 
L 333.207996 126.703511 
L 340.627724 145.237764 
L 362.564312 200.460987 
L 368.371056 214.281984 
L 373.532606 226.000164 
L 378.048963 235.718128 
L 382.242722 244.225243 
L 386.113885 251.585765 
L 389.66245 257.880902 
L 393.211016 263.712605 
L 396.436985 268.588474 
L 399.662954 273.03897 
L 402.566326 276.66614 
L 405.469698 279.92286 
L 408.050473 282.498268 
L 410.631248 284.766196 
L 413.212023 286.720904 
L 415.470201 288.170427 
L 417.728379 289.373532 
L 419.986557 290.327887 
L 422.244736 291.031642 
L 424.502914 291.483435 
L 426.761092 291.682389 
L 427.406286 291.692727 
L 427.406286 291.692727 
" style="fill:none;stroke:#1f77b4;stroke-linecap:square;stroke-width:1.5;"/>
   </g>
   <g id="line2d_6">
    <path clip-path="url(#pc2ff7c3154)" d="M 266.269143 30.347273 
L 286.411286 40.294142 
" style="fill:none;stroke:#ff7f0e;stroke-linecap:square;stroke-width:1.5;"/>
   </g>
   <g id="line2d_7">
    <path clip-path="url(#pc2ff7c3154)" d="M 266.269143 291.692727 
L 266.269143 30.347273 
L 105.132 30.347273 
" style="fill:none;stroke:#2ca02c;stroke-dasharray:5.55,2.4;stroke-dashoffset:0;stroke-width:1.5;"/>
   </g>
   <g id="line2d_8">
    <path clip-path="url(#pc2ff7c3154)" d="M 286.411286 291.692727 
L 286.411286 40.294142 
L 105.132 40.294142 
" style="fill:none;stroke:#d62728;stroke-dasharray:5.55,2.4;stroke-dashoffset:0;stroke-width:1.5;"/>
   </g>
   <g id="patch_3">
    <path d="M 89.018285 304.76 
L 89.018285 17.28 
" style="fill:none;stroke:#000000;stroke-linecap:square;stroke-linejoin:miter;stroke-width:0.8;"/>
   </g>
   <g id="patch_4">
    <path d="M 443.52 304.76 
L 443.52 17.28 
" style="fill:none;stroke:#000000;stroke-linecap:square;stroke-linejoin:miter;stroke-width:0.8;"/>
   </g>
   <g id="patch_5">
    <path d="M 89.018285 304.76 
L 443.52 304.76 
" style="fill:none;stroke:#000000;stroke-linecap:square;stroke-linejoin:miter;stroke-width:0.8;"/>
   </g>
   <g id="patch_6">
    <path d="M 89.018285 17.28 
L 443.52 17.28 
" style="fill:none;stroke:#000000;stroke-linecap:square;stroke-linejoin:miter;stroke-width:0.8;"/>
   </g>
   <g id="text_5">
    <!-- slope -1.22 -->
    <g transform="translate(330.724 69.549091)scale(0.16 -0.16)">
     <defs>
      <path d="M 2834 3397 
L 2834 2853 
Q 2591 2978 2328 3040 
Q 2066 3103 1784 3103 
Q 1356 3103 1142 2972 
Q 928 2841 928 2578 
Q 928 2378 1081 2264 
Q 1234 2150 1697 2047 
L 1894 2003 
Q 2506 1872 2764 1633 
Q 3022 1394 3022 966 
Q 3022 478 2636 193 
Q 2250 -91 1575 -91 
Q 1294 -91 989 -36 
Q 684 19 347 128 
L 347 722 
Q 666 556 975 473 
Q 1284 391 1588 391 
Q 1994 391 2212 530 
Q 2431 669 2431 922 
Q 2431 1156 2273 1281 
Q 2116 1406 1581 1522 
L 1381 1569 
Q 847 1681 609 1914 
Q 372 2147 372 2553 
Q 372 3047 722 3315 
Q 1072 3584 1716 3584 
Q 2034 3584 2315 3537 
Q 2597 3491 2834 3397 
z
" id="DejaVuSans-73" transform="scale(0.015625)"/>
      <path d="M 603 4863 
L 1178 4863 
L 1178 0 
L 603 0 
L 603 4863 
z
" id="DejaVuSans-6c" transform="scale(0.015625)"/>
      <path d="M 1959 3097 
Q 1497 3097 1228 2736 
Q 959 2375 959 1747 
Q 959 1119 1226 758 
Q 1494 397 1959 397 
Q 2419 397 2687 759 
Q 2956 1122 2956 1747 
Q 2956 2369 2687 2733 
Q 2419 3097 1959 3097 
z
M 1959 3584 
Q 2709 3584 3137 3096 
Q 3566 2609 3566 1747 
Q 3566 888 3137 398 
Q 2709 -91 1959 -91 
Q 1206 -91 779 398 
Q 353 888 353 1747 
Q 353 2609 779 3096 
Q 1206 3584 1959 3584 
z
" id="DejaVuSans-6f" transform="scale(0.015625)"/>
      <path d="M 1159 525 
L 1159 -1331 
L 581 -1331 
L 581 3500 
L 1159 3500 
L 1159 2969 
Q 1341 3281 1617 3432 
Q 1894 3584 2278 3584 
Q 2916 3584 3314 3078 
Q 3713 2572 3713 1747 
Q 3713 922 3314 415 
Q 2916 -91 2278 -91 
Q 1894 -91 1617 61 
Q 1341 213 1159 525 
z
M 3116 1747 
Q 3116 2381 2855 2742 
Q 2594 3103 2138 3103 
Q 1681 3103 1420 2742 
Q 1159 2381 1159 1747 
Q 1159 1113 1420 752 
Q 1681 391 2138 391 
Q 2594 391 2855 752 
Q 3116 1113 3116 1747 
z
" id="DejaVuSans-70" transform="scale(0.015625)"/>
      <path d="M 3597 1894 
L 3597 1613 
L 953 1613 
Q 991 1019 1311 708 
Q 1631 397 2203 397 
Q 2534 397 2845 478 
Q 3156 559 3463 722 
L 3463 178 
Q 3153 47 2828 -22 
Q 2503 -91 2169 -91 
Q 1331 -91 842 396 
Q 353 884 353 1716 
Q 353 2575 817 3079 
Q 1281 3584 2069 3584 
Q 2775 3584 3186 3129 
Q 3597 2675 3597 1894 
z
M 3022 2063 
Q 3016 2534 2758 2815 
Q 2500 3097 2075 3097 
Q 1594 3097 1305 2825 
Q 1016 2553 972 2059 
L 3022 2063 
z
" id="DejaVuSans-65" transform="scale(0.015625)"/>
      <path id="DejaVuSans-20" transform="scale(0.015625)"/>
      <path d="M 313 2009 
L 1997 2009 
L 1997 1497 
L 313 1497 
L 313 2009 
z
" id="DejaVuSans-2d" transform="scale(0.015625)"/>
      <path d="M 794 531 
L 1825 531 
L 1825 4091 
L 703 3866 
L 703 4441 
L 1819 4666 
L 2450 4666 
L 2450 531 
L 3481 531 
L 3481 0 
L 794 0 
L 794 531 
z
" id="DejaVuSans-31" transform="scale(0.015625)"/>
      <path d="M 684 794 
L 1344 794 
L 1344 0 
L 684 0 
L 684 794 
z
" id="DejaVuSans-2e" transform="scale(0.015625)"/>
      <path d="M 1228 531 
L 3431 531 
L 3431 0 
L 469 0 
L 469 531 
Q 828 903 1448 1529 
Q 2069 2156 2228 2338 
Q 2531 2678 2651 2914 
Q 2772 3150 2772 3378 
Q 2772 3750 2511 3984 
Q 2250 4219 1831 4219 
Q 1534 4219 1204 4116 
Q 875 4013 500 3803 
L 500 4441 
Q 881 4594 1212 4672 
Q 1544 4750 1819 4750 
Q 2544 4750 2975 4387 
Q 3406 4025 3406 3419 
Q 3406 3131 3298 2873 
Q 3191 2616 2906 2266 
Q 2828 2175 2409 1742 
Q 1991 1309 1228 531 
z
" id="DejaVuSans-32" transform="scale(0.015625)"/>
     </defs>
     <use xlink:href="#DejaVuSans-73"/>
     <use x="52.099609" xlink:href="#DejaVuSans-6c"/>
     <use x="79.882812" xlink:href="#DejaVuSans-6f"/>
     <use x="141.064453" xlink:href="#DejaVuSans-70"/>
     <use x="204.541016" xlink:href="#DejaVuSans-65"/>
     <use x="266.064453" xlink:href="#DejaVuSans-20"/>
     <use x="297.851562" xlink:href="#DejaVuSans-2d"/>
     <use x="333.935547" xlink:href="#DejaVuSans-31"/>
     <use x="397.558594" xlink:href="#DejaVuSans-2e"/>
     <use x="429.345703" xlink:href="#DejaVuSans-32"/>
     <use x="492.96875" xlink:href="#DejaVuSans-32"/>
    </g>
   </g>
  </g>
 </g>
 <defs>
  <clipPath id="pc2ff7c3154">
   <rect height="287.48" width="354.501715" x="89.018285" y="17.28"/>
  </clipPath>
 </defs>
</svg>
