<?xml version="1.0" encoding="UTF-8" standalone="no"?>
<svg
   xmlns:dc="http://purl.org/dc/elements/1.1/"
   xmlns:cc="http://creativecommons.org/ns#"
   xmlns:rdf="http://www.w3.org/1999/02/22-rdf-syntax-ns#"
   xmlns:svg="http://www.w3.org/2000/svg"
   xmlns="http://www.w3.org/2000/svg"
   id="svg8"
   version="1.1"
   viewBox="0 0 144.44002 60.203182"
   height="60.203182mm"
   width="144.44002mm">
  <defs
     style="stroke-linecap:butt;stroke-linejoin:round"
     id="defs2">
    <style
       type="text/css"
       id="style3927">*{stroke-linecap:butt;stroke-linejoin:round;}</style>
    <path
       d="M 0,0 V 3.5"
       id="mcb3c2fcbc7"
       style="stroke:#000000;stroke-width:0.80000001;stroke-linecap:butt;stroke-linejoin:round" />
    <path
       style="stroke-linecap:butt;stroke-linejoin:round"
       d="m 2706,3500 -87,-447 H 1472 L 1100,1153 q -19,-106 -28,-178 -9,-72 -9,-112 0,-200 120,-291 120,-91 386,-91 h 581 L 2053,0 H 1503 Q 991,0 739,200 488,400 488,806 q 0,72 9,158 9,86 28,189 L 897,3053 H 409 l 91,447 h 478 l 194,994 h 575 l -191,-994 z"
       id="DejaVuSans-Oblique-74"
       transform="scale(0.015625)" />
    <path
       style="stroke-linecap:butt;stroke-linejoin:round"
       d="M 2944,4013 V 2272 H 4684 V 1741 H 2944 V 0 H 2419 V 1741 H 678 v 531 h 1741 v 1741 z"
       id="DejaVuSans-2b"
       transform="scale(0.015625)" />
    <path
       style="stroke-linecap:butt;stroke-linejoin:round"
       d="m 2906,2969 v 1894 h 575 V 0 H 2906 V 525 Q 2725,213 2448,61 2172,-91 1784,-91 1150,-91 751,415 353,922 353,1747 q 0,825 398,1331 399,506 1033,506 388,0 664,-152 277,-151 458,-463 z M 947,1747 q 0,-634 261,-995 261,-361 717,-361 456,0 718,361 263,361 263,995 0,634 -263,995 -262,361 -718,361 -456,0 -717,-361 -261,-361 -261,-995 z"
       id="DejaVuSans-64"
       transform="scale(0.015625)" />
    <path
       d="M 0,0 H -3.5"
       id="mef6a560bfb"
       style="stroke:#000000;stroke-width:0.80000001;stroke-linecap:butt;stroke-linejoin:round" />
    <path
       style="stroke-linecap:butt;stroke-linejoin:round"
       d="m 1588,-325 q -400,-672 -652,-839 -252,-167 -642,-167 h -453 l 96,481 h 332 q 240,0 409,131 169,131 378,513 l 178,334 -775,3372 h 610 L 1650,819 3256,3500 h 603 z"
       id="DejaVuSans-Oblique-79"
       transform="scale(0.015625)" />
    <path
       style="stroke-linecap:butt;stroke-linejoin:round"
       d="m 1984,4856 q -418,-718 -622,-1422 -203,-703 -203,-1425 0,-721 205,-1429 205,-708 620,-1424 h -500 q -468,735 -701,1444 -233,709 -233,1409 0,697 231,1403 232,707 703,1444 z"
       id="DejaVuSans-28"
       transform="scale(0.015625)" />
    <path
       style="stroke-linecap:butt;stroke-linejoin:round"
       d="m 513,4856 h 500 q 468,-737 701,-1444 233,-706 233,-1403 0,-700 -233,-1409 -233,-709 -701,-1444 H 513 q 415,716 620,1424 205,708 205,1429 0,722 -205,1425 -205,704 -620,1422 z"
       id="DejaVuSans-29"
       transform="scale(0.015625)" />
    <path
       style="stroke-linecap:butt;stroke-linejoin:round"
       d="m 2834,3397 v -544 q -243,125 -506,187 -262,63 -544,63 -428,0 -642,-131 -214,-131 -214,-394 0,-200 153,-314 153,-114 616,-217 l 197,-44 q 612,-131 870,-370 258,-239 258,-667 0,-488 -386,-773 Q 2250,-91 1575,-91 1294,-91 989,-36 684,19 347,128 v 594 q 319,-166 628,-249 309,-82 613,-82 406,0 624,139 219,139 219,392 0,234 -158,359 -157,125 -692,241 l -200,47 q -534,112 -772,345 -237,233 -237,639 0,494 350,762 350,269 994,269 318,0 599,-47 282,-46 519,-140 z"
       id="DejaVuSans-73"
       transform="scale(0.015625)" />
    <path
       style="stroke-linecap:butt;stroke-linejoin:round"
       d="m 603,4863 h 575 V 0 H 603 Z"
       id="DejaVuSans-6c"
       transform="scale(0.015625)" />
    <path
       style="stroke-linecap:butt;stroke-linejoin:round"
       d="m 1959,3097 q -462,0 -731,-361 -269,-361 -269,-989 0,-628 267,-989 268,-361 733,-361 460,0 728,362 269,363 269,988 0,622 -269,986 -268,364 -728,364 z m 0,487 q 750,0 1178,-488 429,-487 429,-1349 Q 3566,888 3137,398 2709,-91 1959,-91 1206,-91 779,398 353,888 353,1747 q 0,862 426,1349 427,488 1180,488 z"
       id="DejaVuSans-6f"
       transform="scale(0.015625)" />
    <path
       style="stroke-linecap:butt;stroke-linejoin:round"
       d="M 1159,525 V -1331 H 581 v 4831 h 578 v -531 q 182,312 458,463 277,152 661,152 638,0 1036,-506 399,-506 399,-1331 0,-825 -399,-1332 -398,-506 -1036,-506 -384,0 -661,152 -276,152 -458,464 z m 1957,1222 q 0,634 -261,995 -261,361 -717,361 -457,0 -718,-361 -261,-361 -261,-995 0,-634 261,-995 261,-361 718,-361 456,0 717,361 261,361 261,995 z"
       id="DejaVuSans-70"
       transform="scale(0.015625)" />
    <path
       style="stroke-linecap:butt;stroke-linejoin:round"
       d="M 3597,1894 V 1613 H 953 q 38,-594 358,-905 320,-311 892,-311 331,0 642,81 311,81 618,244 V 178 Q 3153,47 2828,-22 2503,-91 2169,-91 1331,-91 842,396 353,884 353,1716 q 0,859 464,1363 464,505 1252,505 706,0 1117,-455 411,-454 411,-1235 z m -575,169 q -6,471 -264,752 -258,282 -683,282 -481,0 -770,-272 -289,-272 -333,-766 z"
       id="DejaVuSans-65"
       transform="scale(0.015625)" />
    <path
       style="stroke-linecap:butt;stroke-linejoin:round"
       d=""
       id="DejaVuSans-20"
       transform="scale(0.015625)" />
    <path
       style="stroke-linecap:butt;stroke-linejoin:round"
       d="M 313,2009 H 1997 V 1497 H 313 Z"
       id="DejaVuSans-2d"
       transform="scale(0.015625)" />
    <path
       style="stroke-linecap:butt;stroke-linejoin:round"
       d="M 2419,4116 825,1625 h 1594 z m -166,550 h 794 V 1625 h 666 V 1100 H 3047 V 0 H 2419 V 1100 H 313 v 609 z"
       id="DejaVuSans-34"
       transform="scale(0.015625)" />
    <path
       style="stroke-linecap:butt;stroke-linejoin:round"
       d="m 684,794 h 660 V 0 H 684 Z"
       id="DejaVuSans-2e"
       transform="scale(0.015625)" />
    <path
       style="stroke-linecap:butt;stroke-linejoin:round"
       d="m 2034,4250 q -487,0 -733,-480 -245,-479 -245,-1442 0,-959 245,-1439 246,-480 733,-480 491,0 736,480 246,480 246,1439 0,963 -246,1442 -245,480 -736,480 z m 0,500 q 785,0 1199,-621 414,-620 414,-1801 0,-1178 -414,-1799 -414,-620 -1199,-620 -784,0 -1198,620 -414,621 -414,1799 0,1181 414,1801 414,621 1198,621 z"
       id="DejaVuSans-30"
       transform="scale(0.015625)" />
    <clipPath
       style="stroke-linecap:butt;stroke-linejoin:round"
       id="p745c5f35a1">
      <rect
         style="stroke-linecap:butt;stroke-linejoin:round"
         height="287.48001"
         width="354.50171"
         x="89.018288"
         y="17.280001"
         id="rect4088" />
    </clipPath>
  </defs>
  <metadata
     id="metadata5">
    <rdf:RDF>
      <cc:Work
         rdf:about="">
        <dc:format>image/svg+xml</dc:format>
        <dc:type
           rdf:resource="http://purl.org/dc/dcmitype/StillImage" />
        <dc:title></dc:title>
      </cc:Work>
    </rdf:RDF>
  </metadata>
  <g
     transform="translate(81.014635,-110.67724)"
     id="layer1">
    <text
       id="text5175"
       y="186.28426"
       x="-47.669281"
       style="font-style:normal;font-variant:normal;font-weight:normal;font-stretch:normal;font-size:3.88055563px;line-height:100%;font-family:sans-serif;-inkscape-font-specification:sans-serif;text-align:center;letter-spacing:0px;word-spacing:0px;text-anchor:middle;fill:#000000;fill-opacity:1;stroke:none;stroke-width:0.26458332px;stroke-linecap:butt;stroke-linejoin:miter;stroke-opacity:1"
       xml:space="preserve"><tspan
         y="189.23257"
         x="-47.669281"
         style="stroke-width:0.26458332px;stroke-linecap:butt;stroke-linejoin:round"
         id="tspan5173"></tspan></text>
    <path
       id="rect4343"
       d="m 5.8263707,133.55345 v 21.33636 H -15.509996 Z"
       style="opacity:1;fill:none;fill-opacity:1;stroke:#000000;stroke-width:1.41111112;stroke-linecap:round;stroke-linejoin:round;stroke-miterlimit:4;stroke-dasharray:none;stroke-dashoffset:0;stroke-opacity:1;paint-order:stroke fill markers" />
    <text
       id="text5199"
       y="170.88042"
       x="-3.7456815"
       style="font-style:normal;font-variant:normal;font-weight:normal;font-stretch:normal;font-size:14.42726612px;line-height:100%;font-family:sans-serif;-inkscape-font-specification:sans-serif;text-align:center;letter-spacing:0px;word-spacing:0px;text-anchor:middle;fill:#000000;fill-opacity:1;stroke:none;stroke-width:0.98367721px;stroke-linecap:butt;stroke-linejoin:miter;stroke-opacity:1"
       xml:space="preserve"><tspan
         y="170.88042"
         x="-3.7456818"
         style="stroke-width:0.98367721px;stroke-linecap:butt;stroke-linejoin:round"
         id="tspan5197">1</tspan></text>
    <text
       xml:space="preserve"
       style="font-style:normal;font-variant:normal;font-weight:normal;font-stretch:normal;font-size:14.42726612px;line-height:100%;font-family:sans-serif;-inkscape-font-specification:sans-serif;text-align:center;letter-spacing:0px;word-spacing:0px;text-anchor:middle;fill:#000000;fill-opacity:1;stroke:none;stroke-width:0.98367721px;stroke-linecap:butt;stroke-linejoin:miter;stroke-opacity:1"
       x="13.716821"
       y="151.30151"
       id="text5215"><tspan
         id="tspan5213"
         style="stroke-width:0.98367721px;stroke-linecap:butt;stroke-linejoin:round"
         x="13.716821"
         y="151.30151">1</tspan></text>
    <path
       style="opacity:1;fill:none;fill-opacity:1;stroke:#000000;stroke-width:1.41111112;stroke-linecap:round;stroke-linejoin:round;stroke-miterlimit:4;stroke-dasharray:none;stroke-dashoffset:0;stroke-opacity:1;paint-order:stroke fill markers"
       d="m 52.104799,111.38255 v 43.50726 H 31.344905 Z"
       id="path5228" />
    <text
       xml:space="preserve"
       style="font-style:normal;font-variant:normal;font-weight:normal;font-stretch:normal;font-size:14.42726612px;line-height:100%;font-family:sans-serif;-inkscape-font-specification:sans-serif;text-align:center;letter-spacing:0px;word-spacing:0px;text-anchor:middle;fill:#000000;fill-opacity:1;stroke:none;stroke-width:0.98367721px;stroke-linecap:butt;stroke-linejoin:miter;stroke-opacity:1"
       x="42.821003"
       y="170.88042"
       id="text5232"><tspan
         id="tspan5230"
         style="stroke-width:0.98367721px;stroke-linecap:butt;stroke-linejoin:round"
         x="42.821003"
         y="170.88042">1</tspan></text>
    <text
       id="text5236"
       y="141.24748"
       x="60.283504"
       style="font-style:normal;font-variant:normal;font-weight:normal;font-stretch:normal;font-size:14.42726612px;line-height:100%;font-family:sans-serif;-inkscape-font-specification:sans-serif;text-align:center;letter-spacing:0px;word-spacing:0px;text-anchor:middle;fill:#000000;fill-opacity:1;stroke:none;stroke-width:0.98367721px;stroke-linecap:butt;stroke-linejoin:miter;stroke-opacity:1"
       xml:space="preserve"><tspan
         y="141.24748"
         x="60.283504"
         style="stroke-width:0.98367721px;stroke-linecap:butt;stroke-linejoin:round"
         id="tspan5234">2</tspan></text>
    <path
       style="opacity:1;fill:none;fill-opacity:1;stroke:#000000;stroke-width:1.41111112;stroke-linecap:round;stroke-linejoin:round;stroke-miterlimit:4;stroke-dasharray:none;stroke-dashoffset:0;stroke-opacity:1;paint-order:stroke fill markers"
       d="m -36.802049,134.12993 v 20.75988 H -80.30932 Z"
       id="path5240" />
    <text
       xml:space="preserve"
       style="font-style:normal;font-variant:normal;font-weight:normal;font-stretch:normal;font-size:14.42726612px;line-height:100%;font-family:sans-serif;-inkscape-font-specification:sans-serif;text-align:center;letter-spacing:0px;word-spacing:0px;text-anchor:middle;fill:#000000;fill-opacity:1;stroke:none;stroke-width:0.98367721px;stroke-linecap:butt;stroke-linejoin:miter;stroke-opacity:1"
       x="-56.662384"
       y="170.88042"
       id="text5244"><tspan
         id="tspan5242"
         style="stroke-width:0.98367721px;stroke-linecap:butt;stroke-linejoin:round"
         x="-56.662384"
         y="170.88042">2</tspan></text>
    <text
       id="text5248"
       y="151.30151"
       x="-29.145706"
       style="font-style:normal;font-variant:normal;font-weight:normal;font-stretch:normal;font-size:14.42726612px;line-height:100%;font-family:sans-serif;-inkscape-font-specification:sans-serif;text-align:center;letter-spacing:0px;word-spacing:0px;text-anchor:middle;fill:#000000;fill-opacity:1;stroke:none;stroke-width:0.98367721px;stroke-linecap:butt;stroke-linejoin:miter;stroke-opacity:1"
       xml:space="preserve"><tspan
         y="151.30151"
         x="-29.145706"
         style="stroke-width:0.98367721px;stroke-linecap:butt;stroke-linejoin:round"
         id="tspan5246">1</tspan></text>
  </g>
</svg>
