<?xml version="1.0" encoding="utf-8" standalone="no"?>
<!DOCTYPE svg PUBLIC "-//W3C//DTD SVG 1.1//EN"
  "http://www.w3.org/Graphics/SVG/1.1/DTD/svg11.dtd">
<svg xmlns:xlink="http://www.w3.org/1999/xlink" width="460.8pt" height="345.6pt" viewBox="0 0 460.8 345.6" xmlns="http://www.w3.org/2000/svg" version="1.1">
 <metadata>
  <rdf:RDF xmlns:dc="http://purl.org/dc/elements/1.1/" xmlns:cc="http://creativecommons.org/ns#" xmlns:rdf="http://www.w3.org/1999/02/22-rdf-syntax-ns#">
   <cc:Work>
    <dc:type rdf:resource="http://purl.org/dc/dcmitype/StillImage"/>
    <dc:date>2022-09-22T11:48:10.828965</dc:date>
    <dc:format>image/svg+xml</dc:format>
    <dc:creator>
     <cc:Agent>
      <dc:title>Matplotlib v3.6.0, https://matplotlib.org/</dc:title>
     </cc:Agent>
    </dc:creator>
   </cc:Work>
  </rdf:RDF>
 </metadata>
 <defs>
  <style type="text/css">*{stroke-linejoin: round; stroke-linecap: butt}</style>
 </defs>
 <g id="figure_1">
  <g id="patch_1">
   <path d="M 0 345.6 
L 460.8 345.6 
L 460.8 0 
L 0 0 
z
" style="fill: #ffffff"/>
  </g>
  <g id="axes_1">
   <g id="line2d_1">
    <path d="M 73.832727 256.137883 
L 80.45833 256.137883 
L 87.083933 256.137883 
L 93.709536 256.137883 
L 100.335139 256.137883 
L 106.960742 256.137883 
L 113.586345 256.137883 
L 120.211948 256.137883 
L 126.837551 256.137883 
L 133.463154 256.137883 
L 140.088757 256.137883 
L 146.71436 256.137883 
L 153.339963 256.137883 
L 159.965566 256.137883 
L 166.591169 256.137883 
L 173.216772 256.137883 
L 179.842375 256.137883 
L 186.467978 256.137883 
L 193.093581 256.137883 
L 199.719184 256.137883 
L 206.344787 256.137883 
L 212.97039 256.137883 
L 219.595993 256.137883 
L 226.221596 256.137883 
L 232.847199 256.137883 
L 239.472801 256.137883 
L 246.098404 256.137883 
L 252.724007 256.137883 
L 259.34961 256.137883 
L 265.975213 256.137883 
L 272.600816 256.137883 
L 279.226419 256.137883 
L 285.852022 256.137883 
L 292.477625 256.137883 
L 299.103228 256.137883 
L 305.728831 256.137883 
L 312.354434 256.137883 
L 318.980037 256.137883 
L 325.60564 256.137883 
L 332.231243 256.137883 
L 338.856846 256.137883 
L 345.482449 256.137883 
L 352.108052 256.137883 
L 358.733655 256.137883 
L 365.359258 256.137883 
L 371.984861 256.137883 
L 378.610464 256.137883 
L 385.236067 256.137883 
L 391.86167 256.137883 
L 398.487273 256.137883 
" clip-path="url(#p16c5b687f4)" style="fill: none; stroke: #bfbfbf; stroke-width: 1.5; stroke-linecap: square"/>
   </g>
   <g id="line2d_2">
    <path d="M 73.832727 288.810444 
L 80.45833 289.410507 
L 87.083933 290.009926 
L 93.709536 290.607051 
L 100.335139 291.199125 
L 106.960742 291.782294 
L 113.586345 292.351598 
L 120.211948 292.900978 
L 126.837551 293.423273 
L 133.463154 293.91022 
L 140.088757 294.352452 
L 146.71436 294.739503 
L 153.339963 295.059805 
L 159.965566 295.300687 
L 166.591169 295.448377 
L 173.216772 295.488 
L 179.842375 295.403581 
L 186.467978 295.178043 
L 193.093581 294.793205 
L 199.719184 294.229787 
L 206.344787 293.467406 
L 212.97039 292.484577 
L 219.595993 291.258713 
L 226.221596 289.766127 
L 232.847199 287.982028 
L 239.472801 285.880524 
L 246.098404 283.434622 
L 252.724007 280.616226 
L 259.34961 277.39614 
L 265.975213 273.744064 
L 272.600816 269.628597 
L 279.226419 265.017237 
L 285.852022 259.87638 
L 292.477625 254.171319 
L 299.103228 247.866247 
L 305.728831 240.924253 
L 312.354434 233.307328 
L 318.980037 224.976356 
L 325.60564 215.891124 
L 332.231243 206.010315 
L 338.856846 195.29151 
L 345.482449 183.691188 
L 352.108052 171.164728 
L 358.733655 157.666406 
L 365.359258 143.149395 
L 371.984861 127.565769 
L 378.610464 110.866499 
L 385.236067 93.001453 
L 391.86167 73.919398 
L 398.487273 53.568 
" clip-path="url(#p16c5b687f4)" style="fill: none; stroke: #1f77b4; stroke-width: 1.5; stroke-linecap: square"/>
   </g>
   <g id="line2d_3">
    <path d="M 73.832727 256.137883 
L 73.832727 288.810444 
" clip-path="url(#p16c5b687f4)" style="fill: none; stroke: #1f77b4; stroke-width: 1.5; stroke-linecap: square"/>
   </g>
   <g id="line2d_4">
    <path d="M 398.487273 256.137883 
L 398.487273 53.568 
" clip-path="url(#p16c5b687f4)" style="fill: none; stroke: #1f77b4; stroke-width: 1.5; stroke-linecap: square"/>
   </g>
   <g id="line2d_5">
    <defs>
     <path id="m178ff311ab" d="M 0 1.5 
C 0.397805 1.5 0.77937 1.341951 1.06066 1.06066 
C 1.341951 0.77937 1.5 0.397805 1.5 0 
C 1.5 -0.397805 1.341951 -0.77937 1.06066 -1.06066 
C 0.77937 -1.341951 0.397805 -1.5 0 -1.5 
C -0.397805 -1.5 -0.77937 -1.341951 -1.06066 -1.06066 
C -1.341951 -0.77937 -1.5 -0.397805 -1.5 0 
C -1.5 0.397805 -1.341951 0.77937 -1.06066 1.06066 
C -0.77937 1.341951 -0.397805 1.5 0 1.5 
z
" style="stroke: #1f77b4"/>
    </defs>
    <g clip-path="url(#p16c5b687f4)">
     <use xlink:href="#m178ff311ab" x="73.832727" y="256.137883" style="fill: #1f77b4; stroke: #1f77b4"/>
     <use xlink:href="#m178ff311ab" x="398.487273" y="256.137883" style="fill: #1f77b4; stroke: #1f77b4"/>
    </g>
   </g>
   <g id="line2d_6">
    <path d="M 236.16 286.972613 
L 239.472801 285.880524 
L 242.785603 284.702353 
L 246.098404 283.434622 
L 249.411206 282.073785 
L 252.724007 280.616226 
L 256.036809 279.058262 
L 259.34961 277.39614 
L 262.662412 275.626037 
L 265.975213 273.744064 
L 269.288015 271.74626 
L 272.600816 269.628597 
L 275.913618 267.386978 
L 279.226419 265.017237 
L 282.539221 262.515139 
L 285.852022 259.87638 
L 289.164824 257.096587 
L 292.477625 254.171319 
L 295.790427 251.096065 
L 299.103228 247.866247 
L 302.41603 244.477215 
L 305.728831 240.924253 
L 309.041633 237.202576 
L 312.354434 233.307328 
L 315.667236 229.233585 
L 318.980037 224.976356 
L 322.292839 220.530579 
L 325.60564 215.891124 
L 328.918442 211.052792 
L 332.231243 206.010315 
L 335.544045 200.758356 
L 338.856846 195.29151 
L 342.169647 189.604301 
L 345.482449 183.691188 
L 348.79525 177.546557 
L 352.108052 171.164728 
L 355.420853 164.53995 
L 358.733655 157.666406 
L 362.046456 150.538206 
L 365.359258 143.149395 
L 368.672059 135.493948 
L 371.984861 127.565769 
L 375.297662 119.358697 
L 378.610464 110.866499 
L 381.923265 102.082874 
L 385.236067 93.001453 
L 388.548868 83.615796 
L 391.86167 73.919398 
L 395.174471 63.905681 
L 398.487273 53.568 
" clip-path="url(#p16c5b687f4)" style="fill: none; stroke: #ff7f0e; stroke-width: 1.5; stroke-linecap: square"/>
   </g>
   <g id="line2d_7">
    <path d="M 236.16 256.137883 
L 236.16 286.972613 
" clip-path="url(#p16c5b687f4)" style="fill: none; stroke: #ff7f0e; stroke-width: 1.5; stroke-linecap: square"/>
   </g>
   <g id="line2d_8">
    <path d="M 398.487273 256.137883 
L 398.487273 53.568 
" clip-path="url(#p16c5b687f4)" style="fill: none; stroke: #ff7f0e; stroke-width: 1.5; stroke-linecap: square"/>
   </g>
   <g id="line2d_9">
    <defs>
     <path id="m69e119c60d" d="M 0 1.5 
C 0.397805 1.5 0.77937 1.341951 1.06066 1.06066 
C 1.341951 0.77937 1.5 0.397805 1.5 0 
C 1.5 -0.397805 1.341951 -0.77937 1.06066 -1.06066 
C 0.77937 -1.341951 0.397805 -1.5 0 -1.5 
C -0.397805 -1.5 -0.77937 -1.341951 -1.06066 -1.06066 
C -1.341951 -0.77937 -1.5 -0.397805 -1.5 0 
C -1.5 0.397805 -1.341951 0.77937 -1.06066 1.06066 
C -0.77937 1.341951 -0.397805 1.5 0 1.5 
z
" style="stroke: #ff7f0e"/>
    </defs>
    <g clip-path="url(#p16c5b687f4)">
     <use xlink:href="#m69e119c60d" x="236.16" y="256.137883" style="fill: #ff7f0e; stroke: #ff7f0e"/>
     <use xlink:href="#m69e119c60d" x="398.487273" y="256.137883" style="fill: #ff7f0e; stroke: #ff7f0e"/>
    </g>
   </g>
   <g id="line2d_10">
    <path d="M 236.16 286.972613 
L 237.816401 286.437114 
L 239.472801 285.880524 
L 241.129202 285.302415 
L 242.785603 284.702353 
L 244.442004 284.079903 
L 246.098404 283.434622 
L 247.754805 282.766066 
L 249.411206 282.073785 
L 251.067607 281.357325 
L 252.724007 280.616226 
L 254.380408 279.850028 
L 256.036809 279.058262 
L 257.69321 278.240458 
L 259.34961 277.39614 
L 261.006011 276.524828 
L 262.662412 275.626037 
L 264.318813 274.69928 
L 265.975213 273.744064 
L 267.631614 272.759891 
L 269.288015 271.74626 
L 270.944416 270.702665 
L 272.600816 269.628597 
L 274.257217 268.523541 
L 275.913618 267.386978 
L 277.570019 266.218386 
L 279.226419 265.017237 
L 280.88282 263.783 
L 282.539221 262.515139 
L 284.195622 261.213113 
L 285.852022 259.87638 
L 287.508423 258.504388 
L 289.164824 257.096587 
L 290.821224 255.652417 
L 292.477625 254.171319 
L 294.134026 252.652725 
L 295.790427 251.096065 
L 297.446827 249.500765 
L 299.103228 247.866247 
L 300.759629 246.191926 
L 302.41603 244.477215 
L 304.07243 242.721523 
L 305.728831 240.924253 
L 307.385232 239.084806 
L 309.041633 237.202576 
L 310.698033 235.276954 
L 312.354434 233.307328 
L 314.010835 231.293079 
L 315.667236 229.233585 
L 317.323636 227.128221 
" clip-path="url(#p16c5b687f4)" style="fill: none; stroke: #2ca02c; stroke-width: 1.5; stroke-linecap: square"/>
   </g>
   <g id="line2d_11">
    <path d="M 236.16 256.137883 
L 236.16 286.972613 
" clip-path="url(#p16c5b687f4)" style="fill: none; stroke: #2ca02c; stroke-width: 1.5; stroke-linecap: square"/>
   </g>
   <g id="line2d_12">
    <path d="M 317.323636 256.137883 
L 317.323636 227.128221 
" clip-path="url(#p16c5b687f4)" style="fill: none; stroke: #2ca02c; stroke-width: 1.5; stroke-linecap: square"/>
   </g>
   <g id="line2d_13">
    <defs>
     <path id="m5a231e8a2c" d="M 0 1.5 
C 0.397805 1.5 0.77937 1.341951 1.06066 1.06066 
C 1.341951 0.77937 1.5 0.397805 1.5 0 
C 1.5 -0.397805 1.341951 -0.77937 1.06066 -1.06066 
C 0.77937 -1.341951 0.397805 -1.5 0 -1.5 
C -0.397805 -1.5 -0.77937 -1.341951 -1.06066 -1.06066 
C -1.341951 -0.77937 -1.5 -0.397805 -1.5 0 
C -1.5 0.397805 -1.341951 0.77937 -1.06066 1.06066 
C -0.77937 1.341951 -0.397805 1.5 0 1.5 
z
" style="stroke: #2ca02c"/>
    </defs>
    <g clip-path="url(#p16c5b687f4)">
     <use xlink:href="#m5a231e8a2c" x="236.16" y="256.137883" style="fill: #2ca02c; stroke: #2ca02c"/>
     <use xlink:href="#m5a231e8a2c" x="317.323636" y="256.137883" style="fill: #2ca02c; stroke: #2ca02c"/>
    </g>
   </g>
   <g id="line2d_14">
    <path d="M 276.741818 266.806718 
L 277.570019 266.218386 
L 278.398219 265.621914 
L 279.226419 265.017237 
L 280.05462 264.404288 
L 280.88282 263.783 
L 281.71102 263.153306 
L 282.539221 262.515139 
L 283.367421 261.868431 
L 284.195622 261.213113 
L 285.023822 260.549119 
L 285.852022 259.87638 
L 286.680223 259.194826 
L 287.508423 258.504388 
L 288.336623 257.804999 
L 289.164824 257.096587 
L 289.993024 256.379083 
L 290.821224 255.652417 
L 291.649425 254.91652 
L 292.477625 254.171319 
L 293.305826 253.416744 
L 294.134026 252.652725 
L 294.962226 251.879189 
L 295.790427 251.096065 
L 296.618627 250.303281 
L 297.446827 249.500765 
L 298.275028 248.688445 
L 299.103228 247.866247 
L 299.931429 247.034098 
L 300.759629 246.191926 
L 301.587829 245.339656 
L 302.41603 244.477215 
L 303.24423 243.604529 
L 304.07243 242.721523 
L 304.900631 241.828123 
L 305.728831 240.924253 
L 306.557032 240.00984 
L 307.385232 239.084806 
L 308.213432 238.149077 
L 309.041633 237.202576 
L 309.869833 236.245227 
L 310.698033 235.276954 
L 311.526234 234.29768 
L 312.354434 233.307328 
L 313.182635 232.30582 
L 314.010835 231.293079 
L 314.839035 230.269027 
L 315.667236 229.233585 
L 316.495436 228.186676 
L 317.323636 227.128221 
" clip-path="url(#p16c5b687f4)" style="fill: none; stroke: #d62728; stroke-width: 1.5; stroke-linecap: square"/>
   </g>
   <g id="line2d_15">
    <path d="M 276.741818 256.137883 
L 276.741818 266.806718 
" clip-path="url(#p16c5b687f4)" style="fill: none; stroke: #d62728; stroke-width: 1.5; stroke-linecap: square"/>
   </g>
   <g id="line2d_16">
    <path d="M 317.323636 256.137883 
L 317.323636 227.128221 
" clip-path="url(#p16c5b687f4)" style="fill: none; stroke: #d62728; stroke-width: 1.5; stroke-linecap: square"/>
   </g>
   <g id="line2d_17">
    <defs>
     <path id="m826167acea" d="M 0 1.5 
C 0.397805 1.5 0.77937 1.341951 1.06066 1.06066 
C 1.341951 0.77937 1.5 0.397805 1.5 0 
C 1.5 -0.397805 1.341951 -0.77937 1.06066 -1.06066 
C 0.77937 -1.341951 0.397805 -1.5 0 -1.5 
C -0.397805 -1.5 -0.77937 -1.341951 -1.06066 -1.06066 
C -1.341951 -0.77937 -1.5 -0.397805 -1.5 0 
C -1.5 0.397805 -1.341951 0.77937 -1.06066 1.06066 
C -0.77937 1.341951 -0.397805 1.5 0 1.5 
z
" style="stroke: #d62728"/>
    </defs>
    <g clip-path="url(#p16c5b687f4)">
     <use xlink:href="#m826167acea" x="276.741818" y="256.137883" style="fill: #d62728; stroke: #d62728"/>
     <use xlink:href="#m826167acea" x="317.323636" y="256.137883" style="fill: #d62728; stroke: #d62728"/>
    </g>
   </g>
   <g id="line2d_18">
    <path d="M 297.032727 256.137883 
L 297.032727 249.903244 
" clip-path="url(#p16c5b687f4)" style="fill: none; stroke: #000000; stroke-width: 1.5; stroke-linecap: square"/>
   </g>
   <g id="line2d_19">
    <defs>
     <path id="m604e823aef" d="M 0 3 
C 0.795609 3 1.55874 2.683901 2.12132 2.12132 
C 2.683901 1.55874 3 0.795609 3 0 
C 3 -0.795609 2.683901 -1.55874 2.12132 -2.12132 
C 1.55874 -2.683901 0.795609 -3 0 -3 
C -0.795609 -3 -1.55874 -2.683901 -2.12132 -2.12132 
C -2.683901 -1.55874 -3 -0.795609 -3 0 
C -3 0.795609 -2.683901 1.55874 -2.12132 2.12132 
C -1.55874 2.683901 -0.795609 3 0 3 
z
" style="stroke: #000000"/>
    </defs>
    <g clip-path="url(#p16c5b687f4)">
     <use xlink:href="#m604e823aef" x="297.032727" y="256.137883" style="stroke: #000000"/>
    </g>
   </g>
  </g>
 </g>
 <defs>
  <clipPath id="p16c5b687f4">
   <rect x="57.6" y="41.472" width="357.12" height="266.112"/>
  </clipPath>
 </defs>
</svg>
