<?xml version="1.0" encoding="utf-8" standalone="no"?>
<!DOCTYPE svg PUBLIC "-//W3C//DTD SVG 1.1//EN"
  "http://www.w3.org/Graphics/SVG/1.1/DTD/svg11.dtd">
<svg xmlns:xlink="http://www.w3.org/1999/xlink" width="460.8pt" height="345.6pt" viewBox="0 0 460.8 345.6" xmlns="http://www.w3.org/2000/svg" version="1.1">
 <metadata>
  <rdf:RDF xmlns:dc="http://purl.org/dc/elements/1.1/" xmlns:cc="http://creativecommons.org/ns#" xmlns:rdf="http://www.w3.org/1999/02/22-rdf-syntax-ns#">
   <cc:Work>
    <dc:type rdf:resource="http://purl.org/dc/dcmitype/StillImage"/>
    <dc:date>2022-09-22T11:48:10.887947</dc:date>
    <dc:format>image/svg+xml</dc:format>
    <dc:creator>
     <cc:Agent>
      <dc:title>Matplotlib v3.6.0, https://matplotlib.org/</dc:title>
     </cc:Agent>
    </dc:creator>
   </cc:Work>
  </rdf:RDF>
 </metadata>
 <defs>
  <style type="text/css">*{stroke-linejoin: round; stroke-linecap: butt}</style>
 </defs>
 <g id="figure_1">
  <g id="patch_1">
   <path d="M 0 345.6 
L 460.8 345.6 
L 460.8 0 
L 0 0 
z
" style="fill: #ffffff"/>
  </g>
  <g id="axes_1">
   <g id="line2d_1">
    <path d="M 73.832727 256.137883 
L 80.45833 256.137883 
L 87.083933 256.137883 
L 93.709536 256.137883 
L 100.335139 256.137883 
L 106.960742 256.137883 
L 113.586345 256.137883 
L 120.211948 256.137883 
L 126.837551 256.137883 
L 133.463154 256.137883 
L 140.088757 256.137883 
L 146.71436 256.137883 
L 153.339963 256.137883 
L 159.965566 256.137883 
L 166.591169 256.137883 
L 173.216772 256.137883 
L 179.842375 256.137883 
L 186.467978 256.137883 
L 193.093581 256.137883 
L 199.719184 256.137883 
L 206.344787 256.137883 
L 212.97039 256.137883 
L 219.595993 256.137883 
L 226.221596 256.137883 
L 232.847199 256.137883 
L 239.472801 256.137883 
L 246.098404 256.137883 
L 252.724007 256.137883 
L 259.34961 256.137883 
L 265.975213 256.137883 
L 272.600816 256.137883 
L 279.226419 256.137883 
L 285.852022 256.137883 
L 292.477625 256.137883 
L 299.103228 256.137883 
L 305.728831 256.137883 
L 312.354434 256.137883 
L 318.980037 256.137883 
L 325.60564 256.137883 
L 332.231243 256.137883 
L 338.856846 256.137883 
L 345.482449 256.137883 
L 352.108052 256.137883 
L 358.733655 256.137883 
L 365.359258 256.137883 
L 371.984861 256.137883 
L 378.610464 256.137883 
L 385.236067 256.137883 
L 391.86167 256.137883 
L 398.487273 256.137883 
" clip-path="url(#p6fc5a7f794)" style="fill: none; stroke: #bfbfbf; stroke-width: 1.5; stroke-linecap: square"/>
   </g>
   <g id="line2d_2">
    <path d="M 73.832727 288.810444 
L 80.45833 289.410507 
L 87.083933 290.009926 
L 93.709536 290.607051 
L 100.335139 291.199125 
L 106.960742 291.782294 
L 113.586345 292.351598 
L 120.211948 292.900978 
L 126.837551 293.423273 
L 133.463154 293.91022 
L 140.088757 294.352452 
L 146.71436 294.739503 
L 153.339963 295.059805 
L 159.965566 295.300687 
L 166.591169 295.448377 
L 173.216772 295.488 
L 179.842375 295.403581 
L 186.467978 295.178043 
L 193.093581 294.793205 
L 199.719184 294.229787 
L 206.344787 293.467406 
L 212.97039 292.484577 
L 219.595993 291.258713 
L 226.221596 289.766127 
L 232.847199 287.982028 
L 239.472801 285.880524 
L 246.098404 283.434622 
L 252.724007 280.616226 
L 259.34961 277.39614 
L 265.975213 273.744064 
L 272.600816 269.628597 
L 279.226419 265.017237 
L 285.852022 259.87638 
L 292.477625 254.171319 
L 299.103228 247.866247 
L 305.728831 240.924253 
L 312.354434 233.307328 
L 318.980037 224.976356 
L 325.60564 215.891124 
L 332.231243 206.010315 
L 338.856846 195.29151 
L 345.482449 183.691188 
L 352.108052 171.164728 
L 358.733655 157.666406 
L 365.359258 143.149395 
L 371.984861 127.565769 
L 378.610464 110.866499 
L 385.236067 93.001453 
L 391.86167 73.919398 
L 398.487273 53.568 
" clip-path="url(#p6fc5a7f794)" style="fill: none; stroke: #1f77b4; stroke-width: 1.5; stroke-linecap: square"/>
   </g>
   <g id="line2d_3">
    <path d="M 236.16 256.137883 
L 236.16 286.972613 
L 333.427532 256.137883 
" clip-path="url(#p6fc5a7f794)" style="fill: none; stroke: #ff7f0e; stroke-width: 1.5; stroke-linecap: square"/>
    <defs>
     <path id="m16fc85f067" d="M 0 1.5 
C 0.397805 1.5 0.77937 1.341951 1.06066 1.06066 
C 1.341951 0.77937 1.5 0.397805 1.5 0 
C 1.5 -0.397805 1.341951 -0.77937 1.06066 -1.06066 
C 0.77937 -1.341951 0.397805 -1.5 0 -1.5 
C -0.397805 -1.5 -0.77937 -1.341951 -1.06066 -1.06066 
C -1.341951 -0.77937 -1.5 -0.397805 -1.5 0 
C -1.5 0.397805 -1.341951 0.77937 -1.06066 1.06066 
C -0.77937 1.341951 -0.397805 1.5 0 1.5 
z
" style="stroke: #ff7f0e"/>
    </defs>
    <g clip-path="url(#p6fc5a7f794)">
     <use xlink:href="#m16fc85f067" x="236.16" y="256.137883" style="fill: #ff7f0e; stroke: #ff7f0e"/>
     <use xlink:href="#m16fc85f067" x="236.16" y="286.972613" style="fill: #ff7f0e; stroke: #ff7f0e"/>
     <use xlink:href="#m16fc85f067" x="333.427532" y="256.137883" style="fill: #ff7f0e; stroke: #ff7f0e"/>
    </g>
   </g>
   <g id="line2d_4">
    <path d="M 333.427532 256.137883 
L 333.427532 204.13822 
L 300.441306 256.137883 
" clip-path="url(#p6fc5a7f794)" style="fill: none; stroke: #2ca02c; stroke-width: 1.5; stroke-linecap: square"/>
    <defs>
     <path id="m69d4884fb9" d="M 0 1.5 
C 0.397805 1.5 0.77937 1.341951 1.06066 1.06066 
C 1.341951 0.77937 1.5 0.397805 1.5 0 
C 1.5 -0.397805 1.341951 -0.77937 1.06066 -1.06066 
C 0.77937 -1.341951 0.397805 -1.5 0 -1.5 
C -0.397805 -1.5 -0.77937 -1.341951 -1.06066 -1.06066 
C -1.341951 -0.77937 -1.5 -0.397805 -1.5 0 
C -1.5 0.397805 -1.341951 0.77937 -1.06066 1.06066 
C -0.77937 1.341951 -0.397805 1.5 0 1.5 
z
" style="stroke: #2ca02c"/>
    </defs>
    <g clip-path="url(#p6fc5a7f794)">
     <use xlink:href="#m69d4884fb9" x="333.427532" y="256.137883" style="fill: #2ca02c; stroke: #2ca02c"/>
     <use xlink:href="#m69d4884fb9" x="333.427532" y="204.13822" style="fill: #2ca02c; stroke: #2ca02c"/>
     <use xlink:href="#m69d4884fb9" x="300.441306" y="256.137883" style="fill: #2ca02c; stroke: #2ca02c"/>
    </g>
   </g>
   <g id="line2d_5">
    <path d="M 300.441306 256.137883 
L 300.441306 246.51681 
L 290.992874 256.137883 
" clip-path="url(#p6fc5a7f794)" style="fill: none; stroke: #d62728; stroke-width: 1.5; stroke-linecap: square"/>
    <defs>
     <path id="m34e4d2eac6" d="M 0 1.5 
C 0.397805 1.5 0.77937 1.341951 1.06066 1.06066 
C 1.341951 0.77937 1.5 0.397805 1.5 0 
C 1.5 -0.397805 1.341951 -0.77937 1.06066 -1.06066 
C 0.77937 -1.341951 0.397805 -1.5 0 -1.5 
C -0.397805 -1.5 -0.77937 -1.341951 -1.06066 -1.06066 
C -1.341951 -0.77937 -1.5 -0.397805 -1.5 0 
C -1.5 0.397805 -1.341951 0.77937 -1.06066 1.06066 
C -0.77937 1.341951 -0.397805 1.5 0 1.5 
z
" style="stroke: #d62728"/>
    </defs>
    <g clip-path="url(#p6fc5a7f794)">
     <use xlink:href="#m34e4d2eac6" x="300.441306" y="256.137883" style="fill: #d62728; stroke: #d62728"/>
     <use xlink:href="#m34e4d2eac6" x="300.441306" y="246.51681" style="fill: #d62728; stroke: #d62728"/>
     <use xlink:href="#m34e4d2eac6" x="290.992874" y="256.137883" style="fill: #d62728; stroke: #d62728"/>
    </g>
   </g>
   <g id="line2d_6">
    <path d="M 290.992874 256.137883 
L 290.992874 255.500659 
L 290.273071 256.137883 
" clip-path="url(#p6fc5a7f794)" style="fill: none; stroke: #9467bd; stroke-width: 1.5; stroke-linecap: square"/>
    <defs>
     <path id="ma01816e050" d="M 0 1.5 
C 0.397805 1.5 0.77937 1.341951 1.06066 1.06066 
C 1.341951 0.77937 1.5 0.397805 1.5 0 
C 1.5 -0.397805 1.341951 -0.77937 1.06066 -1.06066 
C 0.77937 -1.341951 0.397805 -1.5 0 -1.5 
C -0.397805 -1.5 -0.77937 -1.341951 -1.06066 -1.06066 
C -1.341951 -0.77937 -1.5 -0.397805 -1.5 0 
C -1.5 0.397805 -1.341951 0.77937 -1.06066 1.06066 
C -0.77937 1.341951 -0.397805 1.5 0 1.5 
z
" style="stroke: #9467bd"/>
    </defs>
    <g clip-path="url(#p6fc5a7f794)">
     <use xlink:href="#ma01816e050" x="290.992874" y="256.137883" style="fill: #9467bd; stroke: #9467bd"/>
     <use xlink:href="#ma01816e050" x="290.992874" y="255.500659" style="fill: #9467bd; stroke: #9467bd"/>
     <use xlink:href="#ma01816e050" x="290.273071" y="256.137883" style="fill: #9467bd; stroke: #9467bd"/>
    </g>
   </g>
   <g id="line2d_7">
    <path d="M 290.273071 256.137883 
L 290.273071 256.134398 
L 290.269091 256.137883 
" clip-path="url(#p6fc5a7f794)" style="fill: none; stroke: #8c564b; stroke-width: 1.5; stroke-linecap: square"/>
    <defs>
     <path id="mf7f875b92a" d="M 0 1.5 
C 0.397805 1.5 0.77937 1.341951 1.06066 1.06066 
C 1.341951 0.77937 1.5 0.397805 1.5 0 
C 1.5 -0.397805 1.341951 -0.77937 1.06066 -1.06066 
C 0.77937 -1.341951 0.397805 -1.5 0 -1.5 
C -0.397805 -1.5 -0.77937 -1.341951 -1.06066 -1.06066 
C -1.341951 -0.77937 -1.5 -0.397805 -1.5 0 
C -1.5 0.397805 -1.341951 0.77937 -1.06066 1.06066 
C -0.77937 1.341951 -0.397805 1.5 0 1.5 
z
" style="stroke: #8c564b"/>
    </defs>
    <g clip-path="url(#p6fc5a7f794)">
     <use xlink:href="#mf7f875b92a" x="290.273071" y="256.137883" style="fill: #8c564b; stroke: #8c564b"/>
     <use xlink:href="#mf7f875b92a" x="290.273071" y="256.134398" style="fill: #8c564b; stroke: #8c564b"/>
     <use xlink:href="#mf7f875b92a" x="290.269091" y="256.137883" style="fill: #8c564b; stroke: #8c564b"/>
    </g>
   </g>
   <g id="line2d_8">
    <path d="M 290.269091 256.137883 
L 290.269091 256.137883 
" clip-path="url(#p6fc5a7f794)" style="fill: none; stroke: #000000; stroke-width: 1.5; stroke-linecap: square"/>
   </g>
   <g id="line2d_9">
    <defs>
     <path id="mb2a2ecb9f0" d="M 0 3 
C 0.795609 3 1.55874 2.683901 2.12132 2.12132 
C 2.683901 1.55874 3 0.795609 3 0 
C 3 -0.795609 2.683901 -1.55874 2.12132 -2.12132 
C 1.55874 -2.683901 0.795609 -3 0 -3 
C -0.795609 -3 -1.55874 -2.683901 -2.12132 -2.12132 
C -2.683901 -1.55874 -3 -0.795609 -3 0 
C -3 0.795609 -2.683901 1.55874 -2.12132 2.12132 
C -1.55874 2.683901 -0.795609 3 0 3 
z
" style="stroke: #000000"/>
    </defs>
    <g clip-path="url(#p6fc5a7f794)">
     <use xlink:href="#mb2a2ecb9f0" x="290.269091" y="256.137883" style="stroke: #000000"/>
    </g>
   </g>
  </g>
 </g>
 <defs>
  <clipPath id="p6fc5a7f794">
   <rect x="57.6" y="41.472" width="357.12" height="266.112"/>
  </clipPath>
 </defs>
</svg>
