<?xml version="1.0" encoding="UTF-8" standalone="no"?>
<svg
   xmlns:dc="http://purl.org/dc/elements/1.1/"
   xmlns:cc="http://creativecommons.org/ns#"
   xmlns:rdf="http://www.w3.org/1999/02/22-rdf-syntax-ns#"
   xmlns:svg="http://www.w3.org/2000/svg"
   xmlns="http://www.w3.org/2000/svg"
   viewBox="0 0 246.66667 72"
   height="72"
   width="246.66667"
   xml:space="preserve"
   id="svg2"
   version="1.1"><metadata
     id="metadata8"><rdf:RDF><cc:Work
         rdf:about=""><dc:format>image/svg+xml</dc:format><dc:type
           rdf:resource="http://purl.org/dc/dcmitype/StillImage" /></cc:Work></rdf:RDF></metadata><defs
     id="defs6" /><g
     transform="matrix(1.3333333,0,0,-1.3333333,0,72)"
     id="g10"><g
       transform="scale(0.1)"
       id="g12"><g
         id="g14"><path
           id="path16"
           style="fill:#000000;fill-opacity:1;fill-rule:nonzero;stroke:none"
           d="m 1757.91,415.06 h 4.43 v 4.23 h -7.29 v -12.54 h 2.85 v 8.31 z m -13.36,0 h 4.38 v 4.23 h -7.33 v -12.54 h 2.95 z M 1507.86,531.1 V 195.05 h 176.03 v 101.08 h 30.09 V 195.05 h 4.13 v 110.63 h 54.72 V 195.05 h 3.69 v 101.08 h 30.14 V 195.05 h 40.41 V 531.1 h -339.2 z m 237.38,-56.9 30.15,-18.15 h -60.07 z m -30.16,-21.62 h 60.31 l 3.16,-22.1 h -66.51 z m 84.96,-152.95 h -23.53 v 9.53 h -62.54 v -9.53 h -23.5 v 21.14 h 4.22 v 69.83 h 6.64 v 36.19 h 88.01 V 390.6 h 6.69 v -69.83 h 4 v -21.14 z m -40.07,21.14 h 4.93 v 46.3 h 11.08 v 8.31 h -16.26 l 0.24,-54.61 z m -50.76,62.32 h 72.27 l 3.53,4.62 h -78.87 l 3.08,-4.62 z m 27.95,-62.32 h 4.97 v 46.3 h 11.02 v 8.31 h -16.16 z m -6.07,94.29 h 4.44 v 4.23 h -7.31 v -12.54 h 2.87 z m -16.7,-94.29 h 5.01 v 46.3 h 10.94 v 8.31 h -16.16 l 0.22,-54.61 z m 31.1,-29.58 c -8.5,0 -15.3,-6.85 -15.3,-15.28 0,-8.4 6.81,-15.23 15.3,-15.23 8.36,0 15.24,6.84 15.24,15.23 0,8.43 -6.88,15.28 -15.24,15.28 z m 0,-27.2 c -6.62,0 -11.94,5.34 -11.94,11.91 0,6.59 5.32,11.94 11.94,11.94 6.59,0 11.9,-5.35 11.9,-11.94 0,-6.57 -5.3,-11.91 -11.9,-11.91" /><path
           id="path18"
           style="fill:#000000;fill-opacity:1;fill-rule:nonzero;stroke:none"
           d="m 116.49,56 v 75.36 H 90.8801 V 54.3 c 0,-8.0097 -1.9099,-14.6098 -6.23,-19.0297 -4.4799,-5.1199 -11.6999,-7.7698 -21.4799,-7.7698 -8.7,0 -16.2598,2.6599 -20.71,7.7698 -4.1799,4.6198 -7,11.24 -7,20.2099 V 131.37 H 9.99023 V 53.3701 C 9.99023,38.9602 13.9001,26.8003 22.1501,18.7202 31.05,10.0703 44.49,5.97021 62.6799,5.97021 c 18.8399,0 32.0999,5.05979 41.3601,14.21999 8.35,8.47 12.47,20.8098 12.47,35.8198" /><path
           id="path20"
           style="fill:#000000;fill-opacity:1;fill-rule:evenodd;stroke:none"
           d="M 264.58,7.77002 V 131.35 H 239.02 V 68.3401 c 0,-5.22 0,-13.24 0.41,-19.1399 h -0.41 C 235.66,54.27 232.25,59.23 227.41,65.3901 L 175.571,131.35 h -25.95 V 7.77026 H 175.23 V 75.5103 c 0,5.5698 0,13.0698 -0.439,17.1899 h 0.439 c 3.61,-5.4099 7.09,-10.25 11.82,-16.25 L 240.69,7.77026 h 23.88" /><path
           id="path22"
           style="fill:#000000;fill-opacity:1;fill-rule:nonzero;stroke:none"
           d="m 299.26,7.77002 h 25.7698 v 123.58 H 299.26 Z" /><path
           id="path24"
           style="fill:#000000;fill-opacity:1;fill-rule:nonzero;stroke:none"
           d="M 462.6,131.36 H 436.27 L 408.31,64.9202 c -3.43,-8.25 -6.24,-15.45 -8.25,-22.19 h -0.38 c -2.49,6.98 -5.269,14.8198 -8.49,22.8799 L 366.01,131.35 H 337.851 L 388.581,6.84033 H 407.72 L 462.58,131.35" /><path
           id="path26"
           style="fill:#000000;fill-opacity:1;fill-rule:nonzero;stroke:none"
           d="M 548.73,7.77002 V 28.8499 h -45.85 v 31.5 h 39.41 V 81.5498 H 502.88 V 110.32 h 39.25 l 6.79,21.019 H 477.18 V 7.75952 h 71.55" /><path
           id="path28"
           style="fill:#000000;fill-opacity:1;fill-rule:evenodd;stroke:none"
           d="M 672.22,7.77002 C 653.61,39.2798 641.64,60.1599 635.33,63.72 v 0.2597 c 11.51,5.0298 22.49,15.8999 22.49,31.94 0,19.1003 -11.91,35.4303 -44.93,35.4303 H 576.82 V 7.76978 h 25.75 V 55.5295 h 9.57 C 616.6,53.8296 624.1,39.8796 642.88,7.76978 h 29.33 z M 632.36,93.1499 c 0,-10.6699 -8.1,-18.8298 -18.94,-18.8298 H 602.58 V 109.93 h 10.84 c 12.14,0 18.94,-7.28 18.94,-16.7799" /><path
           id="path30"
           style="fill:#000000;fill-opacity:1;fill-rule:nonzero;stroke:none"
           d="m 762.16,42.6201 c 0,38.7998 -53.18,36.8599 -53.18,58.3399 0,7.15 7.17,11.25 16.35,11.25 10.1,0 19.01,-3.39 29.47,-9.04 l 0.43,22.21 c -7.17,4.07 -18.12,7.48 -31.17,7.48 -27.24,0 -42.08,-16.47 -42.08,-35.2997 0,-9.5398 3.16,-16.5098 7.84,-21.96 15.11,-17.0998 45.11,-19.8698 45.11,-36.2998 0,-9.3298 -10.05,-12.6599 -19.16,-12.6599 -11.27,0 -20.62,4.5 -28.37,9.5598 l -9.95,-18.5998 c 8.92,-5.8298 21.58,-11.6299 39.42,-11.6299 25.37,0 45.29,14.0498 45.29,36.6599" /><path
           id="path32"
           style="fill:#000000;fill-opacity:1;fill-rule:nonzero;stroke:none"
           d="m 783.02,7.77002 h 25.7 v 123.58 h -25.7 z" /><path
           id="path34"
           style="fill:#000000;fill-opacity:1;fill-rule:nonzero;stroke:none"
           d="M 927.89,131.36 H 826.78 v -21.02 h 36.18 V 7.78052 h 25.93 V 110.34 h 33.18 l 5.82,21.02" /><path
           id="path36"
           style="fill:#000000;fill-opacity:1;fill-rule:nonzero;stroke:none"
           d="M 1040.76,131.36 H 1013.9 L 995,96.5002 c -2.85,-5.1999 -6.28,-11.7998 -8.92,-17.4299 h -0.34 c -2.609,5.6299 -6.209,12.5698 -9.109,17.7998 l -18.85,34.4899 h -28.34 l 42.82,-74.6198 V 7.78027 h 25.7 V 56.3601 l 42.779,74.9999" /><path
           id="path38"
           style="fill:#000000;fill-opacity:1;fill-rule:evenodd;stroke:none"
           d="m 1218.73,69.77 c 0,17.2898 -5.27,32.68 -15.57,43.95 -11.12,11.99 -27.98,19.14 -48.36,19.14 -18.95,0 -34.73,-6.91 -45.95,-18.42 -11.42,-11.6 -17.84,-27.94 -17.84,-46.18 0,-19.1399 6.93,-35.8498 19.72,-47.2798 10.96,-9.7597 25.97,-15.00974 44.07,-15.00974 19.46,0 35.2,6.94994 46.59,18.41994 11.29,11.22 17.33,27.5798 17.33,45.3899 z m -27.26,-0.5801 c 0,-27.0498 -15.56,-42.5598 -36.66,-42.5598 -21.35,0 -36.97,15.5098 -36.97,42.5598 0,27.0699 15.63,42.6101 36.97,42.6101 21.42,0 36.66,-15.9301 36.66,-42.6101" /><path
           id="path40"
           style="fill:#000000;fill-opacity:1;fill-rule:nonzero;stroke:none"
           d="m 1314.4,131.36 h -71.89 V 7.78027 h 25.78 V 60.0103 h 39.11 l -0.1,21.0297 h -39.01 v 29.3 h 39.52 l 6.59,21.02" /><path
           id="path42"
           style="fill:#000000;fill-opacity:1;fill-rule:nonzero;stroke:none"
           d="M 1445.8,7.93994 V 29.0898 h -43.42 V 131.12 h -25.44 V 7.9397 h 68.86" /><path
           id="path44"
           style="fill:#000000;fill-opacity:1;fill-rule:nonzero;stroke:none"
           d="M 1534.04,7.93994 V 28.9099 h -45.72 v 31.48 h 39.27 v 21.1299 h -39.27 V 110.22 h 39.1 l 6.82,20.91 h -71.6 V 7.94971 h 71.41" /><path
           id="path46"
           style="fill:#000000;fill-opacity:1;fill-rule:nonzero;stroke:none"
           d="M 1627.61,7.93994 V 28.9099 h -45.65 v 31.48 h 39.3 v 21.1299 h -39.3 V 110.22 h 39.11 l 6.66,20.91 h -71.45 V 7.94971 h 71.34" /><path
           id="path48"
           style="fill:#000000;fill-opacity:1;fill-rule:evenodd;stroke:none"
           d="m 1759.59,70.55 c 0,36.84 -24.73,60.58 -68.7,60.58 h -41.03 V 7.94995 h 38.74 c 42.73,0 70.99,24.72995 70.99,62.60985 z m -27.53,-0.6899 c 0,-21.5598 -11.94,-40.7698 -42.45,-40.7698 h -14.07 V 109.8 h 13.64 c 28.28,0 42.88,-15.6997 42.88,-39.9396" /><path
           id="path50"
           style="fill:#000000;fill-opacity:1;fill-rule:nonzero;stroke:none"
           d="m 1852.5,42.5701 c 0,38.7798 -53.02,36.9099 -53.02,58.1899 0,7.17 7.1,11.27 16.31,11.27 10.07,0 18.87,-3.35 29.39,-8.98 l 0.34,22.11 c -7.1,4.14 -17.97,7.5 -31.13,7.5 -27.12,0 -41.93,-16.49 -41.93,-35.1903 0,-9.5498 3.23,-16.48 7.93,-21.9199 14.97,-17.0498 44.91,-19.8198 44.91,-36.1599 0,-9.3499 -10.14,-12.71 -19.1,-12.71 -11.22,0 -20.58,4.46 -28.25,9.5899 L 1768,17.72 c 8.85,-5.8299 21.53,-11.59988 39.36,-11.59988 25.26,0 45.15,14.01978 45.15,36.45998" /></g></g></g></svg>
