<?xml version="1.0" encoding="UTF-8" standalone="no"?>
<svg
   xmlns:dc="http://purl.org/dc/elements/1.1/"
   xmlns:cc="http://creativecommons.org/ns#"
   xmlns:rdf="http://www.w3.org/1999/02/22-rdf-syntax-ns#"
   xmlns:svg="http://www.w3.org/2000/svg"
   xmlns="http://www.w3.org/2000/svg"
   viewBox="0 0 378.66666 76"
   height="76"
   width="378.66666"
   xml:space="preserve"
   id="svg2"
   version="1.1"><metadata
     id="metadata8"><rdf:RDF><cc:Work
         rdf:about=""><dc:format>image/svg+xml</dc:format><dc:type
           rdf:resource="http://purl.org/dc/dcmitype/StillImage" /></cc:Work></rdf:RDF></metadata><defs
     id="defs6"><clipPath
       id="clipPath20"
       clipPathUnits="userSpaceOnUse"><path
         id="path18"
         d="M 0,566.93 V 0 h 2834.65 v 566.93 z" /></clipPath></defs><g
     transform="matrix(1.3333333,0,0,-1.3333333,0,76)"
     id="g10"><g
       transform="scale(0.1)"
       id="g12"><g
         id="g14"><g
           clip-path="url(#clipPath20)"
           id="g16"><path
             id="path22"
             style="fill:#242424;fill-opacity:1;fill-rule:nonzero;stroke:none"
             d="M 1467.16,3.37109 H 2834.65 V 27.8242 H 1467.16 Z M 1154.28,191.145 V 166.73 h 81.35 V 3.37109 h 28.47 V 166.73 h 81.35 v 24.415 z M 957.137,24.3945 c -34.934,0 -58.309,15.6055 -60.012,46.4571 H 867.316 C 868.32,27.7852 902.559,0 957.137,0 c 46.763,0 77.283,20.6641 77.283,54.8828 0,42.0508 -46.123,50.5392 -75.26,55.9692 -44.07,8.086 -54.242,16.933 -54.242,31.804 0,18.34 15.969,27.473 44.426,27.473 34.219,0 51.516,-12.512 52.526,-38.633 h 29.81 c -1.34,40.352 -31.51,63.043 -82.008,63.043 -46.106,0 -74.563,-18.961 -74.563,-54.226 0,-35.938 29.485,-43.7114 76.59,-53.8755 33.235,-7.1406 52.881,-11.1914 52.881,-31.5547 0,-19.9883 -19.318,-30.4883 -47.443,-30.4883 M 722.762,191.145 V 80.3125 c 0,-33.543 -29.137,-54.2266 -57.614,-54.2266 -28.804,0 -58.304,20.6836 -58.304,54.2266 V 191.145 H 578.387 V 80.6445 c 0,-49.4531 41.004,-78.97262 86.761,-78.97262 45.762,0 86.09,29.51952 86.09,78.97262 V 191.145 Z M 326.918,166.738 h 59.656 c 19.317,0 33.563,-11.16 33.563,-26.758 0,-17.304 -14.246,-29.851 -33.563,-29.851 H 326.918 Z M 457.082,3.39063 406.918,88.125 c 25.766,6.7695 43.051,26.414 43.051,51.855 0,29.825 -26.793,51.172 -63.395,51.172 H 298.477 V 3.39063 h 28.441 V 85.7539 h 51.867 L 425.223,3.39063 Z M 0,191.145 V 166.73 H 81.3477 V 3.37109 H 109.805 V 166.73 h 81.371 v 24.415 z M 2690.97,566.93 V 379.156 h 143.68 v 24.395 h -115.22 v 58.637 h 109.11 v 24.414 h -109.11 v 55.91 h 115.22 v 24.418 z m -172.25,0 -57.6,-79.301 -57.62,79.301 h -24.42 V 379.156 h 28.5 v 140 l 49.83,-68.144 h 7.44 l 49.83,68.144 v -140 h 28.46 V 566.93 Z m -422.36,0 V 379.156 h 144.74 v 24.395 H 2124.85 V 566.93 Z m -176.31,-0.012 V 456.09 c 0,-33.559 -29.15,-54.231 -57.63,-54.231 -28.81,0 -58.3,20.672 -58.3,54.231 v 110.828 h -28.45 V 456.414 c 0,-49.449 41.01,-78.934 86.75,-78.934 45.78,0 86.11,29.485 86.11,78.934 v 110.504 z m -320.69,0.012 v -79.996 h -103.72 v 79.996 h -28.48 V 379.156 h 28.48 v 83.379 h 103.72 v -83.379 h 28.47 V 566.93 Z m -400.33,-24.418 h 59.64 c 19.33,0 33.58,-11.16 33.58,-26.758 0,-17.301 -14.25,-29.813 -33.58,-29.813 h -59.64 z m 130.15,-163.36 -50.17,84.75 c 25.75,6.766 43.05,26.411 43.05,51.852 0,29.828 -26.78,51.172 -63.39,51.172 h -88.12 V 379.152 h 28.48 v 82.371 h 51.83 l 46.46,-82.371 z M 879.012,566.93 V 379.156 h 143.718 v 24.395 H 907.508 v 58.637 h 109.112 v 24.414 H 907.508 v 55.91 h 115.222 v 24.418 z m -150.5,0 L 664.793,411.711 601.074,566.93 H 569.91 l 81,-187.774 h 27.781 l 81.024,187.774 z m -422.582,0 V 379.156 h 143.695 v 24.395 H 334.422 v 58.637 h 109.113 v 24.414 H 334.422 v 55.91 h 115.203 v 24.418 z m -254.2347,0 V 403.551 H 167.941 V 379.156 H 23.2344 V 566.93 h 28.4609" /></g></g></g></g></svg>
